<?xml version="1.0" encoding="UTF-8"?>
<svg id="Layer_1" xmlns="http://www.w3.org/2000/svg" version="1.1" xmlns:xlink="http://www.w3.org/1999/xlink" viewBox="0 0 720 432">
  <!-- Generator: Adobe Illustrator 30.1.0, SVG Export Plug-In . SVG Version: 2.1.1 Build 136)  -->
  <defs>
    <style>
      .st0 {
        stroke: #d62728;
        stroke-width: 2px;
      }

      .st0, .st1, .st2, .st3, .st4 {
        fill: none;
      }

      .st0, .st1, .st4, .st5 {
        stroke-linejoin: round;
      }

      .st0, .st3 {
        stroke-linecap: square;
      }

      .st6 {
        clip-path: url(#clippath-6);
      }

      .st7 {
        clip-path: url(#clippath-7);
      }

      .st8 {
        clip-path: url(#clippath-17);
      }

      .st9 {
        clip-path: url(#clippath-15);
      }

      .st10 {
        clip-path: url(#clippath-18);
      }

      .st11 {
        clip-path: url(#clippath-4);
      }

      .st1 {
        stroke: gray;
        stroke-dasharray: 5.55 2.4;
        stroke-opacity: .7;
        stroke-width: 1.5px;
      }

      .st12 {
        isolation: isolate;
        opacity: .8;
        stroke: #ccc;
      }

      .st12, .st13 {
        fill: #fff;
      }

      .st14 {
        clip-path: url(#clippath-9);
      }

      .st15 {
        clip-path: url(#clippath-10);
      }

      .st16 {
        clip-path: url(#clippath-11);
      }

      .st17 {
        clip-path: url(#clippath-1);
      }

      .st18 {
        clip-path: url(#clippath-5);
      }

      .st19 {
        clip-path: url(#clippath-8);
      }

      .st3, .st4, .st5 {
        stroke-width: .8px;
      }

      .st3, .st5 {
        stroke: #000;
      }

      .st20 {
        clip-path: url(#clippath-3);
      }

      .st21 {
        clip-path: url(#clippath-12);
      }

      .st22 {
        clip-path: url(#clippath-14);
      }

      .st23 {
        clip-path: url(#clippath-19);
      }

      .st4 {
        stroke: #b0b0b0;
        stroke-dasharray: .8 1.32;
        stroke-opacity: .5;
      }

      .st24 {
        clip-path: url(#clippath-16);
      }

      .st25 {
        clip-path: url(#clippath-2);
      }

      .st26 {
        clip-path: url(#clippath-13);
      }

      .st27 {
        clip-path: url(#clippath);
      }
    </style>
    <clipPath id="clippath">
      <rect class="st2" x="90" y="51.84" width="558" height="332.64"/>
    </clipPath>
    <clipPath id="clippath-1">
      <rect class="st2" x="90" y="51.84" width="558" height="332.64"/>
    </clipPath>
    <clipPath id="clippath-2">
      <rect class="st2" x="90" y="51.84" width="558" height="332.64"/>
    </clipPath>
    <clipPath id="clippath-3">
      <rect class="st2" x="90" y="51.84" width="558" height="332.64"/>
    </clipPath>
    <clipPath id="clippath-4">
      <rect class="st2" x="90" y="51.84" width="558" height="332.64"/>
    </clipPath>
    <clipPath id="clippath-5">
      <rect class="st2" x="90" y="51.84" width="558" height="332.64"/>
    </clipPath>
    <clipPath id="clippath-6">
      <rect class="st2" x="90" y="51.84" width="558" height="332.64"/>
    </clipPath>
    <clipPath id="clippath-7">
      <rect class="st2" x="90" y="51.84" width="558" height="332.64"/>
    </clipPath>
    <clipPath id="clippath-8">
      <rect class="st2" x="90" y="51.84" width="558" height="332.64"/>
    </clipPath>
    <clipPath id="clippath-9">
      <rect class="st2" x="90" y="51.84" width="558" height="332.64"/>
    </clipPath>
    <clipPath id="clippath-10">
      <rect class="st2" x="90" y="51.84" width="558" height="332.64"/>
    </clipPath>
    <clipPath id="clippath-11">
      <rect class="st2" x="90" y="51.84" width="558" height="332.64"/>
    </clipPath>
    <clipPath id="clippath-12">
      <rect class="st2" x="90" y="51.84" width="558" height="332.64"/>
    </clipPath>
    <clipPath id="clippath-13">
      <rect class="st2" x="90" y="51.84" width="558" height="332.64"/>
    </clipPath>
    <clipPath id="clippath-14">
      <rect class="st2" x="90" y="51.84" width="558" height="332.64"/>
    </clipPath>
    <clipPath id="clippath-15">
      <rect class="st2" x="90" y="51.84" width="558" height="332.64"/>
    </clipPath>
    <clipPath id="clippath-16">
      <rect class="st2" x="90" y="51.84" width="558" height="332.64"/>
    </clipPath>
    <clipPath id="clippath-17">
      <rect class="st2" x="90" y="51.84" width="558" height="332.64"/>
    </clipPath>
    <clipPath id="clippath-18">
      <rect class="st2" x="90" y="51.84" width="558" height="332.64"/>
    </clipPath>
    <clipPath id="clippath-19">
      <rect class="st2" x="90" y="51.84" width="558" height="332.64"/>
    </clipPath>
  </defs>
  <g id="figure_1">
    <g id="patch_1">
      <path class="st13" d="M0,432h720V0H0v432Z"/>
    </g>
    <g id="axes_1">
      <g id="patch_2">
        <path class="st13" d="M90,384.48h558V51.84H90v332.64Z"/>
      </g>
      <g id="matplotlib.axis_1">
        <g id="xtick_1">
          <g id="line2d_1">
            <g class="st27">
              <path class="st4" d="M115.36,384.48V51.84"/>
            </g>
          </g>
          <g id="line2d_2">
            <path id="mbe107d9ca0" class="st5" d="M115.36,384.48v3.5"/>
          </g>
          <g id="text_1">
            <g>
              <path id="DejaVuSans-31" d="M108.65,398.25h1.61v-5.56l-1.75.35v-.9l1.74-.35h.99v6.46h1.61v.83h-4.2v-.83Z"/>
              <path id="DejaVuSans-2e" d="M114.84,397.84h1.03v1.24h-1.03v-1.24Z"/>
              <path id="DejaVuSans-30" d="M120.13,392.44c-.51,0-.89.25-1.15.75-.26.5-.38,1.25-.38,2.25s.13,1.75.38,2.25c.26.5.64.75,1.15.75s.89-.25,1.15-.75c.26-.5.38-1.25.38-2.25s-.13-1.75-.38-2.25c-.26-.5-.64-.75-1.15-.75ZM120.13,391.66c.82,0,1.44.32,1.87.97.43.65.65,1.58.65,2.81s-.22,2.16-.65,2.81c-.43.65-1.06.97-1.87.97s-1.44-.32-1.87-.97c-.43-.65-.65-1.58-.65-2.81s.22-2.17.65-2.81c.43-.65,1.06-.97,1.87-.97Z"/>
            </g>
          </g>
        </g>
        <g id="xtick_2">
          <g id="line2d_3">
            <g class="st17">
              <path class="st4" d="M178.77,384.48V51.84"/>
            </g>
          </g>
          <g id="line2d_4">
            <path id="mbe107d9ca01" data-name="mbe107d9ca0" class="st5" d="M178.77,384.48v3.5"/>
          </g>
          <g id="text_2">
            <g>
              <path id="DejaVuSans-311" data-name="DejaVuSans-31" d="M172.06,398.25h1.61v-5.56l-1.75.35v-.9l1.74-.35h.99v6.46h1.61v.83h-4.2v-.83Z"/>
              <path id="DejaVuSans-2e1" data-name="DejaVuSans-2e" d="M178.25,397.84h1.03v1.24h-1.03v-1.24Z"/>
              <path id="DejaVuSans-35" d="M181.44,391.79h3.87v.83h-2.97v1.79c.14-.05.29-.09.43-.11.14-.02.29-.04.43-.04.81,0,1.46.22,1.93.67.48.45.71,1.05.71,1.81s-.24,1.39-.73,1.83c-.49.43-1.18.65-2.07.65-.31,0-.62-.03-.94-.08-.32-.05-.64-.13-.98-.23v-.99c.29.16.6.28.91.36s.64.12.99.12c.56,0,1.01-.15,1.34-.44.33-.3.49-.7.49-1.21s-.16-.91-.49-1.2c-.33-.3-.77-.45-1.34-.45-.26,0-.53.03-.79.09-.26.06-.53.15-.8.27v-3.66Z"/>
            </g>
          </g>
        </g>
        <g id="xtick_3">
          <g id="line2d_5">
            <g class="st25">
              <path class="st4" d="M242.18,384.48V51.84"/>
            </g>
          </g>
          <g id="line2d_6">
            <path id="mbe107d9ca02" data-name="mbe107d9ca0" class="st5" d="M242.18,384.48v3.5"/>
          </g>
          <g id="text_3">
            <g>
              <path id="DejaVuSans-32" d="M236.15,398.25h3.44v.83h-4.63v-.83c.37-.39.88-.91,1.53-1.56.65-.65,1.05-1.07,1.22-1.26.32-.35.54-.65.66-.9.13-.25.19-.49.19-.73,0-.39-.14-.7-.41-.95-.27-.24-.63-.37-1.06-.37-.31,0-.64.05-.98.16-.34.11-.71.27-1.1.49v-1c.4-.16.77-.28,1.11-.36.35-.08.66-.12.95-.12.76,0,1.36.19,1.81.57.45.38.67.88.67,1.51,0,.3-.06.58-.17.85-.11.27-.32.58-.61.95-.08.09-.34.37-.78.82-.44.45-1.05,1.08-1.85,1.89Z"/>
              <path id="DejaVuSans-2e2" data-name="DejaVuSans-2e" d="M241.66,397.84h1.03v1.24h-1.03v-1.24Z"/>
              <path id="DejaVuSans-301" data-name="DejaVuSans-30" d="M246.95,392.44c-.51,0-.89.25-1.15.75-.26.5-.38,1.25-.38,2.25s.13,1.75.38,2.25c.26.5.64.75,1.15.75s.89-.25,1.15-.75c.26-.5.38-1.25.38-2.25s-.13-1.75-.38-2.25c-.26-.5-.64-.75-1.15-.75ZM246.95,391.66c.82,0,1.44.32,1.87.97.43.65.65,1.58.65,2.81s-.22,2.16-.65,2.81c-.43.65-1.06.97-1.87.97s-1.44-.32-1.87-.97c-.43-.65-.65-1.58-.65-2.81s.22-2.17.65-2.81c.43-.65,1.06-.97,1.87-.97Z"/>
            </g>
          </g>
        </g>
        <g id="xtick_4">
          <g id="line2d_7">
            <g class="st20">
              <path class="st4" d="M305.59,384.48V51.84"/>
            </g>
          </g>
          <g id="line2d_8">
            <path id="mbe107d9ca03" data-name="mbe107d9ca0" class="st5" d="M305.59,384.48v3.5"/>
          </g>
          <g id="text_4">
            <g>
              <path id="DejaVuSans-321" data-name="DejaVuSans-32" d="M299.56,398.25h3.44v.83h-4.63v-.83c.37-.39.88-.91,1.53-1.56.65-.65,1.05-1.07,1.22-1.26.32-.35.54-.65.66-.9.13-.25.19-.49.19-.73,0-.39-.14-.7-.41-.95-.27-.24-.63-.37-1.06-.37-.31,0-.64.05-.98.16-.34.11-.71.27-1.1.49v-1c.4-.16.77-.28,1.11-.36.35-.08.66-.12.95-.12.76,0,1.36.19,1.81.57.45.38.67.88.67,1.51,0,.3-.06.58-.17.85-.11.27-.32.58-.61.95-.08.09-.34.37-.78.82-.44.45-1.05,1.08-1.85,1.89Z"/>
              <path id="DejaVuSans-2e3" data-name="DejaVuSans-2e" d="M305.07,397.84h1.03v1.24h-1.03v-1.24Z"/>
              <path id="DejaVuSans-351" data-name="DejaVuSans-35" d="M308.26,391.79h3.87v.83h-2.97v1.79c.14-.05.29-.09.43-.11.14-.02.29-.04.43-.04.81,0,1.46.22,1.93.67.48.45.71,1.05.71,1.81s-.24,1.39-.73,1.83c-.49.43-1.18.65-2.07.65-.31,0-.62-.03-.94-.08-.32-.05-.64-.13-.98-.23v-.99c.29.16.6.28.91.36s.64.12.99.12c.56,0,1.01-.15,1.34-.44.33-.3.49-.7.49-1.21s-.16-.91-.49-1.2c-.33-.3-.77-.45-1.34-.45-.26,0-.53.03-.79.09-.26.06-.53.15-.8.27v-3.66Z"/>
            </g>
          </g>
        </g>
        <g id="xtick_5">
          <g id="line2d_9">
            <g class="st11">
              <path class="st4" d="M369,384.48V51.84"/>
            </g>
          </g>
          <g id="line2d_10">
            <path id="mbe107d9ca04" data-name="mbe107d9ca0" class="st5" d="M369,384.48v3.5"/>
          </g>
          <g id="text_5">
            <g>
              <path id="DejaVuSans-33" d="M365.11,395.15c.47.1.84.31,1.1.63.27.32.4.71.4,1.18,0,.72-.25,1.28-.74,1.67-.49.39-1.2.59-2.11.59-.31,0-.62-.03-.94-.09-.32-.06-.66-.15-1-.27v-.95c.27.16.57.28.9.36.33.08.67.12,1.02.12.62,0,1.09-.12,1.41-.37s.49-.6.49-1.06c0-.43-.15-.77-.45-1.01-.3-.24-.72-.36-1.26-.36h-.85v-.81h.89c.48,0,.86-.1,1.11-.29s.39-.47.39-.84-.13-.66-.4-.86c-.26-.2-.64-.3-1.14-.3-.27,0-.56.03-.87.09-.31.06-.65.15-1.02.27v-.88c.38-.1.73-.18,1.05-.23s.64-.08.93-.08c.75,0,1.34.17,1.78.51.44.34.65.8.65,1.38,0,.4-.12.75-.35,1.02s-.56.47-.99.58Z"/>
              <path id="DejaVuSans-2e4" data-name="DejaVuSans-2e" d="M368.48,397.84h1.03v1.24h-1.03v-1.24Z"/>
              <path id="DejaVuSans-302" data-name="DejaVuSans-30" d="M373.77,392.44c-.51,0-.89.25-1.15.75-.26.5-.38,1.25-.38,2.25s.13,1.75.38,2.25c.26.5.64.75,1.15.75s.89-.25,1.15-.75c.26-.5.38-1.25.38-2.25s-.13-1.75-.38-2.25c-.26-.5-.64-.75-1.15-.75ZM373.77,391.66c.82,0,1.44.32,1.87.97.43.65.65,1.58.65,2.81s-.22,2.16-.65,2.81c-.43.65-1.06.97-1.87.97s-1.44-.32-1.87-.97c-.43-.65-.65-1.58-.65-2.81s.22-2.17.65-2.81c.43-.65,1.06-.97,1.87-.97Z"/>
            </g>
          </g>
        </g>
        <g id="xtick_6">
          <g id="line2d_11">
            <g class="st18">
              <path class="st4" d="M432.41,384.48V51.84"/>
            </g>
          </g>
          <g id="line2d_12">
            <path id="mbe107d9ca05" data-name="mbe107d9ca0" class="st5" d="M432.41,384.48v3.5"/>
          </g>
          <g id="text_6">
            <g>
              <path id="DejaVuSans-331" data-name="DejaVuSans-33" d="M428.52,395.15c.47.1.84.31,1.1.63.27.32.4.71.4,1.18,0,.72-.25,1.28-.74,1.67-.49.39-1.2.59-2.11.59-.31,0-.62-.03-.94-.09-.32-.06-.66-.15-1-.27v-.95c.27.16.57.28.9.36.33.08.67.12,1.02.12.62,0,1.09-.12,1.41-.37s.49-.6.49-1.06c0-.43-.15-.77-.45-1.01-.3-.24-.72-.36-1.26-.36h-.85v-.81h.89c.48,0,.86-.1,1.11-.29s.39-.47.39-.84-.13-.66-.4-.86c-.26-.2-.64-.3-1.14-.3-.27,0-.56.03-.87.09-.31.06-.65.15-1.02.27v-.88c.38-.1.73-.18,1.05-.23s.64-.08.93-.08c.75,0,1.34.17,1.78.51.44.34.65.8.65,1.38,0,.4-.12.75-.35,1.02s-.56.47-.99.58Z"/>
              <path id="DejaVuSans-2e5" data-name="DejaVuSans-2e" d="M431.89,397.84h1.03v1.24h-1.03v-1.24Z"/>
              <path id="DejaVuSans-352" data-name="DejaVuSans-35" d="M435.08,391.79h3.87v.83h-2.97v1.79c.14-.05.29-.09.43-.11.14-.02.29-.04.43-.04.81,0,1.46.22,1.93.67.48.45.71,1.05.71,1.81s-.24,1.39-.73,1.83c-.49.43-1.18.65-2.07.65-.31,0-.62-.03-.94-.08-.32-.05-.64-.13-.98-.23v-.99c.29.16.6.28.91.36s.64.12.99.12c.56,0,1.01-.15,1.34-.44.33-.3.49-.7.49-1.21s-.16-.91-.49-1.2c-.33-.3-.77-.45-1.34-.45-.26,0-.53.03-.79.09-.26.06-.53.15-.8.27v-3.66Z"/>
            </g>
          </g>
        </g>
        <g id="xtick_7">
          <g id="line2d_13">
            <g class="st6">
              <path class="st4" d="M495.82,384.48V51.84"/>
            </g>
          </g>
          <g id="line2d_14">
            <path id="mbe107d9ca06" data-name="mbe107d9ca0" class="st5" d="M495.82,384.48v3.5"/>
          </g>
          <g id="text_7">
            <g>
              <path id="DejaVuSans-34" d="M491.65,392.65l-2.49,3.89h2.49v-3.89ZM491.39,391.79h1.24v4.75h1.04v.82h-1.04v1.72h-.98v-1.72h-3.29v-.95l3.03-4.62Z"/>
              <path id="DejaVuSans-2e6" data-name="DejaVuSans-2e" d="M495.3,397.84h1.03v1.24h-1.03v-1.24Z"/>
              <path id="DejaVuSans-303" data-name="DejaVuSans-30" d="M500.59,392.44c-.51,0-.89.25-1.15.75-.26.5-.38,1.25-.38,2.25s.13,1.75.38,2.25c.26.5.64.75,1.15.75s.89-.25,1.15-.75c.26-.5.38-1.25.38-2.25s-.13-1.75-.38-2.25c-.26-.5-.64-.75-1.15-.75ZM500.59,391.66c.82,0,1.44.32,1.87.97.43.65.65,1.58.65,2.81s-.22,2.16-.65,2.81c-.43.65-1.06.97-1.87.97s-1.44-.32-1.87-.97c-.43-.65-.65-1.58-.65-2.81s.22-2.17.65-2.81c.43-.65,1.06-.97,1.87-.97Z"/>
            </g>
          </g>
        </g>
        <g id="xtick_8">
          <g id="line2d_15">
            <g class="st7">
              <path class="st4" d="M559.23,384.48V51.84"/>
            </g>
          </g>
          <g id="line2d_16">
            <path id="mbe107d9ca07" data-name="mbe107d9ca0" class="st5" d="M559.23,384.48v3.5"/>
          </g>
          <g id="text_8">
            <g>
              <path id="DejaVuSans-341" data-name="DejaVuSans-34" d="M555.06,392.65l-2.49,3.89h2.49v-3.89ZM554.8,391.79h1.24v4.75h1.04v.82h-1.04v1.72h-.98v-1.72h-3.29v-.95l3.03-4.62Z"/>
              <path id="DejaVuSans-2e7" data-name="DejaVuSans-2e" d="M558.71,397.84h1.03v1.24h-1.03v-1.24Z"/>
              <path id="DejaVuSans-353" data-name="DejaVuSans-35" d="M561.9,391.79h3.87v.83h-2.97v1.79c.14-.05.29-.09.43-.11.14-.02.29-.04.43-.04.81,0,1.46.22,1.93.67.48.45.71,1.05.71,1.81s-.24,1.39-.73,1.83c-.49.43-1.18.65-2.07.65-.31,0-.62-.03-.94-.08-.32-.05-.64-.13-.98-.23v-.99c.29.16.6.28.91.36s.64.12.99.12c.56,0,1.01-.15,1.34-.44.33-.3.49-.7.49-1.21s-.16-.91-.49-1.2c-.33-.3-.77-.45-1.34-.45-.26,0-.53.03-.79.09-.26.06-.53.15-.8.27v-3.66Z"/>
            </g>
          </g>
        </g>
        <g id="xtick_9">
          <g id="line2d_17">
            <g class="st19">
              <path class="st4" d="M622.64,384.48V51.84"/>
            </g>
          </g>
          <g id="line2d_18">
            <path id="mbe107d9ca08" data-name="mbe107d9ca0" class="st5" d="M622.64,384.48v3.5"/>
          </g>
          <g id="text_9">
            <g>
              <path id="DejaVuSans-354" data-name="DejaVuSans-35" d="M615.76,391.79h3.87v.83h-2.97v1.79c.14-.05.29-.09.43-.11.14-.02.29-.04.43-.04.81,0,1.46.22,1.93.67.48.45.71,1.05.71,1.81s-.24,1.39-.73,1.83c-.49.43-1.18.65-2.07.65-.31,0-.62-.03-.94-.08-.32-.05-.64-.13-.98-.23v-.99c.29.16.6.28.91.36s.64.12.99.12c.56,0,1.01-.15,1.34-.44.33-.3.49-.7.49-1.21s-.16-.91-.49-1.2c-.33-.3-.77-.45-1.34-.45-.26,0-.53.03-.79.09-.26.06-.53.15-.8.27v-3.66Z"/>
              <path id="DejaVuSans-2e8" data-name="DejaVuSans-2e" d="M622.12,397.84h1.03v1.24h-1.03v-1.24Z"/>
              <path id="DejaVuSans-304" data-name="DejaVuSans-30" d="M627.4,392.44c-.51,0-.89.25-1.15.75-.26.5-.38,1.25-.38,2.25s.13,1.75.38,2.25c.26.5.64.75,1.15.75s.89-.25,1.15-.75c.26-.5.38-1.25.38-2.25s-.13-1.75-.38-2.25c-.26-.5-.64-.75-1.15-.75ZM627.4,391.66c.82,0,1.44.32,1.87.97.43.65.65,1.58.65,2.81s-.22,2.16-.65,2.81c-.43.65-1.06.97-1.87.97s-1.44-.32-1.87-.97c-.43-.65-.65-1.58-.65-2.81s.22-2.17.65-2.81c.43-.65,1.06-.97,1.87-.97Z"/>
            </g>
          </g>
        </g>
        <g id="text_10">
          <g>
            <path id="DejaVuSans-4e" d="M308.66,405.47h1.33l3.23,6.1v-6.1h.96v7.29h-1.33l-3.23-6.1v6.1h-.96v-7.29Z"/>
            <path id="DejaVuSans-65" d="M320.78,409.8v.44h-4.13c.04.62.23,1.09.56,1.41.33.32.8.49,1.39.49.34,0,.68-.04,1-.13s.65-.21.97-.38v.85c-.32.14-.65.24-.99.31s-.68.11-1.03.11c-.87,0-1.56-.25-2.07-.76-.51-.51-.76-1.2-.76-2.06s.24-1.6.73-2.13c.48-.53,1.14-.79,1.96-.79.74,0,1.32.24,1.75.71.43.47.64,1.12.64,1.93ZM319.88,409.53c0-.49-.14-.88-.41-1.18-.27-.29-.62-.44-1.07-.44-.5,0-.9.14-1.2.43s-.47.68-.52,1.2h3.2Z"/>
            <path id="DejaVuSans-75" d="M322.16,410.6v-3.31h.9v3.28c0,.52.1.91.3,1.17.2.26.51.39.91.39.48,0,.87-.15,1.15-.46.28-.31.42-.73.42-1.27v-3.1h.9v5.47h-.9v-.84c-.22.33-.47.58-.76.74-.29.16-.62.24-1,.24-.63,0-1.11-.2-1.43-.59-.33-.39-.49-.96-.49-1.71ZM324.42,407.16h0Z"/>
            <path id="DejaVuSans-74" d="M329.48,405.73v1.55h1.85v.7h-1.85v2.97c0,.45.06.73.18.86s.37.19.75.19h.92v.75h-.92c-.69,0-1.17-.13-1.44-.39-.26-.26-.4-.73-.4-1.41v-2.97h-.66v-.7h.66v-1.55h.9Z"/>
            <path id="DejaVuSans-72" d="M335.68,408.13c-.1-.06-.21-.1-.33-.13-.12-.03-.25-.04-.39-.04-.51,0-.9.17-1.17.5s-.41.8-.41,1.42v2.88h-.9v-5.47h.9v.85c.19-.33.44-.58.74-.74.3-.16.67-.24,1.1-.24.06,0,.13,0,.2.01.08,0,.16.02.25.04v.92Z"/>
            <path id="DejaVuSans-69" d="M336.62,407.29h.9v5.47h-.9v-5.47ZM336.62,405.16h.9v1.14h-.9v-1.14Z"/>
            <path id="DejaVuSans-6e" d="M343.95,409.45v3.3h-.9v-3.27c0-.52-.1-.9-.3-1.16-.2-.26-.5-.39-.91-.39-.49,0-.87.15-1.15.46-.28.31-.42.73-.42,1.26v3.09h-.9v-5.47h.9v.85c.22-.33.47-.58.76-.74.29-.16.63-.24,1.01-.24.63,0,1.1.19,1.43.58.32.39.48.96.48,1.72Z"/>
            <path id="DejaVuSans-6f" d="M347.86,407.92c-.48,0-.86.19-1.14.56s-.42.89-.42,1.55.14,1.17.42,1.55c.28.38.66.56,1.15.56s.86-.19,1.14-.57c.28-.38.42-.89.42-1.54s-.14-1.16-.42-1.54c-.28-.38-.66-.57-1.14-.57ZM347.86,407.16c.78,0,1.39.25,1.84.76.45.51.67,1.21.67,2.11s-.22,1.6-.67,2.11c-.45.51-1.06.76-1.84.76s-1.4-.25-1.84-.76c-.44-.51-.67-1.21-.67-2.11s.22-1.6.67-2.11c.44-.51,1.06-.76,1.84-.76Z"/>
            <path id="DejaVuSans-20" d="M350.91,412.76"/>
            <path id="DejaVuSans-45" d="M355.07,405.47h4.61v.83h-3.62v2.16h3.47v.83h-3.47v2.64h3.71v.83h-4.7v-7.29Z"/>
            <path id="DejaVuSans-6e1" data-name="DejaVuSans-6e" d="M365.9,409.45v3.3h-.9v-3.27c0-.52-.1-.9-.3-1.16-.2-.26-.5-.39-.91-.39-.49,0-.87.15-1.15.46-.28.31-.42.73-.42,1.26v3.09h-.9v-5.47h.9v.85c.22-.33.47-.58.76-.74.29-.16.63-.24,1.01-.24.63,0,1.1.19,1.43.58.32.39.48.96.48,1.72Z"/>
            <path id="DejaVuSans-651" data-name="DejaVuSans-65" d="M372.37,409.8v.44h-4.13c.04.62.23,1.09.56,1.41.33.32.8.49,1.39.49.34,0,.68-.04,1-.13s.65-.21.97-.38v.85c-.32.14-.65.24-.99.31s-.68.11-1.03.11c-.87,0-1.56-.25-2.07-.76-.51-.51-.76-1.2-.76-2.06s.24-1.6.73-2.13c.48-.53,1.14-.79,1.96-.79.74,0,1.32.24,1.75.71.43.47.64,1.12.64,1.93ZM371.47,409.53c0-.49-.14-.88-.41-1.18-.27-.29-.62-.44-1.07-.44-.5,0-.9.14-1.2.43s-.47.68-.52,1.2h3.2Z"/>
            <path id="DejaVuSans-721" data-name="DejaVuSans-72" d="M377.01,408.13c-.1-.06-.21-.1-.33-.13-.12-.03-.25-.04-.39-.04-.51,0-.9.17-1.17.5s-.41.8-.41,1.42v2.88h-.9v-5.47h.9v.85c.19-.33.44-.58.74-.74.3-.16.67-.24,1.1-.24.06,0,.13,0,.2.01.08,0,.16.02.25.04v.92Z"/>
            <path id="DejaVuSans-67" d="M381.38,409.96c0-.65-.13-1.16-.4-1.51-.27-.36-.64-.54-1.13-.54s-.86.18-1.13.54c-.27.36-.4.86-.4,1.51s.13,1.15.4,1.51c.27.36.64.54,1.13.54s.86-.18,1.13-.54c.27-.36.4-.86.4-1.51ZM382.28,412.08c0,.93-.21,1.62-.62,2.08-.41.45-1.05.68-1.9.68-.32,0-.61-.02-.89-.07s-.55-.12-.82-.22v-.87c.26.14.52.25.78.32.26.07.52.1.79.1.59,0,1.03-.15,1.32-.46.29-.31.44-.77.44-1.39v-.45c-.19.32-.42.56-.71.72s-.64.24-1.04.24c-.67,0-1.21-.26-1.62-.77-.41-.51-.62-1.19-.62-2.03s.21-1.52.62-2.03c.41-.51.95-.77,1.62-.77.4,0,.75.08,1.04.24s.53.4.71.72v-.83h.9v4.79Z"/>
            <path id="DejaVuSans-79" d="M386.4,413.26c-.25.65-.5,1.08-.74,1.27-.24.2-.56.3-.97.3h-.72v-.75h.53c.25,0,.44-.06.58-.18.14-.12.29-.39.45-.83l.16-.41-2.21-5.38h.95l1.71,4.28,1.71-4.28h.95l-2.4,5.98Z"/>
            <path id="DejaVuSans-201" data-name="DejaVuSans-20" d="M389.1,412.76"/>
            <path id="DejaVuSans-451" data-name="DejaVuSans-45" d="M393.26,405.47h4.61v.83h-3.62v2.16h3.47v.83h-3.47v2.64h3.71v.83h-4.7v-7.29Z"/>
            <path id="DejaVuSans-202" data-name="DejaVuSans-20" d="M398.6,412.76"/>
            <path id="DejaVuSans-28" d="M404.88,405.17c-.44.75-.76,1.49-.97,2.22-.21.73-.32,1.47-.32,2.23s.11,1.5.32,2.23.54,1.48.97,2.23h-.78c-.49-.77-.85-1.52-1.1-2.26-.24-.74-.36-1.47-.36-2.2s.12-1.46.36-2.19c.24-.74.61-1.49,1.1-2.26h.78Z"/>
            <path id="DejaVuSans-47" d="M411.63,411.72v-1.96h-1.61v-.81h2.59v3.13c-.38.27-.8.47-1.26.61-.46.14-.95.21-1.47.21-1.14,0-2.03-.33-2.68-1-.64-.67-.96-1.59-.96-2.78s.32-2.12.96-2.79c.64-.67,1.54-1,2.68-1,.48,0,.93.06,1.35.18.43.12.82.29,1.18.52v1.05c-.36-.31-.75-.54-1.16-.7s-.84-.23-1.29-.23c-.89,0-1.56.25-2.01.75-.45.5-.67,1.24-.67,2.23s.22,1.72.67,2.22c.45.5,1.12.75,2.01.75.35,0,.66-.03.93-.09.27-.06.52-.15.74-.28Z"/>
            <path id="DejaVuSans-652" data-name="DejaVuSans-65" d="M419.05,409.8v.44h-4.13c.04.62.23,1.09.56,1.41.33.32.8.49,1.39.49.34,0,.68-.04,1-.13s.65-.21.97-.38v.85c-.32.14-.65.24-.99.31s-.68.11-1.03.11c-.87,0-1.56-.25-2.07-.76-.51-.51-.76-1.2-.76-2.06s.24-1.6.73-2.13c.48-.53,1.14-.79,1.96-.79.74,0,1.32.24,1.75.71.43.47.64,1.12.64,1.93ZM418.15,409.53c0-.49-.14-.88-.41-1.18-.27-.29-.62-.44-1.07-.44-.5,0-.9.14-1.2.43s-.47.68-.52,1.2h3.2Z"/>
            <path id="DejaVuSans-56" d="M422.44,412.76l-2.78-7.29h1.03l2.31,6.14,2.31-6.14h1.03l-2.78,7.29h-1.12Z"/>
            <path id="DejaVuSans-29" d="M427.22,405.17h.78c.49.77.85,1.52,1.1,2.26.24.74.36,1.47.36,2.19s-.12,1.46-.36,2.2c-.24.74-.61,1.49-1.1,2.26h-.78c.43-.75.76-1.49.97-2.23.21-.74.32-1.48.32-2.23s-.11-1.49-.32-2.23c-.21-.73-.54-1.47-.97-2.22Z"/>
          </g>
        </g>
      </g>
      <g id="matplotlib.axis_2">
        <g id="ytick_1">
          <g id="line2d_19">
            <g class="st14">
              <path class="st4" d="M90,381.96h558"/>
            </g>
          </g>
          <g id="line2d_20">
            <path id="mf563523bca" class="st5" d="M90,381.96h-3.5"/>
          </g>
          <g id="text_11">
            <path id="DejaVuSans-305" data-name="DejaVuSans-30" d="M79.82,379.12c-.51,0-.89.25-1.15.75-.26.5-.38,1.25-.38,2.25s.13,1.75.38,2.25c.26.5.64.75,1.15.75s.89-.25,1.15-.75c.26-.5.38-1.25.38-2.25s-.13-1.75-.38-2.25c-.26-.5-.64-.75-1.15-.75ZM79.82,378.34c.82,0,1.44.32,1.87.97.43.65.65,1.58.65,2.81s-.22,2.16-.65,2.81c-.43.65-1.06.97-1.87.97s-1.44-.32-1.87-.97c-.43-.65-.65-1.58-.65-2.81s.22-2.17.65-2.81c.43-.65,1.06-.97,1.87-.97Z"/>
          </g>
        </g>
        <g id="ytick_2">
          <g id="line2d_21">
            <g class="st15">
              <path class="st4" d="M90,344.59h558"/>
            </g>
          </g>
          <g id="line2d_22">
            <path id="mf563523bca1" data-name="mf563523bca" class="st5" d="M90,344.59h-3.5"/>
          </g>
          <g id="text_12">
            <path id="DejaVuSans-312" data-name="DejaVuSans-31" d="M77.88,347.56h1.61v-5.56l-1.75.35v-.9l1.74-.35h.99v6.46h1.61v.83h-4.2v-.83Z"/>
          </g>
        </g>
        <g id="ytick_3">
          <g id="line2d_23">
            <g class="st16">
              <path class="st4" d="M90,307.22h558"/>
            </g>
          </g>
          <g id="line2d_24">
            <path id="mf563523bca2" data-name="mf563523bca" class="st5" d="M90,307.22h-3.5"/>
          </g>
          <g id="text_13">
            <path id="DejaVuSans-322" data-name="DejaVuSans-32" d="M78.56,310.19h3.44v.83h-4.63v-.83c.37-.39.88-.91,1.53-1.56.65-.65,1.05-1.07,1.22-1.26.32-.35.54-.65.66-.9.13-.25.19-.49.19-.73,0-.39-.14-.7-.41-.95-.27-.24-.63-.37-1.06-.37-.31,0-.64.05-.98.16-.34.11-.71.27-1.1.49v-1c.4-.16.77-.28,1.11-.36.35-.08.66-.12.95-.12.76,0,1.36.19,1.81.57.45.38.67.88.67,1.51,0,.3-.06.58-.17.85-.11.27-.32.58-.61.95-.08.09-.34.37-.78.82-.44.45-1.05,1.08-1.85,1.89Z"/>
          </g>
        </g>
        <g id="ytick_4">
          <g id="line2d_25">
            <g class="st21">
              <path class="st4" d="M90,269.85h558"/>
            </g>
          </g>
          <g id="line2d_26">
            <path id="mf563523bca3" data-name="mf563523bca" class="st5" d="M90,269.85h-3.5"/>
          </g>
          <g id="text_14">
            <path id="DejaVuSans-332" data-name="DejaVuSans-33" d="M80.7,269.72c.47.1.84.31,1.1.63.27.32.4.71.4,1.18,0,.72-.25,1.28-.74,1.67-.49.39-1.2.59-2.11.59-.31,0-.62-.03-.94-.09-.32-.06-.66-.15-1-.27v-.95c.27.16.57.28.9.36.33.08.67.12,1.02.12.62,0,1.09-.12,1.41-.37s.49-.6.49-1.06c0-.43-.15-.77-.45-1.01-.3-.24-.72-.36-1.26-.36h-.85v-.81h.89c.48,0,.86-.1,1.11-.29s.39-.47.39-.84-.13-.66-.4-.86c-.26-.2-.64-.3-1.14-.3-.27,0-.56.03-.87.09-.31.06-.65.15-1.02.27v-.88c.38-.1.73-.18,1.05-.23s.64-.08.93-.08c.75,0,1.34.17,1.78.51.44.34.65.8.65,1.38,0,.4-.12.75-.35,1.02s-.56.47-.99.58Z"/>
          </g>
        </g>
        <g id="ytick_5">
          <g id="line2d_27">
            <g class="st26">
              <path class="st4" d="M90,232.48h558"/>
            </g>
          </g>
          <g id="line2d_28">
            <path id="mf563523bca4" data-name="mf563523bca" class="st5" d="M90,232.48h-3.5"/>
          </g>
          <g id="text_15">
            <path id="DejaVuSans-342" data-name="DejaVuSans-34" d="M80.42,229.85l-2.49,3.89h2.49v-3.89ZM80.16,228.99h1.24v4.75h1.04v.82h-1.04v1.72h-.98v-1.72h-3.29v-.95l3.03-4.62Z"/>
          </g>
        </g>
        <g id="ytick_6">
          <g id="line2d_29">
            <g class="st22">
              <path class="st4" d="M90,195.11h558"/>
            </g>
          </g>
          <g id="line2d_30">
            <path id="mf563523bca5" data-name="mf563523bca" class="st5" d="M90,195.11h-3.5"/>
          </g>
          <g id="text_16">
            <path id="DejaVuSans-355" data-name="DejaVuSans-35" d="M77.72,191.62h3.87v.83h-2.97v1.79c.14-.05.29-.09.43-.11.14-.02.29-.04.43-.04.81,0,1.46.22,1.93.67.48.45.71,1.05.71,1.81s-.24,1.39-.73,1.83c-.49.43-1.18.65-2.07.65-.31,0-.62-.03-.94-.08-.32-.05-.64-.13-.98-.23v-.99c.29.16.6.28.91.36s.64.12.99.12c.56,0,1.01-.15,1.34-.44.33-.3.49-.7.49-1.21s-.16-.91-.49-1.2c-.33-.3-.77-.45-1.34-.45-.26,0-.53.03-.79.09-.26.06-.53.15-.8.27v-3.66Z"/>
          </g>
        </g>
        <g id="ytick_7">
          <g id="line2d_31">
            <g class="st9">
              <path class="st4" d="M90,157.74h558"/>
            </g>
          </g>
          <g id="line2d_32">
            <path id="mf563523bca6" data-name="mf563523bca" class="st5" d="M90,157.74h-3.5"/>
          </g>
          <g id="text_17">
            <path id="DejaVuSans-36" d="M79.94,157.5c-.44,0-.79.15-1.05.45-.26.3-.39.72-.39,1.24s.13.94.39,1.24c.26.3.61.46,1.05.46s.79-.15,1.05-.46c.26-.31.39-.72.39-1.24s-.13-.94-.39-1.24c-.26-.3-.61-.45-1.05-.45ZM81.9,154.41v.9c-.25-.12-.5-.21-.75-.27-.25-.06-.5-.09-.75-.09-.65,0-1.15.22-1.49.66-.34.44-.54,1.1-.59,1.99.19-.28.43-.5.72-.65.29-.15.61-.23.96-.23.73,0,1.31.22,1.74.67.43.44.64,1.05.64,1.81s-.22,1.35-.66,1.8c-.44.45-1.03.68-1.77.68-.84,0-1.49-.32-1.93-.97-.45-.65-.67-1.58-.67-2.81,0-1.15.27-2.07.82-2.76.55-.69,1.28-1.03,2.2-1.03.25,0,.5.02.75.07s.52.12.79.22Z"/>
          </g>
        </g>
        <g id="ytick_8">
          <g id="line2d_33">
            <g class="st24">
              <path class="st4" d="M90,120.37h558"/>
            </g>
          </g>
          <g id="line2d_34">
            <path id="mf563523bca7" data-name="mf563523bca" class="st5" d="M90,120.37h-3.5"/>
          </g>
          <g id="text_18">
            <path id="DejaVuSans-37" d="M77.46,116.88h4.69v.42l-2.65,6.87h-1.03l2.49-6.46h-3.5v-.83Z"/>
          </g>
        </g>
        <g id="ytick_9">
          <g id="line2d_35">
            <g class="st8">
              <path class="st4" d="M90,83h558"/>
            </g>
          </g>
          <g id="line2d_36">
            <path id="mf563523bca8" data-name="mf563523bca" class="st5" d="M90,83h-3.5"/>
          </g>
          <g id="text_19">
            <path id="DejaVuSans-38" d="M79.82,83.34c-.47,0-.84.13-1.11.38-.27.25-.4.6-.4,1.03s.13.78.4,1.04c.27.25.64.38,1.11.38s.84-.13,1.11-.38c.27-.25.41-.6.41-1.03s-.13-.78-.4-1.03c-.27-.25-.64-.38-1.11-.38ZM78.83,82.92c-.42-.1-.75-.3-.99-.59-.24-.29-.35-.64-.35-1.06,0-.58.21-1.04.62-1.38.42-.34.98-.51,1.71-.51s1.3.17,1.71.51.62.8.62,1.38c0,.42-.12.77-.35,1.06-.24.29-.56.49-.98.59.48.11.84.33,1.11.65.27.32.4.72.4,1.18,0,.71-.22,1.25-.65,1.63-.43.38-1.05.57-1.85.57s-1.42-.19-1.85-.57c-.43-.38-.65-.92-.65-1.63,0-.46.13-.86.4-1.18.27-.32.64-.54,1.11-.65ZM78.47,81.36c0,.38.12.67.35.88.24.21.57.32.99.32s.76-.11.99-.32c.24-.21.36-.51.36-.88s-.12-.67-.36-.88c-.24-.21-.57-.32-.99-.32s-.76.11-.99.32c-.24.21-.35.51-.35.88Z"/>
          </g>
        </g>
        <g id="text_20">
          <g>
            <path id="DejaVuSans-41" d="M63.22,297.89l3.63,1.34v-2.68l-3.63,1.34ZM62.25,298.45v-1.12l7.29-2.78v1.03l-1.87.66v3.29l1.87.66v1.04l-7.29-2.78Z"/>
            <path id="DejaVuSans-70" d="M68.72,292.66h2.9v.9h-7.55v-.9h.83c-.33-.19-.57-.43-.72-.72-.16-.29-.24-.63-.24-1.03,0-.66.26-1.2.79-1.62.53-.42,1.22-.62,2.08-.62s1.55.21,2.08.62c.53.41.79.95.79,1.62,0,.4-.08.74-.24,1.03-.16.29-.4.53-.73.72ZM66.81,289.6c-.66,0-1.18.14-1.55.41s-.56.65-.56,1.12.19.85.56,1.12.89.41,1.55.41,1.18-.14,1.55-.41c.38-.27.56-.65.56-1.12s-.19-.85-.56-1.12c-.38-.27-.89-.41-1.55-.41Z"/>
            <path id="DejaVuSans-701" data-name="DejaVuSans-70" d="M68.72,286.31h2.9v.9h-7.55v-.9h.83c-.33-.19-.57-.43-.72-.72-.16-.29-.24-.63-.24-1.03,0-.66.26-1.2.79-1.62.53-.42,1.22-.62,2.08-.62s1.55.21,2.08.62c.53.41.79.95.79,1.62,0,.4-.08.74-.24,1.03-.16.29-.4.53-.73.72ZM66.81,283.25c-.66,0-1.18.14-1.55.41s-.56.65-.56,1.12.19.85.56,1.12.89.41,1.55.41,1.18-.14,1.55-.41c.38-.27.56-.65.56-1.12s-.19-.85-.56-1.12c-.38-.27-.89-.41-1.55-.41Z"/>
            <path id="DejaVuSans-653" data-name="DejaVuSans-65" d="M66.58,276.15h.44v4.13c.62-.04,1.09-.23,1.41-.56.32-.33.49-.8.49-1.39,0-.34-.04-.68-.13-1s-.21-.65-.38-.97h.85c.14.32.24.65.31.99s.11.68.11,1.03c0,.87-.25,1.56-.76,2.07-.51.51-1.2.76-2.06.76s-1.6-.24-2.13-.73c-.53-.48-.79-1.14-.79-1.96,0-.74.24-1.32.71-1.75.47-.43,1.12-.64,1.93-.64ZM66.31,277.05c-.49,0-.88.14-1.18.41-.29.27-.44.62-.44,1.07,0,.5.14.9.43,1.2s.68.47,1.2.52v-3.2Z"/>
            <path id="DejaVuSans-61" d="M66.79,272.19c0,.73.08,1.23.25,1.51s.45.42.85.42c.32,0,.57-.11.76-.32.19-.21.28-.5.28-.86,0-.5-.18-.9-.53-1.2s-.82-.45-1.41-.45h-.2v.89ZM66.42,270.4h3.12v.9h-.83c.33.21.58.46.73.77.16.31.24.68.24,1.12,0,.56-.16,1-.47,1.34-.31.33-.74.5-1.26.5-.61,0-1.08-.21-1.39-.62-.31-.41-.47-1.03-.47-1.84v-1.26h-.09c-.41,0-.73.14-.96.41s-.34.65-.34,1.15c0,.31.04.62.11.91.08.3.19.58.34.85h-.83c-.13-.33-.22-.65-.28-.96-.06-.31-.1-.61-.1-.9,0-.79.21-1.38.62-1.77.41-.39,1.03-.59,1.86-.59Z"/>
            <path id="DejaVuSans-722" data-name="DejaVuSans-72" d="M64.91,265.38c-.06.1-.1.21-.13.33-.03.12-.04.25-.04.39,0,.51.17.9.5,1.17s.8.41,1.42.41h2.88v.9h-5.47v-.9h.85c-.33-.19-.58-.44-.74-.74-.16-.3-.24-.67-.24-1.1,0-.06,0-.13.01-.2,0-.08.02-.16.04-.25h.92Z"/>
            <path id="DejaVuSans-611" data-name="DejaVuSans-61" d="M66.79,261.95c0,.73.08,1.23.25,1.51s.45.42.85.42c.32,0,.57-.11.76-.32.19-.21.28-.5.28-.86,0-.5-.18-.9-.53-1.2s-.82-.45-1.41-.45h-.2v.89ZM66.42,260.16h3.12v.9h-.83c.33.21.58.46.73.77.16.31.24.68.24,1.12,0,.56-.16,1-.47,1.34-.31.33-.74.5-1.26.5-.61,0-1.08-.21-1.39-.62-.31-.41-.47-1.03-.47-1.84v-1.26h-.09c-.41,0-.73.14-.96.41s-.34.65-.34,1.15c0,.31.04.62.11.91.08.3.19.58.34.85h-.83c-.13-.33-.22-.65-.28-.96-.06-.31-.1-.61-.1-.9,0-.79.21-1.38.62-1.77.41-.39,1.03-.59,1.86-.59Z"/>
            <path id="DejaVuSans-6e2" data-name="DejaVuSans-6e" d="M66.23,253.77h3.3v.9h-3.27c-.52,0-.9.1-1.16.3-.26.2-.39.5-.39.91,0,.49.15.87.46,1.15.31.28.73.42,1.26.42h3.09v.9h-5.47v-.9h.85c-.33-.22-.58-.47-.74-.76-.16-.29-.24-.63-.24-1.01,0-.63.19-1.1.58-1.43.39-.32.96-.48,1.72-.48Z"/>
            <path id="DejaVuSans-63" d="M64.28,248.04h.84c-.14.25-.25.51-.32.76s-.1.51-.1.77c0,.58.18,1.04.55,1.36.37.32.89.48,1.55.48s1.19-.16,1.56-.48c.37-.32.55-.78.55-1.36,0-.26-.03-.52-.1-.77s-.18-.51-.32-.76h.83c.12.25.2.51.26.78.06.27.09.55.09.86,0,.82-.26,1.48-.78,1.96-.52.48-1.22.73-2.1.73s-1.59-.24-2.1-.73c-.51-.49-.77-1.16-.77-2.02,0-.28.03-.55.09-.81.06-.26.14-.52.25-.77Z"/>
            <path id="DejaVuSans-654" data-name="DejaVuSans-65" d="M66.58,241.8h.44v4.13c.62-.04,1.09-.23,1.41-.56.32-.33.49-.8.49-1.39,0-.34-.04-.68-.13-1s-.21-.65-.38-.97h.85c.14.32.24.65.31.99s.11.68.11,1.03c0,.87-.25,1.56-.76,2.07-.51.51-1.2.76-2.06.76s-1.6-.24-2.13-.73c-.53-.48-.79-1.14-.79-1.96,0-.74.24-1.32.71-1.75.47-.43,1.12-.64,1.93-.64ZM66.31,242.7c-.49,0-.88.14-1.18.41-.29.27-.44.62-.44,1.07,0,.5.14.9.43,1.2s.68.47,1.2.52v-3.2Z"/>
            <path id="DejaVuSans-203" data-name="DejaVuSans-20" d="M69.54,241.27"/>
            <path id="DejaVuSans-50" d="M63.06,236.12h2.74v-1.24c0-.46-.12-.81-.36-1.06-.24-.25-.58-.38-1.02-.38s-.77.13-1.01.38c-.24.25-.36.6-.36,1.06v1.24ZM62.25,237.11v-2.23c0-.82.18-1.44.55-1.85.37-.42.91-.63,1.62-.63s1.26.21,1.63.63c.37.42.55,1.04.55,1.85v1.24h2.93v.99h-7.29Z"/>
            <path id="DejaVuSans-723" data-name="DejaVuSans-72" d="M64.91,227.95c-.06.1-.1.21-.13.33-.03.12-.04.25-.04.39,0,.51.17.9.5,1.17s.8.41,1.42.41h2.88v.9h-5.47v-.9h.85c-.33-.19-.58-.44-.74-.74-.16-.3-.24-.67-.24-1.1,0-.06,0-.13.01-.2,0-.08.02-.16.04-.25h.92Z"/>
            <path id="DejaVuSans-6f1" data-name="DejaVuSans-6f" d="M64.7,224.88c0,.48.19.86.56,1.14s.89.42,1.55.42,1.17-.14,1.55-.42c.38-.28.56-.66.56-1.15s-.19-.86-.57-1.14c-.38-.28-.89-.42-1.54-.42s-1.16.14-1.54.42c-.38.28-.57.66-.57,1.14ZM63.94,224.88c0-.78.25-1.39.76-1.84.51-.45,1.21-.67,2.11-.67s1.6.22,2.11.67c.51.45.76,1.06.76,1.84s-.25,1.4-.76,1.84c-.51.44-1.21.67-2.11.67s-1.6-.22-2.11-.67c-.51-.44-.76-1.06-.76-1.84Z"/>
            <path id="DejaVuSans-62" d="M66.81,216.96c-.66,0-1.18.14-1.55.41s-.56.65-.56,1.12.19.85.56,1.12.89.41,1.55.41,1.18-.14,1.55-.41c.38-.27.56-.65.56-1.12s-.19-.85-.56-1.12c-.38-.27-.89-.41-1.55-.41ZM64.9,220.02c-.33-.19-.57-.43-.72-.72-.16-.29-.24-.63-.24-1.03,0-.66.26-1.2.79-1.62.53-.42,1.22-.62,2.08-.62s1.55.21,2.08.62c.53.41.79.95.79,1.62,0,.4-.08.74-.24,1.03-.16.29-.4.53-.73.72h.82v.9h-7.6v-.9h2.96Z"/>
            <path id="DejaVuSans-612" data-name="DejaVuSans-61" d="M66.79,212.05c0,.73.08,1.23.25,1.51s.45.42.85.42c.32,0,.57-.11.76-.32.19-.21.28-.5.28-.86,0-.5-.18-.9-.53-1.2s-.82-.45-1.41-.45h-.2v.89ZM66.42,210.26h3.12v.9h-.83c.33.21.58.46.73.77.16.31.24.68.24,1.12,0,.56-.16,1-.47,1.34-.31.33-.74.5-1.26.5-.61,0-1.08-.21-1.39-.62-.31-.41-.47-1.03-.47-1.84v-1.26h-.09c-.41,0-.73.14-.96.41s-.34.65-.34,1.15c0,.31.04.62.11.91.08.3.19.58.34.85h-.83c-.13-.33-.22-.65-.28-.96-.06-.31-.1-.61-.1-.9,0-.79.21-1.38.62-1.77.41-.39,1.03-.59,1.86-.59Z"/>
            <path id="DejaVuSans-621" data-name="DejaVuSans-62" d="M66.81,204.48c-.66,0-1.18.14-1.55.41s-.56.65-.56,1.12.19.85.56,1.12.89.41,1.55.41,1.18-.14,1.55-.41c.38-.27.56-.65.56-1.12s-.19-.85-.56-1.12c-.38-.27-.89-.41-1.55-.41ZM64.9,207.54c-.33-.19-.57-.43-.72-.72-.16-.29-.24-.63-.24-1.03,0-.66.26-1.2.79-1.62.53-.42,1.22-.62,2.08-.62s1.55.21,2.08.62c.53.41.79.95.79,1.62,0,.4-.08.74-.24,1.03-.16.29-.4.53-.73.72h.82v.9h-7.6v-.9h2.96Z"/>
            <path id="DejaVuSans-691" data-name="DejaVuSans-69" d="M64.07,202.06v-.9h5.47v.9h-5.47ZM61.94,202.06v-.9h1.14v.9h-1.14Z"/>
            <path id="DejaVuSans-6c" d="M61.94,199.28v-.9h7.6v.9h-7.6Z"/>
            <path id="DejaVuSans-692" data-name="DejaVuSans-69" d="M64.07,196.51v-.9h5.47v.9h-5.47ZM61.94,196.51v-.9h1.14v.9h-1.14Z"/>
            <path id="DejaVuSans-741" data-name="DejaVuSans-74" d="M62.51,192.84h1.55v-1.85h.7v1.85h2.97c.45,0,.73-.06.86-.18s.19-.37.19-.75v-.92h.75v.92c0,.69-.13,1.17-.39,1.44-.26.26-.73.4-1.41.4h-2.97v.66h-.7v-.66h-1.55v-.9Z"/>
            <path id="DejaVuSans-791" data-name="DejaVuSans-79" d="M70.04,187.53c.65.25,1.08.5,1.27.74.2.24.3.56.3.97v.72h-.75v-.53c0-.25-.06-.44-.18-.58-.12-.14-.39-.29-.83-.45l-.41-.16-5.38,2.21v-.95l4.28-1.71-4.28-1.71v-.95l5.98,2.4Z"/>
            <path id="DejaVuSans-204" data-name="DejaVuSans-20" d="M69.54,184.83"/>
            <path id="DejaVuSans-Oblique-50" d="M62.25,179.96v-2.28c0-.66.15-1.17.46-1.52.31-.35.76-.52,1.36-.52.8,0,1.42.26,1.87.77.45.51.67,1.24.67,2.17v1.24l2.93.57v.99l-7.29-1.42ZM63.06,179.13l2.74.53v-1.24c0-.56-.14-.99-.43-1.29-.29-.3-.7-.45-1.23-.45-.34,0-.61.1-.8.3-.19.2-.28.49-.28.86v1.29Z"/>
            <path id="DejaVuSans-281" data-name="DejaVuSans-28" d="M61.95,172.52c.75.44,1.49.76,2.22.97.73.21,1.47.32,2.23.32s1.5-.11,2.23-.32,1.48-.54,2.23-.97v.78c-.77.49-1.52.85-2.26,1.1-.74.24-1.47.36-2.2.36s-1.46-.12-2.19-.36c-.74-.24-1.49-.61-2.26-1.1v-.78Z"/>
            <path id="DejaVuSans-Oblique-3bd" d="M69.54,170.22l-5.47.6v-.97l4.59-.52c-.4-.47-.88-.92-1.45-1.36-.42-.33-.81-.53-1.18-.62-.17-.04-.42-.05-.75-.03-.39.02-.79.15-1.22.41v-.91h0c.29-.17.64-.29,1.04-.36.37-.07.68-.07.94-.03.64.12,1.24.46,1.81,1.02.74.72,1.3,1.32,1.68,1.79v.96Z"/>
            <path id="DejaVuSans-Oblique-3bc" d="M72.63,166.23l-5.28-1.03v-.63l2.38.46s.1.02.16.02c.06,0,.12,0,.18,0,.21,0,.38-.07.49-.2.11-.13.17-.32.17-.57,0-.34-.1-.61-.29-.82-.19-.21-.48-.35-.86-.42l-2.23-.43v-.63l2.94.57s.08.02.11.02c.03,0,.06,0,.09,0,.07,0,.12-.01.16-.04s.05-.07.05-.13c0-.02,0-.05-.02-.09-.01-.04-.03-.1-.06-.17l.51.1c.05.1.09.2.11.29s.04.18.04.27c0,.15-.05.27-.14.35-.1.09-.23.13-.4.13.18.13.32.28.41.46.09.18.13.38.13.62,0,.21-.05.4-.15.56-.1.16-.23.26-.39.31l1.89.37v.63Z"/>
            <path id="DejaVuSans-2192" d="M66.18,151.57h.44l1.92,1.92-.59.59-1.14-1.14v5.95h-.83v-5.95l-1.14,1.14-.59-.59,1.92-1.92Z"/>
            <path id="DejaVuSans-Oblique-3bd1" data-name="DejaVuSans-Oblique-3bd" d="M69.54,147.63l-5.47.6v-.97l4.59-.52c-.4-.47-.88-.92-1.45-1.36-.42-.33-.81-.53-1.18-.62-.17-.04-.42-.05-.75-.03-.39.02-.79.15-1.22.41v-.91h0c.29-.17.64-.29,1.04-.36.37-.07.68-.07.94-.03.64.12,1.24.46,1.81,1.02.74.72,1.3,1.32,1.68,1.79v.96Z"/>
            <path id="DejaVuSans-Oblique-65" d="M68.92,140.18s-.07-.01-.11-.02c-.04,0-.08,0-.12,0-.28,0-.5.08-.66.25-.16.16-.24.38-.24.66,0,.31.1.59.3.83.2.24.48.42.84.54v-2.26ZM69.41,139.63v2.93c.09.01.16.02.21.03s.09,0,.13,0c.32,0,.56-.1.74-.29.17-.19.26-.47.26-.83,0-.27-.03-.53-.09-.78-.06-.24-.15-.47-.27-.68l.62.12c.09.23.16.46.2.7.05.24.07.48.07.73,0,.53-.13.94-.38,1.23-.25.29-.62.43-1.08.43-.4,0-.77-.07-1.11-.21-.34-.14-.65-.35-.92-.63-.17-.18-.3-.39-.39-.63s-.14-.51-.14-.78c0-.43.13-.78.39-1.03.26-.26.61-.39,1.05-.39.11,0,.22,0,.34.02.12.01.25.03.38.06Z"/>
            <path id="DejaVuSans-291" data-name="DejaVuSans-29" d="M61.95,138.16v-.78c.77-.49,1.52-.85,2.26-1.1.74-.24,1.47-.36,2.19-.36s1.46.12,2.2.36c.74.24,1.49.61,2.26,1.1v.78c-.75-.43-1.49-.76-2.23-.97-.74-.21-1.48-.32-2.23-.32s-1.49.11-2.23.32c-.73.21-1.47.54-2.22.97Z"/>
          </g>
        </g>
        <g id="text_21">
          <g>
            <path id="DejaVuSans-313" data-name="DejaVuSans-31" d="M91.24,48.01h1.61v-5.56l-1.75.35v-.9l1.74-.35h.99v6.46h1.61v.83h-4.2v-.83Z"/>
            <path id="DejaVuSans-655" data-name="DejaVuSans-65" d="M101.98,45.88v.44h-4.13c.04.62.23,1.09.56,1.41.33.32.8.49,1.39.49.34,0,.68-.04,1-.13s.65-.21.97-.38v.85c-.32.14-.65.24-.99.31s-.68.11-1.03.11c-.87,0-1.56-.25-2.07-.76-.51-.51-.76-1.2-.76-2.06s.24-1.6.73-2.13c.48-.53,1.14-.79,1.96-.79.74,0,1.32.24,1.75.71.43.47.64,1.12.64,1.93ZM101.08,45.62c0-.49-.14-.88-.41-1.18-.27-.29-.62-.44-1.07-.44-.5,0-.9.14-1.2.43s-.47.68-.52,1.2h3.2Z"/>
            <path id="DejaVuSans-2212" d="M103.57,45.29h6.26v.83h-6.26v-.83Z"/>
            <path id="DejaVuSans-333" data-name="DejaVuSans-33" d="M114.95,44.91c.47.1.84.31,1.1.63.27.32.4.71.4,1.18,0,.72-.25,1.28-.74,1.67-.49.39-1.2.59-2.11.59-.31,0-.62-.03-.94-.09-.32-.06-.66-.15-1-.27v-.95c.27.16.57.28.9.36.33.08.67.12,1.02.12.62,0,1.09-.12,1.41-.37s.49-.6.49-1.06c0-.43-.15-.77-.45-1.01-.3-.24-.72-.36-1.26-.36h-.85v-.81h.89c.48,0,.86-.1,1.11-.29s.39-.47.39-.84-.13-.66-.4-.86c-.26-.2-.64-.3-1.14-.3-.27,0-.56.03-.87.09-.31.06-.65.15-1.02.27v-.88c.38-.1.73-.18,1.05-.23s.64-.08.93-.08c.75,0,1.34.17,1.78.51.44.34.65.8.65,1.38,0,.4-.12.75-.35,1.02s-.56.47-.99.58Z"/>
            <path id="DejaVuSans-371" data-name="DejaVuSans-37" d="M118.08,41.55h4.69v.42l-2.65,6.87h-1.03l2.49-6.46h-3.5v-.83Z"/>
          </g>
        </g>
      </g>
      <g id="line2d_37">
        <g class="st10">
          <path class="st1" d="M115.36,66.96l3.05,14.62,3.05,13.63,3.05,12.72,3.05,11.89,3.05,11.13,3.05,10.44,3.05,9.8,3.05,9.21,3.05,8.67,4.07,10.79,4.07,9.99,4.07,9.27,4.07,8.61,4.07,8.02,4.07,7.48,4.07,6.98,4.07,6.53,4.07,6.12,4.07,5.74,4.07,5.39,4.07,5.07,4.07,4.78,5.08,5.59,5.08,5.2,5.08,4.85,5.08,4.53,5.08,4.23,5.08,3.97,5.08,3.72,6.1,4.16,6.1,3.87,6.1,3.6,6.1,3.36,7.12,3.64,7.12,3.36,7.12,3.12,7.12,2.9,8.13,3.06,8.13,2.83,9.15,2.93,9.15,2.69,10.17,2.74,10.17,2.5,11.18,2.51,11.18,2.29,12.2,2.27,13.22,2.23,14.23,2.17,15.25,2.09,16.27,1.99,17.28,1.89,18.3,1.78,20.33,1.76,22.36,1.7,24.4,1.62,26.43,1.53,29.48,1.47,31.51,1.35h0"/>
        </g>
      </g>
      <g id="line2d_38">
        <g class="st23">
          <path class="st0" d="M115.36,66.96l3.05,14.62,3.05,13.63,3.05,12.72,3.05,11.89,3.05,11.13,3.05,10.44,3.05,9.8,3.05,9.21,3.05,8.67,4.07,10.79,4.07,9.99,4.07,9.27,4.07,8.61,4.07,8.02,4.07,7.48,4.07,6.98,4.07,6.53,4.07,6.12,4.07,5.74,4.07,5.39,4.07,5.07,4.07,4.78,5.08,5.59,5.08,5.2,5.08,4.85,5.08,4.53,5.08,4.23,5.08,3.97,5.08,3.72,6.1,4.16,6.1,3.87,6.1,3.6,6.1,3.36,7.12,3.64,7.12,3.36,7.12,3.12,7.12,2.9,8.13,3.06,8.13,2.83,9.15,2.93,9.15,2.69,10.17,2.74,10.17,2.5,11.18,2.51,11.18,2.29,12.2,2.27,13.22,2.23,14.23,2.17,15.25,2.09,16.27,1.99,17.28,1.89,18.3,1.78,20.33,1.76,22.36,1.7,24.4,1.62,26.43,1.53,29.48,1.47,31.51,1.35h0"/>
        </g>
      </g>
      <g id="patch_3">
        <path class="st3" d="M90,384.48V51.84"/>
      </g>
      <g id="patch_4">
        <path class="st3" d="M648,384.48V51.84"/>
      </g>
      <g id="patch_5">
        <path class="st3" d="M90,384.48h558"/>
      </g>
      <g id="patch_6">
        <path class="st3" d="M90,51.84h558"/>
      </g>
      <g id="text_22">
        <g>
          <path id="DejaVuSans-46" d="M182.97,37.09h5.03v1h-3.84v2.58h3.47v1h-3.47v4.18h-1.18v-8.75Z"/>
          <path id="DejaVuSans-693" data-name="DejaVuSans-69" d="M188.95,39.28h1.08v6.56h-1.08v-6.56ZM188.95,36.72h1.08v1.37h-1.08v-1.37Z"/>
          <path id="DejaVuSans-671" data-name="DejaVuSans-67" d="M196.6,42.48c0-.78-.16-1.39-.48-1.81-.32-.43-.77-.64-1.36-.64s-1.03.22-1.35.64c-.32.43-.48,1.03-.48,1.81s.16,1.38.48,1.81c.32.43.77.64,1.35.64s1.03-.22,1.36-.64c.32-.43.48-1.03.48-1.81ZM197.68,45.03c0,1.12-.25,1.95-.74,2.49-.49.54-1.25.82-2.28.82-.38,0-.74-.03-1.07-.08s-.66-.14-.98-.26v-1.05c.32.17.63.3.94.38.31.08.62.12.94.12.71,0,1.24-.18,1.59-.55.35-.37.53-.93.53-1.67v-.53c-.22.39-.51.68-.85.87s-.76.29-1.25.29c-.8,0-1.45-.31-1.94-.92-.49-.61-.74-1.43-.74-2.44s.25-1.83.74-2.44c.49-.61,1.14-.92,1.94-.92.48,0,.9.1,1.25.29s.63.48.85.87v-1h1.08v5.75Z"/>
          <path id="DejaVuSans-751" data-name="DejaVuSans-75" d="M199.79,43.25v-3.97h1.08v3.93c0,.62.12,1.09.36,1.4.24.31.61.46,1.09.46.58,0,1.04-.19,1.38-.56.34-.37.51-.88.51-1.52v-3.72h1.08v6.56h-1.08v-1.01c-.26.4-.56.69-.91.89-.34.19-.75.29-1.2.29-.75,0-1.33-.23-1.72-.7-.39-.47-.58-1.15-.58-2.06ZM202.51,39.12h0Z"/>
          <path id="DejaVuSans-724" data-name="DejaVuSans-72" d="M211.31,40.28c-.12-.07-.25-.12-.4-.15-.14-.03-.3-.05-.47-.05-.61,0-1.08.2-1.4.59s-.49.97-.49,1.71v3.46h-1.08v-6.56h1.08v1.02c.23-.4.52-.69.88-.89.36-.19.81-.29,1.33-.29.07,0,.16,0,.25.01.09,0,.19.02.3.04v1.11Z"/>
          <path id="DejaVuSans-656" data-name="DejaVuSans-65" d="M217.79,42.29v.53h-4.96c.05.74.27,1.31.67,1.7.4.39.96.58,1.67.58.41,0,.82-.05,1.2-.15s.77-.25,1.16-.46v1.02c-.39.16-.78.29-1.19.37s-.82.13-1.24.13c-1.05,0-1.88-.3-2.49-.91-.61-.61-.92-1.44-.92-2.47s.29-1.93.87-2.56c.58-.63,1.36-.95,2.35-.95.88,0,1.58.28,2.09.85.51.57.77,1.34.77,2.32ZM216.71,41.97c0-.59-.17-1.06-.49-1.41-.32-.35-.75-.53-1.28-.53-.6,0-1.08.17-1.44.51s-.57.82-.62,1.44h3.84Z"/>
          <path id="DejaVuSans-205" data-name="DejaVuSans-20" d="M218.43,45.84"/>
          <path id="DejaVuSans-314" data-name="DejaVuSans-31" d="M223.73,44.84h1.93v-6.67l-2.1.42v-1.08l2.09-.42h1.18v7.75h1.93v1h-5.04v-1Z"/>
          <path id="DejaVuSans-3a" d="M231.28,44.35h1.24v1.49h-1.24v-1.49ZM231.28,39.64h1.24v1.49h-1.24v-1.49Z"/>
          <path id="DejaVuSans-206" data-name="DejaVuSans-20" d="M233.92,45.84"/>
          <path id="DejaVuSans-44" d="M240.09,38.06v6.8h1.43c1.21,0,2.09-.27,2.65-.82.56-.55.84-1.41.84-2.59s-.28-2.03-.84-2.57-1.44-.82-2.65-.82h-1.43ZM238.91,37.09h2.43c1.69,0,2.94.35,3.73,1.06.79.7,1.19,1.81,1.19,3.31s-.4,2.62-1.2,3.32c-.8.71-2.04,1.06-3.73,1.06h-2.43v-8.75Z"/>
          <path id="DejaVuSans-55" d="M248.01,37.09h1.19v5.32c0,.94.17,1.61.51,2.02.34.41.89.62,1.65.62s1.31-.21,1.65-.62c.34-.41.51-1.09.51-2.02v-5.32h1.19v5.46c0,1.14-.28,2-.85,2.58-.56.58-1.4.87-2.5.87s-1.94-.29-2.51-.87c-.56-.58-.85-1.44-.85-2.58v-5.46Z"/>
          <path id="DejaVuSans-4e1" data-name="DejaVuSans-4e" d="M256.93,37.09h1.59l3.88,7.32v-7.32h1.15v8.75h-1.59l-3.88-7.32v7.32h-1.15v-8.75Z"/>
          <path id="DejaVuSans-452" data-name="DejaVuSans-45" d="M265.91,37.09h5.53v1h-4.35v2.59h4.17v1h-4.17v3.17h4.45v1h-5.64v-8.75Z"/>
          <path id="DejaVuSans-2d" d="M272.9,42.07h3.16v.96h-3.16v-.96Z"/>
          <path id="DejaVuSans-73" d="M281.96,39.47v1.02c-.3-.16-.62-.27-.95-.35-.33-.08-.67-.12-1.02-.12-.54,0-.94.08-1.2.25-.27.16-.4.41-.4.74,0,.25.1.45.29.59s.58.28,1.15.41l.37.08c.76.16,1.31.39,1.63.69s.48.72.48,1.25c0,.61-.24,1.09-.72,1.45-.48.35-1.15.53-1.99.53-.35,0-.72-.03-1.1-.1-.38-.07-.78-.17-1.2-.31v-1.11c.4.21.79.36,1.18.47.39.1.77.15,1.15.15.51,0,.9-.09,1.17-.26.27-.17.41-.42.41-.73,0-.29-.1-.52-.3-.67-.2-.16-.63-.31-1.3-.45l-.37-.09c-.67-.14-1.15-.36-1.45-.65-.3-.29-.44-.69-.44-1.2,0-.62.22-1.09.66-1.43.44-.34,1.06-.5,1.86-.5.4,0,.77.03,1.12.09.35.06.68.14.97.26Z"/>
          <path id="DejaVuSans-631" data-name="DejaVuSans-63" d="M288.75,39.53v1.01c-.31-.17-.61-.29-.92-.38s-.62-.13-.93-.13c-.7,0-1.24.22-1.63.67-.39.44-.58,1.06-.58,1.87s.19,1.42.58,1.87c.39.44.93.66,1.63.66.31,0,.62-.04.93-.13s.61-.21.92-.38v1c-.3.14-.61.24-.94.31-.32.07-.66.11-1.03.11-.99,0-1.77-.31-2.36-.93-.58-.62-.87-1.46-.87-2.51s.29-1.91.88-2.52c.59-.61,1.39-.92,2.42-.92.33,0,.65.03.97.1.32.07.62.17.92.31Z"/>
          <path id="DejaVuSans-613" data-name="DejaVuSans-61" d="M293.61,42.54c-.87,0-1.47.1-1.81.3s-.5.54-.5,1.02c0,.38.13.69.38.91.25.22.6.34,1.03.34.6,0,1.08-.21,1.44-.64s.54-.99.54-1.69v-.24h-1.07ZM295.76,42.1v3.74h-1.08v-1c-.25.4-.55.69-.92.88-.37.19-.82.28-1.35.28-.67,0-1.21-.19-1.6-.57-.4-.38-.59-.88-.59-1.51,0-.74.25-1.29.74-1.67.49-.37,1.23-.56,2.21-.56h1.51v-.11c0-.5-.16-.88-.49-1.15s-.78-.41-1.37-.41c-.37,0-.74.04-1.1.13-.35.09-.7.22-1.02.4v-1c.39-.15.78-.27,1.15-.34.37-.08.73-.11,1.08-.11.95,0,1.66.25,2.13.74.47.49.7,1.24.7,2.24Z"/>
          <path id="DejaVuSans-6c1" data-name="DejaVuSans-6c" d="M297.98,36.72h1.08v9.12h-1.08v-9.12Z"/>
          <path id="DejaVuSans-657" data-name="DejaVuSans-65" d="M306.93,42.29v.53h-4.96c.05.74.27,1.31.67,1.7.4.39.96.58,1.67.58.41,0,.82-.05,1.2-.15s.77-.25,1.16-.46v1.02c-.39.16-.78.29-1.19.37s-.82.13-1.24.13c-1.05,0-1.88-.3-2.49-.91-.61-.61-.92-1.44-.92-2.47s.29-1.93.87-2.56c.58-.63,1.36-.95,2.35-.95.88,0,1.58.28,2.09.85.51.57.77,1.34.77,2.32ZM305.85,41.97c0-.59-.17-1.06-.49-1.41-.32-.35-.75-.53-1.28-.53-.6,0-1.08.17-1.44.51s-.57.82-.62,1.44h3.84Z"/>
          <path id="DejaVuSans-207" data-name="DejaVuSans-20" d="M307.56,45.84"/>
          <path id="DejaVuSans-4d" d="M312.56,37.09h1.76l2.23,5.95,2.24-5.95h1.76v8.75h-1.15v-7.68l-2.26,6h-1.19l-2.26-6v7.68h-1.15v-8.75Z"/>
          <path id="DejaVuSans-614" data-name="DejaVuSans-61" d="M325.85,42.54c-.87,0-1.47.1-1.81.3s-.5.54-.5,1.02c0,.38.13.69.38.91.25.22.6.34,1.03.34.6,0,1.08-.21,1.44-.64s.54-.99.54-1.69v-.24h-1.07ZM328,42.1v3.74h-1.08v-1c-.25.4-.55.69-.92.88-.37.19-.82.28-1.35.28-.67,0-1.21-.19-1.6-.57-.4-.38-.59-.88-.59-1.51,0-.74.25-1.29.74-1.67.49-.37,1.23-.56,2.21-.56h1.51v-.11c0-.5-.16-.88-.49-1.15s-.78-.41-1.37-.41c-.37,0-.74.04-1.1.13-.35.09-.7.22-1.02.4v-1c.39-.15.78-.27,1.15-.34.37-.08.73-.11,1.08-.11.95,0,1.66.25,2.13.74.47.49.7,1.24.7,2.24Z"/>
          <path id="DejaVuSans-742" data-name="DejaVuSans-74" d="M331.28,37.41v1.86h2.22v.84h-2.22v3.56c0,.53.07.88.22,1.03s.44.23.89.23h1.11v.9h-1.11c-.83,0-1.41-.15-1.72-.46-.32-.31-.47-.88-.47-1.7v-3.56h-.79v-.84h.79v-1.86h1.08Z"/>
          <path id="DejaVuSans-743" data-name="DejaVuSans-74" d="M335.99,37.41v1.86h2.22v.84h-2.22v3.56c0,.53.07.88.22,1.03s.44.23.89.23h1.11v.9h-1.11c-.83,0-1.41-.15-1.72-.46-.32-.31-.47-.88-.47-1.7v-3.56h-.79v-.84h.79v-1.86h1.08Z"/>
          <path id="DejaVuSans-658" data-name="DejaVuSans-65" d="M345.24,42.29v.53h-4.96c.05.74.27,1.31.67,1.7.4.39.96.58,1.67.58.41,0,.82-.05,1.2-.15s.77-.25,1.16-.46v1.02c-.39.16-.78.29-1.19.37s-.82.13-1.24.13c-1.05,0-1.88-.3-2.49-.91-.61-.61-.92-1.44-.92-2.47s.29-1.93.87-2.56c.58-.63,1.36-.95,2.35-.95.88,0,1.58.28,2.09.85.51.57.77,1.34.77,2.32ZM344.16,41.97c0-.59-.17-1.06-.49-1.41-.32-.35-.75-.53-1.28-.53-.6,0-1.08.17-1.44.51s-.57.82-.62,1.44h3.84Z"/>
          <path id="DejaVuSans-725" data-name="DejaVuSans-72" d="M350.81,40.28c-.12-.07-.25-.12-.4-.15-.14-.03-.3-.05-.47-.05-.61,0-1.08.2-1.4.59s-.49.97-.49,1.71v3.46h-1.08v-6.56h1.08v1.02c.23-.4.52-.69.88-.89.36-.19.81-.29,1.33-.29.07,0,.16,0,.25.01.09,0,.19.02.3.04v1.11Z"/>
          <path id="DejaVuSans-2d1" data-name="DejaVuSans-2d" d="M350.63,42.07h3.16v.96h-3.16v-.96Z"/>
          <path id="DejaVuSans-53" d="M360.8,37.38v1.15c-.45-.22-.87-.37-1.27-.48-.4-.11-.78-.16-1.15-.16-.64,0-1.14.12-1.49.37-.35.25-.52.61-.52,1.07,0,.39.12.68.35.88.23.2.67.35,1.32.48l.71.15c.88.17,1.53.46,1.95.89s.63.99.63,1.7c0,.85-.28,1.49-.85,1.93-.57.44-1.4.66-2.5.66-.41,0-.85-.05-1.32-.14-.47-.09-.95-.23-1.45-.42v-1.22c.48.27.95.47,1.41.61.46.14.91.2,1.36.2.67,0,1.2-.13,1.56-.4.37-.27.55-.65.55-1.14,0-.43-.13-.76-.4-1.01s-.7-.42-1.3-.55l-.72-.14c-.88-.17-1.52-.45-1.92-.82-.39-.37-.59-.9-.59-1.57,0-.77.27-1.38.82-1.83.54-.45,1.3-.67,2.25-.67.41,0,.83.04,1.25.11.43.07.86.18,1.31.33Z"/>
          <path id="DejaVuSans-659" data-name="DejaVuSans-65" d="M368.74,42.29v.53h-4.96c.05.74.27,1.31.67,1.7.4.39.96.58,1.67.58.41,0,.82-.05,1.2-.15s.77-.25,1.16-.46v1.02c-.39.16-.78.29-1.19.37s-.82.13-1.24.13c-1.05,0-1.88-.3-2.49-.91-.61-.61-.92-1.44-.92-2.47s.29-1.93.87-2.56c.58-.63,1.36-.95,2.35-.95.88,0,1.58.28,2.09.85.51.57.77,1.34.77,2.32ZM367.66,41.97c0-.59-.17-1.06-.49-1.41-.32-.35-.75-.53-1.28-.53-.6,0-1.08.17-1.44.51s-.57.82-.62,1.44h3.84Z"/>
          <path id="DejaVuSans-672" data-name="DejaVuSans-67" d="M374.83,42.48c0-.78-.16-1.39-.48-1.81-.32-.43-.77-.64-1.36-.64s-1.03.22-1.35.64c-.32.43-.48,1.03-.48,1.81s.16,1.38.48,1.81c.32.43.77.64,1.35.64s1.03-.22,1.36-.64c.32-.43.48-1.03.48-1.81ZM375.9,45.03c0,1.12-.25,1.95-.74,2.49-.49.54-1.25.82-2.28.82-.38,0-.74-.03-1.07-.08s-.66-.14-.98-.26v-1.05c.32.17.63.3.94.38.31.08.62.12.94.12.71,0,1.24-.18,1.59-.55.35-.37.53-.93.53-1.67v-.53c-.22.39-.51.68-.85.87s-.76.29-1.25.29c-.8,0-1.45-.31-1.94-.92-.49-.61-.74-1.43-.74-2.44s.25-1.83.74-2.44c.49-.61,1.14-.92,1.94-.92.48,0,.9.1,1.25.29s.63.48.85.87v-1h1.08v5.75Z"/>
          <path id="DejaVuSans-6d" d="M383.23,40.54c.27-.49.59-.84.97-1.07s.82-.34,1.32-.34c.68,0,1.21.24,1.58.72.37.48.56,1.16.56,2.04v3.96h-1.08v-3.93c0-.63-.11-1.09-.34-1.4-.22-.31-.56-.46-1.02-.46-.56,0-1,.19-1.33.56-.32.37-.49.88-.49,1.52v3.71h-1.08v-3.93c0-.63-.11-1.1-.33-1.4s-.57-.45-1.03-.45c-.55,0-.99.19-1.31.56-.32.37-.49.88-.49,1.51v3.71h-1.08v-6.56h1.08v1.02c.25-.4.54-.7.88-.89s.75-.29,1.22-.29.88.12,1.22.36c.33.24.58.59.74,1.05Z"/>
          <path id="DejaVuSans-6510" data-name="DejaVuSans-65" d="M395.43,42.29v.53h-4.96c.05.74.27,1.31.67,1.7.4.39.96.58,1.67.58.41,0,.82-.05,1.2-.15s.77-.25,1.16-.46v1.02c-.39.16-.78.29-1.19.37s-.82.13-1.24.13c-1.05,0-1.88-.3-2.49-.91-.61-.61-.92-1.44-.92-2.47s.29-1.93.87-2.56c.58-.63,1.36-.95,2.35-.95.88,0,1.58.28,2.09.85.51.57.77,1.34.77,2.32ZM394.35,41.97c0-.59-.17-1.06-.49-1.41-.32-.35-.75-.53-1.28-.53-.6,0-1.08.17-1.44.51s-.57.82-.62,1.44h3.84Z"/>
          <path id="DejaVuSans-6e3" data-name="DejaVuSans-6e" d="M402.65,41.88v3.96h-1.08v-3.93c0-.62-.12-1.09-.36-1.39-.24-.31-.61-.46-1.09-.46-.58,0-1.04.19-1.38.56-.34.37-.5.88-.5,1.52v3.71h-1.08v-6.56h1.08v1.02c.26-.4.56-.69.91-.88.35-.19.75-.29,1.21-.29.75,0,1.32.23,1.71.7.39.47.58,1.15.58,2.06Z"/>
          <path id="DejaVuSans-744" data-name="DejaVuSans-74" d="M405.87,37.41v1.86h2.22v.84h-2.22v3.56c0,.53.07.88.22,1.03s.44.23.89.23h1.11v.9h-1.11c-.83,0-1.41-.15-1.72-.46-.32-.31-.47-.88-.47-1.7v-3.56h-.79v-.84h.79v-1.86h1.08Z"/>
          <path id="DejaVuSans-208" data-name="DejaVuSans-20" d="M408.38,45.84"/>
          <path id="DejaVuSans-453" data-name="DejaVuSans-45" d="M413.37,37.09h5.53v1h-4.35v2.59h4.17v1h-4.17v3.17h4.45v1h-5.64v-8.75Z"/>
          <path id="DejaVuSans-6e4" data-name="DejaVuSans-6e" d="M426.36,41.88v3.96h-1.08v-3.93c0-.62-.12-1.09-.36-1.39-.24-.31-.61-.46-1.09-.46-.58,0-1.04.19-1.38.56-.34.37-.5.88-.5,1.52v3.71h-1.08v-6.56h1.08v1.02c.26-.4.56-.69.91-.88.35-.19.75-.29,1.21-.29.75,0,1.32.23,1.71.7.39.47.58,1.15.58,2.06Z"/>
          <path id="DejaVuSans-76" d="M427.74,39.28h1.14l2.05,5.51,2.05-5.51h1.14l-2.46,6.56h-1.46l-2.46-6.56Z"/>
          <path id="DejaVuSans-6511" data-name="DejaVuSans-65" d="M441.22,42.29v.53h-4.96c.05.74.27,1.31.67,1.7.4.39.96.58,1.67.58.41,0,.82-.05,1.2-.15s.77-.25,1.16-.46v1.02c-.39.16-.78.29-1.19.37s-.82.13-1.24.13c-1.05,0-1.88-.3-2.49-.91-.61-.61-.92-1.44-.92-2.47s.29-1.93.87-2.56c.58-.63,1.36-.95,2.35-.95.88,0,1.58.28,2.09.85.51.57.77,1.34.77,2.32ZM440.15,41.97c0-.59-.17-1.06-.49-1.41-.32-.35-.75-.53-1.28-.53-.6,0-1.08.17-1.44.51s-.57.82-.62,1.44h3.84Z"/>
          <path id="DejaVuSans-6c2" data-name="DejaVuSans-6c" d="M442.99,36.72h1.08v9.12h-1.08v-9.12Z"/>
          <path id="DejaVuSans-6f2" data-name="DejaVuSans-6f" d="M448.87,40.03c-.58,0-1.03.23-1.37.68s-.5,1.07-.5,1.85.17,1.4.5,1.85c.33.45.79.68,1.37.68s1.03-.23,1.36-.68c.34-.45.5-1.07.5-1.85s-.17-1.39-.5-1.85c-.34-.46-.79-.68-1.36-.68ZM448.87,39.12c.94,0,1.67.31,2.21.91.54.61.8,1.45.8,2.53s-.27,1.92-.8,2.53c-.53.61-1.27.92-2.21.92s-1.68-.31-2.21-.92c-.53-.61-.8-1.46-.8-2.53s.27-1.92.8-2.53c.53-.61,1.27-.91,2.21-.91Z"/>
          <path id="DejaVuSans-702" data-name="DejaVuSans-70" d="M454.71,44.86v3.48h-1.08v-9.06h1.08v1c.23-.39.51-.68.86-.87.35-.19.76-.28,1.24-.28.8,0,1.45.32,1.94.95.5.63.75,1.46.75,2.5s-.25,1.86-.75,2.5c-.5.63-1.15.95-1.94.95-.48,0-.89-.1-1.24-.28-.34-.19-.63-.48-.86-.87ZM458.38,42.56c0-.79-.16-1.41-.49-1.87s-.77-.68-1.34-.68-1.02.23-1.35.68-.49,1.07-.49,1.87.16,1.41.49,1.87c.33.45.78.68,1.35.68s1.02-.23,1.34-.68c.33-.45.49-1.07.49-1.87Z"/>
          <path id="DejaVuSans-6512" data-name="DejaVuSans-65" d="M466.9,42.29v.53h-4.96c.05.74.27,1.31.67,1.7.4.39.96.58,1.67.58.41,0,.82-.05,1.2-.15s.77-.25,1.16-.46v1.02c-.39.16-.78.29-1.19.37s-.82.13-1.24.13c-1.05,0-1.88-.3-2.49-.91-.61-.61-.92-1.44-.92-2.47s.29-1.93.87-2.56c.58-.63,1.36-.95,2.35-.95.88,0,1.58.28,2.09.85.51.57.77,1.34.77,2.32ZM465.82,41.97c0-.59-.17-1.06-.49-1.41-.32-.35-.75-.53-1.28-.53-.6,0-1.08.17-1.44.51s-.57.82-.62,1.44h3.84Z"/>
          <path id="DejaVuSans-209" data-name="DejaVuSans-20" d="M467.54,45.84"/>
          <path id="DejaVuSans-26" d="M474.27,41.14c-.36.32-.62.63-.78.95-.17.31-.25.64-.25.99,0,.57.21,1.04.62,1.42.42.38.93.57,1.56.57.37,0,.72-.06,1.04-.18.32-.12.63-.31.91-.56l-3.11-3.18ZM475.1,40.48l2.98,3.05c.23-.35.41-.72.54-1.12s.2-.82.23-1.26h1.09c-.05.52-.17,1.02-.37,1.53-.2.5-.49,1-.85,1.49l1.63,1.67h-1.48l-.84-.86c-.41.35-.83.61-1.28.78-.44.17-.92.25-1.43.25-.94,0-1.71-.27-2.31-.81-.6-.54-.9-1.23-.9-2.07,0-.5.13-.97.39-1.41.26-.44.66-.85,1.18-1.24-.19-.25-.33-.49-.43-.73-.1-.25-.15-.48-.15-.72,0-.63.22-1.14.65-1.53s1.01-.58,1.73-.58c.32,0,.65.03.97.1.32.07.65.18.98.32v1.07c-.34-.18-.66-.32-.97-.42-.31-.1-.6-.14-.86-.14-.41,0-.74.11-1,.33-.26.22-.38.5-.38.84,0,.2.06.4.17.6.12.2.35.49.71.85Z"/>
          <path id="DejaVuSans-2010" data-name="DejaVuSans-20" d="M480.71,45.84"/>
          <path id="DejaVuSans-531" data-name="DejaVuSans-53" d="M490.95,37.38v1.15c-.45-.22-.87-.37-1.27-.48-.4-.11-.78-.16-1.15-.16-.64,0-1.14.12-1.49.37-.35.25-.52.61-.52,1.07,0,.39.12.68.35.88.23.2.67.35,1.32.48l.71.15c.88.17,1.53.46,1.95.89s.63.99.63,1.7c0,.85-.28,1.49-.85,1.93-.57.44-1.4.66-2.5.66-.41,0-.85-.05-1.32-.14-.47-.09-.95-.23-1.45-.42v-1.22c.48.27.95.47,1.41.61.46.14.91.2,1.36.2.67,0,1.2-.13,1.56-.4.37-.27.55-.65.55-1.14,0-.43-.13-.76-.4-1.01s-.7-.42-1.3-.55l-.72-.14c-.88-.17-1.52-.45-1.92-.82-.39-.37-.59-.9-.59-1.57,0-.77.27-1.38.82-1.83.54-.45,1.3-.67,2.25-.67.41,0,.83.04,1.25.11.43.07.86.18,1.31.33Z"/>
          <path id="DejaVuSans-703" data-name="DejaVuSans-70" d="M494.32,44.86v3.48h-1.08v-9.06h1.08v1c.23-.39.51-.68.86-.87.35-.19.76-.28,1.24-.28.8,0,1.45.32,1.94.95.5.63.75,1.46.75,2.5s-.25,1.86-.75,2.5c-.5.63-1.15.95-1.94.95-.48,0-.89-.1-1.24-.28-.34-.19-.63-.48-.86-.87ZM497.98,42.56c0-.79-.16-1.41-.49-1.87s-.77-.68-1.34-.68-1.02.23-1.35.68-.49,1.07-.49,1.87.16,1.41.49,1.87c.33.45.78.68,1.35.68s1.02-.23,1.34-.68c.33-.45.49-1.07.49-1.87Z"/>
          <path id="DejaVuSans-6513" data-name="DejaVuSans-65" d="M506.5,42.29v.53h-4.96c.05.74.27,1.31.67,1.7.4.39.96.58,1.67.58.41,0,.82-.05,1.2-.15s.77-.25,1.16-.46v1.02c-.39.16-.78.29-1.19.37s-.82.13-1.24.13c-1.05,0-1.88-.3-2.49-.91-.61-.61-.92-1.44-.92-2.47s.29-1.93.87-2.56c.58-.63,1.36-.95,2.35-.95.88,0,1.58.28,2.09.85.51.57.77,1.34.77,2.32ZM505.43,41.97c0-.59-.17-1.06-.49-1.41-.32-.35-.75-.53-1.28-.53-.6,0-1.08.17-1.44.51s-.57.82-.62,1.44h3.84Z"/>
          <path id="DejaVuSans-632" data-name="DejaVuSans-63" d="M513,39.53v1.01c-.31-.17-.61-.29-.92-.38s-.62-.13-.93-.13c-.7,0-1.24.22-1.63.67-.39.44-.58,1.06-.58,1.87s.19,1.42.58,1.87c.39.44.93.66,1.63.66.31,0,.62-.04.93-.13s.61-.21.92-.38v1c-.3.14-.61.24-.94.31-.32.07-.66.11-1.03.11-.99,0-1.77-.31-2.36-.93-.58-.62-.87-1.46-.87-2.51s.29-1.91.88-2.52c.59-.61,1.39-.92,2.42-.92.33,0,.65.03.97.1.32.07.62.17.92.31Z"/>
          <path id="DejaVuSans-745" data-name="DejaVuSans-74" d="M515.94,37.41v1.86h2.22v.84h-2.22v3.56c0,.53.07.88.22,1.03s.44.23.89.23h1.11v.9h-1.11c-.83,0-1.41-.15-1.72-.46-.32-.31-.47-.88-.47-1.7v-3.56h-.79v-.84h.79v-1.86h1.08Z"/>
          <path id="DejaVuSans-726" data-name="DejaVuSans-72" d="M523.38,40.28c-.12-.07-.25-.12-.4-.15-.14-.03-.3-.05-.47-.05-.61,0-1.08.2-1.4.59s-.49.97-.49,1.71v3.46h-1.08v-6.56h1.08v1.02c.23-.4.52-.69.88-.89.36-.19.81-.29,1.33-.29.07,0,.16,0,.25.01.09,0,.19.02.3.04v1.11Z"/>
          <path id="DejaVuSans-615" data-name="DejaVuSans-61" d="M527.49,42.54c-.87,0-1.47.1-1.81.3s-.5.54-.5,1.02c0,.38.13.69.38.91.25.22.6.34,1.03.34.6,0,1.08-.21,1.44-.64s.54-.99.54-1.69v-.24h-1.07ZM529.64,42.1v3.74h-1.08v-1c-.25.4-.55.69-.92.88-.37.19-.82.28-1.35.28-.67,0-1.21-.19-1.6-.57-.4-.38-.59-.88-.59-1.51,0-.74.25-1.29.74-1.67.49-.37,1.23-.56,2.21-.56h1.51v-.11c0-.5-.16-.88-.49-1.15s-.78-.41-1.37-.41c-.37,0-.74.04-1.1.13-.35.09-.7.22-1.02.4v-1c.39-.15.78-.27,1.15-.34.37-.08.73-.11,1.08-.11.95,0,1.66.25,2.13.74.47.49.7,1.24.7,2.24Z"/>
          <path id="DejaVuSans-6c3" data-name="DejaVuSans-6c" d="M531.86,36.72h1.08v9.12h-1.08v-9.12Z"/>
          <path id="DejaVuSans-2011" data-name="DejaVuSans-20" d="M534.07,45.84"/>
          <path id="DejaVuSans-54" d="M537.85,37.09h7.4v1h-3.1v7.75h-1.19v-7.75h-3.11v-1Z"/>
          <path id="DejaVuSans-694" data-name="DejaVuSans-69" d="M545.97,39.28h1.08v6.56h-1.08v-6.56ZM545.97,36.72h1.08v1.37h-1.08v-1.37Z"/>
          <path id="DejaVuSans-6c4" data-name="DejaVuSans-6c" d="M549.3,36.72h1.08v9.12h-1.08v-9.12Z"/>
          <path id="DejaVuSans-746" data-name="DejaVuSans-74" d="M553.7,37.41v1.86h2.22v.84h-2.22v3.56c0,.53.07.88.22,1.03s.44.23.89.23h1.11v.9h-1.11c-.83,0-1.41-.15-1.72-.46-.32-.31-.47-.88-.47-1.7v-3.56h-.79v-.84h.79v-1.86h1.08Z"/>
        </g>
      </g>
      <g id="legend_1">
        <g id="patch_7">
          <path class="st12" d="M478.07,89.2h162.93c1.33,0,2-.67,2-2v-28.36c0-1.33-.67-2-2-2h-162.93c-1.33,0-2,.67-2,2v28.36c0,1.33.67,2,2,2Z"/>
        </g>
        <g id="line2d_39">
          <path class="st1" d="M480.07,64.94h20"/>
        </g>
        <g id="text_23">
          <g>
            <path id="DejaVuSans-532" data-name="DejaVuSans-53" d="M513.42,61.39v.96c-.37-.18-.73-.31-1.06-.4-.33-.09-.65-.13-.96-.13-.54,0-.95.1-1.24.31-.29.21-.44.5-.44.89,0,.32.1.57.29.73.19.16.56.3,1.1.4l.6.12c.74.14,1.28.39,1.63.74s.53.83.53,1.42c0,.71-.24,1.24-.71,1.61-.47.36-1.17.55-2.08.55-.34,0-.71-.04-1.1-.12-.39-.08-.79-.19-1.21-.35v-1.02c.4.22.79.39,1.18.51.38.11.76.17,1.13.17.56,0,1-.11,1.3-.33.31-.22.46-.54.46-.95,0-.36-.11-.64-.33-.84s-.58-.35-1.08-.45l-.6-.12c-.74-.15-1.27-.38-1.6-.69-.33-.31-.49-.75-.49-1.3,0-.64.23-1.15.68-1.52.45-.37,1.08-.56,1.88-.56.34,0,.69.03,1.05.09.36.06.72.15,1.09.28Z"/>
            <path id="DejaVuSans-747" data-name="DejaVuSans-74" d="M516.25,61.42v1.55h1.85v.7h-1.85v2.97c0,.45.06.73.18.86s.37.19.75.19h.92v.75h-.92c-.69,0-1.17-.13-1.44-.39-.26-.26-.4-.73-.4-1.41v-2.97h-.66v-.7h.66v-1.55h.9Z"/>
            <path id="DejaVuSans-616" data-name="DejaVuSans-61" d="M521.76,65.69c-.73,0-1.23.08-1.51.25s-.42.45-.42.85c0,.32.11.57.32.76.21.19.5.28.86.28.5,0,.9-.18,1.2-.53s.45-.82.45-1.41v-.2h-.89ZM523.56,65.32v3.12h-.9v-.83c-.21.33-.46.58-.77.73-.31.16-.68.24-1.12.24-.56,0-1-.16-1.34-.47-.33-.31-.5-.74-.5-1.26,0-.61.21-1.08.62-1.39.41-.31,1.03-.47,1.84-.47h1.26v-.09c0-.41-.14-.73-.41-.96s-.65-.34-1.15-.34c-.31,0-.62.04-.91.11-.3.08-.58.19-.85.34v-.83c.33-.13.65-.22.96-.28.31-.06.61-.1.9-.1.79,0,1.38.21,1.77.62.39.41.59,1.03.59,1.86Z"/>
            <path id="DejaVuSans-6e5" data-name="DejaVuSans-6e" d="M529.95,65.14v3.3h-.9v-3.27c0-.52-.1-.9-.3-1.16-.2-.26-.5-.39-.91-.39-.49,0-.87.15-1.15.46-.28.31-.42.73-.42,1.26v3.09h-.9v-5.47h.9v.85c.22-.33.47-.58.76-.74.29-.16.63-.24,1.01-.24.63,0,1.1.19,1.43.58.32.39.48.96.48,1.72Z"/>
            <path id="DejaVuSans-64" d="M535.34,63.8v-2.96h.9v7.6h-.9v-.82c-.19.33-.43.57-.72.73-.29.16-.63.24-1.04.24-.66,0-1.2-.26-1.61-.79-.41-.53-.62-1.22-.62-2.08s.21-1.55.62-2.08c.42-.53.95-.79,1.61-.79.4,0,.75.08,1.04.24.29.16.53.4.72.72ZM532.28,65.71c0,.66.14,1.18.41,1.55.27.38.65.56,1.12.56s.85-.19,1.12-.56c.27-.38.41-.89.41-1.55s-.14-1.18-.41-1.55c-.27-.38-.65-.56-1.12-.56s-.85.19-1.12.56-.41.89-.41,1.55Z"/>
            <path id="DejaVuSans-617" data-name="DejaVuSans-61" d="M540.58,65.69c-.73,0-1.23.08-1.51.25s-.42.45-.42.85c0,.32.11.57.32.76.21.19.5.28.86.28.5,0,.9-.18,1.2-.53s.45-.82.45-1.41v-.2h-.89ZM542.37,65.32v3.12h-.9v-.83c-.21.33-.46.58-.77.73-.31.16-.68.24-1.12.24-.56,0-1-.16-1.34-.47-.33-.31-.5-.74-.5-1.26,0-.61.21-1.08.62-1.39.41-.31,1.03-.47,1.84-.47h1.26v-.09c0-.41-.14-.73-.41-.96s-.65-.34-1.15-.34c-.31,0-.62.04-.91.11-.3.08-.58.19-.85.34v-.83c.33-.13.65-.22.96-.28.31-.06.61-.1.9-.1.79,0,1.38.21,1.77.62.39.41.59,1.03.59,1.86Z"/>
            <path id="DejaVuSans-727" data-name="DejaVuSans-72" d="M547.39,63.81c-.1-.06-.21-.1-.33-.13-.12-.03-.25-.04-.39-.04-.51,0-.9.17-1.17.5s-.41.8-.41,1.42v2.88h-.9v-5.47h.9v.85c.19-.33.44-.58.74-.74.3-.16.67-.24,1.1-.24.06,0,.13,0,.2.01.08,0,.16.02.25.04v.92Z"/>
            <path id="DejaVuSans-641" data-name="DejaVuSans-64" d="M551.75,63.8v-2.96h.9v7.6h-.9v-.82c-.19.33-.43.57-.72.73-.29.16-.63.24-1.04.24-.66,0-1.2-.26-1.61-.79-.41-.53-.62-1.22-.62-2.08s.21-1.55.62-2.08c.42-.53.95-.79,1.61-.79.4,0,.75.08,1.04.24.29.16.53.4.72.72ZM548.69,65.71c0,.66.14,1.18.41,1.55.27.38.65.56,1.12.56s.85-.19,1.12-.56c.27-.38.41-.89.41-1.55s-.14-1.18-.41-1.55c-.27-.38-.65-.56-1.12-.56s-.85.19-1.12.56-.41.89-.41,1.55Z"/>
            <path id="DejaVuSans-2012" data-name="DejaVuSans-20" d="M553.56,68.44"/>
            <path id="DejaVuSans-501" data-name="DejaVuSans-50" d="M558.71,61.96v2.74h1.24c.46,0,.81-.12,1.06-.36.25-.24.38-.58.38-1.02s-.13-.77-.38-1.01c-.25-.24-.6-.36-1.06-.36h-1.24ZM557.72,61.15h2.23c.82,0,1.44.18,1.85.55.42.37.63.91.63,1.62s-.21,1.26-.63,1.63c-.42.37-1.04.55-1.85.55h-1.24v2.93h-.99v-7.29Z"/>
            <path id="DejaVuSans-4d1" data-name="DejaVuSans-4d" d="M563.75,61.15h1.47l1.86,4.96,1.87-4.96h1.47v7.29h-.96v-6.4l-1.88,5h-.99l-1.88-5v6.4h-.96v-7.29Z"/>
            <path id="DejaVuSans-4e2" data-name="DejaVuSans-4e" d="M572.38,61.15h1.33l3.23,6.1v-6.1h.96v7.29h-1.33l-3.23-6.1v6.1h-.96v-7.29Z"/>
            <path id="DejaVuSans-533" data-name="DejaVuSans-53" d="M584.23,61.39v.96c-.37-.18-.73-.31-1.06-.4-.33-.09-.65-.13-.96-.13-.54,0-.95.1-1.24.31-.29.21-.44.5-.44.89,0,.32.1.57.29.73.19.16.56.3,1.1.4l.6.12c.74.14,1.28.39,1.63.74s.53.83.53,1.42c0,.71-.24,1.24-.71,1.61-.47.36-1.17.55-2.08.55-.34,0-.71-.04-1.1-.12-.39-.08-.79-.19-1.21-.35v-1.02c.4.22.79.39,1.18.51.38.11.76.17,1.13.17.56,0,1-.11,1.3-.33.31-.22.46-.54.46-.95,0-.36-.11-.64-.33-.84s-.58-.35-1.08-.45l-.6-.12c-.74-.15-1.27-.38-1.6-.69-.33-.31-.49-.75-.49-1.3,0-.64.23-1.15.68-1.52.45-.37,1.08-.56,1.88-.56.34,0,.69.03,1.05.09.36.06.72.15,1.09.28Z"/>
            <path id="DejaVuSans-2013" data-name="DejaVuSans-20" d="M585.23,68.44"/>
            <path id="DejaVuSans-282" data-name="DejaVuSans-28" d="M591.5,60.85c-.44.75-.76,1.49-.97,2.22-.21.73-.32,1.47-.32,2.23s.11,1.5.32,2.23.54,1.48.97,2.23h-.78c-.49-.77-.85-1.52-1.1-2.26-.24-.74-.36-1.47-.36-2.2s.12-1.46.36-2.19c.24-.74.61-1.49,1.1-2.26h.78Z"/>
            <path id="DejaVuSans-551" data-name="DejaVuSans-55" d="M593.18,61.15h.99v4.43c0,.78.14,1.34.42,1.69.28.34.74.51,1.38.51s1.09-.17,1.37-.51c.28-.34.43-.91.43-1.69v-4.43h.99v4.55c0,.95-.24,1.67-.71,2.15-.47.49-1.16.73-2.08.73s-1.62-.24-2.09-.73c-.47-.49-.7-1.2-.7-2.15v-4.55Z"/>
            <path id="DejaVuSans-6e6" data-name="DejaVuSans-6e" d="M605.11,65.14v3.3h-.9v-3.27c0-.52-.1-.9-.3-1.16-.2-.26-.5-.39-.91-.39-.49,0-.87.15-1.15.46-.28.31-.42.73-.42,1.26v3.09h-.9v-5.47h.9v.85c.22-.33.47-.58.76-.74.29-.16.63-.24,1.01-.24.63,0,1.1.19,1.43.58.32.39.48.96.48,1.72Z"/>
            <path id="DejaVuSans-695" data-name="DejaVuSans-69" d="M606.91,62.97h.9v5.47h-.9v-5.47ZM606.91,60.84h.9v1.14h-.9v-1.14Z"/>
            <path id="DejaVuSans-748" data-name="DejaVuSans-74" d="M610.57,61.42v1.55h1.85v.7h-1.85v2.97c0,.45.06.73.18.86s.37.19.75.19h.92v.75h-.92c-.69,0-1.17-.13-1.44-.39-.26-.26-.4-.73-.4-1.41v-2.97h-.66v-.7h.66v-1.55h.9Z"/>
            <path id="DejaVuSans-618" data-name="DejaVuSans-61" d="M616.09,65.69c-.73,0-1.23.08-1.51.25s-.42.45-.42.85c0,.32.11.57.32.76.21.19.5.28.86.28.5,0,.9-.18,1.2-.53s.45-.82.45-1.41v-.2h-.89ZM617.88,65.32v3.12h-.9v-.83c-.21.33-.46.58-.77.73-.31.16-.68.24-1.12.24-.56,0-1-.16-1.34-.47-.33-.31-.5-.74-.5-1.26,0-.61.21-1.08.62-1.39.41-.31,1.03-.47,1.84-.47h1.26v-.09c0-.41-.14-.73-.41-.96s-.65-.34-1.15-.34c-.31,0-.62.04-.91.11-.3.08-.58.19-.85.34v-.83c.33-.13.65-.22.96-.28.31-.06.61-.1.9-.1.79,0,1.38.21,1.77.62.39.41.59,1.03.59,1.86Z"/>
            <path id="DejaVuSans-728" data-name="DejaVuSans-72" d="M622.9,63.81c-.1-.06-.21-.1-.33-.13-.12-.03-.25-.04-.39-.04-.51,0-.9.17-1.17.5s-.41.8-.41,1.42v2.88h-.9v-5.47h.9v.85c.19-.33.44-.58.74-.74.3-.16.67-.24,1.1-.24.06,0,.13,0,.2.01.08,0,.16.02.25.04v.92Z"/>
            <path id="DejaVuSans-792" data-name="DejaVuSans-79" d="M626.12,68.95c-.25.65-.5,1.08-.74,1.27-.24.2-.56.3-.97.3h-.72v-.75h.53c.25,0,.44-.06.58-.18.14-.12.29-.39.45-.83l.16-.41-2.21-5.38h.95l1.71,4.28,1.71-4.28h.95l-2.4,5.98Z"/>
            <path id="DejaVuSans-292" data-name="DejaVuSans-29" d="M629.62,60.85h.78c.49.77.85,1.52,1.1,2.26.24.74.36,1.47.36,2.19s-.12,1.46-.36,2.2c-.24.74-.61,1.49-1.1,2.26h-.78c.43-.75.76-1.49.97-2.23.21-.74.32-1.48.32-2.23s-.11-1.49-.32-2.23c-.21-.73-.54-1.47-.97-2.22Z"/>
          </g>
        </g>
        <g id="line2d_40">
          <path class="st0" d="M480.07,79.62h20"/>
        </g>
        <g id="text_24">
          <g>
            <path id="DejaVuSans-534" data-name="DejaVuSans-53" d="M513.42,76.07v.96c-.37-.18-.73-.31-1.06-.4-.33-.09-.65-.13-.96-.13-.54,0-.95.1-1.24.31-.29.21-.44.5-.44.89,0,.32.1.57.29.73.19.16.56.3,1.1.4l.6.12c.74.14,1.28.39,1.63.74s.53.83.53,1.42c0,.71-.24,1.24-.71,1.61-.47.36-1.17.55-2.08.55-.34,0-.71-.04-1.1-.12-.39-.08-.79-.19-1.21-.35v-1.02c.4.22.79.39,1.18.51.38.11.76.17,1.13.17.56,0,1-.11,1.3-.33.31-.22.46-.54.46-.95,0-.36-.11-.64-.33-.84s-.58-.35-1.08-.45l-.6-.12c-.74-.15-1.27-.38-1.6-.69-.33-.31-.49-.75-.49-1.3,0-.64.23-1.15.68-1.52.45-.37,1.08-.56,1.88-.56.34,0,.69.03,1.05.09.36.06.72.15,1.09.28Z"/>
            <path id="DejaVuSans-793" data-name="DejaVuSans-79" d="M517.63,83.62c-.25.65-.5,1.08-.74,1.27-.24.2-.56.3-.97.3h-.72v-.75h.53c.25,0,.44-.06.58-.18.14-.12.29-.39.45-.83l.16-.41-2.21-5.38h.95l1.71,4.28,1.71-4.28h.95l-2.4,5.98Z"/>
            <path id="DejaVuSans-6d1" data-name="DejaVuSans-6d" d="M525.53,78.7c.23-.4.49-.7.81-.89s.68-.29,1.1-.29c.57,0,1.01.2,1.32.6.31.4.46.96.46,1.7v3.3h-.9v-3.27c0-.52-.09-.91-.28-1.17-.19-.25-.47-.38-.85-.38-.47,0-.83.15-1.1.46-.27.31-.4.73-.4,1.26v3.09h-.9v-3.27c0-.53-.09-.92-.28-1.17s-.47-.38-.86-.38c-.46,0-.82.16-1.1.47-.27.31-.4.73-.4,1.26v3.09h-.9v-5.47h.9v.85c.21-.34.45-.58.74-.74s.63-.24,1.02-.24.74.1,1.01.3c.28.2.48.49.62.88Z"/>
            <path id="DejaVuSans-43" d="M536.51,76.39v1.04c-.33-.31-.69-.54-1.06-.69-.38-.15-.78-.23-1.2-.23-.83,0-1.47.25-1.91.76s-.66,1.25-.66,2.21.22,1.7.66,2.2,1.08.76,1.91.76c.42,0,.82-.08,1.2-.23s.73-.38,1.06-.69v1.03c-.34.23-.71.41-1.1.53-.39.12-.79.18-1.22.18-1.1,0-1.97-.34-2.61-1.01-.63-.68-.95-1.6-.95-2.77s.32-2.1.95-2.77c.64-.68,1.51-1.01,2.61-1.01.44,0,.85.06,1.23.17.39.12.75.29,1.09.52Z"/>
            <path id="DejaVuSans-2014" data-name="DejaVuSans-20" d="M537.06,83.12"/>
            <path id="DejaVuSans-283" data-name="DejaVuSans-28" d="M543.34,75.53c-.44.75-.76,1.49-.97,2.22-.21.73-.32,1.47-.32,2.23s.11,1.5.32,2.23.54,1.48.97,2.23h-.78c-.49-.77-.85-1.52-1.1-2.26-.24-.74-.36-1.47-.36-2.2s.12-1.46.36-2.19c.24-.74.61-1.49,1.1-2.26h.78Z"/>
            <path id="DejaVuSans-441" data-name="DejaVuSans-44" d="M546.1,76.64v5.67h1.19c1.01,0,1.74-.23,2.21-.68.47-.46.7-1.18.7-2.16s-.23-1.69-.7-2.15-1.2-.68-2.21-.68h-1.19ZM545.12,75.83h2.03c1.41,0,2.45.29,3.11.88.66.59.99,1.51.99,2.76s-.33,2.18-1,2.77c-.66.59-1.7.88-3.1.88h-2.03v-7.29Z"/>
            <path id="DejaVuSans-696" data-name="DejaVuSans-69" d="M552.78,77.65h.9v5.47h-.9v-5.47ZM552.78,75.52h.9v1.14h-.9v-1.14Z"/>
            <path id="DejaVuSans-731" data-name="DejaVuSans-73" d="M559.04,77.81v.85c-.25-.13-.52-.23-.79-.29-.27-.07-.56-.1-.85-.1-.45,0-.78.07-1,.2-.22.14-.33.34-.33.62,0,.21.08.37.24.49s.48.23.96.34l.31.07c.64.14,1.09.33,1.36.58s.4.6.4,1.04c0,.51-.2.91-.6,1.21-.4.3-.95.44-1.66.44-.29,0-.6-.03-.92-.09-.32-.06-.65-.14-1-.26v-.93c.33.17.66.3.98.39.32.09.64.13.96.13.42,0,.75-.07.98-.22.23-.14.34-.35.34-.61,0-.24-.08-.43-.25-.56-.16-.13-.52-.26-1.08-.38l-.31-.07c-.56-.12-.96-.3-1.21-.54-.25-.24-.37-.58-.37-1,0-.51.18-.91.55-1.19.36-.28.88-.42,1.55-.42.33,0,.64.02.94.07.29.05.56.12.81.22Z"/>
            <path id="DejaVuSans-732" data-name="DejaVuSans-73" d="M564.25,77.81v.85c-.25-.13-.52-.23-.79-.29-.27-.07-.56-.1-.85-.1-.45,0-.78.07-1,.2-.22.14-.33.34-.33.62,0,.21.08.37.24.49s.48.23.96.34l.31.07c.64.14,1.09.33,1.36.58s.4.6.4,1.04c0,.51-.2.91-.6,1.21-.4.3-.95.44-1.66.44-.29,0-.6-.03-.92-.09-.32-.06-.65-.14-1-.26v-.93c.33.17.66.3.98.39.32.09.64.13.96.13.42,0,.75-.07.98-.22.23-.14.34-.35.34-.61,0-.24-.08-.43-.25-.56-.16-.13-.52-.26-1.08-.38l-.31-.07c-.56-.12-.96-.3-1.21-.54-.25-.24-.37-.58-.37-1,0-.51.18-.91.55-1.19.36-.28.88-.42,1.55-.42.33,0,.64.02.94.07.29.05.56.12.81.22Z"/>
            <path id="DejaVuSans-697" data-name="DejaVuSans-69" d="M565.98,77.65h.9v5.47h-.9v-5.47ZM565.98,75.52h.9v1.14h-.9v-1.14Z"/>
            <path id="DejaVuSans-704" data-name="DejaVuSans-70" d="M569.62,82.3v2.9h-.9v-7.55h.9v.83c.19-.33.43-.57.72-.72.29-.16.63-.24,1.03-.24.66,0,1.2.26,1.62.79.42.53.62,1.22.62,2.08s-.21,1.55-.62,2.08c-.41.53-.95.79-1.62.79-.4,0-.74-.08-1.03-.24-.29-.16-.53-.4-.72-.73ZM572.68,80.39c0-.66-.14-1.18-.41-1.55s-.65-.56-1.12-.56-.85.19-1.12.56-.41.89-.41,1.55.14,1.18.41,1.55c.27.38.65.56,1.12.56s.85-.19,1.12-.56c.27-.38.41-.89.41-1.55Z"/>
            <path id="DejaVuSans-619" data-name="DejaVuSans-61" d="M577.59,80.37c-.73,0-1.23.08-1.51.25s-.42.45-.42.85c0,.32.11.57.32.76.21.19.5.28.86.28.5,0,.9-.18,1.2-.53s.45-.82.45-1.41v-.2h-.89ZM579.38,80v3.12h-.9v-.83c-.21.33-.46.58-.77.73-.31.16-.68.24-1.12.24-.56,0-1-.16-1.34-.47-.33-.31-.5-.74-.5-1.26,0-.61.21-1.08.62-1.39.41-.31,1.03-.47,1.84-.47h1.26v-.09c0-.41-.14-.73-.41-.96s-.65-.34-1.15-.34c-.31,0-.62.04-.91.11-.3.08-.58.19-.85.34v-.83c.33-.13.65-.22.96-.28.31-.06.61-.1.9-.1.79,0,1.38.21,1.77.62.39.41.59,1.03.59,1.86Z"/>
            <path id="DejaVuSans-749" data-name="DejaVuSans-74" d="M582.12,76.09v1.55h1.85v.7h-1.85v2.97c0,.45.06.73.18.86s.37.19.75.19h.92v.75h-.92c-.69,0-1.17-.13-1.44-.39-.26-.26-.4-.73-.4-1.41v-2.97h-.66v-.7h.66v-1.55h.9Z"/>
            <path id="DejaVuSans-698" data-name="DejaVuSans-69" d="M585.15,77.65h.9v5.47h-.9v-5.47ZM585.15,75.52h.9v1.14h-.9v-1.14Z"/>
            <path id="DejaVuSans-761" data-name="DejaVuSans-76" d="M587.29,77.65h.95l1.71,4.59,1.71-4.59h.95l-2.05,5.47h-1.22l-2.05-5.47Z"/>
            <path id="DejaVuSans-6514" data-name="DejaVuSans-65" d="M598.53,80.16v.44h-4.13c.04.62.23,1.09.56,1.41.33.32.8.49,1.39.49.34,0,.68-.04,1-.13s.65-.21.97-.38v.85c-.32.14-.65.24-.99.31s-.68.11-1.03.11c-.87,0-1.56-.25-2.07-.76-.51-.51-.76-1.2-.76-2.06s.24-1.6.73-2.13c.48-.53,1.14-.79,1.96-.79.74,0,1.32.24,1.75.71.43.47.64,1.12.64,1.93ZM597.63,79.89c0-.49-.14-.88-.41-1.18-.27-.29-.62-.44-1.07-.44-.5,0-.9.14-1.2.43s-.47.68-.52,1.2h3.2Z"/>
            <path id="DejaVuSans-2015" data-name="DejaVuSans-20" d="M599.06,83.12"/>
            <path id="DejaVuSans-4d2" data-name="DejaVuSans-4d" d="M603.22,75.83h1.47l1.86,4.96,1.87-4.96h1.47v7.29h-.96v-6.4l-1.88,5h-.99l-1.88-5v6.4h-.96v-7.29Z"/>
            <path id="DejaVuSans-6110" data-name="DejaVuSans-61" d="M614.29,80.37c-.73,0-1.23.08-1.51.25s-.42.45-.42.85c0,.32.11.57.32.76.21.19.5.28.86.28.5,0,.9-.18,1.2-.53s.45-.82.45-1.41v-.2h-.89ZM616.09,80v3.12h-.9v-.83c-.21.33-.46.58-.77.73-.31.16-.68.24-1.12.24-.56,0-1-.16-1.34-.47-.33-.31-.5-.74-.5-1.26,0-.61.21-1.08.62-1.39.41-.31,1.03-.47,1.84-.47h1.26v-.09c0-.41-.14-.73-.41-.96s-.65-.34-1.15-.34c-.31,0-.62.04-.91.11-.3.08-.58.19-.85.34v-.83c.33-.13.65-.22.96-.28.31-.06.61-.1.9-.1.79,0,1.38.21,1.77.62.39.41.59,1.03.59,1.86Z"/>
            <path id="DejaVuSans-7410" data-name="DejaVuSans-74" d="M618.82,76.09v1.55h1.85v.7h-1.85v2.97c0,.45.06.73.18.86s.37.19.75.19h.92v.75h-.92c-.69,0-1.17-.13-1.44-.39-.26-.26-.4-.73-.4-1.41v-2.97h-.66v-.7h.66v-1.55h.9Z"/>
            <path id="DejaVuSans-7411" data-name="DejaVuSans-74" d="M622.75,76.09v1.55h1.85v.7h-1.85v2.97c0,.45.06.73.18.86s.37.19.75.19h.92v.75h-.92c-.69,0-1.17-.13-1.44-.39-.26-.26-.4-.73-.4-1.41v-2.97h-.66v-.7h.66v-1.55h.9Z"/>
            <path id="DejaVuSans-6515" data-name="DejaVuSans-65" d="M630.46,80.16v.44h-4.13c.04.62.23,1.09.56,1.41.33.32.8.49,1.39.49.34,0,.68-.04,1-.13s.65-.21.97-.38v.85c-.32.14-.65.24-.99.31s-.68.11-1.03.11c-.87,0-1.56-.25-2.07-.76-.51-.51-.76-1.2-.76-2.06s.24-1.6.73-2.13c.48-.53,1.14-.79,1.96-.79.74,0,1.32.24,1.75.71.43.47.64,1.12.64,1.93ZM629.56,79.89c0-.49-.14-.88-.41-1.18-.27-.29-.62-.44-1.07-.44-.5,0-.9.14-1.2.43s-.47.68-.52,1.2h3.2Z"/>
            <path id="DejaVuSans-729" data-name="DejaVuSans-72" d="M635.1,78.49c-.1-.06-.21-.1-.33-.13-.12-.03-.25-.04-.39-.04-.51,0-.9.17-1.17.5s-.41.8-.41,1.42v2.88h-.9v-5.47h.9v.85c.19-.33.44-.58.74-.74.3-.16.67-.24,1.1-.24.06,0,.13,0,.2.01.08,0,.16.02.25.04v.92Z"/>
            <path id="DejaVuSans-293" data-name="DejaVuSans-29" d="M635.9,75.53h.78c.49.77.85,1.52,1.1,2.26.24.74.36,1.47.36,2.19s-.12,1.46-.36,2.2c-.24.74-.61,1.49-1.1,2.26h-.78c.43-.75.76-1.49.97-2.23.21-.74.32-1.48.32-2.23s-.11-1.49-.32-2.23c-.21-.73-.54-1.47-.97-2.22Z"/>
          </g>
        </g>
      </g>
    </g>
  </g>
</svg>