<?xml version="1.0" encoding="UTF-8"?>
<svg id="Layer_1" xmlns="http://www.w3.org/2000/svg" version="1.1" xmlns:xlink="http://www.w3.org/1999/xlink" viewBox="0 0 453.38 339.95">
  <!-- Generator: Adobe Illustrator 30.1.0, SVG Export Plug-In . SVG Version: 2.1.1 Build 136)  -->
  <defs>
    <style>
      .st0 {
        clip-path: url(#clippath-6);
      }

      .st1 {
        clip-path: url(#clippath-7);
      }

      .st2 {
        stroke: #4682b4;
      }

      .st2, .st3, .st4, .st5, .st6, .st7 {
        fill: none;
      }

      .st2, .st4, .st5 {
        stroke-width: 2px;
      }

      .st2, .st4, .st5, .st6, .st7 {
        stroke-linecap: square;
      }

      .st2, .st4, .st5, .st8, .st7 {
        stroke-linejoin: round;
      }

      .st9 {
        clip-path: url(#clippath-4);
      }

      .st10 {
        isolation: isolate;
        opacity: .8;
        stroke: #ccc;
      }

      .st10, .st11 {
        fill: #fff;
      }

      .st12 {
        clip-path: url(#clippath-9);
      }

      .st13 {
        clip-path: url(#clippath-10);
      }

      .st14 {
        clip-path: url(#clippath-11);
      }

      .st15 {
        clip-path: url(#clippath-1);
      }

      .st16 {
        clip-path: url(#clippath-5);
      }

      .st17 {
        clip-path: url(#clippath-8);
      }

      .st4 {
        stroke: #2e8b57;
      }

      .st5 {
        stroke: gold;
      }

      .st6, .st8 {
        stroke: #000;
      }

      .st6, .st8, .st7 {
        stroke-width: .8px;
      }

      .st18 {
        clip-path: url(#clippath-3);
      }

      .st19 {
        clip-path: url(#clippath-12);
      }

      .st20 {
        clip-path: url(#clippath-14);
      }

      .st7 {
        stroke: #b0b0b0;
        stroke-opacity: .3;
      }

      .st21 {
        clip-path: url(#clippath-2);
      }

      .st22 {
        clip-path: url(#clippath-13);
      }

      .st23 {
        clip-path: url(#clippath);
      }
    </style>
    <clipPath id="clippath">
      <rect class="st3" x="55.58" y="23.23" width="390.6" height="277.2"/>
    </clipPath>
    <clipPath id="clippath-1">
      <rect class="st3" x="55.58" y="23.23" width="390.6" height="277.2"/>
    </clipPath>
    <clipPath id="clippath-2">
      <rect class="st3" x="55.58" y="23.23" width="390.6" height="277.2"/>
    </clipPath>
    <clipPath id="clippath-3">
      <rect class="st3" x="55.58" y="23.23" width="390.6" height="277.2"/>
    </clipPath>
    <clipPath id="clippath-4">
      <rect class="st3" x="55.58" y="23.23" width="390.6" height="277.2"/>
    </clipPath>
    <clipPath id="clippath-5">
      <rect class="st3" x="55.58" y="23.23" width="390.6" height="277.2"/>
    </clipPath>
    <clipPath id="clippath-6">
      <rect class="st3" x="55.58" y="23.23" width="390.6" height="277.2"/>
    </clipPath>
    <clipPath id="clippath-7">
      <rect class="st3" x="55.58" y="23.23" width="390.6" height="277.2"/>
    </clipPath>
    <clipPath id="clippath-8">
      <rect class="st3" x="55.58" y="23.23" width="390.6" height="277.2"/>
    </clipPath>
    <clipPath id="clippath-9">
      <rect class="st3" x="55.58" y="23.23" width="390.6" height="277.2"/>
    </clipPath>
    <clipPath id="clippath-10">
      <rect class="st3" x="55.58" y="23.23" width="390.6" height="277.2"/>
    </clipPath>
    <clipPath id="clippath-11">
      <rect class="st3" x="55.58" y="23.23" width="390.6" height="277.2"/>
    </clipPath>
    <clipPath id="clippath-12">
      <rect class="st3" x="55.58" y="23.23" width="390.6" height="277.2"/>
    </clipPath>
    <clipPath id="clippath-13">
      <rect class="st3" x="55.58" y="23.23" width="390.6" height="277.2"/>
    </clipPath>
    <clipPath id="clippath-14">
      <rect class="st3" x="55.58" y="23.23" width="390.6" height="277.2"/>
    </clipPath>
  </defs>
  <path class="st11" d="M0,339.95h453.38V0H0v339.95Z"/>
  <path class="st11" d="M55.58,300.43h390.6V23.23H55.58v277.2Z"/>
  <g class="st23">
    <path class="st7" d="M73.34,300.43V23.23"/>
  </g>
  <path id="m45dbcebc54" class="st8" d="M73.34,300.43v3.5"/>
  <path id="DejaVuSerif-2212" d="M66.39,311.91h6.89v.87h-6.89v-.87Z"/>
  <path id="DejaVuSerif-33" d="M75.51,308.11c.42-.16.82-.28,1.2-.36.38-.08.75-.12,1.08-.12.78,0,1.4.17,1.84.51.44.34.66.81.66,1.41,0,.48-.15.89-.46,1.21-.3.32-.73.54-1.29.66.66.09,1.17.33,1.53.72s.54.88.54,1.5c0,.75-.25,1.32-.75,1.72-.5.4-1.23.6-2.17.6-.42,0-.83-.05-1.23-.14-.4-.09-.79-.23-1.19-.41v-1.56h.6c.04.52.21.91.52,1.17.31.26.75.4,1.31.4s.98-.16,1.3-.47c.32-.32.48-.75.48-1.3,0-.63-.16-1.11-.49-1.43-.33-.32-.8-.49-1.43-.49h-.51v-.55h.27c.63,0,1.1-.13,1.41-.39.31-.26.47-.65.47-1.17,0-.47-.13-.83-.39-1.08-.26-.25-.63-.37-1.11-.37s-.86.11-1.13.34c-.27.23-.42.57-.47,1.02h-.6v-1.41Z"/>
  <g class="st15">
    <path class="st7" d="M132.52,300.43V23.23"/>
  </g>
  <path id="m45dbcebc541" data-name="m45dbcebc54" class="st8" d="M132.52,300.43v3.5"/>
  <path id="DejaVuSerif-22121" data-name="DejaVuSerif-2212" d="M125.57,311.91h6.89v.87h-6.89v-.87Z"/>
  <path id="DejaVuSerif-32" d="M135.03,309.68h-.6v-1.43c.38-.21.77-.36,1.16-.47.39-.11.77-.16,1.14-.16.83,0,1.49.2,1.98.61s.73.95.73,1.65c0,.78-.55,1.72-1.64,2.82-.09.08-.15.14-.19.19l-2.02,2.02h3.35v-.99h.63v1.87h-5.17v-.59l2.43-2.43c.54-.54.92-1.03,1.15-1.48s.34-.92.34-1.42c0-.54-.14-.96-.42-1.27-.28-.3-.67-.46-1.16-.46s-.91.13-1.19.38c-.28.25-.44.64-.49,1.14Z"/>
  <g class="st21">
    <path class="st7" d="M191.7,300.43V23.23"/>
  </g>
  <path id="m45dbcebc542" data-name="m45dbcebc54" class="st8" d="M191.7,300.43v3.5"/>
  <path id="DejaVuSerif-22122" data-name="DejaVuSerif-2212" d="M184.76,311.91h6.89v.87h-6.89v-.87Z"/>
  <path id="DejaVuSerif-31" d="M194.37,315.79v-.57h1.4v-6.67l-1.62,1.05v-.7l1.96-1.27h.74v7.6h1.4v.57h-3.87Z"/>
  <g class="st18">
    <path class="st7" d="M250.88,300.43V23.23"/>
  </g>
  <path id="m45dbcebc543" data-name="m45dbcebc54" class="st8" d="M250.88,300.43v3.5"/>
  <path id="DejaVuSerif-30" d="M250.88,315.41c.55,0,.96-.3,1.23-.9.27-.6.41-1.51.41-2.72s-.14-2.13-.41-2.73c-.27-.6-.68-.9-1.23-.9s-.96.3-1.23.9c-.27.6-.41,1.51-.41,2.73s.14,2.12.41,2.72c.27.6.68.9,1.23.9ZM250.88,315.94c-.87,0-1.55-.36-2.04-1.09-.49-.73-.73-1.75-.73-3.06s.24-2.34.73-3.07c.49-.73,1.17-1.1,2.04-1.1s1.55.37,2.04,1.1c.49.73.73,1.75.73,3.07s-.24,2.33-.73,3.06c-.49.73-1.17,1.09-2.04,1.09Z"/>
  <g class="st9">
    <path class="st7" d="M310.06,300.43V23.23"/>
  </g>
  <path id="m45dbcebc544" data-name="m45dbcebc54" class="st8" d="M310.06,300.43v3.5"/>
  <path id="DejaVuSerif-311" data-name="DejaVuSerif-31" d="M308.13,315.79v-.57h1.4v-6.67l-1.62,1.05v-.7l1.96-1.27h.74v7.6h1.4v.57h-3.87Z"/>
  <g class="st16">
    <path class="st7" d="M369.24,300.43V23.23"/>
  </g>
  <path id="m45dbcebc545" data-name="m45dbcebc54" class="st8" d="M369.24,300.43v3.5"/>
  <path id="DejaVuSerif-321" data-name="DejaVuSerif-32" d="M367.15,309.68h-.6v-1.43c.38-.21.77-.36,1.16-.47.39-.11.77-.16,1.14-.16.83,0,1.49.2,1.98.61s.73.95.73,1.65c0,.78-.55,1.72-1.64,2.82-.09.08-.15.14-.19.19l-2.02,2.02h3.35v-.99h.63v1.87h-5.17v-.59l2.43-2.43c.54-.54.92-1.03,1.15-1.48s.34-.92.34-1.42c0-.54-.14-.96-.42-1.27-.28-.3-.67-.46-1.16-.46s-.91.13-1.19.38c-.28.25-.44.64-.49,1.14Z"/>
  <g class="st0">
    <path class="st7" d="M428.43,300.43V23.23"/>
  </g>
  <path id="m45dbcebc546" data-name="m45dbcebc54" class="st8" d="M428.43,300.43v3.5"/>
  <path id="DejaVuSerif-331" data-name="DejaVuSerif-33" d="M426,308.11c.42-.16.82-.28,1.2-.36.38-.08.75-.12,1.08-.12.78,0,1.4.17,1.84.51.44.34.66.81.66,1.41,0,.48-.15.89-.46,1.21-.3.32-.73.54-1.29.66.66.09,1.17.33,1.53.72s.54.88.54,1.5c0,.75-.25,1.32-.75,1.72-.5.4-1.23.6-2.17.6-.42,0-.83-.05-1.23-.14-.4-.09-.79-.23-1.19-.41v-1.56h.6c.04.52.21.91.52,1.17.31.26.75.4,1.31.4s.98-.16,1.3-.47c.32-.32.48-.75.48-1.3,0-.63-.16-1.11-.49-1.43-.33-.32-.8-.49-1.43-.49h-.51v-.55h.27c.63,0,1.1-.13,1.41-.39.31-.26.47-.65.47-1.17,0-.47-.13-.83-.39-1.08-.26-.25-.63-.37-1.11-.37s-.86.11-1.13.34c-.27.23-.42.57-.47,1.02h-.6v-1.41Z"/>
  <path id="DejaVuSerif-46" d="M206.94,330.19v-.57h1.02v-6.87h-1.02v-.58h6.56v1.78h-.66v-1.12h-3.79v2.68h2.74v-1h.66v2.66h-.66v-1.01h-2.74v3.45h1.28v.57h-3.39Z"/>
  <path id="DejaVuSerif-72" d="M219.22,324.47v1.43h-.57c-.02-.28-.1-.49-.24-.63s-.34-.21-.61-.21c-.49,0-.86.17-1.12.51-.26.34-.39.82-.39,1.45v2.61h1.14v.57h-3.02v-.57h.89v-4.58h-.95v-.56h1.93v1.02c.19-.4.44-.69.75-.88.3-.19.68-.29,1.11-.29.16,0,.33.01.51.04s.36.06.56.11Z"/>
  <path id="DejaVuSerif-65" d="M225.18,327.44h-4.26v.04c0,.77.14,1.35.43,1.74s.72.59,1.28.59c.43,0,.79-.11,1.07-.34.28-.23.47-.57.58-1.01h.8c-.16.63-.45,1.1-.87,1.41-.42.32-.98.47-1.67.47-.83,0-1.5-.27-2.01-.82-.51-.55-.76-1.28-.76-2.19s.25-1.63.75-2.18c.5-.55,1.15-.83,1.96-.83.86,0,1.53.27,1.99.8.46.53.7,1.3.72,2.32ZM224.02,326.87c-.02-.67-.16-1.17-.42-1.51-.26-.34-.63-.51-1.12-.51-.45,0-.81.17-1.07.51s-.42.84-.48,1.5h3.09Z"/>
  <path id="DejaVuSerif-71" d="M231.5,325.06v6.85h.95v.57h-2.87v-.57h.93v-2.61c-.19.36-.44.62-.74.79-.3.17-.67.25-1.11.25-.7,0-1.27-.28-1.72-.84-.45-.56-.67-1.28-.67-2.18s.22-1.62.67-2.17c.44-.56,1.02-.83,1.72-.83.44,0,.81.09,1.11.26.3.17.54.43.74.79v-.89h1.93v.57h-.95ZM230.52,327.06c0-.68-.13-1.21-.4-1.57-.26-.36-.64-.54-1.14-.54s-.89.2-1.15.6c-.26.4-.39,1-.39,1.79s.13,1.38.39,1.79c.26.4.64.61,1.15.61s.88-.18,1.14-.54c.26-.36.4-.88.4-1.57v-.56Z"/>
  <path id="DejaVuSerif-75" d="M236.67,324.48h1.85v5.14h.93v.57h-1.92v-1.01c-.18.38-.42.67-.71.87-.29.2-.63.3-1.01.3-.63,0-1.1-.18-1.4-.54-.3-.36-.45-.93-.45-1.69v-3.06h-.89v-.57h1.89v3.32c0,.7.08,1.17.25,1.43.17.26.47.39.91.39.46,0,.81-.17,1.05-.51.24-.34.36-.83.36-1.47v-2.6h-.86v-.57Z"/>
  <path id="DejaVuSerif-651" data-name="DejaVuSerif-65" d="M245.82,327.44h-4.26v.04c0,.77.14,1.35.43,1.74s.72.59,1.28.59c.43,0,.79-.11,1.07-.34.28-.23.47-.57.58-1.01h.8c-.16.63-.45,1.1-.87,1.41-.42.32-.98.47-1.67.47-.83,0-1.5-.27-2.01-.82-.51-.55-.76-1.28-.76-2.19s.25-1.63.75-2.18c.5-.55,1.15-.83,1.96-.83.86,0,1.53.27,1.99.8.46.53.7,1.3.72,2.32ZM244.65,326.87c-.02-.67-.16-1.17-.42-1.51-.26-.34-.63-.51-1.12-.51-.45,0-.81.17-1.07.51s-.42.84-.48,1.5h3.09Z"/>
  <path id="DejaVuSerif-6e" d="M246.82,330.19v-.57h.89v-4.57h-.95v-.57h1.93v1.02c.18-.39.42-.68.71-.88.29-.2.63-.3,1.02-.3.63,0,1.09.18,1.39.54s.45.93.45,1.69v3.06h.88v.57h-2.73v-.57h.85v-2.75c0-.7-.09-1.18-.26-1.44-.17-.26-.47-.39-.91-.39-.46,0-.81.17-1.05.5-.24.33-.36.82-.36,1.46v2.61h.86v.57h-2.74Z"/>
  <path id="DejaVuSerif-63" d="M259.11,328.48c-.14.61-.41,1.07-.81,1.39-.4.32-.91.48-1.54.48-.83,0-1.5-.27-2-.82-.5-.55-.76-1.28-.76-2.19s.25-1.64.76-2.19c.51-.55,1.17-.82,2-.82.36,0,.72.04,1.08.13.36.08.72.21,1.08.38v1.46h-.57c-.08-.5-.24-.87-.49-1.09s-.61-.34-1.08-.34c-.53,0-.94.21-1.21.62-.27.41-.41,1.03-.41,1.85s.14,1.44.41,1.86c.27.41.67.62,1.21.62.43,0,.77-.11,1.02-.33.25-.22.43-.56.52-1.01h.8Z"/>
  <path id="DejaVuSerif-79" d="M261.99,331.24l.38-.95-2.13-5.23h-.65v-.57h2.63v.57h-.91l1.61,3.93,1.61-3.93h-.85v-.57h2.14v.57h-.64l-2.62,6.42c-.18.44-.38.75-.6.91-.22.16-.53.24-.92.24-.17,0-.34-.01-.52-.04-.18-.03-.35-.07-.53-.12v-1.09h.51c.02.24.08.42.19.52.1.11.26.16.47.16.2,0,.36-.05.48-.16.12-.11.25-.33.38-.66Z"/>
  <path id="DejaVuSerif-20" d="M265.83,330.19"/>
  <path id="DejaVuSans-3a9" d="M277.31,329.24v.96h-3.22v-.96c.63-.35,1.13-.82,1.48-1.41.36-.59.53-1.25.53-1.98,0-.86-.24-1.55-.71-2.07-.47-.52-1.09-.78-1.87-.78s-1.4.26-1.87.78c-.47.52-.71,1.21-.71,2.06,0,.72.18,1.38.53,1.98.36.59.86,1.07,1.49,1.41v.96h-3.22v-.96h1.71c-.57-.5-.98-1.01-1.24-1.55-.26-.53-.39-1.13-.39-1.79,0-1.14.34-2.06,1.03-2.77.68-.71,1.57-1.06,2.66-1.06s1.97.35,2.66,1.06c.69.7,1.03,1.61,1.03,2.71,0,.69-.13,1.31-.38,1.84-.25.53-.67,1.05-1.25,1.55h1.72Z"/>
  <path id="DejaVuSans-2f" d="M280.52,322.17h.91l-2.79,9.04h-.91l2.79-9.04Z"/>
  <path id="DejaVuSans-Oblique-3c9" d="M283.79,330.35c-1.49,0-2.02-1.06-1.61-3.19.16-.84.63-1.83,1.41-2.98h1.06c-.74,1.15-1.19,2.15-1.35,3.01-.31,1.55-.06,2.33.74,2.33.74,0,1.29-.96,1.65-2.89h.91c-.39,1.94-.21,2.9.53,2.89.8,0,1.35-.78,1.65-2.33.16-.86.1-1.86-.18-3.01h1.06c.33,1.15.41,2.14.25,2.98-.41,2.13-1.36,3.2-2.85,3.19-.97,0-1.42-.54-1.33-1.61-.35,1.07-1,1.61-1.95,1.61Z"/>
  <path id="DejaVuSans-Oblique-6b" d="M292.06,326.15h.69l-.66,3.41,2.37-1.77h.9l-2.65,2.02,1.93,2.2h-.84l-1.8-2.06-.4,2.06h-.69l1.14-5.85Z"/>
  <g class="st1">
    <path class="st7" d="M55.58,279.99h390.6"/>
  </g>
  <path id="m5026889587" class="st8" d="M55.58,279.99h-3.5"/>
  <path id="DejaVuSerif-22123" data-name="DejaVuSerif-2212" d="M23.04,280.29h6.89v.87h-6.89v-.87Z"/>
  <path id="DejaVuSerif-312" data-name="DejaVuSerif-31" d="M32.65,284.17v-.57h1.4v-6.67l-1.62,1.05v-.7l1.96-1.27h.74v7.6h1.4v.57h-3.87Z"/>
  <path id="DejaVuSerif-2e" d="M39.12,283.61c0-.2.07-.37.2-.51s.31-.21.51-.21.36.07.5.21c.14.14.21.31.21.51s-.07.37-.21.51c-.14.14-.31.21-.5.21s-.37-.07-.51-.21c-.14-.14-.2-.31-.2-.51Z"/>
  <path id="DejaVuSerif-301" data-name="DejaVuSerif-30" d="M45.08,283.79c.55,0,.96-.3,1.23-.9.27-.6.41-1.51.41-2.72s-.14-2.13-.41-2.73c-.27-.6-.68-.9-1.23-.9s-.96.3-1.23.9c-.27.6-.41,1.51-.41,2.73s.14,2.12.41,2.72c.27.6.68.9,1.23.9ZM45.08,284.33c-.87,0-1.55-.36-2.04-1.09-.49-.73-.73-1.75-.73-3.06s.24-2.34.73-3.07c.49-.73,1.17-1.1,2.04-1.1s1.55.37,2.04,1.1c.49.73.73,1.75.73,3.07s-.24,2.33-.73,3.06c-.49.73-1.17,1.09-2.04,1.09Z"/>
  <g class="st17">
    <path class="st7" d="M55.58,220.91h390.6"/>
  </g>
  <path id="m50268895871" data-name="m5026889587" class="st8" d="M55.58,220.91h-3.5"/>
  <path id="DejaVuSerif-22124" data-name="DejaVuSerif-2212" d="M23.04,221.21h6.89v.87h-6.89v-.87Z"/>
  <path id="DejaVuSerif-302" data-name="DejaVuSerif-30" d="M34.58,224.71c.55,0,.96-.3,1.23-.9.27-.6.41-1.51.41-2.72s-.14-2.13-.41-2.73c-.27-.6-.68-.9-1.23-.9s-.96.3-1.23.9c-.27.6-.41,1.51-.41,2.73s.14,2.12.41,2.72c.27.6.68.9,1.23.9ZM34.58,225.25c-.87,0-1.55-.36-2.04-1.09-.49-.73-.73-1.75-.73-3.06s.24-2.34.73-3.07c.49-.73,1.17-1.1,2.04-1.1s1.55.37,2.04,1.1c.49.73.73,1.75.73,3.07s-.24,2.33-.73,3.06c-.49.73-1.17,1.09-2.04,1.09Z"/>
  <path id="DejaVuSerif-2e1" data-name="DejaVuSerif-2e" d="M39.12,224.53c0-.2.07-.37.2-.51s.31-.21.51-.21.36.07.5.21c.14.14.21.31.21.51s-.07.37-.21.51c-.14.14-.31.21-.5.21s-.37-.07-.51-.21c-.14-.14-.2-.31-.2-.51Z"/>
  <path id="DejaVuSerif-35" d="M47.11,217.07v.88h-3.67v2.3c.19-.13.4-.22.65-.29.25-.07.53-.1.84-.1.87,0,1.55.24,2.05.72.5.48.75,1.14.75,1.97s-.25,1.51-.76,1.99c-.51.47-1.22.71-2.13.71-.37,0-.75-.05-1.13-.14-.39-.09-.78-.23-1.19-.41v-1.56h.61c.03.51.19.9.48,1.17.29.27.7.4,1.23.4.57,0,1-.19,1.3-.56.3-.37.46-.91.46-1.61s-.15-1.23-.45-1.6c-.3-.37-.74-.56-1.31-.56-.32,0-.61.06-.85.17-.25.11-.46.29-.65.53h-.46v-4.03h4.24Z"/>
  <g class="st12">
    <path class="st7" d="M55.58,161.83h390.6"/>
  </g>
  <path id="m50268895872" data-name="m5026889587" class="st8" d="M55.58,161.83h-3.5"/>
  <path id="DejaVuSerif-303" data-name="DejaVuSerif-30" d="M34.58,165.63c.55,0,.96-.3,1.23-.9.27-.6.41-1.51.41-2.72s-.14-2.13-.41-2.73c-.27-.6-.68-.9-1.23-.9s-.96.3-1.23.9c-.27.6-.41,1.51-.41,2.73s.14,2.12.41,2.72c.27.6.68.9,1.23.9ZM34.58,166.17c-.87,0-1.55-.36-2.04-1.09-.49-.73-.73-1.75-.73-3.06s.24-2.34.73-3.07c.49-.73,1.17-1.1,2.04-1.1s1.55.37,2.04,1.1c.49.73.73,1.75.73,3.07s-.24,2.33-.73,3.06c-.49.73-1.17,1.09-2.04,1.09Z"/>
  <path id="DejaVuSerif-2e2" data-name="DejaVuSerif-2e" d="M39.12,165.45c0-.2.07-.37.2-.51s.31-.21.51-.21.36.07.5.21c.14.14.21.31.21.51s-.07.37-.21.51c-.14.14-.31.21-.5.21s-.37-.07-.51-.21c-.14-.14-.2-.31-.2-.51Z"/>
  <path id="DejaVuSerif-304" data-name="DejaVuSerif-30" d="M45.08,165.63c.55,0,.96-.3,1.23-.9.27-.6.41-1.51.41-2.72s-.14-2.13-.41-2.73c-.27-.6-.68-.9-1.23-.9s-.96.3-1.23.9c-.27.6-.41,1.51-.41,2.73s.14,2.12.41,2.72c.27.6.68.9,1.23.9ZM45.08,166.17c-.87,0-1.55-.36-2.04-1.09-.49-.73-.73-1.75-.73-3.06s.24-2.34.73-3.07c.49-.73,1.17-1.1,2.04-1.1s1.55.37,2.04,1.1c.49.73.73,1.75.73,3.07s-.24,2.33-.73,3.06c-.49.73-1.17,1.09-2.04,1.09Z"/>
  <g class="st13">
    <path class="st7" d="M55.58,102.75h390.6"/>
  </g>
  <path id="m50268895873" data-name="m5026889587" class="st8" d="M55.58,102.75h-3.5"/>
  <path id="DejaVuSerif-305" data-name="DejaVuSerif-30" d="M34.58,106.55c.55,0,.96-.3,1.23-.9.27-.6.41-1.51.41-2.72s-.14-2.13-.41-2.73c-.27-.6-.68-.9-1.23-.9s-.96.3-1.23.9c-.27.6-.41,1.51-.41,2.73s.14,2.12.41,2.72c.27.6.68.9,1.23.9ZM34.58,107.08c-.87,0-1.55-.36-2.04-1.09-.49-.73-.73-1.75-.73-3.06s.24-2.34.73-3.07c.49-.73,1.17-1.1,2.04-1.1s1.55.37,2.04,1.1c.49.73.73,1.75.73,3.07s-.24,2.33-.73,3.06c-.49.73-1.17,1.09-2.04,1.09Z"/>
  <path id="DejaVuSerif-2e3" data-name="DejaVuSerif-2e" d="M39.12,106.37c0-.2.07-.37.2-.51s.31-.21.51-.21.36.07.5.21c.14.14.21.31.21.51s-.07.37-.21.51c-.14.14-.31.21-.5.21s-.37-.07-.51-.21c-.14-.14-.2-.31-.2-.51Z"/>
  <path id="DejaVuSerif-351" data-name="DejaVuSerif-35" d="M47.12,98.91v.88h-3.67v2.3c.19-.13.4-.22.65-.29.25-.07.53-.1.84-.1.87,0,1.55.24,2.05.72.5.48.75,1.14.75,1.97s-.25,1.51-.76,1.99c-.51.47-1.22.71-2.13.71-.37,0-.75-.05-1.13-.14-.39-.09-.78-.23-1.19-.41v-1.56h.61c.03.51.19.9.48,1.17.29.27.7.4,1.23.4.57,0,1-.19,1.3-.56.3-.37.46-.91.46-1.61s-.15-1.23-.45-1.6c-.3-.37-.74-.56-1.31-.56-.32,0-.61.06-.85.17-.25.11-.46.29-.65.53h-.46v-4.03h4.24Z"/>
  <g class="st14">
    <path class="st7" d="M55.58,43.67h390.6"/>
  </g>
  <path id="m50268895874" data-name="m5026889587" class="st8" d="M55.58,43.67h-3.5"/>
  <path id="DejaVuSerif-313" data-name="DejaVuSerif-31" d="M32.65,47.85v-.57h1.4v-6.67l-1.62,1.05v-.7l1.96-1.27h.74v7.6h1.4v.57h-3.87Z"/>
  <path id="DejaVuSerif-2e4" data-name="DejaVuSerif-2e" d="M39.12,47.29c0-.2.07-.37.2-.51s.31-.21.51-.21.36.07.5.21c.14.14.21.31.21.51s-.07.37-.21.51c-.14.14-.31.21-.5.21s-.37-.07-.51-.21c-.14-.14-.2-.31-.2-.51Z"/>
  <path id="DejaVuSerif-306" data-name="DejaVuSerif-30" d="M45.08,47.47c.55,0,.96-.3,1.23-.9.27-.6.41-1.51.41-2.72s-.14-2.13-.41-2.73c-.27-.6-.68-.9-1.23-.9s-.96.3-1.23.9c-.27.6-.41,1.51-.41,2.73s.14,2.12.41,2.72c.27.6.68.9,1.23.9ZM45.08,48c-.87,0-1.55-.36-2.04-1.09-.49-.73-.73-1.75-.73-3.06s.24-2.34.73-3.07c.49-.73,1.17-1.1,2.04-1.1s1.55.37,2.04,1.1c.49.73.73,1.75.73,3.07s-.24,2.33-.73,3.06c-.49.73-1.17,1.09-2.04,1.09Z"/>
  <path id="DejaVuSerif-53" d="M15.17,227.25h-1.83v-.62c.62-.02,1.07-.19,1.36-.53.29-.33.44-.84.44-1.53,0-.64-.13-1.12-.38-1.46-.25-.34-.62-.5-1.1-.5-.39,0-.68.1-.89.3-.21.2-.41.63-.61,1.28l-.32,1.06c-.23.77-.52,1.31-.87,1.62s-.82.47-1.43.47c-.68,0-1.21-.24-1.58-.72-.38-.48-.56-1.16-.56-2.04,0-.37.04-.78.12-1.22.08-.44.2-.92.35-1.42h1.71v.61c-.57.06-.98.25-1.23.57-.25.32-.38.8-.38,1.45,0,.56.12,1,.35,1.29.23.3.57.44,1.01.44.38,0,.68-.11.9-.33.22-.22.43-.69.65-1.41l.3-.99c.22-.73.5-1.24.84-1.55.34-.31.79-.47,1.36-.47.78,0,1.36.25,1.76.75.39.5.59,1.24.59,2.22,0,.44-.05.89-.14,1.35-.09.46-.23.92-.41,1.39Z"/>
  <path id="DejaVuSerif-70" d="M12.42,218.48h.56c.69,0,1.21-.13,1.57-.39.36-.26.54-.65.54-1.15s-.2-.89-.61-1.15c-.4-.26-1-.39-1.79-.39s-1.39.13-1.79.39c-.4.26-.6.64-.6,1.15s.18.88.54,1.15c.36.26.88.39,1.57.39ZM10.42,219.47v.95h-.57v-1.94h.89c-.36-.19-.62-.44-.79-.74-.17-.3-.26-.67-.26-1.11,0-.7.28-1.27.83-1.72.55-.44,1.28-.67,2.17-.67s1.62.22,2.18.67c.56.44.84,1.02.84,1.72,0,.44-.08.81-.25,1.11-.17.3-.44.54-.79.74h2.61v-.93h.57v2.87h-.57v-.95h-6.85Z"/>
  <path id="DejaVuSerif-652" data-name="DejaVuSerif-65" d="M12.81,207.73v4.26h.04c.77,0,1.35-.14,1.74-.43s.59-.72.59-1.28c0-.43-.11-.79-.34-1.07-.23-.28-.57-.47-1.01-.58v-.8c.63.16,1.1.45,1.41.87.32.42.47.98.47,1.67,0,.83-.27,1.5-.82,2.01-.55.51-1.28.76-2.19.76s-1.63-.25-2.18-.75c-.55-.5-.83-1.15-.83-1.96,0-.86.27-1.53.8-1.99.53-.46,1.3-.7,2.32-.72ZM12.24,208.9c-.67.02-1.17.16-1.51.42-.34.26-.51.63-.51,1.12,0,.45.17.81.51,1.07s.84.42,1.5.48v-3.09Z"/>
  <path id="DejaVuSerif-631" data-name="DejaVuSerif-63" d="M13.84,201.53c.61.14,1.07.41,1.39.81.32.4.48.91.48,1.54,0,.83-.27,1.5-.82,2-.55.5-1.28.76-2.19.76s-1.64-.25-2.19-.76c-.55-.51-.82-1.17-.82-2,0-.36.04-.72.13-1.08.08-.36.21-.72.38-1.08h1.46v.57c-.5.08-.87.24-1.09.49s-.34.61-.34,1.08c0,.53.21.94.62,1.21.41.27,1.03.41,1.85.41s1.44-.14,1.86-.41c.41-.27.62-.67.62-1.21,0-.43-.11-.77-.33-1.02-.22-.25-.56-.43-1.01-.52v-.8Z"/>
  <path id="DejaVuSerif-74" d="M10.42,199.83v.87h-.57v-.87h-1.77v-.99h1.77v-1.86h.57v1.86h3.63c.48,0,.79-.05.93-.14.14-.09.2-.26.2-.52s-.08-.45-.23-.56c-.15-.12-.4-.18-.74-.19v-.75c.52.03.9.17,1.14.42.24.25.36.64.36,1.16,0,.57-.13.97-.38,1.21-.25.24-.68.35-1.29.35h-3.63Z"/>
  <path id="DejaVuSerif-721" data-name="DejaVuSerif-72" d="M9.84,191.34h1.43v.57c-.28.02-.49.1-.63.24s-.21.34-.21.61c0,.49.17.86.51,1.12.34.26.82.39,1.45.39h2.61v-1.14h.57v3.02h-.57v-.89h-4.58v.95h-.56v-1.93h1.02c-.4-.19-.69-.44-.88-.75-.19-.3-.29-.68-.29-1.11,0-.16.01-.33.04-.51s.06-.36.11-.56Z"/>
  <path id="DejaVuSerif-61" d="M13.76,186.97h-1.21v1.27c0,.49.11.86.32,1.1.21.24.53.36.97.36.4,0,.71-.12.95-.36.23-.24.35-.57.35-.99s-.13-.74-.38-1c-.25-.25-.59-.38-.99-.38ZM11.99,185.98h3v-.88h.57v1.87h-.62c.26.22.46.47.59.76.12.29.19.62.19,1,0,.63-.17,1.14-.51,1.51-.34.37-.79.56-1.36.56s-1.05-.21-1.37-.64-.49-1.03-.49-1.8v-1.39h-.39c-.43,0-.77.13-1.01.4-.24.26-.36.63-.36,1.11,0,.39.09.71.27.94.18.23.44.38.8.43v.51h-1.15c-.15-.34-.26-.68-.33-1-.07-.32-.11-.64-.11-.95,0-.79.2-1.39.59-1.81.39-.41.96-.62,1.71-.62Z"/>
  <path id="DejaVuSerif-6c" d="M14.99,182.53v-.93h.57v2.87h-.57v-.95h-7.22v.95h-.57v-1.94h7.79Z"/>
  <path id="DejaVuSerif-201" data-name="DejaVuSerif-20" d="M15.56,181.27"/>
  <path id="DejaVuSerif-461" data-name="DejaVuSerif-46" d="M15.56,177.16h-.57v-1.02h-6.87v1.02h-.58v-6.56h1.78v.66h-1.12v3.79h2.68v-2.74h-1v-.66h2.66v.66h-1.01v2.74h3.45v-1.28h.57v3.39Z"/>
  <path id="DejaVuSerif-751" data-name="DejaVuSerif-75" d="M9.85,166.24v-1.85h5.14v-.93h.57v1.92h-1.01c.38.18.67.42.87.71.2.29.3.63.3,1.01,0,.63-.18,1.1-.54,1.4-.36.3-.93.45-1.69.45h-3.06v.89h-.57v-1.89h3.32c.7,0,1.17-.08,1.43-.25.26-.17.39-.47.39-.91,0-.46-.17-.81-.51-1.05-.34-.24-.83-.36-1.47-.36h-2.6v.86h-.57Z"/>
  <path id="DejaVuSerif-6e1" data-name="DejaVuSerif-6e" d="M15.56,162.6h-.57v-.89h-4.57v.95h-.57v-1.93h1.02c-.39-.18-.68-.42-.88-.71-.2-.29-.3-.63-.3-1.02,0-.63.18-1.09.54-1.39s.93-.45,1.69-.45h3.06v-.88h.57v2.73h-.57v-.85h-2.75c-.7,0-1.18.09-1.44.26-.26.17-.39.47-.39.91,0,.46.17.81.5,1.05.33.24.82.36,1.46.36h2.61v-.86h.57v2.74Z"/>
  <path id="DejaVuSerif-632" data-name="DejaVuSerif-63" d="M13.84,150.31c.61.14,1.07.41,1.39.81.32.4.48.91.48,1.54,0,.83-.27,1.5-.82,2-.55.5-1.28.76-2.19.76s-1.64-.25-2.19-.76c-.55-.51-.82-1.17-.82-2,0-.36.04-.72.13-1.08.08-.36.21-.72.38-1.08h1.46v.57c-.5.08-.87.24-1.09.49s-.34.61-.34,1.08c0,.53.21.94.62,1.21.41.27,1.03.41,1.85.41s1.44-.14,1.86-.41c.41-.27.62-.67.62-1.21,0-.43-.11-.77-.33-1.02-.22-.25-.56-.43-1.01-.52v-.8Z"/>
  <path id="DejaVuSerif-741" data-name="DejaVuSerif-74" d="M10.42,148.62v.87h-.57v-.87h-1.77v-.99h1.77v-1.86h.57v1.86h3.63c.48,0,.79-.05.93-.14.14-.09.2-.26.2-.52s-.08-.45-.23-.56c-.15-.12-.4-.18-.74-.19v-.75c.52.03.9.17,1.14.42.24.25.36.64.36,1.16,0,.57-.13.97-.38,1.21-.25.24-.68.35-1.29.35h-3.63Z"/>
  <path id="DejaVuSerif-69" d="M8.08,144.32c-.16,0-.31-.06-.43-.18-.12-.12-.18-.26-.18-.43s.06-.31.18-.43c.12-.12.26-.18.43-.18s.31.06.43.18c.12.12.18.26.18.43s-.06.31-.18.43c-.12.12-.26.18-.43.18ZM14.99,143.06v-.93h.57v2.87h-.57v-.95h-4.57v.95h-.57v-1.93h5.14Z"/>
  <path id="DejaVuSerif-6f" d="M15.18,138.56c0-.53-.21-.93-.63-1.2-.42-.27-1.04-.41-1.85-.41s-1.43.14-1.85.41c-.42.27-.63.67-.63,1.2s.21.93.63,1.2,1.03.41,1.85.41,1.44-.14,1.85-.41c.42-.27.63-.67.63-1.2ZM15.71,138.56c0,.83-.27,1.5-.82,2-.55.5-1.28.76-2.19.76s-1.64-.25-2.18-.75c-.55-.5-.82-1.17-.82-2.01s.27-1.5.82-2.01c.55-.5,1.28-.75,2.18-.75s1.64.25,2.19.75.82,1.17.82,2.01Z"/>
  <path id="DejaVuSerif-6e2" data-name="DejaVuSerif-6e" d="M15.56,134.8h-.57v-.89h-4.57v.95h-.57v-1.93h1.02c-.39-.18-.68-.42-.88-.71-.2-.29-.3-.63-.3-1.02,0-.63.18-1.09.54-1.39s.93-.45,1.69-.45h3.06v-.88h.57v2.73h-.57v-.85h-2.75c-.7,0-1.18.09-1.44.26-.26.17-.39.47-.39.91,0,.46.17.81.5,1.05.33.24.82.36,1.46.36h2.61v-.86h.57v2.74Z"/>
  <path id="DejaVuSerif-202" data-name="DejaVuSerif-20" d="M15.56,128.16"/>
  <path id="DejaVuSans-Oblique-41" d="M7.54,120.62v-1.23l8.02-1.49v1.13l-2.06.33v3.61l2.06,1.13v1.14l-8.02-4.64ZM8.61,120.23l3.99,2.25v-2.94l-3.99.69Z"/>
  <path id="DejaVuSans-Oblique-6b1" data-name="DejaVuSans-Oblique-6b" d="M11.51,115.73v-.69l3.41.66-1.77-2.37v-.9l2.02,2.65,2.2-1.93v.84l-2.06,1.8,2.06.4v.69l-5.85-1.14Z"/>
  <path id="DejaVuSans-28" d="M7.21,108.97c.82.48,1.64.84,2.44,1.07.81.23,1.62.35,2.45.35s1.64-.12,2.46-.35,1.63-.59,2.45-1.07v.86c-.84.54-1.67.94-2.48,1.2-.81.27-1.62.4-2.42.4s-1.6-.13-2.41-.4c-.81-.27-1.64-.67-2.48-1.21v-.86Z"/>
  <path id="DejaVuSans-3a91" data-name="DejaVuSans-3a9" d="M14.6,100.1h.96v3.22h-.96c-.35-.63-.82-1.13-1.41-1.48-.59-.36-1.25-.53-1.98-.53-.86,0-1.55.24-2.07.71-.52.47-.78,1.09-.78,1.87s.26,1.4.78,1.87c.52.47,1.21.71,2.06.71.72,0,1.38-.18,1.98-.53.59-.36,1.07-.86,1.41-1.49h.96v3.22h-.96v-1.71c-.5.57-1.01.98-1.55,1.24-.53.26-1.13.39-1.79.39-1.14,0-2.06-.34-2.77-1.03-.71-.68-1.06-1.57-1.06-2.66s.35-1.97,1.06-2.66c.7-.69,1.61-1.03,2.71-1.03.69,0,1.31.13,1.84.38.53.25,1.05.67,1.55,1.25v-1.72Z"/>
  <path id="DejaVuSans-29" d="M7.21,98.8v-.86c.84-.54,1.67-.94,2.48-1.2.81-.27,1.61-.4,2.41-.4s1.61.13,2.42.4c.81.27,1.64.67,2.48,1.2v.86c-.82-.48-1.64-.83-2.45-1.07-.81-.23-1.63-.35-2.46-.35s-1.64.12-2.45.35c-.81.23-1.62.59-2.44,1.07Z"/>
  <g class="st19">
    <path class="st5" d="M73.34,166.69l9.6.95,8.53,1.06,7.46,1.15,6.4,1.2,5.69,1.28,5.33,1.42,4.62,1.45,4.27,1.55,3.91,1.64,3.91,1.89,3.55,1.97,3.2,2.01,3.2,2.28,2.84,2.28,2.84,2.55,2.84,2.86,2.84,3.21,2.49,3.14,2.49,3.47,2.49,3.84,2.49,4.24,2.49,4.68,2.49,5.13,2.49,5.6,2.84,6.96,3.2,8.48,4.27,12.04,4.98,13.98,2.49,6.31,1.78,3.96,1.42,2.73,1.42,2.27,1.07,1.37,1.07,1.05,1.07.72,1.07.37.71.05.71-.11.71-.27,1.07-.7,1.07-1.05,1.07-1.39,1.07-1.71,1.42-2.74,1.42-3.22,1.78-4.59,2.13-6.15,2.84-8.94,11.02-35.41,3.2-9.26,3.2-8.62,3.2-8.02,3.55-8.29,3.91-8.52,4.98-10.25,12.44-25.29,3.91-8.62,3.55-8.41,3.2-8.15,3.2-8.76,3.2-9.4,3.55-11.13,11.02-35.24,2.13-5.7,1.78-4.09,1.42-2.74,1.42-2.21,1.07-1.28,1.07-.94,1.07-.58.71-.19.71-.03.71.13,1.07.49,1.07.83,1.07,1.16,1.07,1.47,1.42,2.39,1.42,2.84,1.78,4.06,2.13,5.45,3.2,8.89,7.11,20.03,3.2,8.27,2.84,6.74,2.84,6.13,2.49,4.87,2.49,4.43,2.49,4.01,2.49,3.63,2.49,3.28,2.84,3.36,2.84,2.99,2.84,2.66,2.84,2.38,3.2,2.37,3.2,2.1,3.55,2.05,3.55,1.8,3.91,1.73,4.27,1.63,4.62,1.52,4.98,1.4,5.33,1.27,6.04,1.22,6.75,1.13,7.82,1.07,8.89.97,4.62.43h0"/>
  </g>
  <g class="st22">
    <path class="st2" d="M73.34,168.92l10.31,1.18,9.24,1.28,8.18,1.35,7.46,1.44,7.11,1.6,6.4,1.67,6.04,1.8,5.69,1.93,5.33,2.04,4.98,2.14,4.98,2.39,4.62,2.46,4.62,2.72,4.62,3,4.27,3.03,4.27,3.28,4.62,3.84,4.62,4.13,5.33,5.07,16.71,16.15,2.84,2.31,2.49,1.75,2.13,1.25,1.78.83,1.78.6,1.78.34,1.42.07,1.42-.14,1.42-.35,1.42-.59,1.42-.84,1.42-1.1,1.42-1.38,1.42-1.67,1.42-1.98,1.78-2.91,1.78-3.4,1.78-3.9,1.78-4.39,2.13-5.89,2.13-6.54,2.49-8.36,2.84-10.35,3.91-15.18,8.18-32.09,3.2-11.48,2.49-8.14,2.13-6.33,2.13-5.67,2.13-4.97,1.78-3.6,1.78-3.1,1.78-2.61,1.42-1.75,1.42-1.45,1.42-1.17,1.42-.9,1.42-.65,1.42-.41,1.42-.19,1.42.02,1.42.21,1.78.5,1.78.74,2.13,1.16,2.13,1.41,2.49,1.9,3.2,2.76,3.91,3.68,7.82,7.75,6.75,6.56,4.98,4.55,4.62,3.94,4.62,3.64,4.62,3.34,4.62,3.04,4.62,2.76,4.62,2.5,4.62,2.26,4.98,2.19,5.33,2.09,5.33,1.86,5.69,1.76,6.04,1.64,6.75,1.6,7.11,1.45,7.82,1.37,8.53,1.27,9.6,1.19,4.62.5h0"/>
  </g>
  <g class="st20">
    <path class="st4" d="M73.34,169.16l12.8,1.22,11.37,1.31,10.31,1.4,9.6,1.53,8.53,1.58,8.18,1.74,7.46,1.82,6.75,1.86,6.4,1.99,6.04,2.1,5.69,2.21,5.33,2.3,5.33,2.54,4.98,2.62,4.62,2.68,4.62,2.92,4.62,3.19,4.62,3.46,4.98,4.02,6.4,5.49,6.75,5.75,2.84,2.14,2.13,1.37,1.78.9,1.42.52,1.42.3,1.42.02,1.07-.2,1.07-.41,1.07-.65,1.07-.91,1.07-1.21,1.07-1.53,1.07-1.89,1.07-2.27,1.42-3.67,1.42-4.44,1.42-5.24,1.42-6.02,1.78-8.56,2.13-11.54,3.2-18.84,3.55-20.68,2.13-11.12,1.78-8.11,1.42-5.63,1.42-4.84,1.42-4.05,1.42-3.3,1.07-2.02,1.07-1.65,1.07-1.31,1.07-1.01,1.07-.73,1.07-.48,1.07-.26,1.07-.07,1.42.17,1.42.41,1.78.8,1.78,1.04,2.49,1.75,3.2,2.57,6.04,5.22,6.75,5.74,4.98,3.94,4.62,3.38,4.62,3.11,4.62,2.85,4.98,2.79,4.98,2.54,5.33,2.46,5.33,2.22,5.69,2.13,6.04,2.03,6.4,1.92,6.75,1.8,7.46,1.76,7.82,1.62,8.53,1.54,9.24,1.44,10.31,1.38,11.02,1.25,12.09,1.15h0"/>
  </g>
  <path class="st6" d="M55.58,300.43V23.23"/>
  <path class="st6" d="M446.18,300.43V23.23"/>
  <path class="st6" d="M55.58,300.43h390.6"/>
  <path class="st6" d="M55.58,23.23h390.6"/>
  <g>
    <path id="DejaVuSerif-531" data-name="DejaVuSerif-53" d="M56.89,17.39v-2.19h.74c.02.74.23,1.28.64,1.63.4.35,1.01.52,1.83.52.76,0,1.35-.15,1.75-.45.4-.3.6-.74.6-1.32,0-.46-.12-.82-.37-1.07-.24-.25-.75-.49-1.54-.73l-1.27-.38c-.92-.28-1.57-.63-1.94-1.04s-.56-.99-.56-1.71c0-.82.29-1.45.87-1.9.58-.45,1.39-.68,2.44-.68.45,0,.94.05,1.47.15.53.1,1.1.24,1.7.42v2.05h-.73c-.07-.68-.3-1.17-.68-1.47-.38-.3-.96-.46-1.74-.46-.68,0-1.19.14-1.55.42-.35.28-.53.68-.53,1.21,0,.46.13.82.4,1.08.27.26.83.52,1.7.78l1.19.35c.87.26,1.49.6,1.86,1,.37.41.56.95.56,1.63,0,.93-.3,1.63-.9,2.11-.6.47-1.49.71-2.67.71-.53,0-1.07-.05-1.62-.16-.55-.11-1.1-.27-1.67-.49Z"/>
    <path id="DejaVuSerif-701" data-name="DejaVuSerif-70" d="M67.41,14.09v.68c0,.82.16,1.45.47,1.89.32.43.77.65,1.38.65s1.06-.24,1.38-.73c.31-.49.47-1.2.47-2.15s-.16-1.66-.47-2.14c-.31-.48-.77-.72-1.38-.72s-1.06.22-1.38.65c-.31.43-.47,1.06-.47,1.88ZM66.23,11.69h-1.14v-.69h2.33v1.07c.23-.43.53-.75.88-.95.36-.2.8-.31,1.33-.31.84,0,1.53.33,2.06,1,.53.67.8,1.54.8,2.61s-.27,1.95-.8,2.62c-.53.67-1.22,1-2.06,1-.53,0-.97-.1-1.33-.31-.36-.2-.65-.52-.88-.95v3.13h1.12v.69h-3.45v-.69h1.14v-8.22Z"/>
    <path id="DejaVuSerif-653" data-name="DejaVuSerif-65" d="M80.31,14.55h-5.11v.05c0,.92.17,1.62.52,2.09s.86.71,1.54.71c.52,0,.95-.14,1.28-.41.33-.27.57-.68.7-1.21h.95c-.19.75-.54,1.32-1.05,1.7-.51.38-1.18.57-2.01.57-1,0-1.81-.33-2.41-.99-.61-.66-.91-1.54-.91-2.63s.3-1.95.9-2.62c.6-.66,1.38-.99,2.35-.99,1.04,0,1.83.32,2.38.96.55.64.84,1.56.86,2.78ZM78.91,13.87c-.03-.8-.2-1.4-.51-1.81-.31-.41-.76-.61-1.34-.61-.55,0-.98.2-1.29.61s-.5,1.01-.57,1.8h3.71Z"/>
    <path id="DejaVuSerif-633" data-name="DejaVuSerif-63" d="M87.75,15.79c-.17.73-.49,1.29-.97,1.67-.48.38-1.09.57-1.85.57-1,0-1.8-.33-2.4-.99-.61-.66-.91-1.54-.91-2.63s.3-1.97.91-2.63c.61-.66,1.41-.98,2.4-.98.43,0,.87.05,1.3.15.43.1.86.25,1.3.46v1.75h-.69c-.09-.6-.29-1.04-.59-1.31s-.74-.41-1.3-.41c-.64,0-1.12.25-1.45.74-.33.5-.49,1.24-.49,2.23s.16,1.73.49,2.23c.32.5.81.75,1.45.75.51,0,.92-.13,1.23-.4.31-.27.51-.67.62-1.21h.95Z"/>
    <path id="DejaVuSerif-742" data-name="DejaVuSerif-74" d="M89.78,11.69h-1.05v-.69h1.05v-2.13h1.19v2.13h2.23v.69h-2.23v4.35c0,.58.06.95.17,1.12.11.16.32.24.62.24s.53-.09.68-.27c.14-.18.22-.48.23-.89h.9c-.03.62-.2,1.08-.51,1.37-.31.29-.77.43-1.39.43-.68,0-1.17-.15-1.45-.45-.28-.3-.42-.82-.42-1.54v-4.35Z"/>
    <path id="DejaVuSerif-722" data-name="DejaVuSerif-72" d="M99.97,10.99v1.71h-.68c-.02-.34-.11-.59-.28-.76s-.41-.25-.74-.25c-.58,0-1.03.2-1.34.61-.31.4-.47.98-.47,1.74v3.13h1.37v.68h-3.63v-.68h1.07v-5.49h-1.13v-.68h2.32v1.22c.23-.48.53-.83.9-1.06.37-.23.81-.35,1.34-.35.19,0,.4.02.61.05s.44.07.67.13Z"/>
    <path id="DejaVuSerif-611" data-name="DejaVuSerif-61" d="M105.22,15.7v-1.45h-1.53c-.59,0-1.03.13-1.32.38-.29.25-.43.64-.43,1.17,0,.48.15.86.44,1.13.29.28.69.42,1.19.42s.89-.15,1.19-.46c.3-.31.46-.7.46-1.19ZM106.41,13.57v3.6h1.06v.68h-2.24v-.74c-.26.32-.57.55-.91.7-.34.15-.75.22-1.2.22-.76,0-1.36-.2-1.81-.61-.45-.4-.67-.95-.67-1.64s.26-1.26.77-1.65,1.23-.59,2.17-.59h1.66v-.47c0-.52-.16-.92-.47-1.21-.31-.29-.76-.43-1.33-.43-.47,0-.85.11-1.13.32-.28.21-.45.53-.52.95h-.61v-1.39c.41-.18.81-.31,1.2-.4.39-.09.77-.13,1.14-.13.95,0,1.67.24,2.17.71.5.47.74,1.15.74,2.05Z"/>
    <path id="DejaVuSerif-6c1" data-name="DejaVuSerif-6c" d="M110.55,17.17h1.12v.68h-3.45v-.68h1.14v-8.66h-1.14v-.68h2.33v9.35Z"/>
    <path id="DejaVuSerif-203" data-name="DejaVuSerif-20" d="M112.06,17.85"/>
    <path id="DejaVuSerif-50" d="M119.52,12.95h1.7c.64,0,1.13-.17,1.46-.52.34-.35.5-.85.5-1.5s-.17-1.16-.5-1.5c-.33-.34-.82-.52-1.46-.52h-1.7v4.03ZM116.99,17.85v-.68h1.23v-8.25h-1.23v-.69h4.55c.96,0,1.72.24,2.29.73.56.49.85,1.15.85,1.98s-.28,1.48-.85,1.97c-.56.49-1.32.73-2.29.73h-2.02v3.53h1.49v.68h-4.02Z"/>
    <path id="DejaVuSerif-654" data-name="DejaVuSerif-65" d="M131.7,14.55h-5.11v.05c0,.92.17,1.62.52,2.09s.86.71,1.54.71c.52,0,.95-.14,1.28-.41.33-.27.57-.68.7-1.21h.95c-.19.75-.54,1.32-1.05,1.7-.51.38-1.18.57-2.01.57-1,0-1.81-.33-2.41-.99-.61-.66-.91-1.54-.91-2.63s.3-1.95.9-2.62c.6-.66,1.38-.99,2.35-.99,1.04,0,1.83.32,2.38.96.55.64.84,1.56.86,2.78ZM130.3,13.87c-.03-.8-.2-1.4-.51-1.81-.31-.41-.76-.61-1.34-.61-.55,0-.98.2-1.29.61s-.5,1.01-.57,1.8h3.71Z"/>
    <path id="DejaVuSerif-612" data-name="DejaVuSerif-61" d="M137.61,15.7v-1.45h-1.53c-.59,0-1.03.13-1.32.38-.29.25-.43.64-.43,1.17,0,.48.15.86.44,1.13.29.28.69.42,1.19.42s.89-.15,1.19-.46c.3-.31.46-.7.46-1.19ZM138.8,13.57v3.6h1.06v.68h-2.24v-.74c-.26.32-.57.55-.91.7-.34.15-.75.22-1.2.22-.76,0-1.36-.2-1.81-.61-.45-.4-.67-.95-.67-1.64s.26-1.26.77-1.65,1.23-.59,2.17-.59h1.66v-.47c0-.52-.16-.92-.47-1.21-.31-.29-.76-.43-1.33-.43-.47,0-.85.11-1.13.32-.28.21-.45.53-.52.95h-.61v-1.39c.41-.18.81-.31,1.2-.4.39-.09.77-.13,1.14-.13.95,0,1.67.24,2.17.71.5.47.74,1.15.74,2.05Z"/>
    <path id="DejaVuSerif-6b" d="M144,17.85h-3.32v-.68h1.07v-8.66h-1.14v-.68h2.33v6.53l2.89-2.66h-.99v-.69h3.1v.69h-1.17l-2.04,1.88,2.6,3.6h.99v.68h-3.38v-.68h.98l-2.05-2.82-.93.87v1.95h1.07v.68Z"/>
    <path id="DejaVuSerif-204" data-name="DejaVuSerif-20" d="M148.23,17.85"/>
    <path id="DejaVuSerif-4d" d="M153.15,17.85v-.68h1.23v-8.25h-1.3v-.69h2.8l3.38,6.85,3.38-6.85h2.63v.69h-1.28v8.25h1.23v.68h-3.76v-.68h1.23v-7.44l-3.3,6.71h-.91l-3.3-6.71v7.44h1.23v.68h-3.24Z"/>
    <path id="DejaVuSerif-655" data-name="DejaVuSerif-65" d="M173.09,14.55h-5.11v.05c0,.92.17,1.62.52,2.09s.86.71,1.54.71c.52,0,.95-.14,1.28-.41.33-.27.57-.68.7-1.21h.95c-.19.75-.54,1.32-1.05,1.7-.51.38-1.18.57-2.01.57-1,0-1.81-.33-2.41-.99-.61-.66-.91-1.54-.91-2.63s.3-1.95.9-2.62c.6-.66,1.38-.99,2.35-.99,1.04,0,1.83.32,2.38.96.55.64.84,1.56.86,2.78ZM171.69,13.87c-.03-.8-.2-1.4-.51-1.81-.31-.41-.76-.61-1.34-.61-.55,0-.98.2-1.29.61s-.5,1.01-.57,1.8h3.71Z"/>
    <path id="DejaVuSerif-723" data-name="DejaVuSerif-72" d="M180.06,10.99v1.71h-.68c-.02-.34-.11-.59-.28-.76s-.41-.25-.74-.25c-.58,0-1.03.2-1.34.61-.31.4-.47.98-.47,1.74v3.13h1.37v.68h-3.63v-.68h1.07v-5.49h-1.13v-.68h2.32v1.22c.23-.48.53-.83.9-1.06.37-.23.81-.35,1.34-.35.19,0,.4.02.61.05s.44.07.67.13Z"/>
    <path id="DejaVuSerif-67" d="M186.99,11.69v6.01c0,.98-.27,1.74-.81,2.28-.54.53-1.31.8-2.31.8-.45,0-.88-.04-1.3-.12-.41-.08-.81-.2-1.19-.37v-1.44h.62c.08.45.26.77.55.98.29.21.7.31,1.24.31.7,0,1.21-.2,1.53-.59.32-.39.49-1.01.49-1.85v-.92c-.23.43-.53.75-.88.95-.36.2-.8.31-1.33.31-.84,0-1.53-.33-2.06-1-.53-.67-.8-1.54-.8-2.62s.27-1.94.8-2.61c.53-.67,1.22-1,2.07-1,.53,0,.97.1,1.33.31.36.2.65.52.88.95v-1.07h2.32v.69h-1.13ZM185.8,14.09c0-.82-.16-1.45-.47-1.88-.31-.43-.77-.65-1.37-.65s-1.07.24-1.38.72c-.31.48-.47,1.2-.47,2.14s.16,1.66.47,2.15c.31.49.77.73,1.38.73s1.06-.22,1.37-.65c.32-.43.47-1.06.47-1.89v-.68Z"/>
    <path id="DejaVuSerif-656" data-name="DejaVuSerif-65" d="M195.66,14.55h-5.11v.05c0,.92.17,1.62.52,2.09s.86.71,1.54.71c.52,0,.95-.14,1.28-.41.33-.27.57-.68.7-1.21h.95c-.19.75-.54,1.32-1.05,1.7-.51.38-1.18.57-2.01.57-1,0-1.81-.33-2.41-.99-.61-.66-.91-1.54-.91-2.63s.3-1.95.9-2.62c.6-.66,1.38-.99,2.35-.99,1.04,0,1.83.32,2.38.96.55.64.84,1.56.86,2.78ZM194.27,13.87c-.03-.8-.2-1.4-.51-1.81-.31-.41-.76-.61-1.34-.61-.55,0-.98.2-1.29.61s-.5,1.01-.57,1.8h3.71Z"/>
    <path id="DejaVuSerif-724" data-name="DejaVuSerif-72" d="M202.63,10.99v1.71h-.68c-.02-.34-.11-.59-.28-.76s-.41-.25-.74-.25c-.58,0-1.03.2-1.34.61-.31.4-.47.98-.47,1.74v3.13h1.37v.68h-3.63v-.68h1.07v-5.49h-1.13v-.68h2.32v1.22c.23-.48.53-.83.9-1.06.37-.23.81-.35,1.34-.35.19,0,.4.02.61.05s.44.07.67.13Z"/>
    <path id="DejaVuSerif-205" data-name="DejaVuSerif-20" d="M202.63,17.85"/>
    <path id="DejaVuSerif-613" data-name="DejaVuSerif-61" d="M212.08,15.7v-1.45h-1.53c-.59,0-1.03.13-1.32.38-.29.25-.43.64-.43,1.17,0,.48.15.86.44,1.13.29.28.69.42,1.19.42s.89-.15,1.19-.46c.3-.31.46-.7.46-1.19ZM213.27,13.57v3.6h1.06v.68h-2.24v-.74c-.26.32-.57.55-.91.7-.34.15-.75.22-1.2.22-.76,0-1.36-.2-1.81-.61-.45-.4-.67-.95-.67-1.64s.26-1.26.77-1.65,1.23-.59,2.17-.59h1.66v-.47c0-.52-.16-.92-.47-1.21-.31-.29-.76-.43-1.33-.43-.47,0-.85.11-1.13.32-.28.21-.45.53-.52.95h-.61v-1.39c.41-.18.81-.31,1.2-.4.39-.09.77-.13,1.14-.13.95,0,1.67.24,2.17.71.5.47.74,1.15.74,2.05Z"/>
    <path id="DejaVuSerif-743" data-name="DejaVuSerif-74" d="M216.12,11.69h-1.05v-.69h1.05v-2.13h1.19v2.13h2.23v.69h-2.23v4.35c0,.58.06.95.17,1.12.11.16.32.24.62.24s.53-.09.68-.27c.14-.18.22-.48.23-.89h.9c-.03.62-.2,1.08-.51,1.37-.31.29-.77.43-1.39.43-.68,0-1.17-.15-1.45-.45-.28-.3-.42-.82-.42-1.54v-4.35Z"/>
    <path id="DejaVuSerif-206" data-name="DejaVuSerif-20" d="M220,17.85"/>
    <path id="DejaVuSerif-45" d="M224.93,17.85v-.68h1.23v-8.25h-1.23v-.69h7.75v2.14h-.79v-1.35h-4.42v3.22h3.15v-1.2h.79v3.2h-.79v-1.21h-3.15v4.03h4.53v-1.35h.79v2.14h-7.85Z"/>
    <path id="DejaVuSerif-78" d="M237.68,13.67l1.44-1.98h-.92v-.69h2.64v.69h-.91l-1.84,2.53,2.14,2.95h.9v.68h-3.16v-.68h.87l-1.49-2.05-1.5,2.05h.89v.68h-2.6v-.68h.91l1.89-2.6-2.08-2.88h-.85v-.69h3.06v.69h-.82l1.44,1.98Z"/>
    <path id="DejaVuSerif-634" data-name="DejaVuSerif-63" d="M248.07,15.79c-.17.73-.49,1.29-.97,1.67-.48.38-1.09.57-1.85.57-1,0-1.8-.33-2.4-.99-.61-.66-.91-1.54-.91-2.63s.3-1.97.91-2.63c.61-.66,1.41-.98,2.4-.98.43,0,.87.05,1.3.15.43.1.86.25,1.3.46v1.75h-.69c-.09-.6-.29-1.04-.59-1.31s-.74-.41-1.3-.41c-.64,0-1.12.25-1.45.74-.33.5-.49,1.24-.49,2.23s.16,1.73.49,2.23c.32.5.81.75,1.45.75.51,0,.92-.13,1.23-.4.31-.27.51-.67.62-1.21h.95Z"/>
    <path id="DejaVuSerif-657" data-name="DejaVuSerif-65" d="M255.83,14.55h-5.11v.05c0,.92.17,1.62.52,2.09s.86.71,1.54.71c.52,0,.95-.14,1.28-.41.33-.27.57-.68.7-1.21h.95c-.19.75-.54,1.32-1.05,1.7-.51.38-1.18.57-2.01.57-1,0-1.81-.33-2.41-.99-.61-.66-.91-1.54-.91-2.63s.3-1.95.9-2.62c.6-.66,1.38-.99,2.35-.99,1.04,0,1.83.32,2.38.96.55.64.84,1.56.86,2.78ZM254.43,13.87c-.03-.8-.2-1.4-.51-1.81-.31-.41-.76-.61-1.34-.61-.55,0-.98.2-1.29.61s-.5,1.01-.57,1.8h3.71Z"/>
    <path id="DejaVuSerif-702" data-name="DejaVuSerif-70" d="M259.19,14.09v.68c0,.82.16,1.45.47,1.89.32.43.77.65,1.38.65s1.06-.24,1.38-.73c.31-.49.47-1.2.47-2.15s-.16-1.66-.47-2.14c-.31-.48-.77-.72-1.38-.72s-1.06.22-1.38.65c-.31.43-.47,1.06-.47,1.88ZM258,11.69h-1.14v-.69h2.33v1.07c.23-.43.53-.75.88-.95.36-.2.8-.31,1.33-.31.84,0,1.53.33,2.06,1,.53.67.8,1.54.8,2.61s-.27,1.95-.8,2.62c-.53.67-1.22,1-2.06,1-.53,0-.97-.1-1.33-.31-.36-.2-.65-.52-.88-.95v3.13h1.12v.69h-3.45v-.69h1.14v-8.22Z"/>
    <path id="DejaVuSerif-744" data-name="DejaVuSerif-74" d="M266.36,11.69h-1.05v-.69h1.05v-2.13h1.19v2.13h2.23v.69h-2.23v4.35c0,.58.06.95.17,1.12.11.16.32.24.62.24s.53-.09.68-.27c.14-.18.22-.48.23-.89h.9c-.03.62-.2,1.08-.51,1.37-.31.29-.77.43-1.39.43-.68,0-1.17-.15-1.45-.45-.28-.3-.42-.82-.42-1.54v-4.35Z"/>
    <path id="DejaVuSerif-691" data-name="DejaVuSerif-69" d="M271.52,8.87c0-.2.07-.37.21-.52.14-.15.32-.22.52-.22s.37.07.51.22c.14.15.22.32.22.52s-.07.37-.21.52c-.14.14-.31.21-.52.21s-.38-.07-.52-.21c-.14-.14-.21-.31-.21-.52ZM273.03,17.17h1.12v.68h-3.44v-.68h1.13v-5.48h-1.13v-.69h2.32v6.17Z"/>
    <path id="DejaVuSerif-6f1" data-name="DejaVuSerif-6f" d="M278.43,17.4c.64,0,1.12-.25,1.44-.75.32-.5.49-1.25.49-2.23s-.16-1.72-.49-2.22c-.32-.5-.8-.75-1.44-.75s-1.12.25-1.44.75-.49,1.24-.49,2.22.16,1.72.49,2.23c.33.5.81.75,1.44.75ZM278.43,18.04c-1,0-1.8-.33-2.4-.99-.61-.66-.91-1.54-.91-2.63s.3-1.96.91-2.62c.6-.66,1.41-.99,2.41-.99s1.8.33,2.41.99c.6.66.91,1.53.91,2.62s-.3,1.97-.91,2.63-1.41.99-2.41.99Z"/>
    <path id="DejaVuSerif-6e3" data-name="DejaVuSerif-6e" d="M282.95,17.85v-.68h1.07v-5.48h-1.13v-.69h2.32v1.22c.22-.46.5-.82.85-1.05.35-.24.76-.35,1.22-.35.76,0,1.31.22,1.67.65s.53,1.11.53,2.03v3.68h1.06v.68h-3.28v-.68h1.03v-3.3c0-.84-.1-1.41-.31-1.72-.21-.31-.57-.47-1.09-.47-.55,0-.97.2-1.26.6-.29.4-.43.99-.43,1.76v3.13h1.03v.68h-3.29Z"/>
    <path id="DejaVuSerif-614" data-name="DejaVuSerif-61" d="M296.16,15.7v-1.45h-1.53c-.59,0-1.03.13-1.32.38-.29.25-.43.64-.43,1.17,0,.48.15.86.44,1.13.29.28.69.42,1.19.42s.89-.15,1.19-.46c.3-.31.46-.7.46-1.19ZM297.35,13.57v3.6h1.06v.68h-2.24v-.74c-.26.32-.57.55-.91.7-.34.15-.75.22-1.2.22-.76,0-1.36-.2-1.81-.61-.45-.4-.67-.95-.67-1.64s.26-1.26.77-1.65,1.23-.59,2.17-.59h1.66v-.47c0-.52-.16-.92-.47-1.21-.31-.29-.76-.43-1.33-.43-.47,0-.85.11-1.13.32-.28.21-.45.53-.52.95h-.61v-1.39c.41-.18.81-.31,1.2-.4.39-.09.77-.13,1.14-.13.95,0,1.67.24,2.17.71.5.47.74,1.15.74,2.05Z"/>
    <path id="DejaVuSerif-6c2" data-name="DejaVuSerif-6c" d="M301.48,17.17h1.12v.68h-3.45v-.68h1.14v-8.66h-1.14v-.68h2.33v9.35Z"/>
    <path id="DejaVuSerif-207" data-name="DejaVuSerif-20" d="M303,17.85"/>
    <path id="DejaVuSerif-501" data-name="DejaVuSerif-50" d="M310.45,12.95h1.7c.64,0,1.13-.17,1.46-.52.34-.35.5-.85.5-1.5s-.17-1.16-.5-1.5c-.33-.34-.82-.52-1.46-.52h-1.7v4.03ZM307.92,17.85v-.68h1.23v-8.25h-1.23v-.69h4.55c.96,0,1.72.24,2.29.73.56.49.85,1.15.85,1.98s-.28,1.48-.85,1.97c-.56.49-1.32.73-2.29.73h-2.02v3.53h1.49v.68h-4.02Z"/>
    <path id="DejaVuSerif-6f2" data-name="DejaVuSerif-6f" d="M319.52,17.4c.64,0,1.12-.25,1.44-.75.32-.5.49-1.25.49-2.23s-.16-1.72-.49-2.22c-.32-.5-.8-.75-1.44-.75s-1.12.25-1.44.75-.49,1.24-.49,2.22.16,1.72.49,2.23c.33.5.81.75,1.44.75ZM319.52,18.04c-1,0-1.8-.33-2.4-.99-.61-.66-.91-1.54-.91-2.63s.3-1.96.91-2.62c.6-.66,1.41-.99,2.41-.99s1.8.33,2.41.99c.6.66.91,1.53.91,2.62s-.3,1.97-.91,2.63-1.41.99-2.41.99Z"/>
    <path id="DejaVuSerif-692" data-name="DejaVuSerif-69" d="M324.78,8.87c0-.2.07-.37.21-.52.14-.15.32-.22.52-.22s.37.07.51.22c.14.15.22.32.22.52s-.07.37-.21.52c-.14.14-.31.21-.52.21s-.38-.07-.52-.21c-.14-.14-.21-.31-.21-.52ZM326.29,17.17h1.12v.68h-3.44v-.68h1.13v-5.48h-1.13v-.69h2.32v6.17Z"/>
    <path id="DejaVuSerif-6e4" data-name="DejaVuSerif-6e" d="M328.26,17.85v-.68h1.07v-5.48h-1.13v-.69h2.32v1.22c.22-.46.5-.82.85-1.05.35-.24.76-.35,1.22-.35.76,0,1.31.22,1.67.65s.53,1.11.53,2.03v3.68h1.06v.68h-3.28v-.68h1.03v-3.3c0-.84-.1-1.41-.31-1.72-.21-.31-.57-.47-1.09-.47-.55,0-.97.2-1.26.6-.29.4-.43.99-.43,1.76v3.13h1.03v.68h-3.29Z"/>
    <path id="DejaVuSerif-745" data-name="DejaVuSerif-74" d="M337.64,11.69h-1.05v-.69h1.05v-2.13h1.19v2.13h2.23v.69h-2.23v4.35c0,.58.06.95.17,1.12.11.16.32.24.62.24s.53-.09.68-.27c.14-.18.22-.48.23-.89h.9c-.03.62-.2,1.08-.51,1.37-.31.29-.77.43-1.39.43-.68,0-1.17-.15-1.45-.45-.28-.3-.42-.82-.42-1.54v-4.35Z"/>
  </g>
  <path class="st10" d="M63.28,80.54h164.67c1.47,0,2.2-.73,2.2-2.2V30.93c0-1.47-.73-2.2-2.2-2.2H63.28c-1.47,0-2.2.73-2.2,2.2v47.41c0,1.47.73,2.2,2.2,2.2Z"/>
  <path class="st5" d="M65.48,37.64h22"/>
  <path id="DejaVuSans-Oblique-3c7" d="M99.58,42.83l-.4-2.06-2.23,3.01h-1.17l3.16-4.25-.49-2.53c-.09-.45-.4-.68-.96-.68h-.26l.16-.85h.38c.92.04,1.44.35,1.55.95l.4,2.06,2.23-3.01h1.17l-3.16,4.25.49,2.53c.09.45.4.68.96.68h.26l-.16.85h-.38c-.92-.04-1.44-.35-1.55-.95Z"/>
  <path id="DejaVuSans-3d" d="M106.1,36.49h6.89v.9h-6.89v-.9ZM106.1,38.68h6.89v.91h-6.89v-.91Z"/>
  <path id="DejaVuSans-30" d="M119.79,34.18c-.56,0-.98.27-1.26.82-.28.55-.42,1.37-.42,2.48s.14,1.92.42,2.47c.28.55.7.82,1.26.82s.98-.27,1.26-.82c.28-.55.42-1.37.42-2.47s-.14-1.93-.42-2.48c-.28-.55-.7-.82-1.26-.82ZM119.79,33.32c.9,0,1.59.36,2.06,1.07.47.71.71,1.74.71,3.1s-.24,2.38-.71,3.09c-.47.71-1.16,1.07-2.06,1.07s-1.58-.36-2.06-1.07c-.47-.71-.71-1.74-.71-3.09s.24-2.39.71-3.1c.47-.71,1.16-1.07,2.06-1.07Z"/>
  <path id="DejaVuSans-2e" d="M124.47,40.12h1.13v1.36h-1.13v-1.36Z"/>
  <path id="DejaVuSans-35" d="M127.98,33.47h4.26v.91h-3.27v1.96c.16-.05.31-.09.47-.12.16-.03.32-.04.47-.04.89,0,1.6.25,2.13.74.52.49.79,1.15.79,1.99s-.27,1.53-.81,2.01c-.54.48-1.29.72-2.27.72-.34,0-.68-.03-1.03-.09-.35-.06-.71-.14-1.08-.26v-1.09c.32.18.65.31,1,.39s.71.13,1.09.13c.62,0,1.11-.16,1.47-.49.36-.33.54-.77.54-1.33s-.18-1-.54-1.33c-.36-.33-.85-.49-1.47-.49-.29,0-.58.03-.87.1-.29.06-.58.16-.88.3v-4.03Z"/>
  <path id="DejaVuSerif-208" data-name="DejaVuSerif-20" d="M133.79,41.49"/>
  <path id="DejaVuSerif-28" d="M140.79,43.2c-.87-.39-1.53-1.01-1.97-1.86-.44-.85-.67-1.91-.67-3.18s.22-2.34.67-3.18c.44-.85,1.1-1.47,1.97-1.86v.53c-.55.38-.95.91-1.19,1.6-.24.69-.36,1.66-.36,2.91s.12,2.21.36,2.9c.24.69.64,1.22,1.19,1.6v.53Z"/>
  <path id="DejaVuSerif-55" d="M143.12,34.04h-1.03v-.58h3.14v.58h-1.03v4.15c0,1.02.17,1.74.5,2.14.34.4.91.61,1.73.61s1.4-.2,1.73-.61c.33-.4.5-1.12.5-2.14v-4.15h-1.03v-.58h2.71v.58h-1.02v4.25c0,1.22-.23,2.08-.7,2.59-.47.51-1.26.76-2.39.76s-1.93-.25-2.4-.76-.72-1.37-.72-2.58v-4.25Z"/>
  <path id="DejaVuSerif-6e5" data-name="DejaVuSerif-6e" d="M151.3,41.49v-.57h.89v-4.57h-.95v-.57h1.93v1.02c.18-.39.42-.68.71-.88.29-.2.63-.3,1.02-.3.63,0,1.09.18,1.39.54s.45.93.45,1.69v3.06h.88v.57h-2.73v-.57h.85v-2.75c0-.7-.09-1.18-.26-1.44-.17-.26-.47-.39-.91-.39-.46,0-.81.17-1.05.5-.24.33-.36.82-.36,1.46v2.61h.86v.57h-2.74Z"/>
  <path id="DejaVuSerif-64" d="M163.7,40.92h.95v.57h-1.93v-.89c-.19.36-.44.62-.74.79-.3.17-.67.25-1.11.25-.7,0-1.27-.28-1.72-.84-.45-.56-.67-1.28-.67-2.18s.22-1.62.67-2.17c.44-.56,1.02-.83,1.72-.83.44,0,.81.09,1.11.26.3.17.54.43.74.79v-2.97h-.93v-.57h1.92v7.79ZM162.72,38.92v-.56c0-.68-.13-1.21-.4-1.57-.26-.36-.64-.54-1.14-.54s-.89.2-1.15.6c-.26.4-.39,1-.39,1.79s.13,1.38.39,1.79c.26.4.64.61,1.15.61s.88-.18,1.14-.54c.26-.36.4-.88.4-1.57Z"/>
  <path id="DejaVuSerif-658" data-name="DejaVuSerif-65" d="M170.93,38.74h-4.26v.04c0,.77.14,1.35.43,1.74s.72.59,1.28.59c.43,0,.79-.11,1.07-.34.28-.23.47-.57.58-1.01h.8c-.16.63-.45,1.1-.87,1.41-.42.32-.98.47-1.67.47-.83,0-1.5-.27-2.01-.82-.51-.55-.76-1.28-.76-2.19s.25-1.63.75-2.18c.5-.55,1.15-.83,1.96-.83.86,0,1.53.27,1.99.8.46.53.7,1.3.72,2.32ZM169.77,38.17c-.02-.67-.16-1.17-.42-1.51-.26-.34-.63-.51-1.12-.51-.45,0-.81.17-1.07.51s-.42.84-.48,1.5h3.09Z"/>
  <path id="DejaVuSerif-725" data-name="DejaVuSerif-72" d="M176.74,35.77v1.43h-.57c-.02-.28-.1-.49-.24-.63s-.34-.21-.61-.21c-.49,0-.86.17-1.12.51-.26.34-.39.82-.39,1.45v2.61h1.14v.57h-3.02v-.57h.89v-4.58h-.95v-.56h1.93v1.02c.19-.4.44-.69.75-.88.3-.19.68-.29,1.11-.29.16,0,.33.01.51.04s.36.06.56.11Z"/>
  <path id="DejaVuSerif-641" data-name="DejaVuSerif-64" d="M182.51,40.92h.95v.57h-1.93v-.89c-.19.36-.44.62-.74.79-.3.17-.67.25-1.11.25-.7,0-1.27-.28-1.72-.84-.45-.56-.67-1.28-.67-2.18s.22-1.62.67-2.17c.44-.56,1.02-.83,1.72-.83.44,0,.81.09,1.11.26.3.17.54.43.74.79v-2.97h-.93v-.57h1.92v7.79ZM181.53,38.92v-.56c0-.68-.13-1.21-.4-1.57-.26-.36-.64-.54-1.14-.54s-.89.2-1.15.6c-.26.4-.39,1-.39,1.79s.13,1.38.39,1.79c.26.4.64.61,1.15.61s.88-.18,1.14-.54c.26-.36.4-.88.4-1.57Z"/>
  <path id="DejaVuSerif-615" data-name="DejaVuSerif-61" d="M188.16,39.69v-1.21h-1.27c-.49,0-.86.11-1.1.32-.24.21-.36.53-.36.97,0,.4.12.71.36.95.24.23.57.35.99.35s.74-.13,1-.38c.25-.25.38-.59.38-.99ZM189.15,37.92v3h.88v.57h-1.87v-.62c-.22.26-.47.46-.76.59-.29.12-.62.19-1,.19-.63,0-1.14-.17-1.51-.51-.37-.34-.56-.79-.56-1.36s.21-1.05.64-1.37,1.03-.49,1.8-.49h1.39v-.39c0-.43-.13-.77-.4-1.01-.26-.24-.63-.36-1.11-.36-.39,0-.71.09-.94.27-.23.18-.38.44-.43.8h-.51v-1.15c.34-.15.68-.26,1-.33.32-.07.64-.11.95-.11.79,0,1.39.2,1.81.59.41.39.62.96.62,1.71Z"/>
  <path id="DejaVuSerif-6d" d="M196.04,36.89c.19-.42.43-.74.73-.95s.64-.32,1.03-.32c.6,0,1.04.19,1.34.56.29.37.44.93.44,1.68v3.06h.89v.57h-2.74v-.57h.86v-2.95c0-.58-.09-1-.26-1.25s-.46-.37-.85-.37c-.44,0-.78.17-1.01.5-.23.33-.35.82-.35,1.46v2.61h.86v.57h-2.71v-.57h.86v-2.99c0-.57-.09-.98-.26-1.22s-.46-.36-.85-.36c-.44,0-.78.17-1.01.5-.23.33-.35.82-.35,1.46v2.61h.86v.57h-2.74v-.57h.89v-4.58h-.95v-.56h1.93v1.02c.18-.38.42-.67.7-.87.28-.2.6-.3.96-.3.44,0,.81.11,1.11.33.3.22.5.53.6.94Z"/>
  <path id="DejaVuSerif-703" data-name="DejaVuSerif-70" d="M203.03,38.35v.56c0,.69.13,1.21.39,1.57.26.36.65.54,1.15.54s.89-.2,1.15-.61c.26-.4.39-1,.39-1.79s-.13-1.39-.39-1.79c-.26-.4-.64-.6-1.15-.6s-.88.18-1.15.54c-.26.36-.39.88-.39,1.57ZM202.04,36.35h-.95v-.57h1.94v.89c.19-.36.44-.62.74-.79.3-.17.67-.26,1.11-.26.7,0,1.27.28,1.72.83.44.55.67,1.28.67,2.17s-.22,1.62-.67,2.18c-.44.56-1.02.84-1.72.84-.44,0-.81-.08-1.11-.25-.3-.17-.54-.44-.74-.79v2.61h.93v.57h-2.87v-.57h.95v-6.85Z"/>
  <path id="DejaVuSerif-659" data-name="DejaVuSerif-65" d="M213.77,38.74h-4.26v.04c0,.77.14,1.35.43,1.74s.72.59,1.28.59c.43,0,.79-.11,1.07-.34.28-.23.47-.57.58-1.01h.8c-.16.63-.45,1.1-.87,1.41-.42.32-.98.47-1.67.47-.83,0-1.5-.27-2.01-.82-.51-.55-.76-1.28-.76-2.19s.25-1.63.75-2.18c.5-.55,1.15-.83,1.96-.83.86,0,1.53.27,1.99.8.46.53.7,1.3.72,2.32ZM212.61,38.17c-.02-.67-.16-1.17-.42-1.51-.26-.34-.63-.51-1.12-.51-.45,0-.81.17-1.07.51s-.42.84-.48,1.5h3.09Z"/>
  <path id="DejaVuSerif-642" data-name="DejaVuSerif-64" d="M220.09,40.92h.95v.57h-1.93v-.89c-.19.36-.44.62-.74.79-.3.17-.67.25-1.11.25-.7,0-1.27-.28-1.72-.84-.45-.56-.67-1.28-.67-2.18s.22-1.62.67-2.17c.44-.56,1.02-.83,1.72-.83.44,0,.81.09,1.11.26.3.17.54.43.74.79v-2.97h-.93v-.57h1.92v7.79ZM219.11,38.92v-.56c0-.68-.13-1.21-.4-1.57-.26-.36-.64-.54-1.14-.54s-.89.2-1.15.6c-.26.4-.39,1-.39,1.79s.13,1.38.39,1.79c.26.4.64.61,1.15.61s.88-.18,1.14-.54c.26-.36.4-.88.4-1.57Z"/>
  <path id="DejaVuSerif-29" d="M222.14,43.2v-.53c.55-.38.95-.91,1.19-1.6.24-.69.36-1.66.36-2.9s-.12-2.22-.36-2.91c-.24-.69-.64-1.22-1.19-1.6v-.53c.87.39,1.53,1.01,1.98,1.86.44.85.67,1.91.67,3.18s-.22,2.33-.67,3.18c-.44.85-1.1,1.47-1.98,1.86Z"/>
  <path class="st2" d="M65.48,53.81h22"/>
  <path id="DejaVuSans-Oblique-3c71" data-name="DejaVuSans-Oblique-3c7" d="M99.58,59l-.4-2.06-2.23,3.01h-1.17l3.16-4.25-.49-2.53c-.09-.45-.4-.68-.96-.68h-.26l.16-.85h.38c.92.04,1.44.35,1.55.95l.4,2.06,2.23-3.01h1.17l-3.16,4.25.49,2.53c.09.45.4.68.96.68h.26l-.16.85h-.38c-.92-.04-1.44-.35-1.55-.95Z"/>
  <path id="DejaVuSans-3d1" data-name="DejaVuSans-3d" d="M106.1,52.66h6.89v.9h-6.89v-.9ZM106.1,54.85h6.89v.91h-6.89v-.91Z"/>
  <path id="DejaVuSans-31" d="M117.66,56.75h1.77v-6.12l-1.93.39v-.99l1.92-.39h1.08v7.11h1.77v.91h-4.62v-.91Z"/>
  <path id="DejaVuSans-2e1" data-name="DejaVuSans-2e" d="M124.47,56.29h1.13v1.36h-1.13v-1.36Z"/>
  <path id="DejaVuSans-301" data-name="DejaVuSans-30" d="M130.28,50.35c-.56,0-.98.27-1.26.82-.28.55-.42,1.37-.42,2.48s.14,1.92.42,2.47c.28.55.7.82,1.26.82s.98-.27,1.26-.82c.28-.55.42-1.37.42-2.47s-.14-1.93-.42-2.48c-.28-.55-.7-.82-1.26-.82ZM130.28,49.49c.9,0,1.59.36,2.06,1.07.47.71.71,1.74.71,3.1s-.24,2.38-.71,3.09c-.47.71-1.16,1.07-2.06,1.07s-1.58-.36-2.06-1.07c-.47-.71-.71-1.74-.71-3.09s.24-2.39.71-3.1c.47-.71,1.16-1.07,2.06-1.07Z"/>
  <path id="DejaVuSerif-209" data-name="DejaVuSerif-20" d="M133.79,57.66"/>
  <path id="DejaVuSerif-281" data-name="DejaVuSerif-28" d="M140.79,59.37c-.87-.39-1.53-1.01-1.97-1.86-.44-.85-.67-1.91-.67-3.18s.22-2.34.67-3.18c.44-.85,1.1-1.47,1.97-1.86v.53c-.55.38-.95.91-1.19,1.6-.24.69-.36,1.66-.36,2.91s.12,2.21.36,2.9c.24.69.64,1.22,1.19,1.6v.53Z"/>
  <path id="DejaVuSerif-43" d="M149.33,55.54c-.24.75-.63,1.31-1.19,1.7s-1.26.58-2.11.58c-.52,0-1.01-.09-1.46-.27-.45-.18-.84-.44-1.19-.79-.4-.4-.7-.86-.9-1.37-.19-.51-.29-1.09-.29-1.73,0-1.25.36-2.25,1.08-3.02.72-.76,1.67-1.15,2.85-1.15.44,0,.9.06,1.4.17.49.11,1.03.29,1.59.52v1.85h-.61c-.13-.67-.4-1.17-.8-1.49-.4-.32-.96-.48-1.68-.48-.86,0-1.5.3-1.95.91-.44.61-.66,1.5-.66,2.68s.22,2.07.66,2.67c.44.61,1.09.91,1.95.91.6,0,1.09-.14,1.48-.43.39-.29.67-.71.84-1.28h.99Z"/>
  <path id="DejaVuSerif-726" data-name="DejaVuSerif-72" d="M155.25,51.94v1.43h-.57c-.02-.28-.1-.49-.24-.63s-.34-.21-.61-.21c-.49,0-.86.17-1.12.51-.26.34-.39.82-.39,1.45v2.61h1.14v.57h-3.02v-.57h.89v-4.58h-.95v-.56h1.93v1.02c.19-.4.44-.69.75-.88.3-.19.68-.29,1.11-.29.16,0,.33.01.51.04s.36.06.56.11Z"/>
  <path id="DejaVuSerif-693" data-name="DejaVuSerif-69" d="M156.32,50.18c0-.16.06-.31.18-.43.12-.12.26-.18.43-.18s.31.06.43.18c.12.12.18.26.18.43s-.06.31-.18.43c-.12.12-.26.18-.43.18s-.31-.06-.43-.18c-.12-.12-.18-.26-.18-.43ZM157.58,57.09h.93v.57h-2.87v-.57h.95v-4.57h-.95v-.57h1.93v5.14Z"/>
  <path id="DejaVuSerif-746" data-name="DejaVuSerif-74" d="M159.96,52.52h-.87v-.57h.87v-1.77h.99v1.77h1.86v.57h-1.86v3.63c0,.48.05.79.14.93.09.14.26.2.52.2s.45-.08.56-.23c.12-.15.18-.4.19-.74h.75c-.03.52-.17.9-.42,1.14-.25.24-.64.36-1.16.36-.57,0-.97-.13-1.21-.38-.24-.25-.35-.68-.35-1.29v-3.63Z"/>
  <path id="DejaVuSerif-694" data-name="DejaVuSerif-69" d="M164.26,50.18c0-.16.06-.31.18-.43.12-.12.26-.18.43-.18s.31.06.43.18c.12.12.18.26.18.43s-.06.31-.18.43c-.12.12-.26.18-.43.18s-.31-.06-.43-.18c-.12-.12-.18-.26-.18-.43ZM165.52,57.09h.93v.57h-2.87v-.57h.95v-4.57h-.95v-.57h1.93v5.14Z"/>
  <path id="DejaVuSerif-635" data-name="DejaVuSerif-63" d="M172.36,55.94c-.14.61-.41,1.07-.81,1.39-.4.32-.91.48-1.54.48-.83,0-1.5-.27-2-.82-.5-.55-.76-1.28-.76-2.19s.25-1.64.76-2.19c.51-.55,1.17-.82,2-.82.36,0,.72.04,1.08.13.36.08.72.21,1.08.38v1.46h-.57c-.08-.5-.24-.87-.49-1.09s-.61-.34-1.08-.34c-.53,0-.94.21-1.21.62-.27.41-.41,1.03-.41,1.85s.14,1.44.41,1.86c.27.41.67.62,1.21.62.43,0,.77-.11,1.02-.33.25-.22.43-.56.52-1.01h.8Z"/>
  <path id="DejaVuSerif-616" data-name="DejaVuSerif-61" d="M177.25,55.86v-1.21h-1.27c-.49,0-.86.11-1.1.32-.24.21-.36.53-.36.97,0,.4.12.71.36.95.24.23.57.35.99.35s.74-.13,1-.38c.25-.25.38-.59.38-.99ZM178.23,54.09v3h.88v.57h-1.87v-.62c-.22.26-.47.46-.76.59-.29.12-.62.19-1,.19-.63,0-1.14-.17-1.51-.51-.37-.34-.56-.79-.56-1.36s.21-1.05.64-1.37,1.03-.49,1.8-.49h1.39v-.39c0-.43-.13-.77-.4-1.01-.26-.24-.63-.36-1.11-.36-.39,0-.71.09-.94.27-.23.18-.38.44-.43.8h-.51v-1.15c.34-.15.68-.26,1-.33.32-.07.64-.11.95-.11.79,0,1.39.2,1.81.59.41.39.62.96.62,1.71Z"/>
  <path id="DejaVuSerif-6c3" data-name="DejaVuSerif-6c" d="M181.68,57.09h.93v.57h-2.87v-.57h.95v-7.22h-.95v-.57h1.94v7.79Z"/>
  <path id="DejaVuSerif-2010" data-name="DejaVuSerif-20" d="M182.94,57.66"/>
  <path id="DejaVuSerif-451" data-name="DejaVuSerif-45" d="M187.05,57.66v-.57h1.02v-6.87h-1.02v-.58h6.46v1.78h-.66v-1.12h-3.68v2.68h2.63v-1h.66v2.66h-.66v-1.01h-2.63v3.36h3.77v-1.12h.66v1.78h-6.54Z"/>
  <path id="DejaVuSerif-502" data-name="DejaVuSerif-50" d="M197.19,53.58h1.42c.53,0,.94-.14,1.22-.43.28-.29.42-.71.42-1.25s-.14-.96-.42-1.25c-.28-.29-.68-.43-1.22-.43h-1.42v3.36ZM195.08,57.66v-.57h1.02v-6.87h-1.02v-.58h3.79c.8,0,1.44.2,1.91.61.47.41.7.96.7,1.65s-.23,1.24-.7,1.64c-.47.41-1.1.61-1.91.61h-1.68v2.94h1.24v.57h-3.35Z"/>
  <path id="DejaVuSerif-291" data-name="DejaVuSerif-29" d="M202.65,59.37v-.53c.55-.38.95-.91,1.19-1.6.24-.69.36-1.66.36-2.9s-.12-2.22-.36-2.91c-.24-.69-.64-1.22-1.19-1.6v-.53c.87.39,1.53,1.01,1.98,1.86.44.85.67,1.91.67,3.18s-.22,2.33-.67,3.18c-.44.85-1.1,1.47-1.98,1.86Z"/>
  <path class="st4" d="M65.48,69.98h22"/>
  <path id="DejaVuSans-Oblique-3c72" data-name="DejaVuSans-Oblique-3c7" d="M99.58,75.17l-.4-2.06-2.23,3.01h-1.17l3.16-4.25-.49-2.53c-.09-.45-.4-.68-.96-.68h-.26l.16-.85h.38c.92.04,1.44.35,1.55.95l.4,2.06,2.23-3.01h1.17l-3.16,4.25.49,2.53c.09.45.4.68.96.68h.26l-.16.85h-.38c-.92-.04-1.44-.35-1.55-.95Z"/>
  <path id="DejaVuSans-3d2" data-name="DejaVuSans-3d" d="M106.1,68.83h6.89v.9h-6.89v-.9ZM106.1,71.02h6.89v.91h-6.89v-.91Z"/>
  <path id="DejaVuSans-311" data-name="DejaVuSans-31" d="M117.66,72.92h1.77v-6.12l-1.93.39v-.99l1.92-.39h1.08v7.11h1.77v.91h-4.62v-.91Z"/>
  <path id="DejaVuSans-2e2" data-name="DejaVuSans-2e" d="M124.47,72.46h1.13v1.36h-1.13v-1.36Z"/>
  <path id="DejaVuSans-351" data-name="DejaVuSans-35" d="M127.98,65.81h4.26v.91h-3.27v1.96c.16-.05.31-.09.47-.12.16-.03.32-.04.47-.04.89,0,1.6.25,2.13.74.52.49.79,1.15.79,1.99s-.27,1.53-.81,2.01c-.54.48-1.29.72-2.27.72-.34,0-.68-.03-1.03-.09-.35-.06-.71-.14-1.08-.26v-1.09c.32.18.65.31,1,.39s.71.13,1.09.13c.62,0,1.11-.16,1.47-.49.36-.33.54-.77.54-1.33s-.18-1-.54-1.33c-.36-.33-.85-.49-1.47-.49-.29,0-.58.03-.87.1-.29.06-.58.16-.88.3v-4.03Z"/>
  <path id="DejaVuSerif-2011" data-name="DejaVuSerif-20" d="M133.79,73.83"/>
  <path id="DejaVuSerif-282" data-name="DejaVuSerif-28" d="M140.79,75.54c-.87-.39-1.53-1.01-1.97-1.86-.44-.85-.67-1.91-.67-3.18s.22-2.34.67-3.18c.44-.85,1.1-1.47,1.97-1.86v.53c-.55.38-.95.91-1.19,1.6-.24.69-.36,1.66-.36,2.91s.12,2.21.36,2.9c.24.69.64,1.22,1.19,1.6v.53Z"/>
  <path id="DejaVuSerif-4f" d="M146.09,73.41c.88,0,1.54-.3,1.99-.9.45-.6.67-1.5.67-2.68s-.22-2.08-.67-2.68c-.45-.6-1.11-.91-1.99-.91s-1.55.3-1.99.91c-.45.6-.67,1.5-.67,2.68s.22,2.07.67,2.68c.45.6,1.11.9,1.99.9ZM146.09,73.98c-.54,0-1.04-.09-1.5-.27-.46-.18-.86-.44-1.2-.79-.4-.4-.7-.86-.9-1.36-.19-.51-.29-1.09-.29-1.73s.1-1.23.29-1.74c.2-.51.49-.97.9-1.37.35-.35.75-.62,1.2-.79.45-.18.95-.27,1.5-.27,1.16,0,2.1.38,2.82,1.14.72.76,1.07,1.77,1.07,3.02,0,.64-.1,1.22-.3,1.73-.2.51-.5.97-.9,1.37-.35.35-.75.61-1.2.79-.45.18-.95.27-1.5.27Z"/>
  <path id="DejaVuSerif-76" d="M153.31,73.83l-2.1-5.14h-.65v-.57h2.63v.57h-.91l1.61,3.93,1.61-3.93h-.85v-.57h2.14v.57h-.64l-2.1,5.14h-.73Z"/>
  <path id="DejaVuSerif-6510" data-name="DejaVuSerif-65" d="M162.77,71.08h-4.26v.04c0,.77.14,1.35.43,1.74s.72.59,1.28.59c.43,0,.79-.11,1.07-.34.28-.23.47-.57.58-1.01h.8c-.16.63-.45,1.1-.87,1.41-.42.32-.98.47-1.67.47-.83,0-1.5-.27-2.01-.82-.51-.55-.76-1.28-.76-2.19s.25-1.63.75-2.18c.5-.55,1.15-.83,1.96-.83.86,0,1.53.27,1.99.8.46.53.7,1.3.72,2.32ZM161.6,70.51c-.02-.67-.16-1.17-.42-1.51-.26-.34-.63-.51-1.12-.51-.45,0-.81.17-1.07.51s-.42.84-.48,1.5h3.09Z"/>
  <path id="DejaVuSerif-727" data-name="DejaVuSerif-72" d="M168.58,68.11v1.43h-.57c-.02-.28-.1-.49-.24-.63s-.34-.21-.61-.21c-.49,0-.86.17-1.12.51-.26.34-.39.82-.39,1.45v2.61h1.14v.57h-3.02v-.57h.89v-4.58h-.95v-.56h1.93v1.02c.19-.4.44-.69.75-.88.3-.19.68-.29,1.11-.29.16,0,.33.01.51.04s.36.06.56.11Z"/>
  <path id="DejaVuSerif-643" data-name="DejaVuSerif-64" d="M174.35,73.26h.95v.57h-1.93v-.89c-.19.36-.44.62-.74.79-.3.17-.67.25-1.11.25-.7,0-1.27-.28-1.72-.84-.45-.56-.67-1.28-.67-2.18s.22-1.62.67-2.17c.44-.56,1.02-.83,1.72-.83.44,0,.81.09,1.11.26.3.17.54.43.74.79v-2.97h-.93v-.57h1.92v7.79ZM173.36,71.26v-.56c0-.68-.13-1.21-.4-1.57-.26-.36-.64-.54-1.14-.54s-.89.2-1.15.6c-.26.4-.39,1-.39,1.79s.13,1.38.39,1.79c.26.4.64.61,1.15.61s.88-.18,1.14-.54c.26-.36.4-.88.4-1.57Z"/>
  <path id="DejaVuSerif-617" data-name="DejaVuSerif-61" d="M180,72.03v-1.21h-1.27c-.49,0-.86.11-1.1.32-.24.21-.36.53-.36.97,0,.4.12.71.36.95.24.23.57.35.99.35s.74-.13,1-.38c.25-.25.38-.59.38-.99ZM180.98,70.26v3h.88v.57h-1.87v-.62c-.22.26-.47.46-.76.59-.29.12-.62.19-1,.19-.63,0-1.14-.17-1.51-.51-.37-.34-.56-.79-.56-1.36s.21-1.05.64-1.37,1.03-.49,1.8-.49h1.39v-.39c0-.43-.13-.77-.4-1.01-.26-.24-.63-.36-1.11-.36-.39,0-.71.09-.94.27-.23.18-.38.44-.43.8h-.51v-1.15c.34-.15.68-.26,1-.33.32-.07.64-.11.95-.11.79,0,1.39.2,1.81.59.41.39.62.96.62,1.71Z"/>
  <path id="DejaVuSerif-6d1" data-name="DejaVuSerif-6d" d="M187.88,69.23c.19-.42.43-.74.73-.95s.64-.32,1.03-.32c.6,0,1.04.19,1.34.56.29.37.44.93.44,1.68v3.06h.89v.57h-2.74v-.57h.86v-2.95c0-.58-.09-1-.26-1.25s-.46-.37-.85-.37c-.44,0-.78.17-1.01.5-.23.33-.35.82-.35,1.46v2.61h.86v.57h-2.71v-.57h.86v-2.99c0-.57-.09-.98-.26-1.22s-.46-.36-.85-.36c-.44,0-.78.17-1.01.5-.23.33-.35.82-.35,1.46v2.61h.86v.57h-2.74v-.57h.89v-4.58h-.95v-.56h1.93v1.02c.18-.38.42-.67.7-.87.28-.2.6-.3.96-.3.44,0,.81.11,1.11.33.3.22.5.53.6.94Z"/>
  <path id="DejaVuSerif-704" data-name="DejaVuSerif-70" d="M194.86,70.69v.56c0,.69.13,1.21.39,1.57.26.36.65.54,1.15.54s.89-.2,1.15-.61c.26-.4.39-1,.39-1.79s-.13-1.39-.39-1.79c-.26-.4-.64-.6-1.15-.6s-.88.18-1.15.54c-.26.36-.39.88-.39,1.57ZM193.87,68.69h-.95v-.57h1.94v.89c.19-.36.44-.62.74-.79.3-.17.67-.26,1.11-.26.7,0,1.27.28,1.72.83.44.55.67,1.28.67,2.17s-.22,1.62-.67,2.18c-.44.56-1.02.84-1.72.84-.44,0-.81-.08-1.11-.25-.3-.17-.54-.44-.74-.79v2.61h.93v.57h-2.87v-.57h.95v-6.85Z"/>
  <path id="DejaVuSerif-6511" data-name="DejaVuSerif-65" d="M205.61,71.08h-4.26v.04c0,.77.14,1.35.43,1.74s.72.59,1.28.59c.43,0,.79-.11,1.07-.34.28-.23.47-.57.58-1.01h.8c-.16.63-.45,1.1-.87,1.41-.42.32-.98.47-1.67.47-.83,0-1.5-.27-2.01-.82-.51-.55-.76-1.28-.76-2.19s.25-1.63.75-2.18c.5-.55,1.15-.83,1.96-.83.86,0,1.53.27,1.99.8.46.53.7,1.3.72,2.32ZM204.44,70.51c-.02-.67-.16-1.17-.42-1.51-.26-.34-.63-.51-1.12-.51-.45,0-.81.17-1.07.51s-.42.84-.48,1.5h3.09Z"/>
  <path id="DejaVuSerif-644" data-name="DejaVuSerif-64" d="M211.93,73.26h.95v.57h-1.93v-.89c-.19.36-.44.62-.74.79-.3.17-.67.25-1.11.25-.7,0-1.27-.28-1.72-.84-.45-.56-.67-1.28-.67-2.18s.22-1.62.67-2.17c.44-.56,1.02-.83,1.72-.83.44,0,.81.09,1.11.26.3.17.54.43.74.79v-2.97h-.93v-.57h1.92v7.79ZM210.94,71.26v-.56c0-.68-.13-1.21-.4-1.57-.26-.36-.64-.54-1.14-.54s-.89.2-1.15.6c-.26.4-.39,1-.39,1.79s.13,1.38.39,1.79c.26.4.64.61,1.15.61s.88-.18,1.14-.54c.26-.36.4-.88.4-1.57Z"/>
  <path id="DejaVuSerif-292" data-name="DejaVuSerif-29" d="M213.98,75.54v-.53c.55-.38.95-.91,1.19-1.6.24-.69.36-1.66.36-2.9s-.12-2.22-.36-2.91c-.24-.69-.64-1.22-1.19-1.6v-.53c.87.39,1.53,1.01,1.98,1.86.44.85.67,1.91.67,3.18s-.22,2.33-.67,3.18c-.44.85-1.1,1.47-1.98,1.86Z"/>
</svg>