<?xml version="1.0" encoding="UTF-8"?>
<svg id="Layer_1" xmlns="http://www.w3.org/2000/svg" version="1.1" xmlns:xlink="http://www.w3.org/1999/xlink" viewBox="0 0 452.41 340.17">
  <!-- Generator: Adobe Illustrator 30.1.0, SVG Export Plug-In . SVG Version: 2.1.1 Build 136)  -->
  <defs>
    <style>
      .st0 {
        clip-path: url(#clippath-6);
      }

      .st1 {
        clip-path: url(#clippath-7);
      }

      .st2 {
        clip-path: url(#clippath-15);
      }

      .st3 {
        clip-path: url(#clippath-4);
      }

      .st4 {
        isolation: isolate;
        opacity: .8;
        stroke: #ccc;
      }

      .st4, .st5 {
        fill: #fff;
      }

      .st6 {
        clip-path: url(#clippath-9);
      }

      .st7 {
        clip-path: url(#clippath-10);
      }

      .st8 {
        stroke: red;
        stroke-dasharray: 5.55 2.4;
        stroke-width: 1.5px;
      }

      .st8, .st9, .st10, .st11, .st12, .st13, .st14 {
        fill: none;
      }

      .st8, .st11, .st12, .st15, .st16, .st13, .st14 {
        stroke-linejoin: round;
      }

      .st17 {
        clip-path: url(#clippath-11);
      }

      .st18 {
        clip-path: url(#clippath-1);
      }

      .st19 {
        clip-path: url(#clippath-5);
      }

      .st20 {
        clip-path: url(#clippath-8);
      }

      .st10, .st11, .st12, .st13, .st14 {
        stroke-linecap: square;
      }

      .st10, .st15, .st16 {
        stroke: #000;
      }

      .st10, .st16, .st13 {
        stroke-width: .8px;
      }

      .st21 {
        clip-path: url(#clippath-3);
      }

      .st22 {
        clip-path: url(#clippath-12);
      }

      .st23 {
        clip-path: url(#clippath-14);
      }

      .st11 {
        stroke: orange;
      }

      .st11, .st12, .st14 {
        stroke-width: 2px;
      }

      .st12 {
        stroke: blue;
      }

      .st15 {
        stroke-width: .6px;
      }

      .st13 {
        stroke: #b0b0b0;
        stroke-opacity: .3;
      }

      .st24 {
        clip-path: url(#clippath-2);
      }

      .st14 {
        stroke: green;
      }

      .st25 {
        clip-path: url(#clippath-13);
      }

      .st26 {
        clip-path: url(#clippath);
      }
    </style>
    <clipPath id="clippath">
      <rect class="st9" x="54.61" y="23.23" width="390.6" height="277.2"/>
    </clipPath>
    <clipPath id="clippath-1">
      <rect class="st9" x="54.61" y="23.23" width="390.6" height="277.2"/>
    </clipPath>
    <clipPath id="clippath-2">
      <rect class="st9" x="54.61" y="23.23" width="390.6" height="277.2"/>
    </clipPath>
    <clipPath id="clippath-3">
      <rect class="st9" x="54.61" y="23.23" width="390.6" height="277.2"/>
    </clipPath>
    <clipPath id="clippath-4">
      <rect class="st9" x="54.61" y="23.23" width="390.6" height="277.2"/>
    </clipPath>
    <clipPath id="clippath-5">
      <rect class="st9" x="54.61" y="23.23" width="390.6" height="277.2"/>
    </clipPath>
    <clipPath id="clippath-6">
      <rect class="st9" x="54.61" y="23.23" width="390.6" height="277.2"/>
    </clipPath>
    <clipPath id="clippath-7">
      <rect class="st9" x="54.61" y="23.23" width="390.6" height="277.2"/>
    </clipPath>
    <clipPath id="clippath-8">
      <rect class="st9" x="54.61" y="23.23" width="390.6" height="277.2"/>
    </clipPath>
    <clipPath id="clippath-9">
      <rect class="st9" x="54.61" y="23.23" width="390.6" height="277.2"/>
    </clipPath>
    <clipPath id="clippath-10">
      <rect class="st9" x="54.61" y="23.23" width="390.6" height="277.2"/>
    </clipPath>
    <clipPath id="clippath-11">
      <rect class="st9" x="54.61" y="23.23" width="390.6" height="277.2"/>
    </clipPath>
    <clipPath id="clippath-12">
      <rect class="st9" x="54.61" y="23.23" width="390.6" height="277.2"/>
    </clipPath>
    <clipPath id="clippath-13">
      <rect class="st9" x="54.61" y="23.23" width="390.6" height="277.2"/>
    </clipPath>
    <clipPath id="clippath-14">
      <rect class="st9" x="54.61" y="23.23" width="390.6" height="277.2"/>
    </clipPath>
    <clipPath id="clippath-15">
      <rect class="st9" x="54.61" y="23.23" width="390.6" height="277.2"/>
    </clipPath>
  </defs>
  <path class="st5" d="M0,340.17h452.41V0H0v340.17Z"/>
  <path class="st5" d="M54.61,300.43h390.6V23.23H54.61v277.2Z"/>
  <g class="st26">
    <path class="st13" d="M72.36,300.43V23.23"/>
  </g>
  <path id="m8db9c6fbbc" class="st16" d="M72.36,300.43v3.5"/>
  <path id="DejaVuSerif-31" d="M64.25,315.71v-.57h1.4v-6.67l-1.62,1.05v-.7l1.96-1.27h.74v7.6h1.4v.57h-3.87Z"/>
  <path id="DejaVuSerif-30" d="M73.18,315.33c.55,0,.96-.3,1.23-.9.27-.6.41-1.51.41-2.72s-.14-2.13-.41-2.73c-.27-.6-.68-.9-1.23-.9s-.96.3-1.23.9c-.27.6-.41,1.51-.41,2.73s.14,2.12.41,2.72c.27.6.68.9,1.23.9ZM73.18,315.87c-.87,0-1.55-.36-2.04-1.09-.49-.73-.73-1.75-.73-3.06s.24-2.34.73-3.07c.49-.73,1.17-1.1,2.04-1.1s1.55.37,2.04,1.1c.49.73.73,1.75.73,3.07s-.24,2.33-.73,3.06c-.49.73-1.17,1.09-2.04,1.09Z"/>
  <path id="DejaVuSerif-301" data-name="DejaVuSerif-30" d="M79.23,311.45c.38,0,.67-.21.86-.63.19-.42.29-1.06.29-1.91s-.1-1.49-.29-1.91c-.19-.42-.48-.63-.86-.63s-.67.21-.86.63c-.19.42-.29,1.06-.29,1.91s.1,1.48.29,1.91c.19.42.48.63.86.63ZM79.23,311.82c-.61,0-1.08-.26-1.43-.77-.34-.51-.51-1.23-.51-2.14s.17-1.64.51-2.15c.34-.51.82-.77,1.43-.77s1.09.26,1.43.77c.34.51.51,1.23.51,2.15s-.17,1.63-.51,2.14c-.34.51-.82.77-1.43.77Z"/>
  <g class="st18">
    <path class="st13" d="M131.55,300.43V23.23"/>
  </g>
  <path id="m8db9c6fbbc1" data-name="m8db9c6fbbc" class="st16" d="M131.55,300.43v3.5"/>
  <path id="DejaVuSerif-311" data-name="DejaVuSerif-31" d="M123.43,315.71v-.57h1.4v-6.67l-1.62,1.05v-.7l1.96-1.27h.74v7.6h1.4v.57h-3.87Z"/>
  <path id="DejaVuSerif-302" data-name="DejaVuSerif-30" d="M132.36,315.33c.55,0,.96-.3,1.23-.9.27-.6.41-1.51.41-2.72s-.14-2.13-.41-2.73c-.27-.6-.68-.9-1.23-.9s-.96.3-1.23.9c-.27.6-.41,1.51-.41,2.73s.14,2.12.41,2.72c.27.6.68.9,1.23.9ZM132.36,315.87c-.87,0-1.55-.36-2.04-1.09-.49-.73-.73-1.75-.73-3.06s.24-2.34.73-3.07c.49-.73,1.17-1.1,2.04-1.1s1.55.37,2.04,1.1c.49.73.73,1.75.73,3.07s-.24,2.33-.73,3.06c-.49.73-1.17,1.09-2.04,1.09Z"/>
  <path id="DejaVuSerif-312" data-name="DejaVuSerif-31" d="M137.06,311.71v-.4h.98v-4.67l-1.13.73v-.49l1.37-.89h.52v5.32h.98v.4h-2.71Z"/>
  <g class="st24">
    <path class="st13" d="M190.73,300.43V23.23"/>
  </g>
  <path id="m8db9c6fbbc2" data-name="m8db9c6fbbc" class="st16" d="M190.73,300.43v3.5"/>
  <path id="DejaVuSerif-313" data-name="DejaVuSerif-31" d="M182.61,315.71v-.57h1.4v-6.67l-1.62,1.05v-.7l1.96-1.27h.74v7.6h1.4v.57h-3.87Z"/>
  <path id="DejaVuSerif-303" data-name="DejaVuSerif-30" d="M191.54,315.33c.55,0,.96-.3,1.23-.9.27-.6.41-1.51.41-2.72s-.14-2.13-.41-2.73c-.27-.6-.68-.9-1.23-.9s-.96.3-1.23.9c-.27.6-.41,1.51-.41,2.73s.14,2.12.41,2.72c.27.6.68.9,1.23.9ZM191.54,315.87c-.87,0-1.55-.36-2.04-1.09-.49-.73-.73-1.75-.73-3.06s.24-2.34.73-3.07c.49-.73,1.17-1.1,2.04-1.1s1.55.37,2.04,1.1c.49.73.73,1.75.73,3.07s-.24,2.33-.73,3.06c-.49.73-1.17,1.09-2.04,1.09Z"/>
  <path id="DejaVuSerif-32" d="M196.13,307.44h-.42v-1c.27-.14.54-.25.81-.33.27-.08.54-.11.8-.11.58,0,1.05.14,1.38.42s.51.67.51,1.15c0,.55-.38,1.21-1.15,1.97-.06.06-.11.1-.14.13l-1.42,1.42h2.34v-.69h.44v1.31h-3.62v-.41l1.7-1.7c.38-.38.64-.72.8-1.04s.24-.64.24-.99c0-.38-.1-.67-.3-.89-.2-.21-.47-.32-.81-.32s-.64.09-.83.27c-.19.18-.31.45-.35.8Z"/>
  <g class="st21">
    <path class="st13" d="M249.91,300.43V23.23"/>
  </g>
  <path id="m8db9c6fbbc3" data-name="m8db9c6fbbc" class="st16" d="M249.91,300.43v3.5"/>
  <path id="DejaVuSerif-314" data-name="DejaVuSerif-31" d="M241.79,315.71v-.57h1.4v-6.67l-1.62,1.05v-.7l1.96-1.27h.74v7.6h1.4v.57h-3.87Z"/>
  <path id="DejaVuSerif-304" data-name="DejaVuSerif-30" d="M250.72,315.33c.55,0,.96-.3,1.23-.9.27-.6.41-1.51.41-2.72s-.14-2.13-.41-2.73c-.27-.6-.68-.9-1.23-.9s-.96.3-1.23.9c-.27.6-.41,1.51-.41,2.73s.14,2.12.41,2.72c.27.6.68.9,1.23.9ZM250.72,315.87c-.87,0-1.55-.36-2.04-1.09-.49-.73-.73-1.75-.73-3.06s.24-2.34.73-3.07c.49-.73,1.17-1.1,2.04-1.1s1.55.37,2.04,1.1c.49.73.73,1.75.73,3.07s-.24,2.33-.73,3.06c-.49.73-1.17,1.09-2.04,1.09Z"/>
  <path id="DejaVuSerif-33" d="M255.08,306.34c.29-.11.57-.19.84-.25.27-.06.52-.09.76-.09.55,0,.98.12,1.29.36.31.24.46.57.46.99,0,.34-.11.62-.32.85-.21.23-.51.38-.9.46.46.06.82.23,1.07.5s.38.62.38,1.05c0,.52-.18.93-.53,1.21-.35.28-.86.42-1.52.42-.29,0-.58-.03-.86-.1-.28-.06-.56-.16-.83-.29v-1.09h.42c.02.36.15.63.36.82.22.19.52.28.92.28s.69-.11.91-.33c.22-.22.33-.53.33-.91,0-.44-.11-.78-.34-1-.23-.23-.56-.34-1-.34h-.36v-.38h.19c.44,0,.77-.09.99-.27.22-.18.33-.46.33-.82,0-.33-.09-.58-.27-.75-.18-.17-.44-.26-.78-.26s-.6.08-.79.24c-.19.16-.3.4-.33.71h-.42v-.99Z"/>
  <g class="st3">
    <path class="st13" d="M309.09,300.43V23.23"/>
  </g>
  <path id="m8db9c6fbbc4" data-name="m8db9c6fbbc" class="st16" d="M309.09,300.43v3.5"/>
  <path id="DejaVuSerif-315" data-name="DejaVuSerif-31" d="M300.97,315.71v-.57h1.4v-6.67l-1.62,1.05v-.7l1.96-1.27h.74v7.6h1.4v.57h-3.87Z"/>
  <path id="DejaVuSerif-305" data-name="DejaVuSerif-30" d="M309.91,315.33c.55,0,.96-.3,1.23-.9.27-.6.41-1.51.41-2.72s-.14-2.13-.41-2.73c-.27-.6-.68-.9-1.23-.9s-.96.3-1.23.9c-.27.6-.41,1.51-.41,2.73s.14,2.12.41,2.72c.27.6.68.9,1.23.9ZM309.91,315.87c-.87,0-1.55-.36-2.04-1.09-.49-.73-.73-1.75-.73-3.06s.24-2.34.73-3.07c.49-.73,1.17-1.1,2.04-1.1s1.55.37,2.04,1.1c.49.73.73,1.75.73,3.07s-.24,2.33-.73,3.06c-.49.73-1.17,1.09-2.04,1.09Z"/>
  <path id="DejaVuSerif-34" d="M316.2,309.81v-2.99l-1.92,2.99h1.92ZM317.85,311.71h-2.56v-.4h.9v-1.1h-2.45v-.41l2.46-3.8h.74v3.81h1.07v.4h-1.07v1.1h.9v.4Z"/>
  <g class="st19">
    <path class="st13" d="M368.27,300.43V23.23"/>
  </g>
  <path id="m8db9c6fbbc5" data-name="m8db9c6fbbc" class="st16" d="M368.27,300.43v3.5"/>
  <path id="DejaVuSerif-316" data-name="DejaVuSerif-31" d="M360.16,315.72v-.57h1.4v-6.67l-1.62,1.05v-.7l1.96-1.27h.74v7.6h1.4v.57h-3.87Z"/>
  <path id="DejaVuSerif-306" data-name="DejaVuSerif-30" d="M369.09,315.34c.55,0,.96-.3,1.23-.9.27-.6.41-1.51.41-2.72s-.14-2.13-.41-2.73c-.27-.6-.68-.9-1.23-.9s-.96.3-1.23.9c-.27.6-.41,1.51-.41,2.73s.14,2.12.41,2.72c.27.6.68.9,1.23.9ZM369.09,315.88c-.87,0-1.55-.36-2.04-1.09-.49-.73-.73-1.75-.73-3.06s.24-2.34.73-3.07c.49-.73,1.17-1.1,2.04-1.1s1.55.37,2.04,1.1c.49.73.73,1.75.73,3.07s-.24,2.33-.73,3.06c-.49.73-1.17,1.09-2.04,1.09Z"/>
  <path id="DejaVuSerif-35" d="M376.56,306.11v.62h-2.57v1.61c.13-.09.28-.16.46-.2.17-.05.37-.07.58-.07.61,0,1.08.17,1.44.5.35.34.53.79.53,1.38s-.18,1.06-.53,1.39c-.35.33-.85.5-1.49.5-.26,0-.52-.03-.79-.1-.27-.06-.55-.16-.83-.29v-1.09h.42c.02.36.14.63.34.82.2.19.49.28.86.28.4,0,.7-.13.91-.39.21-.26.32-.64.32-1.12s-.11-.86-.32-1.12c-.21-.26-.52-.39-.92-.39-.23,0-.42.04-.6.12-.17.08-.32.2-.46.37h-.32v-2.82h2.97Z"/>
  <g class="st0">
    <path class="st13" d="M427.46,300.43V23.23"/>
  </g>
  <path id="m8db9c6fbbc6" data-name="m8db9c6fbbc" class="st16" d="M427.46,300.43v3.5"/>
  <path id="DejaVuSerif-317" data-name="DejaVuSerif-31" d="M419.34,315.71v-.57h1.4v-6.67l-1.62,1.05v-.7l1.96-1.27h.74v7.6h1.4v.57h-3.87Z"/>
  <path id="DejaVuSerif-307" data-name="DejaVuSerif-30" d="M428.27,315.33c.55,0,.96-.3,1.23-.9.27-.6.41-1.51.41-2.72s-.14-2.13-.41-2.73c-.27-.6-.68-.9-1.23-.9s-.96.3-1.23.9c-.27.6-.41,1.51-.41,2.73s.14,2.12.41,2.72c.27.6.68.9,1.23.9ZM428.27,315.87c-.87,0-1.55-.36-2.04-1.09-.49-.73-.73-1.75-.73-3.06s.24-2.34.73-3.07c.49-.73,1.17-1.1,2.04-1.1s1.55.37,2.04,1.1c.49.73.73,1.75.73,3.07s-.24,2.33-.73,3.06c-.49.73-1.17,1.09-2.04,1.09Z"/>
  <path id="DejaVuSerif-36" d="M434.39,311.45c.35,0,.62-.13.81-.39.19-.26.29-.63.29-1.12s-.1-.86-.29-1.12c-.19-.26-.46-.39-.81-.39s-.63.13-.82.38c-.19.25-.28.61-.28,1.09,0,.5.1.88.29,1.15.19.27.46.4.82.4ZM433.17,308.62c.17-.19.36-.33.58-.42.22-.09.46-.14.73-.14.56,0,1,.17,1.32.5.32.34.49.79.49,1.38s-.17,1.02-.52,1.37c-.35.34-.82.51-1.4.51-.63,0-1.12-.24-1.46-.71-.34-.47-.51-1.15-.51-2.02,0-.98.2-1.74.61-2.28.4-.54.97-.81,1.71-.81.2,0,.41.02.62.06s.44.09.67.17v.93h-.42c-.03-.25-.13-.45-.29-.58s-.38-.2-.66-.2c-.49,0-.85.18-1.09.55-.24.37-.36.93-.37,1.7Z"/>
  <path id="m032fe982b1" class="st15" d="M59.24,300.43v2"/>
  <path id="m032fe982b11" data-name="m032fe982b1" class="st15" d="M63.2,300.43v2"/>
  <path id="m032fe982b12" data-name="m032fe982b1" class="st15" d="M66.63,300.43v2"/>
  <path id="m032fe982b13" data-name="m032fe982b1" class="st15" d="M69.66,300.43v2"/>
  <path id="m032fe982b14" data-name="m032fe982b1" class="st15" d="M90.18,300.43v2"/>
  <path id="m032fe982b15" data-name="m032fe982b1" class="st15" d="M100.6,300.43v2"/>
  <path id="m032fe982b16" data-name="m032fe982b1" class="st15" d="M108,300.43v2"/>
  <path id="m032fe982b17" data-name="m032fe982b1" class="st15" d="M113.73,300.43v2"/>
  <path id="m032fe982b18" data-name="m032fe982b1" class="st15" d="M118.42,300.43v2"/>
  <path id="m032fe982b19" data-name="m032fe982b1" class="st15" d="M122.38,300.43v2"/>
  <path id="m032fe982b110" data-name="m032fe982b1" class="st15" d="M125.81,300.43v2"/>
  <path id="m032fe982b111" data-name="m032fe982b1" class="st15" d="M128.84,300.43v2"/>
  <path id="m032fe982b112" data-name="m032fe982b1" class="st15" d="M149.36,300.43v2"/>
  <path id="m032fe982b113" data-name="m032fe982b1" class="st15" d="M159.78,300.43v2"/>
  <path id="m032fe982b114" data-name="m032fe982b1" class="st15" d="M167.18,300.43v2"/>
  <path id="m032fe982b115" data-name="m032fe982b1" class="st15" d="M172.91,300.43v2"/>
  <path id="m032fe982b116" data-name="m032fe982b1" class="st15" d="M177.6,300.43v2"/>
  <path id="m032fe982b117" data-name="m032fe982b1" class="st15" d="M181.56,300.43v2"/>
  <path id="m032fe982b118" data-name="m032fe982b1" class="st15" d="M184.99,300.43v2"/>
  <path id="m032fe982b119" data-name="m032fe982b1" class="st15" d="M188.02,300.43v2"/>
  <path id="m032fe982b120" data-name="m032fe982b1" class="st15" d="M208.54,300.43v2"/>
  <path id="m032fe982b121" data-name="m032fe982b1" class="st15" d="M218.97,300.43v2"/>
  <path id="m032fe982b122" data-name="m032fe982b1" class="st15" d="M226.36,300.43v2"/>
  <path id="m032fe982b123" data-name="m032fe982b1" class="st15" d="M232.09,300.43v2"/>
  <path id="m032fe982b124" data-name="m032fe982b1" class="st15" d="M236.78,300.43v2"/>
  <path id="m032fe982b125" data-name="m032fe982b1" class="st15" d="M240.74,300.43v2"/>
  <path id="m032fe982b126" data-name="m032fe982b1" class="st15" d="M244.17,300.43v2"/>
  <path id="m032fe982b127" data-name="m032fe982b1" class="st15" d="M247.2,300.43v2"/>
  <path id="m032fe982b128" data-name="m032fe982b1" class="st15" d="M267.73,300.43v2"/>
  <path id="m032fe982b129" data-name="m032fe982b1" class="st15" d="M278.15,300.43v2"/>
  <path id="m032fe982b130" data-name="m032fe982b1" class="st15" d="M285.54,300.43v2"/>
  <path id="m032fe982b131" data-name="m032fe982b1" class="st15" d="M291.28,300.43v2"/>
  <path id="m032fe982b132" data-name="m032fe982b1" class="st15" d="M295.96,300.43v2"/>
  <path id="m032fe982b133" data-name="m032fe982b1" class="st15" d="M299.92,300.43v2"/>
  <path id="m032fe982b134" data-name="m032fe982b1" class="st15" d="M303.36,300.43v2"/>
  <path id="m032fe982b135" data-name="m032fe982b1" class="st15" d="M306.38,300.43v2"/>
  <path id="m032fe982b136" data-name="m032fe982b1" class="st15" d="M326.91,300.43v2"/>
  <path id="m032fe982b137" data-name="m032fe982b1" class="st15" d="M337.33,300.43v2"/>
  <path id="m032fe982b138" data-name="m032fe982b1" class="st15" d="M344.72,300.43v2"/>
  <path id="m032fe982b139" data-name="m032fe982b1" class="st15" d="M350.46,300.43v2"/>
  <path id="m032fe982b140" data-name="m032fe982b1" class="st15" d="M355.14,300.43v2"/>
  <path id="m032fe982b141" data-name="m032fe982b1" class="st15" d="M359.11,300.43v2"/>
  <path id="m032fe982b142" data-name="m032fe982b1" class="st15" d="M362.54,300.43v2"/>
  <path id="m032fe982b143" data-name="m032fe982b1" class="st15" d="M365.57,300.43v2"/>
  <path id="m032fe982b144" data-name="m032fe982b1" class="st15" d="M386.09,300.43v2"/>
  <path id="m032fe982b145" data-name="m032fe982b1" class="st15" d="M396.51,300.43v2"/>
  <path id="m032fe982b146" data-name="m032fe982b1" class="st15" d="M403.9,300.43v2"/>
  <path id="m032fe982b147" data-name="m032fe982b1" class="st15" d="M409.64,300.43v2"/>
  <path id="m032fe982b148" data-name="m032fe982b1" class="st15" d="M414.33,300.43v2"/>
  <path id="m032fe982b149" data-name="m032fe982b1" class="st15" d="M418.29,300.43v2"/>
  <path id="m032fe982b150" data-name="m032fe982b1" class="st15" d="M421.72,300.43v2"/>
  <path id="m032fe982b151" data-name="m032fe982b1" class="st15" d="M424.75,300.43v2"/>
  <path id="DejaVuSerif-52" d="M188.52,326.45c.25.07.47.18.65.35.18.16.34.39.49.68l1.17,2.38h.98v.57h-1.89l-1.25-2.55c-.24-.49-.46-.81-.66-.96-.2-.15-.48-.22-.83-.22h-1.2v3.16h1.13v.57h-3.24v-.57h1.02v-6.87h-1.02v-.58h4.07c.78,0,1.38.19,1.81.56.43.37.64.9.64,1.58,0,.55-.16.99-.47,1.3-.31.32-.77.52-1.38.59ZM185.97,326.13h1.58c.54,0,.94-.13,1.2-.38.26-.26.39-.65.39-1.19s-.13-.93-.39-1.19c-.26-.25-.66-.38-1.2-.38h-1.58v3.14Z"/>
  <path id="DejaVuSerif-65" d="M197.49,327.68h-4.26v.04c0,.77.14,1.35.43,1.74s.72.59,1.28.59c.43,0,.79-.11,1.07-.34.28-.23.47-.57.58-1.01h.8c-.16.63-.45,1.1-.87,1.41-.42.32-.98.47-1.67.47-.83,0-1.5-.27-2.01-.82-.51-.55-.76-1.28-.76-2.19s.25-1.63.75-2.18c.5-.55,1.15-.83,1.96-.83.86,0,1.53.27,1.99.8.46.53.7,1.3.72,2.32ZM196.33,327.12c-.02-.67-.16-1.17-.42-1.51-.26-.34-.63-.51-1.12-.51-.45,0-.81.17-1.07.51s-.42.84-.48,1.5h3.09Z"/>
  <path id="DejaVuSerif-6c" d="M200.3,329.87h.93v.57h-2.87v-.57h.95v-7.22h-.95v-.57h1.94v7.79Z"/>
  <path id="DejaVuSerif-61" d="M205.94,328.64v-1.21h-1.27c-.49,0-.86.11-1.1.32-.24.21-.36.53-.36.97,0,.4.12.71.36.95.24.23.57.35.99.35s.74-.13,1-.38c.25-.25.38-.59.38-.99ZM206.93,326.87v3h.88v.57h-1.87v-.62c-.22.26-.47.46-.76.59-.29.12-.62.19-1,.19-.63,0-1.14-.17-1.51-.51-.37-.34-.56-.79-.56-1.36s.21-1.05.64-1.37,1.03-.49,1.8-.49h1.39v-.39c0-.43-.13-.77-.4-1.01-.26-.24-.63-.36-1.11-.36-.39,0-.71.09-.94.27-.23.18-.38.44-.43.8h-.51v-1.15c.34-.15.68-.26,1-.33.32-.07.64-.11.95-.11.79,0,1.39.2,1.81.59.41.39.62.96.62,1.71Z"/>
  <path id="DejaVuSerif-74" d="M209.31,325.3h-.87v-.57h.87v-1.77h.99v1.77h1.86v.57h-1.86v3.63c0,.48.05.79.14.93.09.14.26.2.52.2s.45-.08.56-.23c.12-.15.18-.4.19-.74h.75c-.03.52-.17.9-.42,1.14-.25.24-.64.36-1.16.36-.57,0-.97-.13-1.21-.38-.24-.25-.35-.68-.35-1.29v-3.63Z"/>
  <path id="DejaVuSerif-69" d="M213.61,322.95c0-.16.06-.31.18-.43.12-.12.26-.18.43-.18s.31.06.43.18c.12.12.18.26.18.43s-.06.31-.18.43c-.12.12-.26.18-.43.18s-.31-.06-.43-.18c-.12-.12-.18-.26-.18-.43ZM214.87,329.87h.93v.57h-2.87v-.57h.95v-4.57h-.95v-.57h1.93v5.14Z"/>
  <path id="DejaVuSerif-76" d="M218.77,330.43l-2.1-5.14h-.65v-.57h2.63v.57h-.91l1.61,3.93,1.61-3.93h-.85v-.57h2.14v.57h-.64l-2.1,5.14h-.73Z"/>
  <path id="DejaVuSerif-651" data-name="DejaVuSerif-65" d="M228.23,327.68h-4.26v.04c0,.77.14,1.35.43,1.74s.72.59,1.28.59c.43,0,.79-.11,1.07-.34.28-.23.47-.57.58-1.01h.8c-.16.63-.45,1.1-.87,1.41-.42.32-.98.47-1.67.47-.83,0-1.5-.27-2.01-.82-.51-.55-.76-1.28-.76-2.19s.25-1.63.75-2.18c.5-.55,1.15-.83,1.96-.83.86,0,1.53.27,1.99.8.46.53.7,1.3.72,2.32ZM227.07,327.12c-.02-.67-.16-1.17-.42-1.51-.26-.34-.63-.51-1.12-.51-.45,0-.81.17-1.07.51s-.42.84-.48,1.5h3.09Z"/>
  <path id="DejaVuSerif-20" d="M228.78,330.43"/>
  <path id="DejaVuSerif-44" d="M234.99,329.87h1c1.04,0,1.84-.3,2.4-.89s.84-1.45.84-2.56-.28-1.96-.83-2.54c-.55-.59-1.35-.88-2.4-.88h-1v6.87ZM232.88,330.43v-.57h1.02v-6.87h-1.02v-.58h3.19c1.38,0,2.46.35,3.23,1.06.77.71,1.16,1.69,1.16,2.94s-.39,2.25-1.16,2.95c-.77.71-1.85,1.06-3.23,1.06h-3.19Z"/>
  <path id="DejaVuSerif-652" data-name="DejaVuSerif-65" d="M247.06,327.68h-4.26v.04c0,.77.14,1.35.43,1.74s.72.59,1.28.59c.43,0,.79-.11,1.07-.34.28-.23.47-.57.58-1.01h.8c-.16.63-.45,1.1-.87,1.41-.42.32-.98.47-1.67.47-.83,0-1.5-.27-2.01-.82-.51-.55-.76-1.28-.76-2.19s.25-1.63.75-2.18c.5-.55,1.15-.83,1.96-.83.86,0,1.53.27,1.99.8.46.53.7,1.3.72,2.32ZM245.89,327.12c-.02-.67-.16-1.17-.42-1.51-.26-.34-.63-.51-1.12-.51-.45,0-.81.17-1.07.51s-.42.84-.48,1.5h3.09Z"/>
  <path id="DejaVuSerif-6e" d="M248.06,330.43v-.57h.89v-4.57h-.95v-.57h1.93v1.02c.18-.39.42-.68.71-.88.29-.2.63-.3,1.02-.3.63,0,1.09.18,1.39.54s.45.93.45,1.69v3.06h.88v.57h-2.73v-.57h.85v-2.75c0-.7-.09-1.18-.26-1.44-.17-.26-.47-.39-.91-.39-.46,0-.81.17-1.05.5-.24.33-.36.82-.36,1.46v2.61h.86v.57h-2.74Z"/>
  <path id="DejaVuSerif-73" d="M255.31,330.12v-1.33h.57c.01.43.15.74.4.96.25.21.63.32,1.12.32.44,0,.78-.08,1.02-.25.23-.17.35-.41.35-.73,0-.25-.09-.45-.26-.6-.17-.15-.53-.32-1.08-.49l-.71-.24c-.49-.16-.85-.35-1.07-.59-.22-.24-.33-.54-.33-.9,0-.52.19-.93.57-1.23.38-.3.91-.45,1.59-.45.3,0,.62.04.95.12.33.08.68.19,1.03.34v1.25h-.57c-.01-.37-.14-.66-.39-.86-.24-.21-.57-.31-.99-.31s-.73.07-.94.22-.32.37-.32.66c0,.24.08.43.24.58.16.14.48.29.97.44l.78.24c.54.17.93.38,1.17.63.24.25.36.58.36.97,0,.54-.21.97-.62,1.28-.41.31-.98.46-1.71.46-.37,0-.73-.04-1.08-.12s-.7-.2-1.05-.35Z"/>
  <path id="DejaVuSerif-691" data-name="DejaVuSerif-69" d="M261.4,322.95c0-.16.06-.31.18-.43.12-.12.26-.18.43-.18s.31.06.43.18c.12.12.18.26.18.43s-.06.31-.18.43c-.12.12-.26.18-.43.18s-.31-.06-.43-.18c-.12-.12-.18-.26-.18-.43ZM262.67,329.87h.93v.57h-2.87v-.57h.95v-4.57h-.95v-.57h1.93v5.14Z"/>
  <path id="DejaVuSerif-741" data-name="DejaVuSerif-74" d="M265.04,325.3h-.87v-.57h.87v-1.77h.99v1.77h1.86v.57h-1.86v3.63c0,.48.05.79.14.93.09.14.26.2.52.2s.45-.08.56-.23c.12-.15.18-.4.19-.74h.75c-.03.52-.17.9-.42,1.14-.25.24-.64.36-1.16.36-.57,0-.97-.13-1.21-.38-.24-.25-.35-.68-.35-1.29v-3.63Z"/>
  <path id="DejaVuSerif-79" d="M270.65,331.48l.38-.95-2.13-5.23h-.65v-.57h2.63v.57h-.91l1.61,3.93,1.61-3.93h-.85v-.57h2.14v.57h-.64l-2.62,6.42c-.18.44-.38.75-.6.91-.22.16-.53.24-.92.24-.17,0-.34-.01-.52-.04-.18-.03-.35-.07-.53-.12v-1.09h.51c.02.24.08.42.19.52.1.11.26.16.47.16.2,0,.36-.05.48-.16.12-.11.25-.33.38-.66Z"/>
  <path id="DejaVuSerif-201" data-name="DejaVuSerif-20" d="M274.49,330.43"/>
  <path id="DejaVuSans-Oblique-3c1" d="M280.05,325.49c.29-.37.73-.71,1.34-1.03.24-.12.68-.19,1.33-.19.73,0,1.27.29,1.61.87s.42,1.34.24,2.29c-.19.95-.56,1.71-1.13,2.29-.57.58-1.22.87-1.95.87-.44,0-.8-.09-1.09-.26-.28-.17-.49-.44-.63-.79l-.62,3.19h-.99l1.02-5.24c.16-.83.45-1.49.87-1.99ZM283.55,327.43c.14-.73.1-1.3-.12-1.71-.22-.41-.59-.62-1.11-.62s-.97.21-1.35.62c-.38.42-.64.99-.78,1.71-.14.73-.11,1.3.11,1.71.22.41.59.62,1.11.62s.97-.21,1.35-.62c.38-.42.64-.99.79-1.71Z"/>
  <path id="DejaVuSans-2f" d="M287.76,322.41h.91l-2.79,9.04h-.91l2.79-9.04Z"/>
  <path id="DejaVuSans-Oblique-3c11" data-name="DejaVuSans-Oblique-3c1" d="M290.74,325.49c.29-.37.73-.71,1.34-1.03.24-.12.68-.19,1.33-.19.73,0,1.27.29,1.61.87s.42,1.34.24,2.29c-.19.95-.56,1.71-1.13,2.29-.57.58-1.22.87-1.95.87-.44,0-.8-.09-1.09-.26-.28-.17-.49-.44-.63-.79l-.62,3.19h-.99l1.02-5.24c.16-.83.45-1.49.87-1.99ZM294.24,327.43c.14-.73.1-1.3-.12-1.71-.22-.41-.59-.62-1.11-.62s-.97.21-1.35.62c-.38.42-.64.99-.78,1.71-.14.73-.11,1.3.11,1.71.22.41.59.62,1.11.62s.97-.21,1.35-.62c.38-.42.64-.99.79-1.71Z"/>
  <path id="DejaVuSans-Oblique-65" d="M299.36,329.76s.01-.08.02-.12c0-.04,0-.09,0-.13,0-.31-.09-.55-.27-.73-.18-.18-.42-.27-.73-.27-.34,0-.65.11-.91.33-.26.22-.46.52-.6.92h2.48ZM299.96,330.3h-3.22c-.02.1-.03.17-.03.23s0,.1,0,.14c0,.35.11.62.32.81.21.19.52.29.91.29.3,0,.59-.03.85-.1.27-.07.52-.17.75-.3l-.13.68c-.25.1-.51.18-.77.22-.26.05-.53.08-.81.08-.58,0-1.03-.14-1.35-.42-.31-.28-.47-.68-.47-1.19,0-.44.08-.85.23-1.22.16-.38.39-.71.69-1.01.19-.19.43-.33.7-.43s.56-.15.86-.15c.48,0,.86.14,1.14.43.28.29.42.67.42,1.15,0,.12,0,.24-.02.37-.01.13-.04.27-.07.42Z"/>
  <path id="DejaVuSans-Oblique-61" d="M304.53,329.84l-.47,2.4h-.69l.13-.64c-.2.25-.43.44-.69.56-.26.12-.55.19-.87.19-.36,0-.65-.11-.88-.33-.23-.22-.34-.5-.34-.84,0-.49.2-.88.59-1.17.39-.29.93-.43,1.62-.43h.96l.04-.19s0-.04.01-.06c0-.02,0-.06,0-.11,0-.22-.09-.4-.27-.52-.18-.12-.44-.19-.77-.19-.23,0-.46.03-.69.09-.24.06-.48.14-.73.26l.12-.64c.26-.1.52-.17.77-.22.25-.05.49-.07.72-.07.5,0,.87.11,1.13.32.26.21.39.53.39.94,0,.08,0,.18-.02.29-.01.11-.03.23-.06.35ZM303.78,330.12h-.69c-.57,0-.99.08-1.26.23s-.41.39-.41.71c0,.22.07.39.21.52.14.13.33.19.58.19.38,0,.7-.13.99-.4s.47-.63.56-1.08l.03-.15Z"/>
  <path id="DejaVuSans-Oblique-72" d="M308.54,328.67c-.07-.04-.15-.07-.24-.09-.09-.02-.19-.03-.29-.03-.37,0-.69.14-.97.42-.28.28-.46.65-.55,1.12l-.42,2.15h-.69l.82-4.21h.69l-.13.65c.18-.24.4-.43.66-.56.26-.13.53-.2.81-.2.08,0,.15,0,.22.01.07,0,.15.02.22.04l-.13.68Z"/>
  <path id="DejaVuSans-Oblique-74" d="M311.53,328.03l-.1.54h-1.38l-.45,2.29c-.02.09-.03.16-.03.21s-.01.1-.01.13c0,.16.05.28.14.35.1.07.25.11.46.11h.7l-.12.58h-.66c-.41,0-.72-.08-.92-.24-.2-.16-.3-.4-.3-.73,0-.06,0-.12.01-.19s.02-.14.03-.23l.45-2.29h-.59l.11-.54h.58l.23-1.2h.69l-.23,1.2h1.38Z"/>
  <path id="DejaVuSans-Oblique-68" d="M315.59,329.7l-.49,2.54h-.7l.49-2.52c.02-.12.04-.22.05-.31.01-.09.02-.16.02-.21,0-.21-.07-.37-.2-.49-.13-.12-.32-.18-.56-.18-.37,0-.69.13-.96.38-.27.25-.45.58-.53,1l-.45,2.34h-.69l1.14-5.85h.69l-.45,2.3c.18-.24.4-.42.67-.56.27-.14.56-.2.86-.2.37,0,.66.1.86.3.2.2.31.48.31.85,0,.09,0,.19-.02.29s-.03.21-.05.33Z"/>
  <g class="st1">
    <path class="st13" d="M54.61,260.23h390.6"/>
  </g>
  <path id="m00fe8575b7" class="st16" d="M54.61,260.23h-3.5"/>
  <path id="DejaVuSerif-318" data-name="DejaVuSerif-31" d="M23.43,264.33v-.57h1.4v-6.67l-1.62,1.05v-.7l1.96-1.27h.74v7.6h1.4v.57h-3.87Z"/>
  <path id="DejaVuSerif-308" data-name="DejaVuSerif-30" d="M32.36,263.95c.55,0,.96-.3,1.23-.9.27-.6.41-1.51.41-2.72s-.14-2.13-.41-2.73c-.27-.6-.68-.9-1.23-.9s-.96.3-1.23.9c-.27.6-.41,1.51-.41,2.73s.14,2.12.41,2.72c.27.6.68.9,1.23.9ZM32.36,264.49c-.87,0-1.55-.36-2.04-1.09-.49-.73-.73-1.75-.73-3.06s.24-2.34.73-3.07c.49-.73,1.17-1.1,2.04-1.1s1.55.37,2.04,1.1c.49.73.73,1.75.73,3.07s-.24,2.33-.73,3.06c-.49.73-1.17,1.09-2.04,1.09Z"/>
  <path id="DejaVuSerif-2212" d="M36.78,257.62h4.82v.61h-4.82v-.61Z"/>
  <path id="DejaVuSerif-331" data-name="DejaVuSerif-33" d="M43.17,254.96c.29-.11.57-.19.84-.25.27-.06.52-.09.76-.09.55,0,.98.12,1.29.36.31.24.46.57.46.99,0,.34-.11.62-.32.85-.21.23-.51.38-.9.46.46.06.82.23,1.07.5s.38.62.38,1.05c0,.52-.18.93-.53,1.21-.35.28-.86.42-1.52.42-.29,0-.58-.03-.86-.1-.28-.06-.56-.16-.83-.29v-1.09h.42c.02.36.15.63.36.82.22.19.52.28.92.28s.69-.11.91-.33c.22-.22.33-.53.33-.91,0-.44-.11-.78-.34-1-.23-.23-.56-.34-1-.34h-.36v-.38h.19c.44,0,.77-.09.99-.27.22-.18.33-.46.33-.82,0-.33-.09-.58-.27-.75-.18-.17-.44-.26-.78-.26s-.6.08-.79.24c-.19.16-.3.4-.33.71h-.42v-.99Z"/>
  <g class="st20">
    <path class="st13" d="M54.61,205.03h390.6"/>
  </g>
  <path id="m00fe8575b71" data-name="m00fe8575b7" class="st16" d="M54.61,205.03h-3.5"/>
  <path id="DejaVuSerif-319" data-name="DejaVuSerif-31" d="M23.43,209.13v-.57h1.4v-6.67l-1.62,1.05v-.7l1.96-1.27h.74v7.6h1.4v.57h-3.87Z"/>
  <path id="DejaVuSerif-309" data-name="DejaVuSerif-30" d="M32.36,208.75c.55,0,.96-.3,1.23-.9.27-.6.41-1.51.41-2.72s-.14-2.13-.41-2.73c-.27-.6-.68-.9-1.23-.9s-.96.3-1.23.9c-.27.6-.41,1.51-.41,2.73s.14,2.12.41,2.72c.27.6.68.9,1.23.9ZM32.36,209.29c-.87,0-1.55-.36-2.04-1.09-.49-.73-.73-1.75-.73-3.06s.24-2.34.73-3.07c.49-.73,1.17-1.1,2.04-1.1s1.55.37,2.04,1.1c.49.73.73,1.75.73,3.07s-.24,2.33-.73,3.06c-.49.73-1.17,1.09-2.04,1.09Z"/>
  <path id="DejaVuSerif-22121" data-name="DejaVuSerif-2212" d="M36.78,202.42h4.82v.61h-4.82v-.61Z"/>
  <path id="DejaVuSerif-3110" data-name="DejaVuSerif-31" d="M43.51,205.13v-.4h.98v-4.67l-1.13.73v-.49l1.37-.89h.52v5.32h.98v.4h-2.71Z"/>
  <g class="st6">
    <path class="st13" d="M54.61,149.83h390.6"/>
  </g>
  <path id="m00fe8575b72" data-name="m00fe8575b7" class="st16" d="M54.61,149.83h-3.5"/>
  <path id="DejaVuSerif-3111" data-name="DejaVuSerif-31" d="M29.81,153.93v-.57h1.4v-6.67l-1.62,1.05v-.7l1.96-1.27h.74v7.6h1.4v.57h-3.87Z"/>
  <path id="DejaVuSerif-3010" data-name="DejaVuSerif-30" d="M38.74,153.55c.55,0,.96-.3,1.23-.9.27-.6.41-1.51.41-2.72s-.14-2.13-.41-2.73c-.27-.6-.68-.9-1.23-.9s-.96.3-1.23.9c-.27.6-.41,1.51-.41,2.73s.14,2.12.41,2.72c.27.6.68.9,1.23.9ZM38.74,154.09c-.87,0-1.55-.36-2.04-1.09-.49-.73-.73-1.75-.73-3.06s.24-2.34.73-3.07c.49-.73,1.17-1.1,2.04-1.1s1.55.37,2.04,1.1c.49.73.73,1.75.73,3.07s-.24,2.33-.73,3.06c-.49.73-1.17,1.09-2.04,1.09Z"/>
  <path id="DejaVuSerif-3112" data-name="DejaVuSerif-31" d="M43.44,149.93v-.4h.98v-4.67l-1.13.73v-.49l1.37-.89h.52v5.32h.98v.4h-2.71Z"/>
  <g class="st7">
    <path class="st13" d="M54.61,94.63h390.6"/>
  </g>
  <path id="m00fe8575b73" data-name="m00fe8575b7" class="st16" d="M54.61,94.63h-3.5"/>
  <path id="DejaVuSerif-3113" data-name="DejaVuSerif-31" d="M29.81,98.73v-.57h1.4v-6.67l-1.62,1.05v-.7l1.96-1.27h.74v7.6h1.4v.57h-3.87Z"/>
  <path id="DejaVuSerif-3011" data-name="DejaVuSerif-30" d="M38.74,98.35c.55,0,.96-.3,1.23-.9.27-.6.41-1.51.41-2.72s-.14-2.13-.41-2.73c-.27-.6-.68-.9-1.23-.9s-.96.3-1.23.9c-.27.6-.41,1.51-.41,2.73s.14,2.12.41,2.72c.27.6.68.9,1.23.9ZM38.74,98.88c-.87,0-1.55-.36-2.04-1.09-.49-.73-.73-1.75-.73-3.06s.24-2.34.73-3.07c.49-.73,1.17-1.1,2.04-1.1s1.55.37,2.04,1.1c.49.73.73,1.75.73,3.07s-.24,2.33-.73,3.06c-.49.73-1.17,1.09-2.04,1.09Z"/>
  <path id="DejaVuSerif-332" data-name="DejaVuSerif-33" d="M43.1,89.36c.29-.11.57-.19.84-.25.27-.06.52-.09.76-.09.55,0,.98.12,1.29.36.31.24.46.57.46.99,0,.34-.11.62-.32.85-.21.23-.51.38-.9.46.46.06.82.23,1.07.5s.38.62.38,1.05c0,.52-.18.93-.53,1.21-.35.28-.86.42-1.52.42-.29,0-.58-.03-.86-.1-.28-.06-.56-.16-.83-.29v-1.09h.42c.02.36.15.63.36.82.22.19.52.28.92.28s.69-.11.91-.33c.22-.22.33-.53.33-.91,0-.44-.11-.78-.34-1-.23-.23-.56-.34-1-.34h-.36v-.38h.19c.44,0,.77-.09.99-.27.22-.18.33-.46.33-.82,0-.33-.09-.58-.27-.75-.18-.17-.44-.26-.78-.26s-.6.08-.79.24c-.19.16-.3.4-.33.71h-.42v-.99Z"/>
  <g class="st17">
    <path class="st13" d="M54.61,39.43h390.6"/>
  </g>
  <path id="m00fe8575b74" data-name="m00fe8575b7" class="st16" d="M54.61,39.43h-3.5"/>
  <path id="DejaVuSerif-3114" data-name="DejaVuSerif-31" d="M29.81,43.54v-.57h1.4v-6.67l-1.62,1.05v-.7l1.96-1.27h.74v7.6h1.4v.57h-3.87Z"/>
  <path id="DejaVuSerif-3012" data-name="DejaVuSerif-30" d="M38.74,43.16c.55,0,.96-.3,1.23-.9.27-.6.41-1.51.41-2.72s-.14-2.13-.41-2.73c-.27-.6-.68-.9-1.23-.9s-.96.3-1.23.9c-.27.6-.41,1.51-.41,2.73s.14,2.12.41,2.72c.27.6.68.9,1.23.9ZM38.74,43.69c-.87,0-1.55-.36-2.04-1.09-.49-.73-.73-1.75-.73-3.06s.24-2.34.73-3.07c.49-.73,1.17-1.1,2.04-1.1s1.55.37,2.04,1.1c.49.73.73,1.75.73,3.07s-.24,2.33-.73,3.06c-.49.73-1.17,1.09-2.04,1.09Z"/>
  <path id="DejaVuSerif-351" data-name="DejaVuSerif-35" d="M46.22,33.93v.62h-2.57v1.61c.13-.09.28-.16.46-.2.17-.05.37-.07.58-.07.61,0,1.08.17,1.44.5.35.34.53.79.53,1.38s-.18,1.06-.53,1.39c-.35.33-.85.5-1.49.5-.26,0-.52-.03-.79-.1-.27-.06-.55-.16-.83-.29v-1.09h.42c.02.36.14.63.34.82.2.19.49.28.86.28.4,0,.7-.13.91-.39.21-.26.32-.64.32-1.12s-.11-.86-.32-1.12c-.21-.26-.52-.39-.92-.39-.23,0-.42.04-.6.12-.17.08-.32.2-.46.37h-.32v-2.82h2.97Z"/>
  <path id="DejaVuSerif-441" data-name="DejaVuSerif-44" d="M14.72,205.86v-1c0-1.04-.3-1.84-.89-2.4s-1.45-.84-2.56-.84-1.96.28-2.54.83c-.59.55-.88,1.35-.88,2.4v1h6.87ZM15.29,207.97h-.57v-1.02h-6.87v1.02h-.58v-3.19c0-1.38.35-2.46,1.06-3.23.71-.77,1.69-1.16,2.94-1.16s2.25.39,2.95,1.16c.71.77,1.06,1.85,1.06,3.23v3.19Z"/>
  <path id="DejaVuSerif-611" data-name="DejaVuSerif-61" d="M13.5,195.38h-1.21v1.27c0,.49.11.86.32,1.1.21.24.53.36.97.36.4,0,.71-.12.95-.36.23-.24.35-.57.35-.99s-.13-.74-.38-1c-.25-.25-.59-.38-.99-.38ZM11.73,194.39h3v-.88h.57v1.87h-.62c.26.22.46.47.59.76.12.29.19.62.19,1,0,.63-.17,1.14-.51,1.51-.34.37-.79.56-1.36.56s-1.05-.21-1.37-.64-.49-1.03-.49-1.8v-1.39h-.39c-.43,0-.77.13-1.01.4-.24.26-.36.63-.36,1.11,0,.39.09.71.27.94.18.23.44.38.8.43v.51h-1.15c-.15-.34-.26-.68-.33-1-.07-.32-.11-.64-.11-.95,0-.79.2-1.39.59-1.81.39-.41.96-.62,1.71-.62Z"/>
  <path id="DejaVuSerif-6d" d="M10.7,187.5c-.42-.19-.74-.43-.95-.73s-.32-.64-.32-1.03c0-.6.19-1.04.56-1.34.37-.29.93-.44,1.68-.44h3.06v-.89h.57v2.74h-.57v-.86h-2.95c-.58,0-1,.09-1.25.26s-.37.46-.37.85c0,.44.17.78.5,1.01.33.23.82.35,1.46.35h2.61v-.86h.57v2.71h-.57v-.86h-2.99c-.57,0-.98.09-1.22.26s-.36.46-.36.85c0,.44.17.78.5,1.01.33.23.82.35,1.46.35h2.61v-.86h.57v2.74h-.57v-.89h-4.58v.95h-.56v-1.93h1.02c-.38-.18-.67-.42-.87-.7-.2-.28-.3-.6-.3-.96,0-.44.11-.81.33-1.11.22-.3.53-.5.94-.6Z"/>
  <path id="DejaVuSerif-70" d="M12.16,180.52h.56c.69,0,1.21-.13,1.57-.39.36-.26.54-.65.54-1.15s-.2-.89-.61-1.15c-.4-.26-1-.39-1.79-.39s-1.39.13-1.79.39c-.4.26-.6.64-.6,1.15s.18.88.54,1.15c.36.26.88.39,1.57.39ZM10.16,181.5v.95h-.57v-1.94h.89c-.36-.19-.62-.44-.79-.74-.17-.3-.26-.67-.26-1.11,0-.7.28-1.27.83-1.72.55-.44,1.28-.67,2.17-.67s1.62.22,2.18.67c.56.44.84,1.02.84,1.72,0,.44-.08.81-.25,1.11-.17.3-.44.54-.79.74h2.61v-.93h.57v2.87h-.57v-.95h-6.85Z"/>
  <path id="DejaVuSerif-692" data-name="DejaVuSerif-69" d="M7.81,174.66c-.16,0-.31-.06-.43-.18-.12-.12-.18-.26-.18-.43s.06-.31.18-.43c.12-.12.26-.18.43-.18s.31.06.43.18c.12.12.18.26.18.43s-.06.31-.18.43c-.12.12-.26.18-.43.18ZM14.72,173.4v-.93h.57v2.87h-.57v-.95h-4.57v.95h-.57v-1.93h5.14Z"/>
  <path id="DejaVuSerif-6e1" data-name="DejaVuSerif-6e" d="M15.29,171.76h-.57v-.89h-4.57v.95h-.57v-1.93h1.02c-.39-.18-.68-.42-.88-.71-.2-.29-.3-.63-.3-1.02,0-.63.18-1.09.54-1.39s.93-.45,1.69-.45h3.06v-.88h.57v2.73h-.57v-.85h-2.75c-.7,0-1.18.09-1.44.26-.26.17-.39.47-.39.91,0,.46.17.81.5,1.05.33.24.82.36,1.46.36h2.61v-.86h.57v2.74Z"/>
  <path id="DejaVuSerif-67" d="M10.16,159.35h5.01c.82,0,1.45.23,1.9.68.45.45.67,1.09.67,1.93,0,.38-.03.74-.1,1.08-.07.34-.17.67-.31.99h-1.2v-.52c.37-.06.64-.22.82-.46.17-.24.26-.58.26-1.03,0-.58-.16-1.01-.49-1.28-.33-.27-.84-.41-1.55-.41h-.77c.36.19.62.44.79.74.17.3.25.67.25,1.11,0,.7-.28,1.27-.84,1.72-.56.45-1.28.67-2.18.67s-1.62-.22-2.17-.67c-.56-.44-.83-1.02-.83-1.72,0-.44.09-.81.26-1.11.17-.3.43-.54.79-.74h-.89v-1.93h.57v.95ZM12.16,160.34c-.68,0-1.21.13-1.57.4-.36.26-.54.64-.54,1.14s.2.89.6,1.15c.4.26,1,.39,1.79.39s1.38-.13,1.79-.39c.4-.26.61-.64.61-1.15s-.18-.88-.54-1.14c-.36-.26-.88-.4-1.57-.4h-.56Z"/>
  <path id="DejaVuSerif-202" data-name="DejaVuSerif-20" d="M15.29,158.09"/>
  <path id="DejaVuSerif-521" data-name="DejaVuSerif-52" d="M11.31,149.32c.07-.25.18-.47.35-.65.16-.18.39-.34.68-.49l2.38-1.17v-.98h.57v1.89l-2.55,1.25c-.49.24-.81.46-.96.66-.15.2-.22.48-.22.83v1.2h3.16v-1.13h.57v3.24h-.57v-1.02h-6.87v1.02h-.58v-4.07c0-.78.19-1.38.56-1.81.37-.43.9-.64,1.58-.64.55,0,.99.16,1.3.47.32.31.52.77.59,1.38ZM10.99,151.87v-1.58c0-.54-.13-.94-.38-1.2-.26-.26-.65-.39-1.19-.39s-.93.13-1.19.39c-.25.26-.38.66-.38,1.2v1.58h3.14Z"/>
  <path id="DejaVuSerif-612" data-name="DejaVuSerif-61" d="M13.5,141.93h-1.21v1.27c0,.49.11.86.32,1.1.21.24.53.36.97.36.4,0,.71-.12.95-.36.23-.24.35-.57.35-.99s-.13-.74-.38-1c-.25-.25-.59-.38-.99-.38ZM11.73,140.94h3v-.88h.57v1.87h-.62c.26.22.46.47.59.76.12.29.19.62.19,1,0,.63-.17,1.14-.51,1.51-.34.37-.79.56-1.36.56s-1.05-.21-1.37-.64-.49-1.03-.49-1.8v-1.39h-.39c-.43,0-.77.13-1.01.4-.24.26-.36.63-.36,1.11,0,.39.09.71.27.94.18.23.44.38.8.43v.51h-1.15c-.15-.34-.26-.68-.33-1-.07-.32-.11-.64-.11-.95,0-.79.2-1.39.59-1.81.39-.41.96-.62,1.71-.62Z"/>
  <path id="DejaVuSerif-742" data-name="DejaVuSerif-74" d="M10.16,138.56v.87h-.57v-.87h-1.77v-.99h1.77v-1.86h.57v1.86h3.63c.48,0,.79-.05.93-.14.14-.09.2-.26.2-.52s-.08-.45-.23-.56c-.15-.12-.4-.18-.74-.19v-.75c.52.03.9.17,1.14.42.24.25.36.64.36,1.16,0,.57-.13.97-.38,1.21-.25.24-.68.35-1.29.35h-3.63Z"/>
  <path id="DejaVuSerif-693" data-name="DejaVuSerif-69" d="M7.81,134.26c-.16,0-.31-.06-.43-.18-.12-.12-.18-.26-.18-.43s.06-.31.18-.43c.12-.12.26-.18.43-.18s.31.06.43.18c.12.12.18.26.18.43s-.06.31-.18.43c-.12.12-.26.18-.43.18ZM14.72,133v-.93h.57v2.87h-.57v-.95h-4.57v.95h-.57v-1.93h5.14Z"/>
  <path id="DejaVuSerif-6f" d="M14.92,128.5c0-.53-.21-.93-.63-1.2-.42-.27-1.04-.41-1.85-.41s-1.43.14-1.85.41c-.42.27-.63.67-.63,1.2s.21.93.63,1.2,1.03.41,1.85.41,1.44-.14,1.85-.41c.42-.27.63-.67.63-1.2ZM15.45,128.5c0,.83-.27,1.5-.82,2-.55.5-1.28.76-2.19.76s-1.64-.25-2.18-.75c-.55-.5-.82-1.17-.82-2.01s.27-1.5.82-2.01c.55-.5,1.28-.75,2.18-.75s1.64.25,2.19.75.82,1.17.82,2.01Z"/>
  <path id="DejaVuSerif-203" data-name="DejaVuSerif-20" d="M15.29,125.19"/>
  <path id="DejaVuSans-Oblique-3c7" d="M16.64,118.39l-2.06.4,3.01,2.23v1.17l-4.25-3.16-2.53.49c-.45.09-.68.4-.68.96v.26l-.85-.16v-.38c.04-.92.35-1.44.95-1.55l2.06-.4-3.01-2.23v-1.17l4.25,3.16,2.53-.49c.45-.09.68-.4.68-.96v-.26l.85.16v.38c-.04.92-.35,1.44-.95,1.55Z"/>
  <g class="st22">
    <path class="st12" d="M72.36,201.43l3.59-1.67,3.59-1.67,3.59-1.67,3.59-1.67,3.59-1.67,3.59-1.67,3.59-1.67,3.59-1.67,3.59-1.67,3.59-1.67,3.59-1.67,3.59-1.67,3.59-1.67,3.59-1.67,3.59-1.67,3.59-1.67,3.59-1.67,3.59-1.67,3.59-1.67,3.59-1.67,3.59-1.67,3.59-1.67,3.59-1.67,3.59-1.67,3.59-1.67,3.59-1.67,3.59-1.67,3.59-1.67,3.59-1.67,3.59-1.67,3.59-1.67,3.59-1.67,3.59-1.67,3.59-1.67,3.59-1.67,3.59-1.67,3.59-1.67,3.59-1.67,3.59-1.67,3.59-1.67,3.59-1.67,3.59-1.67,3.59-1.67,3.59-1.67,3.59-1.67,3.59-1.67,3.59-1.67,3.59-1.67,3.59-1.67,3.59-1.67,3.59-1.67,3.59-1.67,3.59-1.67,3.59-1.67,3.59-1.67,3.59-1.67,3.59-1.67,3.59-1.67,3.59-1.67,3.59-1.67,3.59-1.67,3.59-1.67,3.59-1.67,3.59-1.67,3.59-1.67,3.59-1.67,3.59-1.67,3.59-1.67,3.59-1.67,3.59-1.67,3.59-1.67,3.59-1.67,3.59-1.67,3.59-1.67,3.59-1.67,3.59-1.67,3.59-1.67,3.59-1.67,3.59-1.67,3.59-1.67,3.59-1.67,3.59-1.67,3.59-1.67,3.59-1.67,3.59-1.67,3.59-1.67,3.59-1.67,3.59-1.67,3.59-1.67,3.59-1.67,3.59-1.67,3.59-1.67,3.59-1.67,3.59-1.67,3.59-1.67,3.59-1.67,3.59-1.67,3.59-1.67,3.59-1.67"/>
  </g>
  <g class="st25">
    <path class="st14" d="M72.36,243.61l3.59-1.67,3.59-1.67,3.59-1.67,3.59-1.67,3.59-1.67,3.59-1.67,3.59-1.67,3.59-1.67,3.59-1.67,3.59-1.67,3.59-1.67,3.59-1.67,3.59-1.67,3.59-1.67,3.59-1.67,3.59-1.67,3.59-1.67,3.59-1.67,3.59-1.67,3.59-1.67,3.59-1.67,3.59-1.67,3.59-1.67,3.59-1.67,3.59-1.67,3.59-1.67,3.59-1.67,3.59-1.67,3.59-1.67,3.59-1.67,3.59-1.67,3.59-1.67,3.59-1.67,3.59-1.67,3.59-1.67,3.59-1.67,3.59-1.67,3.59-1.67,3.59-1.67,3.59-1.67,3.59-1.67,3.59-1.67,3.59-1.67,3.59-1.67,3.59-1.67,3.59-1.67,3.59-1.67,3.59-1.67,3.59-1.67,3.59-1.67,3.59-1.67,3.59-1.67,3.59-1.67,3.59-1.67,3.59-1.67,3.59-1.67,3.59-1.67,3.59-1.67,3.59-1.67,3.59-1.67,3.59-1.67,3.59-1.67,3.59-1.67,3.59-1.67,3.59-1.67,3.59-1.67,3.59-1.67,3.59-1.67,3.59-1.67,3.59-1.67,3.59-1.67,3.59-1.67,3.59-1.67,3.59-1.67,3.59-1.67,3.59-1.67,3.59-1.67,3.59-1.67,3.59-1.67,3.59-1.67,3.59-1.67,3.59-1.67,3.59-1.67,3.59-1.67,3.59-1.67,3.59-1.67,3.59-1.67,3.59-1.67,3.59-1.67,3.59-1.67,3.59-1.67,3.59-1.67,3.59-1.67,3.59-1.67,3.59-1.67,3.59-1.67,3.59-1.67,3.59-1.67,3.59-1.67"/>
  </g>
  <g class="st23">
    <path class="st11" d="M72.36,287.83l3.59-1.67,3.59-1.67,3.59-1.67,3.59-1.67,3.59-1.67,3.59-1.67,3.59-1.67,3.59-1.67,3.59-1.67,3.59-1.67,3.59-1.67,3.59-1.67,3.59-1.67,3.59-1.67,3.59-1.67,3.59-1.67,3.59-1.67,3.59-1.67,3.59-1.67,3.59-1.67,3.59-1.67,3.59-1.67,3.59-1.67,3.59-1.67,3.59-1.67,3.59-1.67,3.59-1.67,3.59-1.67,3.59-1.67,3.59-1.67,3.59-1.67,3.59-1.67,3.59-1.67,3.59-1.67,3.59-1.67,3.59-1.67,3.59-1.67,3.59-1.67,3.59-1.67,3.59-1.67,3.59-1.67,3.59-1.67,3.59-1.67,3.59-1.67,3.59-1.67,3.59-1.67,3.59-1.67,3.59-1.67,3.59-1.67,3.59-1.67,3.59-1.67,3.59-1.67,3.59-1.67,3.59-1.67,3.59-1.67,3.59-1.67,3.59-1.67,3.59-1.67,3.59-1.67,3.59-1.67,3.59-1.67,3.59-1.67,3.59-1.67,3.59-1.67,3.59-1.67,3.59-1.67,3.59-1.67,3.59-1.67,3.59-1.67,3.59-1.67,3.59-1.67,3.59-1.67,3.59-1.67,3.59-1.67,3.59-1.67,3.59-1.67,3.59-1.67,3.59-1.67,3.59-1.67,3.59-1.67,3.59-1.67,3.59-1.67,3.59-1.67,3.59-1.67,3.59-1.67,3.59-1.67,3.59-1.67,3.59-1.67,3.59-1.67,3.59-1.67,3.59-1.67,3.59-1.67,3.59-1.67,3.59-1.67,3.59-1.67,3.59-1.67,3.59-1.67,3.59-1.67,3.59-1.67"/>
  </g>
  <g class="st2">
    <path class="st8" d="M54.61,177.43h390.6"/>
  </g>
  <path class="st10" d="M54.61,300.43V23.23"/>
  <path class="st10" d="M445.21,300.43V23.23"/>
  <path class="st10" d="M54.61,300.43h390.6"/>
  <path class="st10" d="M54.61,23.23h390.6"/>
  <path id="DejaVuSerif-4e" d="M69.14,17.23v-.68h1.16v-8.25h-1.16v-.69h2.22l5.18,7.59v-6.9h-1.16v-.69h3.03v.69h-1.16v9.12h-.7l-5.54-8.11v7.24h1.16v.68h-3.04Z"/>
  <path id="DejaVuSerif-6f1" data-name="DejaVuSerif-6f" d="M82.5,16.78c.57,0,1-.25,1.29-.75.29-.5.44-1.25.44-2.23s-.15-1.72-.44-2.22c-.29-.5-.72-.75-1.29-.75s-1,.25-1.29.75-.44,1.24-.44,2.22.15,1.72.44,2.23c.29.5.72.75,1.29.75ZM82.5,17.42c-.9,0-1.62-.33-2.16-.99-.54-.66-.82-1.54-.82-2.63s.27-1.96.81-2.62c.54-.66,1.26-.99,2.16-.99s1.62.33,2.16.99c.54.66.81,1.53.81,2.62s-.27,1.97-.81,2.63-1.26.99-2.16.99Z"/>
  <path id="DejaVuSerif-2d" d="M86.6,13.19h2.96v1h-2.96v-1Z"/>
  <path id="DejaVuSerif-47" d="M97.67,10.48c-.13-.8-.42-1.4-.84-1.78-.43-.38-1.03-.58-1.79-.58-1,0-1.74.36-2.23,1.07s-.74,1.79-.74,3.24.25,2.48.76,3.21c.51.73,1.25,1.09,2.23,1.09.44,0,.85-.06,1.25-.18.4-.12.78-.3,1.14-.54v-2.48h-1.63v-.69h2.8v3.59c-.51.33-1.07.58-1.66.75-.59.16-1.23.25-1.9.25-1.31,0-2.35-.45-3.14-1.36-.79-.91-1.18-2.12-1.18-3.63s.39-2.73,1.18-3.64c.79-.9,1.85-1.36,3.18-1.36.49,0,1,.06,1.53.19.53.13,1.09.32,1.68.58v2.28h-.65Z"/>
  <path id="DejaVuSerif-6c1" data-name="DejaVuSerif-6c" d="M101.99,16.55h1.01v.68h-3.1v-.68h1.03V7.88h-1.03v-.68h2.09v9.35Z"/>
  <path id="DejaVuSerif-6f2" data-name="DejaVuSerif-6f" d="M106.91,16.78c.57,0,1-.25,1.29-.75.29-.5.44-1.25.44-2.23s-.15-1.72-.44-2.22c-.29-.5-.72-.75-1.29-.75s-1,.25-1.29.75-.44,1.24-.44,2.22.15,1.72.44,2.23c.29.5.72.75,1.29.75ZM106.91,17.42c-.9,0-1.62-.33-2.16-.99-.54-.66-.82-1.54-.82-2.63s.27-1.96.81-2.62c.54-.66,1.26-.99,2.16-.99s1.62.33,2.16.99c.54.66.81,1.53.81,2.62s-.27,1.97-.81,2.63-1.26.99-2.16.99Z"/>
  <path id="DejaVuSerif-62" d="M111.85,16.55V7.88h-1.03v-.68h2.09v4.25c.21-.43.47-.75.79-.95.32-.2.72-.31,1.2-.31.76,0,1.37.33,1.85,1,.48.67.72,1.54.72,2.61s-.24,1.95-.72,2.62c-.48.67-1.09,1-1.85,1-.48,0-.87-.1-1.2-.31-.32-.2-.59-.52-.79-.95v1.07h-2.09v-.68h1.03ZM112.92,14.14c0,.82.14,1.45.42,1.89.28.43.7.65,1.24.65s.96-.24,1.24-.73c.28-.49.42-1.2.42-2.15s-.14-1.66-.42-2.14c-.28-.48-.69-.72-1.24-.72s-.95.22-1.24.65c-.28.43-.42,1.06-.42,1.88v.68Z"/>
  <path id="DejaVuSerif-613" data-name="DejaVuSerif-61" d="M122.8,15.08v-1.45h-1.37c-.53,0-.92.13-1.18.38-.26.25-.39.64-.39,1.17,0,.48.13.86.39,1.13.26.28.62.42,1.07.42s.8-.15,1.07-.46c.27-.31.41-.7.41-1.19ZM123.86,12.95v3.6h.95v.68h-2.01v-.74c-.24.32-.51.55-.82.7-.31.15-.67.22-1.08.22-.68,0-1.23-.2-1.63-.61-.4-.4-.6-.95-.6-1.64s.23-1.26.69-1.65,1.11-.59,1.95-.59h1.49v-.47c0-.52-.14-.92-.43-1.21-.28-.29-.68-.43-1.2-.43-.42,0-.76.11-1.01.32-.25.21-.41.53-.47.95h-.55v-1.39c.37-.18.73-.31,1.08-.4.35-.09.69-.13,1.02-.13.85,0,1.5.24,1.95.71.45.47.67,1.15.67,2.05Z"/>
  <path id="DejaVuSerif-6c2" data-name="DejaVuSerif-6c" d="M127.58,16.55h1.01v.68h-3.1v-.68h1.03V7.88h-1.03v-.68h2.09v9.35Z"/>
  <path id="DejaVuSerif-2d1" data-name="DejaVuSerif-2d" d="M129.46,13.19h2.96v1h-2.96v-1Z"/>
  <path id="DejaVuSerif-43" d="M141.31,14.68c-.26.9-.68,1.58-1.28,2.04s-1.36.69-2.28.69c-.56,0-1.09-.11-1.57-.32-.48-.22-.91-.53-1.28-.95-.43-.48-.75-1.03-.97-1.64-.21-.61-.31-1.31-.31-2.08,0-1.5.39-2.7,1.16-3.62.78-.92,1.8-1.38,3.07-1.38.47,0,.97.07,1.5.21.53.14,1.11.35,1.72.62v2.22h-.65c-.14-.81-.43-1.4-.86-1.78-.43-.38-1.03-.58-1.81-.58-.92,0-1.62.36-2.1,1.09-.47.73-.71,1.8-.71,3.21s.24,2.48.71,3.21c.48.73,1.17,1.09,2.1,1.09.64,0,1.18-.17,1.59-.51.42-.34.72-.85.9-1.53h1.07Z"/>
  <path id="DejaVuSerif-72" d="M147.68,10.37v1.71h-.61c-.02-.34-.1-.59-.25-.76s-.37-.25-.66-.25c-.52,0-.93.2-1.21.61-.28.4-.42.98-.42,1.74v3.13h1.23v.68h-3.26v-.68h.96v-5.49h-1.02v-.68h2.08v1.22c.21-.48.48-.83.8-1.06.33-.23.73-.35,1.2-.35.17,0,.36.02.55.05s.39.07.6.13Z"/>
  <path id="DejaVuSerif-694" data-name="DejaVuSerif-69" d="M148.84,8.25c0-.2.06-.37.19-.52.13-.15.29-.22.47-.22s.33.07.46.22c.13.15.19.32.19.52s-.06.37-.19.52c-.13.14-.28.21-.46.21s-.34-.07-.47-.21c-.13-.14-.19-.31-.19-.52ZM150.2,16.55h1.01v.68h-3.09v-.68h1.02v-5.48h-1.02v-.69h2.08v6.17Z"/>
  <path id="DejaVuSerif-743" data-name="DejaVuSerif-74" d="M152.76,11.07h-.94v-.69h.94v-2.13h1.07v2.13h2v.69h-2v4.35c0,.58.05.95.15,1.12.1.16.29.24.56.24s.48-.09.61-.27c.13-.18.2-.48.2-.89h.8c-.03.62-.18,1.08-.46,1.37-.27.29-.69.43-1.25.43-.61,0-1.05-.15-1.3-.45-.25-.3-.38-.82-.38-1.54v-4.35Z"/>
  <path id="DejaVuSerif-695" data-name="DejaVuSerif-69" d="M157.4,8.25c0-.2.06-.37.19-.52.13-.15.29-.22.47-.22s.33.07.46.22c.13.15.19.32.19.52s-.06.37-.19.52c-.13.14-.28.21-.46.21s-.34-.07-.47-.21c-.13-.14-.19-.31-.19-.52ZM158.75,16.55h1.01v.68h-3.09v-.68h1.02v-5.48h-1.02v-.69h2.08v6.17Z"/>
  <path id="DejaVuSerif-63" d="M166.13,15.17c-.15.73-.44,1.29-.87,1.67-.43.38-.98.57-1.66.57-.9,0-1.62-.33-2.16-.99-.54-.66-.82-1.54-.82-2.63s.27-1.97.82-2.63c.54-.66,1.26-.98,2.16-.98.39,0,.78.05,1.16.15.39.1.77.25,1.16.46v1.75h-.62c-.08-.6-.26-1.04-.53-1.31s-.66-.41-1.17-.41c-.57,0-1.01.25-1.3.74-.29.5-.44,1.24-.44,2.23s.15,1.73.44,2.23c.29.5.73.75,1.3.75.46,0,.83-.13,1.1-.4.27-.27.46-.67.56-1.21h.86Z"/>
  <path id="DejaVuSerif-614" data-name="DejaVuSerif-61" d="M171.39,15.08v-1.45h-1.37c-.53,0-.92.13-1.18.38-.26.25-.39.64-.39,1.17,0,.48.13.86.39,1.13.26.28.62.42,1.07.42s.8-.15,1.07-.46c.27-.31.41-.7.41-1.19ZM172.46,12.95v3.6h.95v.68h-2.01v-.74c-.24.32-.51.55-.82.7-.31.15-.67.22-1.08.22-.68,0-1.23-.2-1.63-.61-.4-.4-.6-.95-.6-1.64s.23-1.26.69-1.65,1.11-.59,1.95-.59h1.49v-.47c0-.52-.14-.92-.43-1.21-.28-.29-.68-.43-1.2-.43-.42,0-.76.11-1.01.32-.25.21-.41.53-.47.95h-.55v-1.39c.37-.18.73-.31,1.08-.4.35-.09.69-.13,1.02-.13.85,0,1.5.24,1.95.71.45.47.67,1.15.67,2.05Z"/>
  <path id="DejaVuSerif-6c3" data-name="DejaVuSerif-6c" d="M176.18,16.55h1.01v.68h-3.1v-.68h1.03V7.88h-1.03v-.68h2.09v9.35Z"/>
  <path id="DejaVuSerif-204" data-name="DejaVuSerif-20" d="M177.54,17.23"/>
  <path id="DejaVuSerif-53" d="M182.41,16.77v-2.19h.67c.02.74.21,1.28.57,1.63.36.35.91.52,1.65.52.69,0,1.21-.15,1.57-.45.36-.3.54-.74.54-1.32,0-.46-.11-.82-.33-1.07-.22-.25-.68-.49-1.38-.73l-1.14-.38c-.83-.28-1.41-.63-1.75-1.04s-.51-.99-.51-1.71c0-.82.26-1.45.78-1.9.52-.45,1.25-.68,2.2-.68.4,0,.84.05,1.32.15.48.1.99.24,1.53.42v2.05h-.65c-.07-.68-.27-1.17-.61-1.47-.34-.3-.86-.46-1.56-.46-.61,0-1.07.14-1.39.42-.32.28-.48.68-.48,1.21,0,.46.12.82.36,1.08.24.26.75.52,1.52.78l1.07.35c.78.26,1.34.6,1.67,1,.33.41.5.95.5,1.63,0,.93-.27,1.63-.81,2.11-.54.47-1.33.71-2.4.71-.48,0-.96-.05-1.45-.16-.49-.11-.99-.27-1.5-.49Z"/>
  <path id="DejaVuSerif-744" data-name="DejaVuSerif-74" d="M190.71,11.07h-.94v-.69h.94v-2.13h1.07v2.13h2v.69h-2v4.35c0,.58.05.95.15,1.12.1.16.29.24.56.24s.48-.09.61-.27c.13-.18.2-.48.2-.89h.8c-.03.62-.18,1.08-.46,1.37-.27.29-.69.43-1.25.43-.61,0-1.05-.15-1.3-.45-.25-.3-.38-.82-.38-1.54v-4.35Z"/>
  <path id="DejaVuSerif-615" data-name="DejaVuSerif-61" d="M198.91,15.08v-1.45h-1.37c-.53,0-.92.13-1.18.38-.26.25-.39.64-.39,1.17,0,.48.13.86.39,1.13.26.28.62.42,1.07.42s.8-.15,1.07-.46c.27-.31.41-.7.41-1.19ZM199.98,12.95v3.6h.95v.68h-2.01v-.74c-.24.32-.51.55-.82.7-.31.15-.67.22-1.08.22-.68,0-1.23-.2-1.63-.61-.4-.4-.6-.95-.6-1.64s.23-1.26.69-1.65,1.11-.59,1.95-.59h1.49v-.47c0-.52-.14-.92-.43-1.21-.28-.29-.68-.43-1.2-.43-.42,0-.76.11-1.01.32-.25.21-.41.53-.47.95h-.55v-1.39c.37-.18.73-.31,1.08-.4.35-.09.69-.13,1.02-.13.85,0,1.5.24,1.95.71.45.47.67,1.15.67,2.05Z"/>
  <path id="DejaVuSerif-621" data-name="DejaVuSerif-62" d="M202.63,16.55V7.88h-1.03v-.68h2.09v4.25c.21-.43.47-.75.79-.95.32-.2.72-.31,1.2-.31.76,0,1.37.33,1.85,1,.48.67.72,1.54.72,2.61s-.24,1.95-.72,2.62c-.48.67-1.09,1-1.85,1-.48,0-.87-.1-1.2-.31-.32-.2-.59-.52-.79-.95v1.07h-2.09v-.68h1.03ZM203.7,14.14c0,.82.14,1.45.42,1.89.28.43.7.65,1.24.65s.96-.24,1.24-.73c.28-.49.42-1.2.42-2.15s-.14-1.66-.42-2.14c-.28-.48-.69-.72-1.24-.72s-.95.22-1.24.65c-.28.43-.42,1.06-.42,1.88v.68Z"/>
  <path id="DejaVuSerif-696" data-name="DejaVuSerif-69" d="M210.01,8.25c0-.2.06-.37.19-.52.13-.15.29-.22.47-.22s.33.07.46.22c.13.15.19.32.19.52s-.06.37-.19.52c-.13.14-.28.21-.46.21s-.34-.07-.47-.21c-.13-.14-.19-.31-.19-.52ZM211.37,16.55h1.01v.68h-3.09v-.68h1.02v-5.48h-1.02v-.69h2.08v6.17Z"/>
  <path id="DejaVuSerif-6c4" data-name="DejaVuSerif-6c" d="M215.08,16.55h1.01v.68h-3.1v-.68h1.03V7.88h-1.03v-.68h2.09v9.35Z"/>
  <path id="DejaVuSerif-697" data-name="DejaVuSerif-69" d="M217.59,8.25c0-.2.06-.37.19-.52.13-.15.29-.22.47-.22s.33.07.46.22c.13.15.19.32.19.52s-.06.37-.19.52c-.13.14-.28.21-.46.21s-.34-.07-.47-.21c-.13-.14-.19-.31-.19-.52ZM218.95,16.55h1.01v.68h-3.09v-.68h1.02v-5.48h-1.02v-.69h2.08v6.17Z"/>
  <path id="DejaVuSerif-745" data-name="DejaVuSerif-74" d="M221.51,11.07h-.94v-.69h.94v-2.13h1.07v2.13h2v.69h-2v4.35c0,.58.05.95.15,1.12.1.16.29.24.56.24s.48-.09.61-.27c.13-.18.2-.48.2-.89h.8c-.03.62-.18,1.08-.46,1.37-.27.29-.69.43-1.25.43-.61,0-1.05-.15-1.3-.45-.25-.3-.38-.82-.38-1.54v-4.35Z"/>
  <path id="DejaVuSerif-791" data-name="DejaVuSerif-79" d="M227.56,18.49l.41-1.14-2.3-6.28h-.7v-.69h2.83v.69h-.98l1.73,4.71,1.73-4.71h-.92v-.69h2.31v.69h-.69l-2.82,7.71c-.19.53-.41.9-.64,1.09-.23.2-.57.29-.99.29-.18,0-.37-.02-.56-.05-.19-.03-.38-.08-.58-.15v-1.31h.54c.02.29.09.5.2.63.11.13.28.19.51.19.21,0,.38-.07.51-.2.13-.13.27-.39.41-.79Z"/>
  <path id="DejaVuSerif-205" data-name="DejaVuSerif-20" d="M231.7,17.23"/>
  <path id="DejaVuSerif-48" d="M236.12,17.23v-.68h1.1v-8.25h-1.1v-.69h3.38v.69h-1.1v3.32h4.48v-3.32h-1.1v-.69h3.38v.69h-1.1v8.25h1.1v.68h-3.38v-.68h1.1v-4.14h-4.48v4.14h1.1v.68h-3.38Z"/>
  <path id="DejaVuSerif-698" data-name="DejaVuSerif-69" d="M246.96,8.25c0-.2.06-.37.19-.52.13-.15.29-.22.47-.22s.33.07.46.22c.13.15.19.32.19.52s-.06.37-.19.52c-.13.14-.28.21-.46.21s-.34-.07-.47-.21c-.13-.14-.19-.31-.19-.52ZM248.32,16.55h1.01v.68h-3.09v-.68h1.02v-5.48h-1.02v-.69h2.08v6.17Z"/>
  <path id="DejaVuSerif-653" data-name="DejaVuSerif-65" d="M256.02,13.93h-4.59v.05c0,.92.16,1.62.47,2.09s.77.71,1.38.71c.47,0,.85-.14,1.15-.41.3-.27.51-.68.63-1.21h.86c-.17.75-.48,1.32-.94,1.7-.46.38-1.06.57-1.8.57-.9,0-1.62-.33-2.17-.99-.55-.66-.82-1.54-.82-2.63s.27-1.95.8-2.62c.54-.66,1.24-.99,2.11-.99.93,0,1.64.32,2.14.96.5.64.76,1.56.78,2.78ZM254.77,13.25c-.02-.8-.18-1.4-.46-1.81-.28-.41-.68-.61-1.21-.61-.49,0-.88.2-1.16.61s-.45,1.01-.52,1.8h3.33Z"/>
  <path id="DejaVuSerif-721" data-name="DejaVuSerif-72" d="M262.28,10.37v1.71h-.61c-.02-.34-.1-.59-.25-.76s-.37-.25-.66-.25c-.52,0-.93.2-1.21.61-.28.4-.42.98-.42,1.74v3.13h1.23v.68h-3.26v-.68h.96v-5.49h-1.02v-.68h2.08v1.22c.21-.48.48-.83.8-1.06.33-.23.73-.35,1.2-.35.17,0,.36.02.55.05s.39.07.6.13Z"/>
  <path id="DejaVuSerif-616" data-name="DejaVuSerif-61" d="M267,15.08v-1.45h-1.37c-.53,0-.92.13-1.18.38-.26.25-.39.64-.39,1.17,0,.48.13.86.39,1.13.26.28.62.42,1.07.42s.8-.15,1.07-.46c.27-.31.41-.7.41-1.19ZM268.07,12.95v3.6h.95v.68h-2.01v-.74c-.24.32-.51.55-.82.7-.31.15-.67.22-1.08.22-.68,0-1.23-.2-1.63-.61-.4-.4-.6-.95-.6-1.64s.23-1.26.69-1.65,1.11-.59,1.95-.59h1.49v-.47c0-.52-.14-.92-.43-1.21-.28-.29-.68-.43-1.2-.43-.42,0-.76.11-1.01.32-.25.21-.41.53-.47.95h-.55v-1.39c.37-.18.73-.31,1.08-.4.35-.09.69-.13,1.02-.13.85,0,1.5.24,1.95.71.45.47.67,1.15.67,2.05Z"/>
  <path id="DejaVuSerif-722" data-name="DejaVuSerif-72" d="M275.02,10.37v1.71h-.61c-.02-.34-.1-.59-.25-.76s-.37-.25-.66-.25c-.52,0-.93.2-1.21.61-.28.4-.42.98-.42,1.74v3.13h1.23v.68h-3.26v-.68h.96v-5.49h-1.02v-.68h2.08v1.22c.21-.48.48-.83.8-1.06.33-.23.73-.35,1.2-.35.17,0,.36.02.55.05s.39.07.6.13Z"/>
  <path id="DejaVuSerif-631" data-name="DejaVuSerif-63" d="M281.12,15.17c-.15.73-.44,1.29-.87,1.67-.43.38-.98.57-1.66.57-.9,0-1.62-.33-2.16-.99-.54-.66-.82-1.54-.82-2.63s.27-1.97.82-2.63c.54-.66,1.26-.98,2.16-.98.39,0,.78.05,1.16.15.39.1.77.25,1.16.46v1.75h-.62c-.08-.6-.26-1.04-.53-1.31s-.66-.41-1.17-.41c-.57,0-1.01.25-1.3.74-.29.5-.44,1.24-.44,2.23s.15,1.73.44,2.23c.29.5.73.75,1.3.75.46,0,.83-.13,1.1-.4.27-.27.46-.67.56-1.21h.86Z"/>
  <path id="DejaVuSerif-68" d="M282.15,17.23v-.68h.96V7.88h-1.02v-.68h2.08v4.4c.2-.46.45-.82.77-1.05.31-.24.68-.35,1.1-.35.68,0,1.18.22,1.5.65s.48,1.11.48,2.03v3.68h.95v.68h-2.94v-.68h.92v-3.3c0-.84-.09-1.41-.28-1.72-.18-.31-.51-.46-.98-.46-.49,0-.87.2-1.13.6-.26.4-.39.98-.39,1.75v3.13h.93v.68h-2.95Z"/>
  <path id="DejaVuSerif-792" data-name="DejaVuSerif-79" d="M291.86,18.49l.41-1.14-2.3-6.28h-.7v-.69h2.83v.69h-.98l1.73,4.71,1.73-4.71h-.92v-.69h2.31v.69h-.69l-2.82,7.71c-.19.53-.41.9-.64,1.09-.23.2-.57.29-.99.29-.18,0-.37-.02-.56-.05-.19-.03-.38-.08-.58-.15v-1.31h.54c.02.29.09.5.2.63.11.13.28.19.51.19.21,0,.38-.07.51-.2.13-.13.27-.39.41-.79Z"/>
  <path class="st4" d="M273.17,294.93h164.34c1.47,0,2.2-.73,2.2-2.2v-64.02c0-1.47-.73-2.2-2.2-2.2h-164.34c-1.47,0-2.2.73-2.2,2.2v64.02c0,1.47.73,2.2,2.2,2.2Z"/>
  <path class="st12" d="M275.37,235.42h22"/>
  <path id="DejaVuSans-Oblique-3c71" data-name="DejaVuSans-Oblique-3c7" d="M309.47,240.61l-.4-2.06-2.23,3.01h-1.17l3.16-4.25-.49-2.53c-.09-.45-.4-.68-.96-.68h-.26l.16-.85h.38c.92.04,1.44.35,1.55.95l.4,2.06,2.23-3.01h1.17l-3.16,4.25.49,2.53c.09.45.4.68.96.68h.26l-.16.85h-.38c-.92-.04-1.44-.35-1.55-.95Z"/>
  <path id="DejaVuSans-31" d="M313.64,240.44h1.24v-4.28l-1.35.27v-.69l1.34-.27h.76v4.97h1.24v.64h-3.23v-.64Z"/>
  <path id="DejaVuSerif-206" data-name="DejaVuSerif-20" d="M317.88,239.27"/>
  <path id="DejaVuSerif-28" d="M324.88,240.98c-.87-.39-1.53-1.01-1.97-1.86-.44-.85-.67-1.91-.67-3.18s.22-2.34.67-3.18c.44-.85,1.1-1.47,1.97-1.86v.53c-.55.38-.95.91-1.19,1.6-.24.69-.36,1.66-.36,2.91s.12,2.21.36,2.9c.24.69.64,1.22,1.19,1.6v.53Z"/>
  <path id="DejaVuSerif-4c" d="M326.27,239.27v-.57h1.02v-6.87h-1.02v-.58h3.13v.58h-1.02v6.78h3.66v-1.34h.66v2h-6.43Z"/>
  <path id="DejaVuSerif-699" data-name="DejaVuSerif-69" d="M334.04,231.79c0-.16.06-.31.18-.43.12-.12.26-.18.43-.18s.31.06.43.18c.12.12.18.26.18.43s-.06.31-.18.43c-.12.12-.26.18-.43.18s-.31-.06-.43-.18c-.12-.12-.18-.26-.18-.43ZM335.3,238.7h.93v.57h-2.87v-.57h.95v-4.57h-.95v-.57h1.93v5.14Z"/>
  <path id="DejaVuSerif-671" data-name="DejaVuSerif-67" d="M342.26,234.13v5.01c0,.82-.23,1.45-.68,1.9-.45.45-1.09.67-1.93.67-.38,0-.74-.03-1.08-.1-.34-.07-.67-.17-.99-.31v-1.2h.52c.06.37.22.64.46.82.24.17.58.26,1.03.26.58,0,1.01-.16,1.28-.49.27-.33.41-.84.41-1.55v-.77c-.19.36-.44.62-.74.79-.3.17-.67.25-1.11.25-.7,0-1.27-.28-1.72-.84-.45-.56-.67-1.28-.67-2.18s.22-1.62.67-2.17c.44-.56,1.02-.83,1.72-.83.44,0,.81.09,1.11.26.3.17.54.43.74.79v-.89h1.93v.57h-.95ZM341.28,236.13c0-.68-.13-1.21-.4-1.57-.26-.36-.64-.54-1.14-.54s-.89.2-1.15.6c-.26.4-.39,1-.39,1.79s.13,1.38.39,1.79c.26.4.64.61,1.15.61s.88-.18,1.14-.54c.26-.36.4-.88.4-1.57v-.56Z"/>
  <path id="DejaVuSerif-681" data-name="DejaVuSerif-68" d="M343.98,239.27v-.57h.89v-7.22h-.95v-.57h1.93v3.66c.18-.39.42-.68.71-.88.29-.2.63-.3,1.02-.3.63,0,1.09.18,1.39.54s.45.93.45,1.69v3.06h.88v.57h-2.73v-.57h.85v-2.75c0-.7-.09-1.18-.26-1.43-.17-.26-.47-.38-.91-.38-.46,0-.81.17-1.05.5-.24.33-.36.82-.36,1.46v2.61h.86v.57h-2.74Z"/>
  <path id="DejaVuSerif-746" data-name="DejaVuSerif-74" d="M351.8,234.13h-.87v-.57h.87v-1.77h.99v1.77h1.86v.57h-1.86v3.63c0,.48.05.79.14.93.09.14.26.2.52.2s.45-.08.56-.23c.12-.15.18-.4.19-.74h.75c-.03.52-.17.9-.42,1.14-.25.24-.64.36-1.16.36-.57,0-.97-.13-1.21-.38-.24-.25-.35-.68-.35-1.29v-3.63Z"/>
  <path id="DejaVuSerif-654" data-name="DejaVuSerif-65" d="M361,236.52h-4.26v.04c0,.77.14,1.35.43,1.74s.72.59,1.28.59c.43,0,.79-.11,1.07-.34.28-.23.47-.57.58-1.01h.8c-.16.63-.45,1.1-.87,1.41-.42.32-.98.47-1.67.47-.83,0-1.5-.27-2.01-.82-.51-.55-.76-1.28-.76-2.19s.25-1.63.75-2.18c.5-.55,1.15-.83,1.96-.83.86,0,1.53.27,1.99.8.46.53.7,1.3.72,2.32ZM359.83,235.95c-.02-.67-.16-1.17-.42-1.51-.26-.34-.63-.51-1.12-.51-.45,0-.81.17-1.07.51s-.42.84-.48,1.5h3.09Z"/>
  <path id="DejaVuSerif-731" data-name="DejaVuSerif-73" d="M362.16,238.95v-1.33h.57c.01.43.15.74.4.96.25.21.63.32,1.12.32.44,0,.78-.08,1.02-.25.23-.17.35-.41.35-.73,0-.25-.09-.45-.26-.6-.17-.15-.53-.32-1.08-.49l-.71-.24c-.49-.16-.85-.35-1.07-.59-.22-.24-.33-.54-.33-.9,0-.52.19-.93.57-1.23.38-.3.91-.45,1.59-.45.3,0,.62.04.95.12.33.08.68.19,1.03.34v1.25h-.57c-.01-.37-.14-.66-.39-.86-.24-.21-.57-.31-.99-.31s-.73.07-.94.22-.32.37-.32.66c0,.24.08.43.24.58.16.14.48.29.97.44l.78.24c.54.17.93.38,1.17.63.24.25.36.58.36.97,0,.54-.21.97-.62,1.28-.41.31-.98.46-1.71.46-.37,0-.73-.04-1.08-.12s-.7-.2-1.05-.35Z"/>
  <path id="DejaVuSerif-747" data-name="DejaVuSerif-74" d="M368.38,234.13h-.87v-.57h.87v-1.77h.99v1.77h1.86v.57h-1.86v3.63c0,.48.05.79.14.93.09.14.26.2.52.2s.45-.08.56-.23c.12-.15.18-.4.19-.74h.75c-.03.52-.17.9-.42,1.14-.25.24-.64.36-1.16.36-.57,0-.97-.13-1.21-.38-.24-.25-.35-.68-.35-1.29v-3.63Z"/>
  <path id="DejaVuSerif-29" d="M372.39,240.98v-.53c.55-.38.95-.91,1.19-1.6.24-.69.36-1.66.36-2.9s-.12-2.22-.36-2.91c-.24-.69-.64-1.22-1.19-1.6v-.53c.87.39,1.53,1.01,1.98,1.86.44.85.67,1.91.67,3.18s-.22,2.33-.67,3.18c-.44.85-1.1,1.47-1.98,1.86Z"/>
  <path class="st14" d="M275.37,251.81h22"/>
  <path id="DejaVuSans-Oblique-3c72" data-name="DejaVuSans-Oblique-3c7" d="M309.47,256.97l-.4-2.06-2.23,3.01h-1.17l3.16-4.25-.49-2.53c-.09-.45-.4-.68-.96-.68h-.26l.16-.85h.38c.92.04,1.44.35,1.55.95l.4,2.06,2.23-3.01h1.17l-3.16,4.25.49,2.53c.09.45.4.68.96.68h.26l-.16.85h-.38c-.92-.04-1.44-.35-1.55-.95Z"/>
  <path id="DejaVuSans-32" d="M314.16,256.8h2.65v.64h-3.56v-.64c.29-.3.68-.7,1.18-1.2.5-.5.81-.83.94-.97.24-.27.41-.5.51-.69.1-.19.15-.38.15-.56,0-.3-.1-.54-.31-.73-.21-.19-.48-.28-.82-.28-.24,0-.49.04-.75.12-.26.08-.55.21-.85.38v-.77c.31-.12.59-.22.86-.28.27-.06.51-.09.73-.09.58,0,1.05.15,1.39.44.35.29.52.68.52,1.16,0,.23-.04.45-.13.66-.09.21-.24.45-.47.73-.06.07-.26.28-.6.63-.34.35-.81.83-1.42,1.46Z"/>
  <path class="st11" d="M275.37,267.98h22"/>
  <path id="DejaVuSans-Oblique-3c73" data-name="DejaVuSans-Oblique-3c7" d="M309.47,273.17l-.4-2.06-2.23,3.01h-1.17l3.16-4.25-.49-2.53c-.09-.45-.4-.68-.96-.68h-.26l.16-.85h.38c.92.04,1.44.35,1.55.95l.4,2.06,2.23-3.01h1.17l-3.16,4.25.49,2.53c.09.45.4.68.96.68h.26l-.16.85h-.38c-.92-.04-1.44-.35-1.55-.95Z"/>
  <path id="DejaVuSans-33" d="M315.8,270.61c.36.08.65.24.85.49.2.25.31.55.31.91,0,.55-.19.98-.57,1.29-.38.3-.92.45-1.62.45-.24,0-.48-.02-.73-.07-.25-.05-.51-.12-.77-.21v-.73c.21.12.44.22.69.28.25.06.51.09.79.09.48,0,.84-.09,1.09-.28s.37-.46.37-.82c0-.33-.12-.59-.35-.78-.23-.19-.55-.28-.97-.28h-.65v-.62h.68c.37,0,.66-.07.86-.22s.3-.36.3-.64-.1-.51-.31-.66c-.2-.15-.5-.23-.88-.23-.21,0-.43.02-.67.07-.24.04-.5.11-.79.21v-.68c.29-.08.56-.14.81-.18s.49-.06.71-.06c.58,0,1.03.13,1.37.39.34.26.5.62.5,1.06,0,.31-.09.57-.27.79s-.43.36-.76.45Z"/>
  <path id="DejaVuSerif-207" data-name="DejaVuSerif-20" d="M317.88,271.83"/>
  <path id="DejaVuSerif-281" data-name="DejaVuSerif-28" d="M324.88,273.54c-.87-.39-1.53-1.01-1.97-1.86-.44-.85-.67-1.91-.67-3.18s.22-2.34.67-3.18c.44-.85,1.1-1.47,1.97-1.86v.53c-.55.38-.95.91-1.19,1.6-.24.69-.36,1.66-.36,2.91s.12,2.21.36,2.9c.24.69.64,1.22,1.19,1.6v.53Z"/>
  <path id="DejaVuSerif-481" data-name="DejaVuSerif-48" d="M326.27,271.83v-.57h1.02v-6.87h-1.02v-.58h3.13v.58h-1.02v2.77h4.16v-2.77h-1.02v-.58h3.13v.58h-1.02v6.87h1.02v.57h-3.13v-.57h1.02v-3.45h-4.16v3.45h1.02v.57h-3.13Z"/>
  <path id="DejaVuSerif-655" data-name="DejaVuSerif-65" d="M341.22,269.08h-4.26v.04c0,.77.14,1.35.43,1.74s.72.59,1.28.59c.43,0,.79-.11,1.07-.34.28-.23.47-.57.58-1.01h.8c-.16.63-.45,1.1-.87,1.41-.42.32-.98.47-1.67.47-.83,0-1.5-.27-2.01-.82-.51-.55-.76-1.28-.76-2.19s.25-1.63.75-2.18c.5-.55,1.15-.83,1.96-.83.86,0,1.53.27,1.99.8.46.53.7,1.3.72,2.32ZM340.06,268.51c-.02-.67-.16-1.17-.42-1.51-.26-.34-.63-.51-1.12-.51-.45,0-.81.17-1.07.51s-.42.84-.48,1.5h3.09Z"/>
  <path id="DejaVuSerif-617" data-name="DejaVuSerif-61" d="M346.15,270.03v-1.21h-1.27c-.49,0-.86.11-1.1.32-.24.21-.36.53-.36.97,0,.4.12.71.36.95.24.23.57.35.99.35s.74-.13,1-.38c.25-.25.38-.59.38-.99ZM347.14,268.26v3h.88v.57h-1.87v-.62c-.22.26-.47.46-.76.59-.29.12-.62.19-1,.19-.63,0-1.14-.17-1.51-.51-.37-.34-.56-.79-.56-1.36s.21-1.05.64-1.37,1.03-.49,1.8-.49h1.39v-.39c0-.43-.13-.77-.4-1.01-.26-.24-.63-.36-1.11-.36-.39,0-.71.09-.94.27-.23.18-.38.44-.43.8h-.51v-1.15c.34-.15.68-.26,1-.33.32-.07.64-.11.95-.11.79,0,1.39.2,1.81.59.41.39.62.96.62,1.71Z"/>
  <path id="DejaVuSerif-761" data-name="DejaVuSerif-76" d="M351.05,271.83l-2.1-5.14h-.65v-.57h2.63v.57h-.91l1.61,3.93,1.61-3.93h-.85v-.57h2.14v.57h-.64l-2.1,5.14h-.73Z"/>
  <path id="DejaVuSerif-6910" data-name="DejaVuSerif-69" d="M355.61,264.35c0-.16.06-.31.18-.43.12-.12.26-.18.43-.18s.31.06.43.18c.12.12.18.26.18.43s-.06.31-.18.43c-.12.12-.26.18-.43.18s-.31-.06-.43-.18c-.12-.12-.18-.26-.18-.43ZM356.87,271.26h.93v.57h-2.87v-.57h.95v-4.57h-.95v-.57h1.93v5.14Z"/>
  <path id="DejaVuSerif-656" data-name="DejaVuSerif-65" d="M364.02,269.08h-4.26v.04c0,.77.14,1.35.43,1.74s.72.59,1.28.59c.43,0,.79-.11,1.07-.34.28-.23.47-.57.58-1.01h.8c-.16.63-.45,1.1-.87,1.41-.42.32-.98.47-1.67.47-.83,0-1.5-.27-2.01-.82-.51-.55-.76-1.28-.76-2.19s.25-1.63.75-2.18c.5-.55,1.15-.83,1.96-.83.86,0,1.53.27,1.99.8.46.53.7,1.3.72,2.32ZM362.86,268.51c-.02-.67-.16-1.17-.42-1.51-.26-.34-.63-.51-1.12-.51-.45,0-.81.17-1.07.51s-.42.84-.48,1.5h3.09Z"/>
  <path id="DejaVuSerif-732" data-name="DejaVuSerif-73" d="M365.19,271.51v-1.33h.57c.01.43.15.74.4.96.25.21.63.32,1.12.32.44,0,.78-.08,1.02-.25.23-.17.35-.41.35-.73,0-.25-.09-.45-.26-.6-.17-.15-.53-.32-1.08-.49l-.71-.24c-.49-.16-.85-.35-1.07-.59-.22-.24-.33-.54-.33-.9,0-.52.19-.93.57-1.23.38-.3.91-.45,1.59-.45.3,0,.62.04.95.12.33.08.68.19,1.03.34v1.25h-.57c-.01-.37-.14-.66-.39-.86-.24-.21-.57-.31-.99-.31s-.73.07-.94.22-.32.37-.32.66c0,.24.08.43.24.58.16.14.48.29.97.44l.78.24c.54.17.93.38,1.17.63.24.25.36.58.36.97,0,.54-.21.97-.62,1.28-.41.31-.98.46-1.71.46-.37,0-.73-.04-1.08-.12s-.7-.2-1.05-.35Z"/>
  <path id="DejaVuSerif-748" data-name="DejaVuSerif-74" d="M371.4,266.69h-.87v-.57h.87v-1.77h.99v1.77h1.86v.57h-1.86v3.63c0,.48.05.79.14.93.09.14.26.2.52.2s.45-.08.56-.23c.12-.15.18-.4.19-.74h.75c-.03.52-.17.9-.42,1.14-.25.24-.64.36-1.16.36-.57,0-.97-.13-1.21-.38-.24-.25-.35-.68-.35-1.29v-3.63Z"/>
  <path id="DejaVuSerif-291" data-name="DejaVuSerif-29" d="M375.41,273.54v-.53c.55-.38.95-.91,1.19-1.6.24-.69.36-1.66.36-2.9s-.12-2.22-.36-2.91c-.24-.69-.64-1.22-1.19-1.6v-.53c.87.39,1.53,1.01,1.98,1.86.44.85.67,1.91.67,3.18s-.22,2.33-.67,3.18c-.44.85-1.1,1.47-1.98,1.86Z"/>
  <path class="st8" d="M275.37,284.15h22"/>
  <path id="DejaVuSerif-531" data-name="DejaVuSerif-53" d="M307.19,287.61v-1.83h.62c.02.62.19,1.07.53,1.36.33.29.84.44,1.53.44.64,0,1.12-.13,1.46-.38.34-.25.5-.62.5-1.1,0-.39-.1-.68-.3-.89-.2-.21-.63-.41-1.28-.61l-1.06-.32c-.77-.23-1.31-.52-1.62-.87s-.47-.82-.47-1.43c0-.68.24-1.21.72-1.58.48-.38,1.16-.56,2.04-.56.37,0,.78.04,1.22.12.44.08.92.2,1.42.35v1.71h-.61c-.06-.57-.25-.98-.57-1.23-.32-.25-.8-.38-1.45-.38-.56,0-1,.12-1.29.35-.3.23-.44.57-.44,1.01,0,.38.11.68.33.9.22.22.69.43,1.41.65l.99.3c.73.22,1.24.5,1.55.84.31.34.47.79.47,1.36,0,.78-.25,1.36-.75,1.76-.5.39-1.24.59-2.22.59-.44,0-.89-.05-1.35-.14-.46-.09-.92-.23-1.39-.41Z"/>
  <path id="DejaVuSerif-793" data-name="DejaVuSerif-79" d="M316.08,289.04l.38-.95-2.13-5.23h-.65v-.57h2.63v.57h-.91l1.61,3.93,1.61-3.93h-.85v-.57h2.14v.57h-.64l-2.62,6.42c-.18.44-.38.75-.6.91-.22.16-.53.24-.92.24-.17,0-.34-.01-.52-.04-.18-.03-.35-.07-.53-.12v-1.09h.51c.02.24.08.42.19.52.1.11.26.16.47.16.2,0,.36-.05.48-.16.12-.11.25-.33.38-.66Z"/>
  <path id="DejaVuSerif-6d1" data-name="DejaVuSerif-6d" d="M325.62,283.4c.19-.42.43-.74.73-.95s.64-.32,1.03-.32c.6,0,1.04.19,1.34.56.29.37.44.93.44,1.68v3.06h.89v.57h-2.74v-.57h.86v-2.95c0-.58-.09-1-.26-1.25s-.46-.37-.85-.37c-.44,0-.78.17-1.01.5-.23.33-.35.82-.35,1.46v2.61h.86v.57h-2.71v-.57h.86v-2.99c0-.57-.09-.98-.26-1.22s-.46-.36-.85-.36c-.44,0-.78.17-1.01.5-.23.33-.35.82-.35,1.46v2.61h.86v.57h-2.74v-.57h.89v-4.58h-.95v-.56h1.93v1.02c.18-.38.42-.67.7-.87.28-.2.6-.3.96-.3.44,0,.81.11,1.11.33.3.22.5.53.6.94Z"/>
  <path id="DejaVuSerif-431" data-name="DejaVuSerif-43" d="M338.11,285.88c-.24.75-.63,1.31-1.19,1.7s-1.26.58-2.11.58c-.52,0-1.01-.09-1.46-.27-.45-.18-.84-.44-1.19-.79-.4-.4-.7-.86-.9-1.37-.19-.51-.29-1.09-.29-1.73,0-1.25.36-2.25,1.08-3.02.72-.76,1.67-1.15,2.85-1.15.44,0,.9.06,1.4.17.49.11,1.03.29,1.59.52v1.85h-.61c-.13-.67-.4-1.17-.8-1.49-.4-.32-.96-.48-1.68-.48-.86,0-1.5.3-1.95.91-.44.61-.66,1.5-.66,2.68s.22,2.07.66,2.67c.44.61,1.09.91,1.95.91.6,0,1.09-.14,1.48-.43.39-.29.67-.71.84-1.28h.99Z"/>
  <path id="DejaVuSerif-208" data-name="DejaVuSerif-20" d="M338.77,288"/>
  <path id="DejaVuSerif-42" d="M344.98,287.43h1.61c.64,0,1.11-.14,1.41-.42.3-.28.45-.72.45-1.33s-.15-1.05-.44-1.32c-.3-.28-.77-.42-1.41-.42h-1.61v3.49ZM344.98,283.37h1.36c.59,0,1.02-.11,1.29-.34.27-.23.41-.58.41-1.07s-.14-.85-.41-1.07c-.27-.22-.7-.34-1.29-.34h-1.36v2.81ZM342.87,288v-.57h1.02v-6.87h-1.02v-.58h3.96c.81,0,1.42.17,1.83.5.41.33.62.83.62,1.48,0,.48-.14.86-.43,1.14-.28.28-.7.46-1.25.52.68.09,1.2.3,1.55.65.35.35.53.82.53,1.4,0,.8-.25,1.38-.75,1.76-.5.38-1.28.56-2.35.56h-3.71Z"/>
  <path id="DejaVuSerif-6f3" data-name="DejaVuSerif-6f" d="M353.66,287.62c.53,0,.93-.21,1.2-.63.27-.42.41-1.04.41-1.85s-.14-1.43-.41-1.85c-.27-.42-.67-.63-1.2-.63s-.93.21-1.2.63-.41,1.03-.41,1.85.14,1.44.41,1.85c.27.42.67.63,1.2.63ZM353.66,288.15c-.83,0-1.5-.27-2-.82-.5-.55-.76-1.28-.76-2.19s.25-1.64.75-2.18c.5-.55,1.17-.82,2.01-.82s1.5.27,2.01.82c.5.55.75,1.28.75,2.18s-.25,1.64-.75,2.19-1.17.82-2.01.82Z"/>
  <path id="DejaVuSerif-75" d="M360.86,282.29h1.85v5.14h.93v.57h-1.92v-1.01c-.18.38-.42.67-.71.87-.29.2-.63.3-1.01.3-.63,0-1.1-.18-1.4-.54-.3-.36-.45-.93-.45-1.69v-3.06h-.89v-.57h1.89v3.32c0,.7.08,1.17.25,1.43.17.26.47.39.91.39.46,0,.81-.17,1.05-.51.24-.34.36-.83.36-1.47v-2.6h-.86v-.57Z"/>
  <path id="DejaVuSerif-6e2" data-name="DejaVuSerif-6e" d="M364.51,288v-.57h.89v-4.57h-.95v-.57h1.93v1.02c.18-.39.42-.68.71-.88.29-.2.63-.3,1.02-.3.63,0,1.09.18,1.39.54s.45.93.45,1.69v3.06h.88v.57h-2.73v-.57h.85v-2.75c0-.7-.09-1.18-.26-1.44-.17-.26-.47-.39-.91-.39-.46,0-.81.17-1.05.5-.24.33-.36.82-.36,1.46v2.61h.86v.57h-2.74Z"/>
  <path id="DejaVuSerif-64" d="M376.91,287.43h.95v.57h-1.93v-.89c-.19.36-.44.62-.74.79-.3.17-.67.25-1.11.25-.7,0-1.27-.28-1.72-.84-.45-.56-.67-1.28-.67-2.18s.22-1.62.67-2.17c.44-.56,1.02-.83,1.72-.83.44,0,.81.09,1.11.26.3.17.54.43.74.79v-2.97h-.93v-.57h1.92v7.79ZM375.92,285.43v-.56c0-.68-.13-1.21-.4-1.57-.26-.36-.64-.54-1.14-.54s-.89.2-1.15.6c-.26.4-.39,1-.39,1.79s.13,1.38.39,1.79c.26.4.64.61,1.15.61s.88-.18,1.14-.54c.26-.36.4-.88.4-1.57Z"/>
  <path id="DejaVuSerif-618" data-name="DejaVuSerif-61" d="M382.56,286.2v-1.21h-1.27c-.49,0-.86.11-1.1.32-.24.21-.36.53-.36.97,0,.4.12.71.36.95.24.23.57.35.99.35s.74-.13,1-.38c.25-.25.38-.59.38-.99ZM383.55,284.43v3h.88v.57h-1.87v-.62c-.22.26-.47.46-.76.59-.29.12-.62.19-1,.19-.63,0-1.14-.17-1.51-.51-.37-.34-.56-.79-.56-1.36s.21-1.05.64-1.37,1.03-.49,1.8-.49h1.39v-.39c0-.43-.13-.77-.4-1.01-.26-.24-.63-.36-1.11-.36-.39,0-.71.09-.94.27-.23.18-.38.44-.43.8h-.51v-1.15c.34-.15.68-.26,1-.33.32-.07.64-.11.95-.11.79,0,1.39.2,1.81.59.41.39.62.96.62,1.71Z"/>
  <path id="DejaVuSerif-723" data-name="DejaVuSerif-72" d="M390,282.28v1.43h-.57c-.02-.28-.1-.49-.24-.63s-.34-.21-.61-.21c-.49,0-.86.17-1.12.51-.26.34-.39.82-.39,1.45v2.61h1.14v.57h-3.02v-.57h.89v-4.58h-.95v-.56h1.93v1.02c.19-.4.44-.69.75-.88.3-.19.68-.29,1.11-.29.16,0,.33.01.51.04s.36.06.56.11Z"/>
  <path id="DejaVuSerif-794" data-name="DejaVuSerif-79" d="M392.37,289.04l.38-.95-2.13-5.23h-.65v-.57h2.63v.57h-.91l1.61,3.93,1.61-3.93h-.85v-.57h2.14v.57h-.64l-2.62,6.42c-.18.44-.38.75-.6.91-.22.16-.53.24-.92.24-.17,0-.34-.01-.52-.04-.18-.03-.35-.07-.53-.12v-1.09h.51c.02.24.08.42.19.52.1.11.26.16.47.16.2,0,.36-.05.48-.16.12-.11.25-.33.38-.66Z"/>
  <path id="DejaVuSerif-209" data-name="DejaVuSerif-20" d="M396.21,288"/>
  <path id="DejaVuSerif-282" data-name="DejaVuSerif-28" d="M403.22,289.71c-.87-.39-1.53-1.01-1.97-1.86-.44-.85-.67-1.91-.67-3.18s.22-2.34.67-3.18c.44-.85,1.1-1.47,1.97-1.86v.53c-.55.38-.95.91-1.19,1.6-.24.69-.36,1.66-.36,2.91s.12,2.21.36,2.9c.24.69.64,1.22,1.19,1.6v.53Z"/>
  <path id="DejaVuSans-Oblique-3c74" data-name="DejaVuSans-Oblique-3c7" d="M407.3,289.34l-.4-2.06-2.23,3.01h-1.17l3.16-4.25-.49-2.53c-.09-.45-.4-.68-.96-.68h-.26l.16-.85h.38c.92.04,1.44.35,1.55.95l.4,2.06,2.23-3.01h1.17l-3.16,4.25.49,2.53c.09.45.4.68.96.68h.26l-.16.85h-.38c-.92-.04-1.44-.35-1.55-.95Z"/>
  <path id="DejaVuSans-3d" d="M413.82,283h6.89v.9h-6.89v-.9ZM413.82,285.19h6.89v.91h-6.89v-.91Z"/>
  <path id="DejaVuSans-311" data-name="DejaVuSans-31" d="M425.38,287.09h1.77v-6.12l-1.93.39v-.99l1.92-.39h1.08v7.11h1.77v.91h-4.62v-.91Z"/>
  <path id="DejaVuSerif-292" data-name="DejaVuSerif-29" d="M431.79,289.71v-.53c.55-.38.95-.91,1.19-1.6.24-.69.36-1.66.36-2.9s-.12-2.22-.36-2.91c-.24-.69-.64-1.22-1.19-1.6v-.53c.87.39,1.53,1.01,1.98,1.86.44.85.67,1.91.67,3.18s-.22,2.33-.67,3.18c-.44.85-1.1,1.47-1.98,1.86Z"/>
</svg>