<?xml version="1.0" encoding="UTF-8"?>
<svg id="Layer_1" xmlns="http://www.w3.org/2000/svg" version="1.1" xmlns:xlink="http://www.w3.org/1999/xlink" viewBox="0 0 443.42 340.08">
  <!-- Generator: Adobe Illustrator 30.1.0, SVG Export Plug-In . SVG Version: 2.1.1 Build 136)  -->
  <defs>
    <style>
      .st0 {
        clip-path: url(#clippath-6);
      }

      .st1 {
        clip-path: url(#clippath-7);
      }

      .st2 {
        clip-path: url(#clippath-15);
      }

      .st3 {
        clip-path: url(#clippath-4);
      }

      .st4 {
        isolation: isolate;
        opacity: .8;
        stroke: #ccc;
      }

      .st4, .st5 {
        fill: #fff;
      }

      .st6 {
        clip-path: url(#clippath-9);
      }

      .st7 {
        clip-path: url(#clippath-10);
      }

      .st8 {
        stroke-width: 2px;
      }

      .st8, .st9, .st10, .st11, .st12 {
        fill: none;
      }

      .st8, .st13 {
        stroke: red;
      }

      .st8, .st13, .st14, .st15, .st11, .st12 {
        stroke-linejoin: round;
      }

      .st8, .st10, .st11 {
        stroke-linecap: square;
      }

      .st16 {
        clip-path: url(#clippath-11);
      }

      .st17, .st13 {
        fill: red;
      }

      .st13 {
        fill-opacity: .1;
        stroke-opacity: .1;
      }

      .st18 {
        clip-path: url(#clippath-1);
      }

      .st19 {
        clip-path: url(#clippath-5);
      }

      .st20 {
        clip-path: url(#clippath-8);
      }

      .st14 {
        stroke-linecap: round;
      }

      .st14, .st10, .st15, .st12 {
        stroke: #000;
      }

      .st10, .st15, .st11 {
        stroke-width: .8px;
      }

      .st21 {
        clip-path: url(#clippath-3);
      }

      .st22 {
        clip-path: url(#clippath-12);
      }

      .st23 {
        clip-path: url(#clippath-14);
      }

      .st11 {
        stroke: #b0b0b0;
        stroke-opacity: .3;
      }

      .st24 {
        clip-path: url(#clippath-16);
      }

      .st25 {
        clip-path: url(#clippath-2);
      }

      .st12 {
        stroke-dasharray: 5.55 2.4;
        stroke-opacity: .6;
        stroke-width: 1.5px;
      }

      .st26 {
        clip-path: url(#clippath-13);
      }

      .st27 {
        clip-path: url(#clippath);
      }
    </style>
    <clipPath id="clippath">
      <rect class="st9" x="45.62" y="23.23" width="390.6" height="277.2"/>
    </clipPath>
    <clipPath id="clippath-1">
      <rect class="st9" x="45.62" y="23.23" width="390.6" height="277.2"/>
    </clipPath>
    <clipPath id="clippath-2">
      <rect class="st9" x="45.62" y="23.23" width="390.6" height="277.2"/>
    </clipPath>
    <clipPath id="clippath-3">
      <rect class="st9" x="45.62" y="23.23" width="390.6" height="277.2"/>
    </clipPath>
    <clipPath id="clippath-4">
      <rect class="st9" x="45.62" y="23.23" width="390.6" height="277.2"/>
    </clipPath>
    <clipPath id="clippath-5">
      <rect class="st9" x="45.62" y="23.23" width="390.6" height="277.2"/>
    </clipPath>
    <clipPath id="clippath-6">
      <rect class="st9" x="45.62" y="23.23" width="390.6" height="277.2"/>
    </clipPath>
    <clipPath id="clippath-7">
      <rect class="st9" x="45.62" y="23.23" width="390.6" height="277.2"/>
    </clipPath>
    <clipPath id="clippath-8">
      <rect class="st9" x="45.62" y="23.23" width="390.6" height="277.2"/>
    </clipPath>
    <clipPath id="clippath-9">
      <rect class="st9" x="45.62" y="23.23" width="390.6" height="277.2"/>
    </clipPath>
    <clipPath id="clippath-10">
      <rect class="st9" x="45.62" y="23.23" width="390.6" height="277.2"/>
    </clipPath>
    <clipPath id="clippath-11">
      <rect class="st9" x="45.62" y="23.23" width="390.6" height="277.2"/>
    </clipPath>
    <clipPath id="clippath-12">
      <rect class="st9" x="45.62" y="23.23" width="390.6" height="277.2"/>
    </clipPath>
    <clipPath id="clippath-13">
      <rect class="st9" x="45.62" y="23.23" width="390.6" height="277.2"/>
    </clipPath>
    <clipPath id="clippath-14">
      <rect class="st9" x="45.62" y="23.23" width="390.6" height="277.2"/>
    </clipPath>
    <clipPath id="clippath-15">
      <rect class="st9" x="45.62" y="23.23" width="390.6" height="277.2"/>
    </clipPath>
    <clipPath id="clippath-16">
      <rect class="st9" x="45.62" y="23.23" width="390.6" height="277.2"/>
    </clipPath>
  </defs>
  <path class="st5" d="M0,340.08h443.42V0H0v340.08Z"/>
  <path class="st5" d="M45.62,300.43h390.6V23.23H45.62v277.2Z"/>
  <g class="st27">
    <path id="mfb5548a61c" class="st13" d="M63.37,35.83h0s.71,3.81.71,3.81l.71,3.72.71,3.64.71,3.56.71,3.49.71,3.41.71,3.34.71,3.27.71,3.2.71,3.13.71,3.07.71,3.01.71,2.95.71,2.89.71,2.83.71,2.77.71,2.72.71,2.66.71,2.61.71,2.56.71,2.51.71,2.47.71,2.42.71,2.37.71,2.33.71,2.29.71,2.24.71,2.2.71,2.16.71,2.12.71,2.09.71,2.05.71,2.01.71,1.98.71,1.94.71,1.91.71,1.88.71,1.84.71,1.81.71,1.78.71,1.75.71,1.72.71,1.69.71,1.67.71,1.64.71,1.61.71,1.59.71,1.56.71,1.53.71,1.51.71,1.49.71,1.46.71,1.44.71,1.42.71,1.39.71,1.37.71,1.35.71,1.33.71,1.31.71,1.29.71,1.27.71,1.25.71,1.23.71,1.22.71,1.2.71,1.18.71,1.16.71,1.15.71,1.13.71,1.11.71,1.1.71,1.08.71,1.07.71,1.05.71,1.04.71,1.02.71,1.01.71.99.71.98.71.97.71.95.71.94.71.93.71.92.71.9.71.89.71.88.71.87.71.86.71.85.71.84.71.82.71.81.71.8.71.79.71.78.71.77.71.76.71.75.71.74.71.74.71.73.71.72.71.71.71.7.71.69.71.68.71.68.71.67.71.66.71.65.71.64.71.64.71.63.71.62.71.61.71.61.71.6.71.59.71.59.71.58.71.57.71.57.71.56.71.55.71.55.71.54.71.54.71.53.71.52.71.52.71.51.71.51.71.5.71.5.71.49.71.49.71.48.71.48.71.47.71.47.71.46.71.46.71.45.71.45.71.44.71.44.71.43.71.43.71.42.71.42.71.42.71.41.71.41.71.4.71.4.71.4.71.39.71.39.71.38.71.38.71.38.71.37.71.37.71.37.71.36.71.36.71.35.71.35.71.35.71.34.71.34.71.34.71.34.71.33.71.33.71.33.71.32.71.32.71.32.71.31.71.31.71.31.71.31.71.3.71.3.71.3.71.29.71.29.71.29.71.29.71.28.71.28.71.28.71.28.71.27.71.27.71.27.71.27.71.27.71.26.71.26.71.26.71.26.71.25.71.25.71.25.71.25.71.25.71.24.71.24.71.24.71.24.71.24.71.23.71.23.71.23.71.23.71.23.71.22.71.22.71.22.71.22.71.22.71.22.71.21.71.21.71.21.71.21.71.21.71.21.71.2.71.2.71.2.71.2.71.2.71.2.71.19.71.19.71.19.71.19.71.19.71.19.71.19.71.18.71.18.71.18.71.18.71.18.71.18.71.18.71.17.71.17.71.17.71.17.71.17.71.17.71.17.71.17.71.16.71.16.71.16.71.16.71.16.71.16.71.16.71.16.71.16.71.15.71.15.71.15.71.15.71.15.71.15.71.15.71.15.71.15.71.15.71.14.71.14.71.14.71.14.71.14.71.14.71.14.71.14.71.14.71.14.71.13.71.13.71.13.71.13.71.13.71.13.71.13.71.13.71.13.71.13.71.13.71.12.71.12.71.12.71.12.71.12.71.12.71.12.71.12.71.12.71.12.71.12.71.12.71.12.71.11.71.11.71.11.71.11.71.11.71.11.71.11.71.11.71.11.71.11.71.11.71.11.71.11.71.11.71.11.71.1.71.1.71.1.71.1.71.1.71.1.71.1.71.1.71.1.71.1.71.1.71.1.71.1.71.1.71.1.71.1.71.09.71.09.71.09.71.09.71.09.71.09.71.09.71.09.71.09.71.09.71.09.71.09.71.09.71.09.71.09.71.09.71.09.71.09.71.09.71.08.71.08.71.08.71.08.71.08.71.08.71.08.71.08.71.08.71.08.71.08.71.08.71.08.71.08.71.08.71.08.71.08.71.08.71.08.71.08.71.08.71.08.71.07.71.07.71.07.71.07.71.07.71.07.71.07.71.07.71.07.71.07.71.07.71.07.71.07.71.07.71.07.71.07.71.07.71.07.71.07.71.07.71.07.71.07.71.07.71.07.71.07.71.07.71.07.71.06.71.06.71.06.71.06.71.06.71.06.71.06.71.06.71.06.71.06.71.06.71.06.71.06.71.06.71.06.71.06.71.06.71.06.71.06.71.06.71.06.71.06.71.06.71.06.71.06.71.06.71.06.71.06.71.06.71.06.71.06.71.06.71.06.71.05.71.05.71.05.71.05.71.05.71.05.71.05.71.05.71.05.71.05.71.05.71.05.71.05.71.05.71.05.71.05.71.05.71.05.71.05.71.05.71.05.71.05.71.05.71.05.71.05.71.05.71.05.71.05.71.05.71.05.71.05.71.05.71.05.71.05.71.05.71.05.71.05.71.05.71.05.71.05.71.05.71.05.71.04.71.04.71.04.71.04.71.04.71.04.71.04.71.04.71.04.71.04.71.04.71.04.71.04h0s-.71-.04-.71-.04l-.71-.04-.71-.04-.71-.04-.71-.04-.71-.04-.71-.04-.71-.04-.71-.04-.71-.04-.71-.04-.71-.04-.71-.04-.71-.05-.71-.05-.71-.05-.71-.05-.71-.05-.71-.05-.71-.05-.71-.05-.71-.05-.71-.05-.71-.05-.71-.05-.71-.05-.71-.05-.71-.05-.71-.05-.71-.05-.71-.05-.71-.05-.71-.05-.71-.05-.71-.05-.71-.05-.71-.05-.71-.05-.71-.05-.71-.05-.71-.05-.71-.05-.71-.05-.71-.05-.71-.05-.71-.05-.71-.05-.71-.05-.71-.05-.71-.05-.71-.05-.71-.05-.71-.05-.71-.05-.71-.05-.71-.06-.71-.06-.71-.06-.71-.06-.71-.06-.71-.06-.71-.06-.71-.06-.71-.06-.71-.06-.71-.06-.71-.06-.71-.06-.71-.06-.71-.06-.71-.06-.71-.06-.71-.06-.71-.06-.71-.06-.71-.06-.71-.06-.71-.06-.71-.06-.71-.06-.71-.06-.71-.06-.71-.06-.71-.06-.71-.06-.71-.06-.71-.06-.71-.06-.71-.07-.71-.07-.71-.07-.71-.07-.71-.07-.71-.07-.71-.07-.71-.07-.71-.07-.71-.07-.71-.07-.71-.07-.71-.07-.71-.07-.71-.07-.71-.07-.71-.07-.71-.07-.71-.07-.71-.07-.71-.07-.71-.07-.71-.07-.71-.07-.71-.07-.71-.07-.71-.07-.71-.08-.71-.08-.71-.08-.71-.08-.71-.08-.71-.08-.71-.08-.71-.08-.71-.08-.71-.08-.71-.08-.71-.08-.71-.08-.71-.08-.71-.08-.71-.08-.71-.08-.71-.08-.71-.08-.71-.08-.71-.08-.71-.08-.71-.09-.71-.09-.71-.09-.71-.09-.71-.09-.71-.09-.71-.09-.71-.09-.71-.09-.71-.09-.71-.09-.71-.09-.71-.09-.71-.09-.71-.09-.71-.09-.71-.09-.71-.09-.71-.09-.71-.1-.71-.1-.71-.1-.71-.1-.71-.1-.71-.1-.71-.1-.71-.1-.71-.1-.71-.1-.71-.1-.71-.1-.71-.1-.71-.1-.71-.1-.71-.1-.71-.11-.71-.11-.71-.11-.71-.11-.71-.11-.71-.11-.71-.11-.71-.11-.71-.11-.71-.11-.71-.11-.71-.11-.71-.11-.71-.11-.71-.11-.71-.12-.71-.12-.71-.12-.71-.12-.71-.12-.71-.12-.71-.12-.71-.12-.71-.12-.71-.12-.71-.12-.71-.12-.71-.12-.71-.13-.71-.13-.71-.13-.71-.13-.71-.13-.71-.13-.71-.13-.71-.13-.71-.13-.71-.13-.71-.13-.71-.14-.71-.14-.71-.14-.71-.14-.71-.14-.71-.14-.71-.14-.71-.14-.71-.14-.71-.14-.71-.15-.71-.15-.71-.15-.71-.15-.71-.15-.71-.15-.71-.15-.71-.15-.71-.15-.71-.15-.71-.16-.71-.16-.71-.16-.71-.16-.71-.16-.71-.16-.71-.16-.71-.16-.71-.16-.71-.17-.71-.17-.71-.17-.71-.17-.71-.17-.71-.17-.71-.17-.71-.17-.71-.18-.71-.18-.71-.18-.71-.18-.71-.18-.71-.18-.71-.18-.71-.19-.71-.19-.71-.19-.71-.19-.71-.19-.71-.19-.71-.19-.71-.2-.71-.2-.71-.2-.71-.2-.71-.2-.71-.2-.71-.21-.71-.21-.71-.21-.71-.21-.71-.21-.71-.21-.71-.22-.71-.22-.71-.22-.71-.22-.71-.22-.71-.22-.71-.23-.71-.23-.71-.23-.71-.23-.71-.23-.71-.24-.71-.24-.71-.24-.71-.24-.71-.24-.71-.25-.71-.25-.71-.25-.71-.25-.71-.25-.71-.26-.71-.26-.71-.26-.71-.26-.71-.27-.71-.27-.71-.27-.71-.27-.71-.27-.71-.28-.71-.28-.71-.28-.71-.28-.71-.29-.71-.29-.71-.29-.71-.29-.71-.3-.71-.3-.71-.3-.71-.31-.71-.31-.71-.31-.71-.31-.71-.32-.71-.32-.71-.32-.71-.33-.71-.33-.71-.33-.71-.34-.71-.34-.71-.34-.71-.34-.71-.35-.71-.35-.71-.35-.71-.36-.71-.36-.71-.37-.71-.37-.71-.37-.71-.38-.71-.38-.71-.38-.71-.39-.71-.39-.71-.4-.71-.4-.71-.4-.71-.41-.71-.41-.71-.42-.71-.42-.71-.42-.71-.43-.71-.43-.71-.44-.71-.44-.71-.45-.71-.45-.71-.46-.71-.46-.71-.47-.71-.47-.71-.48-.71-.48-.71-.49-.71-.49-.71-.5-.71-.5-.71-.51-.71-.51-.71-.52-.71-.52-.71-.53-.71-.54-.71-.54-.71-.55-.71-.55-.71-.56-.71-.57-.71-.57-.71-.58-.71-.59-.71-.59-.71-.6-.71-.61-.71-.61-.71-.62-.71-.63-.71-.64-.71-.64-.71-.65-.71-.66-.71-.67-.71-.68-.71-.68-.71-.69-.71-.7-.71-.71-.71-.72-.71-.73-.71-.74-.71-.74-.71-.75-.71-.76-.71-.77-.71-.78-.71-.79-.71-.8-.71-.81-.71-.82-.71-.84-.71-.85-.71-.86-.71-.87-.71-.88-.71-.89-.71-.9-.71-.92-.71-.93-.71-.94-.71-.95-.71-.97-.71-.98-.71-.99-.71-1.01-.71-1.02-.71-1.04-.71-1.05-.71-1.07-.71-1.08-.71-1.1-.71-1.11-.71-1.13-.71-1.15-.71-1.16-.71-1.18-.71-1.2-.71-1.22-.71-1.23-.71-1.25-.71-1.27-.71-1.29-.71-1.31-.71-1.33-.71-1.35-.71-1.37-.71-1.39-.71-1.42-.71-1.44-.71-1.46-.71-1.49-.71-1.51-.71-1.53-.71-1.56-.71-1.59-.71-1.61-.71-1.64-.71-1.67-.71-1.69-.71-1.72-.71-1.75-.71-1.78-.71-1.81-.71-1.84-.71-1.88-.71-1.91-.71-1.94-.71-1.98-.71-2.01-.71-2.05-.71-2.09-.71-2.12-.71-2.16-.71-2.2-.71-2.24-.71-2.29-.71-2.33-.71-2.37-.71-2.42-.71-2.47-.71-2.51-.71-2.56-.71-2.61-.71-2.66-.71-2.72-.71-2.77-.71-2.83-.71-2.89-.71-2.95-.71-3.01-.71-3.07-.71-3.13-.71-3.2-.71-3.27-.71-3.34-.71-3.41-.71-3.49-.71-3.56-.71-3.64-.71-3.72-.71-3.81Z"/>
  </g>
  <g class="st18">
    <path class="st11" d="M63.37,300.43V23.23"/>
  </g>
  <path id="m6a72fec287" class="st15" d="M63.37,300.43v3.5"/>
  <path id="DejaVuSerif-31" d="M56.19,315.79v-.57h1.4v-6.67l-1.62,1.05v-.7l1.96-1.27h.74v7.6h1.4v.57h-3.87Z"/>
  <path id="DejaVuSerif-2e" d="M62.66,315.23c0-.2.07-.37.2-.51s.31-.21.51-.21.36.07.5.21c.14.14.21.31.21.51s-.07.37-.21.51c-.14.14-.31.21-.5.21s-.37-.07-.51-.21c-.14-.14-.2-.31-.2-.51Z"/>
  <path id="DejaVuSerif-30" d="M68.62,315.41c.55,0,.96-.3,1.23-.9.27-.6.41-1.51.41-2.72s-.14-2.13-.41-2.73c-.27-.6-.68-.9-1.23-.9s-.96.3-1.23.9c-.27.6-.41,1.51-.41,2.73s.14,2.12.41,2.72c.27.6.68.9,1.23.9ZM68.62,315.94c-.87,0-1.55-.36-2.04-1.09-.49-.73-.73-1.75-.73-3.06s.24-2.34.73-3.07c.49-.73,1.17-1.1,2.04-1.1s1.55.37,2.04,1.1c.49.73.73,1.75.73,3.07s-.24,2.33-.73,3.06c-.49.73-1.17,1.09-2.04,1.09Z"/>
  <g class="st25">
    <path class="st11" d="M107.76,300.43V23.23"/>
  </g>
  <path id="m6a72fec2871" data-name="m6a72fec287" class="st15" d="M107.76,300.43v3.5"/>
  <path id="DejaVuSerif-311" data-name="DejaVuSerif-31" d="M100.57,315.79v-.57h1.4v-6.67l-1.62,1.05v-.7l1.96-1.27h.74v7.6h1.4v.57h-3.87Z"/>
  <path id="DejaVuSerif-2e1" data-name="DejaVuSerif-2e" d="M107.05,315.23c0-.2.07-.37.2-.51s.31-.21.51-.21.36.07.5.21c.14.14.21.31.21.51s-.07.37-.21.51c-.14.14-.31.21-.5.21s-.37-.07-.51-.21c-.14-.14-.2-.31-.2-.51Z"/>
  <path id="DejaVuSerif-35" d="M115.04,307.77v.88h-3.67v2.3c.19-.13.4-.22.65-.29.25-.07.53-.1.84-.1.87,0,1.55.24,2.05.72.5.48.75,1.14.75,1.97s-.25,1.51-.76,1.99c-.51.47-1.22.71-2.13.71-.37,0-.75-.05-1.13-.14-.39-.09-.78-.23-1.19-.41v-1.56h.61c.03.51.19.9.48,1.17.29.27.7.4,1.23.4.57,0,1-.19,1.3-.56.3-.37.46-.91.46-1.61s-.15-1.23-.45-1.6c-.3-.37-.74-.56-1.31-.56-.32,0-.61.06-.85.17-.25.11-.46.29-.65.53h-.46v-4.03h4.24Z"/>
  <g class="st21">
    <path class="st11" d="M152.14,300.43V23.23"/>
  </g>
  <path id="m6a72fec2872" data-name="m6a72fec287" class="st15" d="M152.14,300.43v3.5"/>
  <path id="DejaVuSerif-32" d="M144.81,309.68h-.6v-1.43c.38-.21.77-.36,1.16-.47.39-.11.77-.16,1.14-.16.83,0,1.49.2,1.98.61s.73.95.73,1.65c0,.78-.55,1.72-1.64,2.82-.09.08-.15.14-.19.19l-2.02,2.02h3.35v-.99h.63v1.87h-5.17v-.59l2.43-2.43c.54-.54.92-1.03,1.15-1.48s.34-.92.34-1.42c0-.54-.14-.96-.42-1.27-.28-.3-.67-.46-1.16-.46s-.91.13-1.19.38c-.28.25-.44.64-.49,1.14Z"/>
  <path id="DejaVuSerif-2e2" data-name="DejaVuSerif-2e" d="M151.43,315.23c0-.2.07-.37.2-.51s.31-.21.51-.21.36.07.5.21c.14.14.21.31.21.51s-.07.37-.21.51c-.14.14-.31.21-.5.21s-.37-.07-.51-.21c-.14-.14-.2-.31-.2-.51Z"/>
  <path id="DejaVuSerif-301" data-name="DejaVuSerif-30" d="M157.39,315.41c.55,0,.96-.3,1.23-.9.27-.6.41-1.51.41-2.72s-.14-2.13-.41-2.73c-.27-.6-.68-.9-1.23-.9s-.96.3-1.23.9c-.27.6-.41,1.51-.41,2.73s.14,2.12.41,2.72c.27.6.68.9,1.23.9ZM157.39,315.94c-.87,0-1.55-.36-2.04-1.09-.49-.73-.73-1.75-.73-3.06s.24-2.34.73-3.07c.49-.73,1.17-1.1,2.04-1.1s1.55.37,2.04,1.1c.49.73.73,1.75.73,3.07s-.24,2.33-.73,3.06c-.49.73-1.17,1.09-2.04,1.09Z"/>
  <g class="st3">
    <path class="st11" d="M196.53,300.43V23.23"/>
  </g>
  <path id="m6a72fec2873" data-name="m6a72fec287" class="st15" d="M196.53,300.43v3.5"/>
  <path id="DejaVuSerif-321" data-name="DejaVuSerif-32" d="M189.19,309.68h-.6v-1.43c.38-.21.77-.36,1.16-.47.39-.11.77-.16,1.14-.16.83,0,1.49.2,1.98.61s.73.95.73,1.65c0,.78-.55,1.72-1.64,2.82-.09.08-.15.14-.19.19l-2.02,2.02h3.35v-.99h.63v1.87h-5.17v-.59l2.43-2.43c.54-.54.92-1.03,1.15-1.48s.34-.92.34-1.42c0-.54-.14-.96-.42-1.27-.28-.3-.67-.46-1.16-.46s-.91.13-1.19.38c-.28.25-.44.64-.49,1.14Z"/>
  <path id="DejaVuSerif-2e3" data-name="DejaVuSerif-2e" d="M195.82,315.23c0-.2.07-.37.2-.51s.31-.21.51-.21.36.07.5.21c.14.14.21.31.21.51s-.07.37-.21.51c-.14.14-.31.21-.5.21s-.37-.07-.51-.21c-.14-.14-.2-.31-.2-.51Z"/>
  <path id="DejaVuSerif-351" data-name="DejaVuSerif-35" d="M203.81,307.77v.88h-3.67v2.3c.19-.13.4-.22.65-.29.25-.07.53-.1.84-.1.87,0,1.55.24,2.05.72.5.48.75,1.14.75,1.97s-.25,1.51-.76,1.99c-.51.47-1.22.71-2.13.71-.37,0-.75-.05-1.13-.14-.39-.09-.78-.23-1.19-.41v-1.56h.61c.03.51.19.9.48,1.17.29.27.7.4,1.23.4.57,0,1-.19,1.3-.56.3-.37.46-.91.46-1.61s-.15-1.23-.45-1.6c-.3-.37-.74-.56-1.31-.56-.32,0-.61.06-.85.17-.25.11-.46.29-.65.53h-.46v-4.03h4.24Z"/>
  <g class="st19">
    <path class="st11" d="M240.92,300.43V23.23"/>
  </g>
  <path id="m6a72fec2874" data-name="m6a72fec287" class="st15" d="M240.92,300.43v3.5"/>
  <path id="DejaVuSerif-33" d="M233.24,308.11c.42-.16.82-.28,1.2-.36.38-.08.75-.12,1.08-.12.78,0,1.4.17,1.84.51.44.34.66.81.66,1.41,0,.48-.15.89-.46,1.21-.3.32-.73.54-1.29.66.66.09,1.17.33,1.53.72s.54.88.54,1.5c0,.75-.25,1.32-.75,1.72-.5.4-1.23.6-2.17.6-.42,0-.83-.05-1.23-.14-.4-.09-.79-.23-1.19-.41v-1.56h.6c.04.52.21.91.52,1.17.31.26.75.4,1.31.4s.98-.16,1.3-.47c.32-.32.48-.75.48-1.3,0-.63-.16-1.11-.49-1.43-.33-.32-.8-.49-1.43-.49h-.51v-.55h.27c.63,0,1.1-.13,1.41-.39.31-.26.47-.65.47-1.17,0-.47-.13-.83-.39-1.08-.26-.25-.63-.37-1.11-.37s-.86.11-1.13.34c-.27.23-.42.57-.47,1.02h-.6v-1.41Z"/>
  <path id="DejaVuSerif-2e4" data-name="DejaVuSerif-2e" d="M240.21,315.23c0-.2.07-.37.2-.51s.31-.21.51-.21.36.07.5.21c.14.14.21.31.21.51s-.07.37-.21.51c-.14.14-.31.21-.5.21s-.37-.07-.51-.21c-.14-.14-.2-.31-.2-.51Z"/>
  <path id="DejaVuSerif-302" data-name="DejaVuSerif-30" d="M246.16,315.41c.55,0,.96-.3,1.23-.9.27-.6.41-1.51.41-2.72s-.14-2.13-.41-2.73c-.27-.6-.68-.9-1.23-.9s-.96.3-1.23.9c-.27.6-.41,1.51-.41,2.73s.14,2.12.41,2.72c.27.6.68.9,1.23.9ZM246.16,315.94c-.87,0-1.55-.36-2.04-1.09-.49-.73-.73-1.75-.73-3.06s.24-2.34.73-3.07c.49-.73,1.17-1.1,2.04-1.1s1.55.37,2.04,1.1c.49.73.73,1.75.73,3.07s-.24,2.33-.73,3.06c-.49.73-1.17,1.09-2.04,1.09Z"/>
  <g class="st0">
    <path class="st11" d="M285.3,300.43V23.23"/>
  </g>
  <path id="m6a72fec2875" data-name="m6a72fec287" class="st15" d="M285.3,300.43v3.5"/>
  <path id="DejaVuSerif-331" data-name="DejaVuSerif-33" d="M277.63,308.11c.42-.16.82-.28,1.2-.36.38-.08.75-.12,1.08-.12.78,0,1.4.17,1.84.51.44.34.66.81.66,1.41,0,.48-.15.89-.46,1.21-.3.32-.73.54-1.29.66.66.09,1.17.33,1.53.72s.54.88.54,1.5c0,.75-.25,1.32-.75,1.72-.5.4-1.23.6-2.17.6-.42,0-.83-.05-1.23-.14-.4-.09-.79-.23-1.19-.41v-1.56h.6c.04.52.21.91.52,1.17.31.26.75.4,1.31.4s.98-.16,1.3-.47c.32-.32.48-.75.48-1.3,0-.63-.16-1.11-.49-1.43-.33-.32-.8-.49-1.43-.49h-.51v-.55h.27c.63,0,1.1-.13,1.41-.39.31-.26.47-.65.47-1.17,0-.47-.13-.83-.39-1.08-.26-.25-.63-.37-1.11-.37s-.86.11-1.13.34c-.27.23-.42.57-.47,1.02h-.6v-1.41Z"/>
  <path id="DejaVuSerif-2e5" data-name="DejaVuSerif-2e" d="M284.59,315.23c0-.2.07-.37.2-.51s.31-.21.51-.21.36.07.5.21c.14.14.21.31.21.51s-.07.37-.21.51c-.14.14-.31.21-.5.21s-.37-.07-.51-.21c-.14-.14-.2-.31-.2-.51Z"/>
  <path id="DejaVuSerif-352" data-name="DejaVuSerif-35" d="M292.58,307.77v.88h-3.67v2.3c.19-.13.4-.22.65-.29.25-.07.53-.1.84-.1.87,0,1.55.24,2.05.72.5.48.75,1.14.75,1.97s-.25,1.51-.76,1.99c-.51.47-1.22.71-2.13.71-.37,0-.75-.05-1.13-.14-.39-.09-.78-.23-1.19-.41v-1.56h.61c.03.51.19.9.48,1.17.29.27.7.4,1.23.4.57,0,1-.19,1.3-.56.3-.37.46-.91.46-1.61s-.15-1.23-.45-1.6c-.3-.37-.74-.56-1.31-.56-.32,0-.61.06-.85.17-.25.11-.46.29-.65.53h-.46v-4.03h4.24Z"/>
  <g class="st1">
    <path class="st11" d="M329.69,300.43V23.23"/>
  </g>
  <path id="m6a72fec2876" data-name="m6a72fec287" class="st15" d="M329.69,300.43v3.5"/>
  <path id="DejaVuSerif-34" d="M324.78,313.07v-4.27l-2.74,4.27h2.74ZM327.15,315.79h-3.65v-.57h1.29v-1.57h-3.5v-.59l3.51-5.43h1.06v5.45h1.53v.57h-1.53v1.57h1.29v.57Z"/>
  <path id="DejaVuSerif-2e6" data-name="DejaVuSerif-2e" d="M328.98,315.23c0-.2.07-.37.2-.51s.31-.21.51-.21.36.07.5.21c.14.14.21.31.21.51s-.07.37-.21.51c-.14.14-.31.21-.5.21s-.37-.07-.51-.21c-.14-.14-.2-.31-.2-.51Z"/>
  <path id="DejaVuSerif-303" data-name="DejaVuSerif-30" d="M334.93,315.41c.55,0,.96-.3,1.23-.9.27-.6.41-1.51.41-2.72s-.14-2.13-.41-2.73c-.27-.6-.68-.9-1.23-.9s-.96.3-1.23.9c-.27.6-.41,1.51-.41,2.73s.14,2.12.41,2.72c.27.6.68.9,1.23.9ZM334.93,315.94c-.87,0-1.55-.36-2.04-1.09-.49-.73-.73-1.75-.73-3.06s.24-2.34.73-3.07c.49-.73,1.17-1.1,2.04-1.1s1.55.37,2.04,1.1c.49.73.73,1.75.73,3.07s-.24,2.33-.73,3.06c-.49.73-1.17,1.09-2.04,1.09Z"/>
  <g class="st20">
    <path class="st11" d="M374.08,300.43V23.23"/>
  </g>
  <path id="m6a72fec2877" data-name="m6a72fec287" class="st15" d="M374.08,300.43v3.5"/>
  <path id="DejaVuSerif-341" data-name="DejaVuSerif-34" d="M369.17,313.07v-4.27l-2.74,4.27h2.74ZM371.53,315.79h-3.65v-.57h1.29v-1.57h-3.5v-.59l3.51-5.43h1.06v5.45h1.53v.57h-1.53v1.57h1.29v.57Z"/>
  <path id="DejaVuSerif-2e7" data-name="DejaVuSerif-2e" d="M373.36,315.23c0-.2.07-.37.2-.51s.31-.21.51-.21.36.07.5.21c.14.14.21.31.21.51s-.07.37-.21.51c-.14.14-.31.21-.5.21s-.37-.07-.51-.21c-.14-.14-.2-.31-.2-.51Z"/>
  <path id="DejaVuSerif-353" data-name="DejaVuSerif-35" d="M381.36,307.77v.88h-3.67v2.3c.19-.13.4-.22.65-.29.25-.07.53-.1.84-.1.87,0,1.55.24,2.05.72.5.48.75,1.14.75,1.97s-.25,1.51-.76,1.99c-.51.47-1.22.71-2.13.71-.37,0-.75-.05-1.13-.14-.39-.09-.78-.23-1.19-.41v-1.56h.61c.03.51.19.9.48,1.17.29.27.7.4,1.23.4.57,0,1-.19,1.3-.56.3-.37.46-.91.46-1.61s-.15-1.23-.45-1.6c-.3-.37-.74-.56-1.31-.56-.32,0-.61.06-.85.17-.25.11-.46.29-.65.53h-.46v-4.03h4.24Z"/>
  <g class="st6">
    <path class="st11" d="M418.46,300.43V23.23"/>
  </g>
  <path id="m6a72fec2878" data-name="m6a72fec287" class="st15" d="M418.46,300.43v3.5"/>
  <path id="DejaVuSerif-354" data-name="DejaVuSerif-35" d="M415.25,307.77v.88h-3.67v2.3c.19-.13.4-.22.65-.29.25-.07.53-.1.84-.1.87,0,1.55.24,2.05.72.5.48.75,1.14.75,1.97s-.25,1.51-.76,1.99c-.51.47-1.22.71-2.13.71-.37,0-.75-.05-1.13-.14-.39-.09-.78-.23-1.19-.41v-1.56h.61c.03.51.19.9.48,1.17.29.27.7.4,1.23.4.57,0,1-.19,1.3-.56.3-.37.46-.91.46-1.61s-.15-1.23-.45-1.6c-.3-.37-.74-.56-1.31-.56-.32,0-.61.06-.85.17-.25.11-.46.29-.65.53h-.46v-4.03h4.24Z"/>
  <path id="DejaVuSerif-2e8" data-name="DejaVuSerif-2e" d="M417.75,315.23c0-.2.07-.37.2-.51s.31-.21.51-.21.36.07.5.21c.14.14.21.31.21.51s-.07.37-.21.51c-.14.14-.31.21-.5.21s-.37-.07-.51-.21c-.14-.14-.2-.31-.2-.51Z"/>
  <path id="DejaVuSerif-304" data-name="DejaVuSerif-30" d="M423.71,315.41c.55,0,.96-.3,1.23-.9.27-.6.41-1.51.41-2.72s-.14-2.13-.41-2.73c-.27-.6-.68-.9-1.23-.9s-.96.3-1.23.9c-.27.6-.41,1.51-.41,2.73s.14,2.12.41,2.72c.27.6.68.9,1.23.9ZM423.71,315.94c-.87,0-1.55-.36-2.04-1.09-.49-.73-.73-1.75-.73-3.06s.24-2.34.73-3.07c.49-.73,1.17-1.1,2.04-1.1s1.55.37,2.04,1.1c.49.73.73,1.75.73,3.07s-.24,2.33-.73,3.06c-.49.73-1.17,1.09-2.04,1.09Z"/>
  <path id="DejaVuSerif-4e" d="M171.15,330.43v-.57h1.08v-6.87h-1.08v-.58h2.06l4.81,6.33v-5.75h-1.07v-.58h2.82v.58h-1.08v7.6h-.65l-5.14-6.76v6.03h1.08v.57h-2.82Z"/>
  <path id="DejaVuSerif-65" d="M186.2,327.68h-4.26v.04c0,.77.14,1.35.43,1.74s.72.59,1.28.59c.43,0,.79-.11,1.07-.34.28-.23.47-.57.58-1.01h.8c-.16.63-.45,1.1-.87,1.41-.42.32-.98.47-1.67.47-.83,0-1.5-.27-2.01-.82-.51-.55-.76-1.28-.76-2.19s.25-1.63.75-2.18c.5-.55,1.15-.83,1.96-.83.86,0,1.53.27,1.99.8.46.53.7,1.3.72,2.32ZM185.04,327.12c-.02-.67-.16-1.17-.42-1.51-.26-.34-.63-.51-1.12-.51-.45,0-.81.17-1.07.51s-.42.84-.48,1.5h3.09Z"/>
  <path id="DejaVuSerif-75" d="M190.64,324.72h1.85v5.14h.93v.57h-1.92v-1.01c-.18.38-.42.67-.71.87-.29.2-.63.3-1.01.3-.63,0-1.1-.18-1.4-.54-.3-.36-.45-.93-.45-1.69v-3.06h-.89v-.57h1.89v3.32c0,.7.08,1.17.25,1.43.17.26.47.39.91.39.46,0,.81-.17,1.05-.51.24-.34.36-.83.36-1.47v-2.6h-.86v-.57Z"/>
  <path id="DejaVuSerif-74" d="M195.02,325.3h-.87v-.57h.87v-1.77h.99v1.77h1.86v.57h-1.86v3.63c0,.48.05.79.14.93.09.14.26.2.52.2s.45-.08.56-.23c.12-.15.18-.4.19-.74h.75c-.03.52-.17.9-.42,1.14-.25.24-.64.36-1.16.36-.57,0-.97-.13-1.21-.38-.24-.25-.35-.68-.35-1.29v-3.63Z"/>
  <path id="DejaVuSerif-72" d="M203.51,324.71v1.43h-.57c-.02-.28-.1-.49-.24-.63s-.34-.21-.61-.21c-.49,0-.86.17-1.12.51-.26.34-.39.82-.39,1.45v2.61h1.14v.57h-3.02v-.57h.89v-4.58h-.95v-.56h1.93v1.02c.19-.4.44-.69.75-.88.3-.19.68-.29,1.11-.29.16,0,.33.01.51.04s.36.06.56.11Z"/>
  <path id="DejaVuSerif-69" d="M204.58,322.95c0-.16.06-.31.18-.43.12-.12.26-.18.43-.18s.31.06.43.18c.12.12.18.26.18.43s-.06.31-.18.43c-.12.12-.26.18-.43.18s-.31-.06-.43-.18c-.12-.12-.18-.26-.18-.43ZM205.84,329.87h.93v.57h-2.87v-.57h.95v-4.57h-.95v-.57h1.93v5.14Z"/>
  <path id="DejaVuSerif-6e" d="M207.48,330.43v-.57h.89v-4.57h-.95v-.57h1.93v1.02c.18-.39.42-.68.71-.88.29-.2.63-.3,1.02-.3.63,0,1.09.18,1.39.54s.45.93.45,1.69v3.06h.88v.57h-2.73v-.57h.85v-2.75c0-.7-.09-1.18-.26-1.44-.17-.26-.47-.39-.91-.39-.46,0-.81.17-1.05.5-.24.33-.36.82-.36,1.46v2.61h.86v.57h-2.74Z"/>
  <path id="DejaVuSerif-6f" d="M217.42,330.06c.53,0,.93-.21,1.2-.63.27-.42.41-1.04.41-1.85s-.14-1.43-.41-1.85c-.27-.42-.67-.63-1.2-.63s-.93.21-1.2.63-.41,1.03-.41,1.85.14,1.44.41,1.85c.27.42.67.63,1.2.63ZM217.42,330.59c-.83,0-1.5-.27-2-.82-.5-.55-.76-1.28-.76-2.19s.25-1.64.75-2.18c.5-.55,1.17-.82,2.01-.82s1.5.27,2.01.82c.5.55.75,1.28.75,2.18s-.25,1.64-.75,2.19-1.17.82-2.01.82Z"/>
  <path id="DejaVuSerif-20" d="M220.74,330.43"/>
  <path id="DejaVuSerif-45" d="M224.84,330.43v-.57h1.02v-6.87h-1.02v-.58h6.46v1.78h-.66v-1.12h-3.68v2.68h2.63v-1h.66v2.66h-.66v-1.01h-2.63v3.36h3.77v-1.12h.66v1.78h-6.54Z"/>
  <path id="DejaVuSerif-6e1" data-name="DejaVuSerif-6e" d="M232.72,330.43v-.57h.89v-4.57h-.95v-.57h1.93v1.02c.18-.39.42-.68.71-.88.29-.2.63-.3,1.02-.3.63,0,1.09.18,1.39.54s.45.93.45,1.69v3.06h.88v.57h-2.73v-.57h.85v-2.75c0-.7-.09-1.18-.26-1.44-.17-.26-.47-.39-.91-.39-.46,0-.81.17-1.05.5-.24.33-.36.82-.36,1.46v2.61h.86v.57h-2.74Z"/>
  <path id="DejaVuSerif-651" data-name="DejaVuSerif-65" d="M245.31,327.68h-4.26v.04c0,.77.14,1.35.43,1.74s.72.59,1.28.59c.43,0,.79-.11,1.07-.34.28-.23.47-.57.58-1.01h.8c-.16.63-.45,1.1-.87,1.41-.42.32-.98.47-1.67.47-.83,0-1.5-.27-2.01-.82-.51-.55-.76-1.28-.76-2.19s.25-1.63.75-2.18c.5-.55,1.15-.83,1.96-.83.86,0,1.53.27,1.99.8.46.53.7,1.3.72,2.32ZM244.14,327.12c-.02-.67-.16-1.17-.42-1.51-.26-.34-.63-.51-1.12-.51-.45,0-.81.17-1.07.51s-.42.84-.48,1.5h3.09Z"/>
  <path id="DejaVuSerif-721" data-name="DejaVuSerif-72" d="M251.12,324.71v1.43h-.57c-.02-.28-.1-.49-.24-.63s-.34-.21-.61-.21c-.49,0-.86.17-1.12.51-.26.34-.39.82-.39,1.45v2.61h1.14v.57h-3.02v-.57h.89v-4.58h-.95v-.56h1.93v1.02c.19-.4.44-.69.75-.88.3-.19.68-.29,1.11-.29.16,0,.33.01.51.04s.36.06.56.11Z"/>
  <path id="DejaVuSerif-67" d="M256.89,325.3v5.01c0,.82-.23,1.45-.68,1.9-.45.45-1.09.67-1.93.67-.38,0-.74-.03-1.08-.1-.34-.07-.67-.17-.99-.31v-1.2h.52c.06.37.22.64.46.82.24.17.58.26,1.03.26.58,0,1.01-.16,1.28-.49.27-.33.41-.84.41-1.55v-.77c-.19.36-.44.62-.74.79-.3.17-.67.25-1.11.25-.7,0-1.27-.28-1.72-.84-.45-.56-.67-1.28-.67-2.18s.22-1.62.67-2.17c.44-.56,1.02-.83,1.72-.83.44,0,.81.09,1.11.26.3.17.54.43.74.79v-.89h1.93v.57h-.95ZM255.9,327.3c0-.68-.13-1.21-.4-1.57-.26-.36-.64-.54-1.14-.54s-.89.2-1.15.6c-.26.4-.39,1-.39,1.79s.13,1.38.39,1.79c.26.4.64.61,1.15.61s.88-.18,1.14-.54c.26-.36.4-.88.4-1.57v-.56Z"/>
  <path id="DejaVuSerif-79" d="M260.53,331.48l.38-.95-2.13-5.23h-.65v-.57h2.63v.57h-.91l1.61,3.93,1.61-3.93h-.85v-.57h2.14v.57h-.64l-2.62,6.42c-.18.44-.38.75-.6.91-.22.16-.53.24-.92.24-.17,0-.34-.01-.52-.04-.18-.03-.35-.07-.53-.12v-1.09h.51c.02.24.08.42.19.52.1.11.26.16.47.16.2,0,.36-.05.48-.16.12-.11.25-.33.38-.66Z"/>
  <path id="DejaVuSerif-201" data-name="DejaVuSerif-20" d="M264.37,330.43"/>
  <path id="DejaVuSerif-451" data-name="DejaVuSerif-45" d="M268.47,330.43v-.57h1.02v-6.87h-1.02v-.58h6.46v1.78h-.66v-1.12h-3.68v2.68h2.63v-1h.66v2.66h-.66v-1.01h-2.63v3.36h3.77v-1.12h.66v1.78h-6.54Z"/>
  <path id="DejaVuSerif-202" data-name="DejaVuSerif-20" d="M275.9,330.43"/>
  <path id="DejaVuSerif-28" d="M282.9,332.15c-.87-.39-1.53-1.01-1.97-1.86-.44-.85-.67-1.91-.67-3.18s.22-2.34.67-3.18c.44-.85,1.1-1.47,1.97-1.86v.53c-.55.38-.95.91-1.19,1.6-.24.69-.36,1.66-.36,2.91s.12,2.21.36,2.9c.24.69.64,1.22,1.19,1.6v.53Z"/>
  <path id="DejaVuSerif-47" d="M290.73,324.81c-.12-.67-.39-1.16-.78-1.48-.4-.32-.95-.48-1.66-.48-.92,0-1.61.3-2.07.89s-.68,1.49-.68,2.7.23,2.07.7,2.67c.47.6,1.16.91,2.07.91.4,0,.79-.05,1.16-.15.37-.1.72-.25,1.05-.45v-2.07h-1.51v-.57h2.6v2.99c-.48.28-.99.48-1.54.62-.55.14-1.14.21-1.76.21-1.21,0-2.18-.38-2.91-1.14-.73-.76-1.09-1.76-1.09-3.02s.36-2.28,1.09-3.03c.73-.75,1.71-1.13,2.95-1.13.46,0,.93.05,1.42.16.49.11,1.01.27,1.56.48v1.9h-.6Z"/>
  <path id="DejaVuSerif-652" data-name="DejaVuSerif-65" d="M298.44,327.68h-4.26v.04c0,.77.14,1.35.43,1.74s.72.59,1.28.59c.43,0,.79-.11,1.07-.34.28-.23.47-.57.58-1.01h.8c-.16.63-.45,1.1-.87,1.41-.42.32-.98.47-1.67.47-.83,0-1.5-.27-2.01-.82-.51-.55-.76-1.28-.76-2.19s.25-1.63.75-2.18c.5-.55,1.15-.83,1.96-.83.86,0,1.53.27,1.99.8.46.53.7,1.3.72,2.32ZM297.27,327.12c-.02-.67-.16-1.17-.42-1.51-.26-.34-.63-.51-1.12-.51-.45,0-.81.17-1.07.51s-.42.84-.48,1.5h3.09Z"/>
  <path id="DejaVuSerif-56" d="M300.91,322.99l2.37,6.15,2.36-6.15h-.9v-.58h2.35v.58h-.78l-2.86,7.44h-.92l-2.85-7.44h-.8v-.58h2.92v.58h-.89Z"/>
  <path id="DejaVuSerif-29" d="M307.71,332.15v-.53c.55-.38.95-.91,1.19-1.6.24-.69.36-1.66.36-2.9s-.12-2.22-.36-2.91c-.24-.69-.64-1.22-1.19-1.6v-.53c.87.39,1.53,1.01,1.98,1.86.44.85.67,1.91.67,3.18s-.22,2.33-.67,3.18c-.44.85-1.1,1.47-1.98,1.86Z"/>
  <g class="st7">
    <path class="st11" d="M45.62,249.21h390.6"/>
  </g>
  <path id="m4e12e1c955" class="st15" d="M45.62,249.21h-3.5"/>
  <path id="DejaVuSerif-322" data-name="DejaVuSerif-32" d="M33.03,247.28h-.6v-1.43c.38-.21.77-.36,1.16-.47.39-.11.77-.16,1.14-.16.83,0,1.49.2,1.98.61s.73.95.73,1.65c0,.78-.55,1.72-1.64,2.82-.09.08-.15.14-.19.19l-2.02,2.02h3.35v-.99h.63v1.87h-5.17v-.59l2.43-2.43c.54-.54.92-1.03,1.15-1.48s.34-.92.34-1.42c0-.54-.14-.96-.42-1.27-.28-.3-.67-.46-1.16-.46s-.91.13-1.19.38c-.28.25-.44.64-.49,1.14Z"/>
  <g class="st16">
    <path class="st11" d="M45.62,195.86h390.6"/>
  </g>
  <path id="m4e12e1c9551" data-name="m4e12e1c955" class="st15" d="M45.62,195.86h-3.5"/>
  <path id="DejaVuSerif-342" data-name="DejaVuSerif-34" d="M35.46,197.32v-4.27l-2.74,4.27h2.74ZM37.82,200.04h-3.65v-.57h1.29v-1.57h-3.5v-.59l3.51-5.43h1.06v5.45h1.53v.57h-1.53v1.57h1.29v.57Z"/>
  <g class="st22">
    <path class="st11" d="M45.62,142.52h390.6"/>
  </g>
  <path id="m4e12e1c9552" data-name="m4e12e1c955" class="st15" d="M45.62,142.52h-3.5"/>
  <path id="DejaVuSerif-36" d="M35.22,146.32c.5,0,.89-.19,1.16-.56.27-.37.41-.9.41-1.6s-.14-1.23-.41-1.6c-.27-.37-.66-.56-1.16-.56s-.9.18-1.17.54c-.27.36-.4.87-.4,1.55,0,.71.14,1.26.41,1.64.27.38.66.57,1.17.57ZM33.47,142.28c.24-.27.52-.47.83-.6.31-.13.66-.2,1.04-.2.8,0,1.43.24,1.89.72.46.48.7,1.13.7,1.96s-.25,1.46-.75,1.95c-.5.49-1.17.73-2,.73-.91,0-1.6-.34-2.09-1.01-.49-.68-.73-1.64-.73-2.89,0-1.4.29-2.49.86-3.26.58-.77,1.39-1.15,2.44-1.15.28,0,.58.03.89.08s.63.13.96.24v1.32h-.61c-.04-.36-.18-.64-.41-.83s-.55-.29-.94-.29c-.69,0-1.21.26-1.55.79-.34.53-.52,1.33-.53,2.43Z"/>
  <g class="st26">
    <path class="st11" d="M45.62,89.17h390.6"/>
  </g>
  <path id="m4e12e1c9553" data-name="m4e12e1c955" class="st15" d="M45.62,89.17h-3.5"/>
  <path id="DejaVuSerif-38" d="M36.74,91.16c0-.57-.14-1.02-.43-1.33-.28-.32-.68-.48-1.2-.48s-.92.16-1.2.48c-.28.32-.43.76-.43,1.33s.14,1.02.43,1.34c.28.32.68.47,1.2.47s.92-.16,1.2-.47c.29-.32.43-.76.43-1.34ZM36.52,87.27c0-.49-.12-.87-.37-1.14-.25-.27-.59-.41-1.04-.41s-.78.14-1.03.41c-.25.27-.37.65-.37,1.14s.12.87.37,1.14c.25.27.59.41,1.03.41s.79-.14,1.04-.41c.25-.27.37-.65.37-1.14ZM35.94,89.08c.61.08,1.08.31,1.42.67.34.37.51.83.51,1.4,0,.75-.24,1.33-.71,1.74-.48.41-1.16.61-2.05.61s-1.56-.2-2.04-.61c-.48-.41-.72-.99-.72-1.74,0-.57.17-1.04.51-1.4.34-.37.82-.59,1.43-.67-.54-.1-.96-.3-1.24-.62-.29-.31-.43-.71-.43-1.2,0-.64.22-1.15.67-1.52.44-.37,1.06-.56,1.83-.56s1.39.19,1.83.56c.44.37.67.88.67,1.52,0,.49-.14.89-.43,1.2-.29.31-.7.52-1.24.62Z"/>
  <g class="st23">
    <path class="st11" d="M45.62,35.83h390.6"/>
  </g>
  <path id="m4e12e1c9554" data-name="m4e12e1c955" class="st15" d="M45.62,35.83h-3.5"/>
  <path id="DejaVuSerif-312" data-name="DejaVuSerif-31" d="M26.18,40.01v-.57h1.4v-6.67l-1.62,1.05v-.7l1.96-1.27h.74v7.6h1.4v.57h-3.87Z"/>
  <path id="DejaVuSerif-305" data-name="DejaVuSerif-30" d="M35.11,39.63c.55,0,.96-.3,1.23-.9.27-.6.41-1.51.41-2.72s-.14-2.13-.41-2.73c-.27-.6-.68-.9-1.23-.9s-.96.3-1.23.9c-.27.6-.41,1.51-.41,2.73s.14,2.12.41,2.72c.27.6.68.9,1.23.9ZM35.11,40.17c-.87,0-1.55-.36-2.04-1.09-.49-.73-.73-1.75-.73-3.06s.24-2.34.73-3.07c.49-.73,1.17-1.1,2.04-1.1s1.55.37,2.04,1.1c.49.73.73,1.75.73,3.07s-.24,2.33-.73,3.06c-.49.73-1.17,1.09-2.04,1.09Z"/>
  <path id="DejaVuSerif-41" d="M14.22,274.74v-2.94l-3.81,1.47,3.81,1.47ZM17.13,277.01h-.57v-.7l-7.45-2.86v-.9l7.45-2.86v-.79h.57v2.91h-.57v-.89l-1.76.67v3.37l1.76.67v-.88h.57v2.26Z"/>
  <path id="DejaVuSerif-70" d="M13.99,266.74h.56c.69,0,1.21-.13,1.57-.39.36-.26.54-.65.54-1.15s-.2-.89-.61-1.15c-.4-.26-1-.39-1.79-.39s-1.39.13-1.79.39c-.4.26-.6.64-.6,1.15s.18.88.54,1.15c.36.26.88.39,1.57.39ZM11.99,267.73v.95h-.57v-1.94h.89c-.36-.19-.62-.44-.79-.74-.17-.3-.26-.67-.26-1.11,0-.7.28-1.27.83-1.72.55-.44,1.28-.67,2.17-.67s1.62.22,2.18.67c.56.44.84,1.02.84,1.72,0,.44-.08.81-.25,1.11-.17.3-.44.54-.79.74h2.61v-.93h.57v2.87h-.57v-.95h-6.85Z"/>
  <path id="DejaVuSerif-701" data-name="DejaVuSerif-70" d="M13.99,259.7h.56c.69,0,1.21-.13,1.57-.39.36-.26.54-.65.54-1.15s-.2-.89-.61-1.15c-.4-.26-1-.39-1.79-.39s-1.39.13-1.79.39c-.4.26-.6.64-.6,1.15s.18.88.54,1.15c.36.26.88.39,1.57.39ZM11.99,260.69v.95h-.57v-1.94h.89c-.36-.19-.62-.44-.79-.74-.17-.3-.26-.67-.26-1.11,0-.7.28-1.27.83-1.72.55-.44,1.28-.67,2.17-.67s1.62.22,2.18.67c.56.44.84,1.02.84,1.72,0,.44-.08.81-.25,1.11-.17.3-.44.54-.79.74h2.61v-.93h.57v2.87h-.57v-.95h-6.85Z"/>
  <path id="DejaVuSerif-653" data-name="DejaVuSerif-65" d="M14.38,248.96v4.26h.04c.77,0,1.35-.14,1.74-.43s.59-.72.59-1.28c0-.43-.11-.79-.34-1.07-.23-.28-.57-.47-1.01-.58v-.8c.63.16,1.1.45,1.41.87.32.42.47.98.47,1.67,0,.83-.27,1.5-.82,2.01-.55.51-1.28.76-2.19.76s-1.63-.25-2.18-.75c-.55-.5-.83-1.15-.83-1.96,0-.86.27-1.53.8-1.99.53-.46,1.3-.7,2.32-.72ZM13.81,250.12c-.67.02-1.17.16-1.51.42-.34.26-.51.63-.51,1.12,0,.45.17.81.51,1.07s.84.42,1.5.48v-3.09Z"/>
  <path id="DejaVuSerif-61" d="M15.33,244.03h-1.21v1.27c0,.49.11.86.32,1.1.21.24.53.36.97.36.4,0,.71-.12.95-.36.23-.24.35-.57.35-.99s-.13-.74-.38-1c-.25-.25-.59-.38-.99-.38ZM13.56,243.04h3v-.88h.57v1.87h-.62c.26.22.46.47.59.76.12.29.19.62.19,1,0,.63-.17,1.14-.51,1.51-.34.37-.79.56-1.36.56s-1.05-.21-1.37-.64-.49-1.03-.49-1.8v-1.39h-.39c-.43,0-.77.13-1.01.4-.24.26-.36.63-.36,1.11,0,.39.09.71.27.94.18.23.44.38.8.43v.51h-1.15c-.15-.34-.26-.68-.33-1-.07-.32-.11-.64-.11-.95,0-.79.2-1.39.59-1.81.39-.41.96-.62,1.71-.62Z"/>
  <path id="DejaVuSerif-722" data-name="DejaVuSerif-72" d="M11.41,236.59h1.43v.57c-.28.02-.49.1-.63.24s-.21.34-.21.61c0,.49.17.86.51,1.12.34.26.82.39,1.45.39h2.61v-1.14h.57v3.02h-.57v-.89h-4.58v.95h-.56v-1.93h1.02c-.4-.19-.69-.44-.88-.75-.19-.3-.29-.68-.29-1.11,0-.16.01-.33.04-.51s.06-.36.11-.56Z"/>
  <path id="DejaVuSerif-611" data-name="DejaVuSerif-61" d="M15.33,232.21h-1.21v1.27c0,.49.11.86.32,1.1.21.24.53.36.97.36.4,0,.71-.12.95-.36.23-.24.35-.57.35-.99s-.13-.74-.38-1c-.25-.25-.59-.38-.99-.38ZM13.56,231.23h3v-.88h.57v1.87h-.62c.26.22.46.47.59.76.12.29.19.62.19,1,0,.63-.17,1.14-.51,1.51-.34.37-.79.56-1.36.56s-1.05-.21-1.37-.64-.49-1.03-.49-1.8v-1.39h-.39c-.43,0-.77.13-1.01.4-.24.26-.36.63-.36,1.11,0,.39.09.71.27.94.18.23.44.38.8.43v.51h-1.15c-.15-.34-.26-.68-.33-1-.07-.32-.11-.64-.11-.95,0-.79.2-1.39.59-1.81.39-.41.96-.62,1.71-.62Z"/>
  <path id="DejaVuSerif-6e2" data-name="DejaVuSerif-6e" d="M17.13,229.58h-.57v-.89h-4.57v.95h-.57v-1.93h1.02c-.39-.18-.68-.42-.88-.71-.2-.29-.3-.63-.3-1.02,0-.63.18-1.09.54-1.39s.93-.45,1.69-.45h3.06v-.88h.57v2.73h-.57v-.85h-2.75c-.7,0-1.18.09-1.44.26-.26.17-.39.47-.39.91,0,.46.17.81.5,1.05.33.24.82.36,1.46.36h2.61v-.86h.57v2.74Z"/>
  <path id="DejaVuSerif-63" d="M15.41,217.29c.61.14,1.07.41,1.39.81.32.4.48.91.48,1.54,0,.83-.27,1.5-.82,2-.55.5-1.28.76-2.19.76s-1.64-.25-2.19-.76c-.55-.51-.82-1.17-.82-2,0-.36.04-.72.13-1.08.08-.36.21-.72.38-1.08h1.46v.57c-.5.08-.87.24-1.09.49s-.34.61-.34,1.08c0,.53.21.94.62,1.21.41.27,1.03.41,1.85.41s1.44-.14,1.86-.41c.41-.27.62-.67.62-1.21,0-.43-.11-.77-.33-1.02-.22-.25-.56-.43-1.01-.52v-.8Z"/>
  <path id="DejaVuSerif-654" data-name="DejaVuSerif-65" d="M14.38,210.83v4.26h.04c.77,0,1.35-.14,1.74-.43s.59-.72.59-1.28c0-.43-.11-.79-.34-1.07-.23-.28-.57-.47-1.01-.58v-.8c.63.16,1.1.45,1.41.87.32.42.47.98.47,1.67,0,.83-.27,1.5-.82,2.01-.55.51-1.28.76-2.19.76s-1.63-.25-2.18-.75c-.55-.5-.83-1.15-.83-1.96,0-.86.27-1.53.8-1.99.53-.46,1.3-.7,2.32-.72ZM13.81,211.99c-.67.02-1.17.16-1.51.42-.34.26-.51.63-.51,1.12,0,.45.17.81.51,1.07s.84.42,1.5.48v-3.09Z"/>
  <path id="DejaVuSerif-203" data-name="DejaVuSerif-20" d="M17.13,210.28"/>
  <path id="DejaVuSerif-50" d="M13.04,204.07v-1.42c0-.53-.14-.94-.43-1.22-.29-.28-.71-.42-1.25-.42s-.96.14-1.25.42c-.29.28-.43.68-.43,1.22v1.42h3.36ZM17.13,206.18h-.57v-1.02h-6.87v1.02h-.58v-3.79c0-.8.2-1.44.61-1.91.41-.47.96-.7,1.65-.7s1.24.23,1.64.7c.41.47.61,1.1.61,1.91v1.68h2.94v-1.24h.57v3.35Z"/>
  <path id="DejaVuSerif-723" data-name="DejaVuSerif-72" d="M11.41,194.12h1.43v.57c-.28.02-.49.1-.63.24s-.21.34-.21.61c0,.49.17.86.51,1.12.34.26.82.39,1.45.39h2.61v-1.14h.57v3.02h-.57v-.89h-4.58v.95h-.56v-1.93h1.02c-.4-.19-.69-.44-.88-.75-.19-.3-.29-.68-.29-1.11,0-.16.01-.33.04-.51s.06-.36.11-.56Z"/>
  <path id="DejaVuSerif-6f1" data-name="DejaVuSerif-6f" d="M16.75,190.81c0-.53-.21-.93-.63-1.2-.42-.27-1.04-.41-1.85-.41s-1.43.14-1.85.41c-.42.27-.63.67-.63,1.2s.21.93.63,1.2,1.03.41,1.85.41,1.44-.14,1.85-.41c.42-.27.63-.67.63-1.2ZM17.28,190.81c0,.83-.27,1.5-.82,2-.55.5-1.28.76-2.19.76s-1.64-.25-2.18-.75c-.55-.5-.82-1.17-.82-2.01s.27-1.5.82-2.01c.55-.5,1.28-.75,2.18-.75s1.64.25,2.19.75.82,1.17.82,2.01Z"/>
  <path id="DejaVuSerif-62" d="M16.56,186.23h-7.22v.95h-.57v-1.94h3.54c-.36-.19-.62-.44-.79-.74-.17-.3-.26-.67-.26-1.11,0-.7.28-1.27.83-1.72.55-.44,1.28-.67,2.17-.67s1.62.22,2.18.67c.56.44.84,1.02.84,1.72,0,.44-.08.81-.25,1.11-.17.3-.44.54-.79.74h.89v1.94h-.57v-.95ZM14.55,185.24c.69,0,1.21-.13,1.57-.39.36-.26.54-.65.54-1.15s-.2-.89-.61-1.15c-.4-.26-1-.39-1.79-.39s-1.39.13-1.79.39c-.4.26-.6.64-.6,1.15s.18.88.54,1.15c.36.26.88.39,1.57.39h.56Z"/>
  <path id="DejaVuSerif-612" data-name="DejaVuSerif-61" d="M15.33,176.08h-1.21v1.27c0,.49.11.86.32,1.1.21.24.53.36.97.36.4,0,.71-.12.95-.36.23-.24.35-.57.35-.99s-.13-.74-.38-1c-.25-.25-.59-.38-.99-.38ZM13.56,175.09h3v-.88h.57v1.87h-.62c.26.22.46.47.59.76.12.29.19.62.19,1,0,.63-.17,1.14-.51,1.51-.34.37-.79.56-1.36.56s-1.05-.21-1.37-.64-.49-1.03-.49-1.8v-1.39h-.39c-.43,0-.77.13-1.01.4-.24.26-.36.63-.36,1.11,0,.39.09.71.27.94.18.23.44.38.8.43v.51h-1.15c-.15-.34-.26-.68-.33-1-.07-.32-.11-.64-.11-.95,0-.79.2-1.39.59-1.81.39-.41.96-.62,1.71-.62Z"/>
  <path id="DejaVuSerif-621" data-name="DejaVuSerif-62" d="M16.56,172.63h-7.22v.95h-.57v-1.94h3.54c-.36-.19-.62-.44-.79-.74-.17-.3-.26-.67-.26-1.11,0-.7.28-1.27.83-1.72.55-.44,1.28-.67,2.17-.67s1.62.22,2.18.67c.56.44.84,1.02.84,1.72,0,.44-.08.81-.25,1.11-.17.3-.44.54-.79.74h.89v1.94h-.57v-.95ZM14.55,171.64c.69,0,1.21-.13,1.57-.39.36-.26.54-.65.54-1.15s-.2-.89-.61-1.15c-.4-.26-1-.39-1.79-.39s-1.39.13-1.79.39c-.4.26-.6.64-.6,1.15s.18.88.54,1.15c.36.26.88.39,1.57.39h.56Z"/>
  <path id="DejaVuSerif-691" data-name="DejaVuSerif-69" d="M9.64,165.79c-.16,0-.31-.06-.43-.18-.12-.12-.18-.26-.18-.43s.06-.31.18-.43c.12-.12.26-.18.43-.18s.31.06.43.18c.12.12.18.26.18.43s-.06.31-.18.43c-.12.12-.26.18-.43.18ZM16.56,164.53v-.93h.57v2.87h-.57v-.95h-4.57v.95h-.57v-1.93h5.14Z"/>
  <path id="DejaVuSerif-6c" d="M16.56,161.08v-.93h.57v2.87h-.57v-.95h-7.22v.95h-.57v-1.94h7.79Z"/>
  <path id="DejaVuSerif-692" data-name="DejaVuSerif-69" d="M9.64,158.75c-.16,0-.31-.06-.43-.18-.12-.12-.18-.26-.18-.43s.06-.31.18-.43c.12-.12.26-.18.43-.18s.31.06.43.18c.12.12.18.26.18.43s-.06.31-.18.43c-.12.12-.26.18-.43.18ZM16.56,157.49v-.93h.57v2.87h-.57v-.95h-4.57v.95h-.57v-1.93h5.14Z"/>
  <path id="DejaVuSerif-741" data-name="DejaVuSerif-74" d="M11.99,155.12v.87h-.57v-.87h-1.77v-.99h1.77v-1.86h.57v1.86h3.63c.48,0,.79-.05.93-.14.14-.09.2-.26.2-.52s-.08-.45-.23-.56c-.15-.12-.4-.18-.74-.19v-.75c.52.03.9.17,1.14.42.24.25.36.64.36,1.16,0,.57-.13.97-.38,1.21-.25.24-.68.35-1.29.35h-3.63Z"/>
  <path id="DejaVuSerif-791" data-name="DejaVuSerif-79" d="M18.17,149.51l-.95-.38-5.23,2.13v.65h-.57v-2.63h.57v.91l3.93-1.61-3.93-1.61v.85h-.57v-2.14h.57v.64l6.42,2.62c.44.18.75.38.91.6.16.22.24.53.24.92,0,.17-.01.34-.04.52-.03.18-.07.35-.12.53h-1.09v-.51c.24-.02.42-.08.52-.19.11-.1.16-.26.16-.47,0-.2-.05-.36-.16-.48-.11-.12-.33-.25-.66-.38Z"/>
  <path id="DejaVuSerif-204" data-name="DejaVuSerif-20" d="M17.13,145.67"/>
  <path id="DejaVuSans-Oblique-50" d="M9.11,140.32v-2.51c0-.73.17-1.29.51-1.67.34-.38.84-.58,1.49-.58.88,0,1.57.28,2.06.85.49.57.74,1.36.74,2.38v1.36l3.22.63v1.09l-8.02-1.56ZM10,139.4l3.01.58v-1.36c0-.62-.16-1.09-.47-1.42-.32-.33-.77-.49-1.35-.49-.38,0-.67.11-.87.34-.21.22-.31.54-.31.94v1.42Z"/>
  <path id="DejaVuSans-28" d="M8.78,132.13c.82.48,1.64.84,2.44,1.07.81.23,1.62.35,2.45.35s1.64-.12,2.46-.35,1.63-.59,2.45-1.07v.86c-.84.54-1.67.94-2.48,1.2-.81.27-1.62.4-2.42.4s-1.6-.13-2.41-.4c-.81-.27-1.64-.67-2.48-1.21v-.86Z"/>
  <path id="DejaVuSans-Oblique-3bd" d="M17.13,129.6l-6.02.67v-1.06l5.05-.57c-.44-.52-.97-1.01-1.59-1.49-.46-.36-.89-.59-1.29-.68-.19-.04-.46-.05-.82-.04-.43.02-.87.17-1.34.46v-1h0c.32-.19.7-.32,1.14-.39.41-.07.75-.08,1.03-.03.7.14,1.37.51,1.99,1.12.82.8,1.43,1.45,1.85,1.97v1.05Z"/>
  <path id="DejaVuSans-Oblique-3bc" d="M20.53,125.21l-5.81-1.13v-.7l2.62.51c.05,0,.11.02.18.03.06,0,.13.01.19.01.23,0,.41-.07.54-.22.13-.15.19-.36.19-.63,0-.37-.11-.67-.32-.9-.21-.23-.53-.38-.95-.46l-2.46-.48v-.69l3.24.63s.09.02.12.02c.03,0,.07,0,.09,0,.08,0,.13-.02.17-.05s.05-.08.05-.15c0-.03,0-.06-.02-.1-.01-.04-.04-.11-.07-.19l.56.11c.06.11.1.21.13.32s.04.2.04.29c0,.17-.05.29-.16.39-.11.09-.25.14-.44.14.2.14.35.31.45.5.1.19.15.42.15.69,0,.23-.05.44-.16.61-.11.17-.25.29-.43.34l2.08.41v.7Z"/>
  <path id="DejaVuSans-2192" d="M13.44,109.08h.48l2.11,2.11-.64.64-1.25-1.25v6.55h-.91v-6.55l-1.25,1.25-.64-.64,2.11-2.11Z"/>
  <path id="DejaVuSans-Oblique-3bd1" data-name="DejaVuSans-Oblique-3bd" d="M17.13,104.75l-6.02.67v-1.06l5.05-.57c-.44-.52-.97-1.01-1.59-1.49-.46-.36-.89-.59-1.29-.68-.19-.04-.46-.05-.82-.04-.43.02-.87.17-1.34.46v-1h0c.32-.19.7-.32,1.14-.39.41-.07.75-.08,1.03-.03.7.14,1.37.51,1.99,1.12.82.8,1.43,1.45,1.85,1.97v1.05Z"/>
  <path id="DejaVuSans-Oblique-65" d="M16.45,96.55s-.08-.01-.12-.02c-.04,0-.09,0-.13,0-.31,0-.55.09-.73.27-.18.18-.27.42-.27.73,0,.34.11.65.33.91.22.26.52.46.92.6v-2.48ZM16.99,95.95v3.22c.1.02.17.03.23.03s.1,0,.14,0c.35,0,.62-.11.81-.32.19-.21.29-.52.29-.91,0-.3-.03-.59-.1-.85-.07-.27-.17-.52-.3-.75l.68.13c.1.25.18.51.22.77.05.26.08.53.08.81,0,.58-.14,1.03-.42,1.35-.28.31-.68.47-1.19.47-.44,0-.85-.08-1.22-.23-.38-.16-.71-.39-1.01-.69-.19-.19-.33-.43-.43-.7s-.15-.56-.15-.86c0-.48.14-.86.43-1.14.29-.28.67-.42,1.15-.42.12,0,.24,0,.37.02.13.01.27.04.42.07Z"/>
  <path id="DejaVuSans-29" d="M8.78,94.34v-.86c.84-.54,1.67-.94,2.48-1.2.81-.27,1.61-.4,2.41-.4s1.61.13,2.42.4c.81.27,1.64.67,2.48,1.2v.86c-.82-.48-1.64-.83-2.45-1.07-.81-.23-1.63-.35-2.46-.35s-1.64.12-2.45.35c-.81.23-1.62.59-2.44,1.07Z"/>
  <path id="DejaVuSans-d7" d="M11.22,81.07l2.47,2.46,2.45-2.46.65.64-2.46,2.47,2.46,2.46-.65.63-2.45-2.45-2.47,2.45-.65-.63,2.47-2.46-2.47-2.47.65-.64Z"/>
  <path id="DejaVuSans-31" d="M16.21,76.06v-1.77h-6.12l.39,1.93h-.99l-.39-1.92v-1.08h7.11v-1.77h.91v4.62h-.91Z"/>
  <path id="DejaVuSans-30" d="M9.82,66.93c0,.56.27.98.82,1.26.55.28,1.37.42,2.48.42s1.92-.14,2.47-.42c.55-.28.82-.7.82-1.26s-.27-.98-.82-1.26c-.55-.28-1.37-.42-2.47-.42s-1.93.14-2.48.42c-.55.28-.82.7-.82,1.26ZM8.96,66.93c0-.9.36-1.59,1.07-2.06.71-.47,1.74-.71,3.1-.71s2.38.24,3.09.71c.71.47,1.07,1.16,1.07,2.06s-.36,1.58-1.07,2.06c-.71.47-1.74.71-3.09.71s-2.39-.24-3.1-.71c-.71-.47-1.07-1.16-1.07-2.06Z"/>
  <path id="DejaVuSans-2212" d="M10.18,62.51v-4.82h.64v4.82h-.64Z"/>
  <path id="DejaVuSans-33" d="M9.89,53.75c.08-.36.24-.65.49-.85.25-.2.55-.31.91-.31.55,0,.98.19,1.29.57.3.38.45.92.45,1.62,0,.24-.02.48-.07.73-.05.25-.12.51-.21.77h-.73c.12-.21.22-.44.28-.69.06-.25.09-.51.09-.79,0-.48-.09-.84-.28-1.09s-.46-.37-.82-.37c-.33,0-.59.12-.78.35-.19.23-.28.55-.28.97v.65h-.62v-.68c0-.37-.07-.66-.22-.86s-.36-.3-.64-.3-.51.1-.66.31c-.15.2-.23.5-.23.88,0,.21.02.43.07.67.04.24.11.5.21.79h-.68c-.08-.29-.14-.56-.18-.81s-.06-.49-.06-.71c0-.58.13-1.03.39-1.37.26-.34.62-.5,1.06-.5.31,0,.57.09.79.27s.36.43.45.76Z"/>
  <path id="DejaVuSans-37" d="M7.3,51.34v-3.61h.32l5.29,2.04v.79l-4.97-1.92v2.7h-.64Z"/>
  <g class="st2">
    <path class="st12" d="M63.37,35.83l2.85,14.73,2.85,13.5,2.85,12.41,2.85,11.43,2.85,10.56,2.85,9.77,2.85,9.06,2.85,8.42,2.85,7.84,2.85,7.31,3.56,8.47,3.56,7.8,3.56,7.2,3.56,6.66,3.56,6.17,3.56,5.73,3.56,5.34,3.56,4.98,3.56,4.65,4.27,5.18,4.27,4.79,4.27,4.44,4.27,4.13,4.27,3.84,4.98,4.15,4.98,3.84,4.98,3.55,4.98,3.29,5.69,3.48,5.69,3.21,5.69,2.97,6.4,3.08,6.4,2.83,7.12,2.88,7.12,2.64,7.83,2.66,7.83,2.43,8.54,2.42,9.25,2.38,9.96,2.32,10.67,2.24,11.39,2.15,12.1,2.04,12.81,1.94,14.23,1.91,14.94,1.78,16.37,1.73,17.79,1.65,19.21,1.56,21.35,1.51,14.94.94h0"/>
  </g>
  <g class="st24">
    <path class="st8" d="M63.37,35.83l2.85,14.73,2.85,13.5,2.85,12.41,2.85,11.43,2.85,10.56,2.85,9.77,2.85,9.06,2.85,8.42,2.85,7.84,2.85,7.31,3.56,8.47,3.56,7.8,3.56,7.2,3.56,6.66,3.56,6.17,3.56,5.73,3.56,5.34,3.56,4.98,3.56,4.65,4.27,5.18,4.27,4.79,4.27,4.44,4.27,4.13,4.27,3.84,4.98,4.15,4.98,3.84,4.98,3.55,4.98,3.29,5.69,3.48,5.69,3.21,5.69,2.97,6.4,3.08,6.4,2.83,7.12,2.88,7.12,2.64,7.83,2.66,7.83,2.43,8.54,2.42,9.25,2.38,9.96,2.32,10.67,2.24,11.39,2.15,12.1,2.04,12.81,1.94,14.23,1.91,14.94,1.78,16.37,1.73,17.79,1.65,19.21,1.56,21.35,1.51,14.94.94h0"/>
  </g>
  <path class="st10" d="M45.62,300.43V23.23"/>
  <path class="st10" d="M436.22,300.43V23.23"/>
  <path class="st10" d="M45.62,300.43h390.6"/>
  <path class="st10" d="M45.62,23.23h390.6"/>
  <path class="st14" d="M281.98,203.67c-10.68,16.26-21.36,32.52-32.04,48.78l1.88,1.24c-2.89,2.89-5.79,5.77-8.68,8.66,1.5-3.8,3-7.6,4.5-11.4l1.88,1.24c10.68-16.26,21.36-32.52,32.04-48.78l.42.27Z"/>
  <path id="DejaVuSerif-Bold-54" class="st17" d="M287.3,195.86v-.65h1.06v-6.63h-2.2v1.27h-.74v-2h7.95v2h-.73v-1.27h-2.21v6.63h1.07v.65h-4.21Z"/>
  <path id="DejaVuSerif-Bold-69" class="st17" d="M294.5,188.53c0-.29.1-.53.3-.73.2-.2.45-.3.74-.3s.52.1.72.3c.2.2.3.44.3.73s-.1.52-.3.72c-.2.2-.44.3-.72.3s-.54-.1-.74-.3-.3-.44-.3-.73ZM296.58,195.21h.82v.65h-3.53v-.65h.81v-4.41h-.81v-.65h2.71v5.06Z"/>
  <path id="DejaVuSerif-Bold-6c" class="st17" d="M300.76,195.21h.82v.65h-3.53v-.65h.81v-7.06h-.81v-.64h2.71v7.71Z"/>
  <path id="DejaVuSerif-Bold-74" class="st17" d="M302.94,190.8h-.83v-.65h.83v-1.77h1.9v1.77h1.58v.65h-1.58v3.5c0,.5.04.81.12.93.08.12.22.18.43.18.23,0,.4-.08.51-.23s.17-.39.18-.71h.8c-.03.57-.19.98-.47,1.21-.28.23-.76.35-1.45.35-.78,0-1.32-.12-1.59-.37-.28-.25-.42-.7-.42-1.35v-3.5Z"/>
  <path id="DejaVuSerif-Bold-20" class="st17" d="M306.93,195.86"/>
  <path id="DejaVuSerif-Bold-50" class="st17" d="M311.27,195.86v-.65h1.03v-6.72h-1.03v-.65h4.56c.89,0,1.6.21,2.13.64.53.42.79.99.79,1.7s-.26,1.29-.79,1.72c-.53.43-1.24.64-2.12.64h-1.47v2.67h1.29v.65h-4.39ZM314.37,191.89h.6c.47,0,.84-.15,1.11-.46.28-.31.42-.73.42-1.24s-.14-.93-.41-1.23c-.28-.31-.65-.46-1.12-.46h-.6v3.4Z"/>
  <path id="DejaVuSerif-Bold-61" class="st17" d="M325.09,192.35v2.86h.82v.65h-2.72v-.73c-.25.3-.53.52-.84.67-.31.14-.66.21-1.05.21-.58,0-1.03-.16-1.35-.47-.31-.31-.47-.76-.47-1.35,0-.64.22-1.12.67-1.44.45-.32,1.13-.48,2.03-.48h1v-.34c0-.46-.11-.8-.33-1.02-.22-.22-.56-.33-1.01-.33-.38,0-.67.08-.88.23-.21.16-.35.41-.44.77h-.61v-1.23c.34-.12.69-.21,1.06-.27.37-.06.75-.09,1.15-.09,1.02,0,1.77.19,2.24.57.47.38.71.98.71,1.79ZM323.19,194.07v-1.14h-.71c-.35,0-.63.1-.82.29-.19.19-.28.47-.28.83s.07.63.21.81c.14.18.35.27.63.27s.53-.1.71-.29c.18-.19.27-.45.27-.77Z"/>
  <path id="DejaVuSerif-Bold-72" class="st17" d="M332.07,190.09v1.7h-.61c-.02-.3-.1-.53-.25-.68s-.35-.22-.62-.22c-.41,0-.74.18-.98.55-.24.37-.36.87-.36,1.52v2.26h1.04v.65h-3.75v-.65h.81v-4.41h-.87v-.65h2.77v1.02c.19-.4.43-.69.74-.88.31-.19.68-.29,1.13-.29.11,0,.25,0,.41.03.16.02.34.04.55.07Z"/>
  <path id="DejaVuSerif-Bold-611" data-name="DejaVuSerif-Bold-61" class="st17" d="M338.01,192.35v2.86h.82v.65h-2.72v-.73c-.25.3-.53.52-.84.67-.31.14-.66.21-1.05.21-.58,0-1.03-.16-1.35-.47-.31-.31-.47-.76-.47-1.35,0-.64.22-1.12.67-1.44.45-.32,1.13-.48,2.03-.48h1v-.34c0-.46-.11-.8-.33-1.02-.22-.22-.56-.33-1.01-.33-.38,0-.67.08-.88.23-.21.16-.35.41-.44.77h-.61v-1.23c.34-.12.69-.21,1.06-.27.37-.06.75-.09,1.15-.09,1.02,0,1.77.19,2.24.57.47.38.71.98.71,1.79ZM336.11,194.07v-1.14h-.71c-.35,0-.63.1-.82.29-.19.19-.28.47-.28.83s.07.63.21.81c.14.18.35.27.63.27s.53-.1.71-.29c.18-.19.27-.45.27-.77Z"/>
  <path id="DejaVuSerif-Bold-6d" class="st17" d="M345.75,191.09c.27-.38.55-.66.86-.83.31-.17.67-.26,1.08-.26.65,0,1.14.19,1.47.56.32.37.49.93.49,1.68v2.98h.82v.65h-3.4v-.65h.68v-2.7c0-.71-.05-1.16-.16-1.35-.11-.19-.31-.28-.61-.28-.34,0-.6.13-.79.39-.19.26-.28.63-.28,1.11v2.83h.68v.65h-3.27v-.65h.68v-2.7c0-.71-.06-1.16-.17-1.35-.11-.19-.31-.28-.61-.28-.34,0-.6.13-.79.39-.19.26-.28.63-.28,1.11v2.83h.68v.65h-3.39v-.65h.81v-4.41h-.81v-.65h2.71v.81c.22-.33.48-.58.76-.73.29-.15.63-.23,1.02-.23.47,0,.84.09,1.13.27s.51.45.67.82Z"/>
  <path id="DejaVuSerif-Bold-65" class="st17" d="M355.13,192.64c0-.75-.07-1.28-.21-1.58s-.38-.45-.71-.45-.56.15-.7.45c-.14.3-.21.79-.21,1.49v.1h1.84ZM357.22,193.28h-3.93v.04c0,.74.11,1.27.33,1.6.22.33.58.49,1.08.49.41,0,.74-.11,1-.33.25-.22.42-.54.49-.95h.89c-.15.65-.46,1.12-.92,1.43-.46.3-1.1.46-1.92.46-.99,0-1.75-.26-2.28-.78-.53-.52-.79-1.27-.79-2.23s.27-1.68.81-2.21c.54-.53,1.29-.8,2.26-.8s1.67.28,2.17.84c.51.56.77,1.37.81,2.45Z"/>
  <path id="DejaVuSerif-Bold-741" data-name="DejaVuSerif-Bold-74" class="st17" d="M358.81,190.8h-.83v-.65h.83v-1.77h1.9v1.77h1.58v.65h-1.58v3.5c0,.5.04.81.12.93.08.12.22.18.43.18.23,0,.4-.08.51-.23s.17-.39.18-.71h.8c-.03.57-.19.98-.47,1.21-.28.23-.76.35-1.45.35-.78,0-1.32-.12-1.59-.37-.28-.25-.42-.7-.42-1.35v-3.5Z"/>
  <path id="DejaVuSerif-Bold-651" data-name="DejaVuSerif-Bold-65" class="st17" d="M367.21,192.64c0-.75-.07-1.28-.21-1.58s-.38-.45-.71-.45-.56.15-.7.45c-.14.3-.21.79-.21,1.49v.1h1.84ZM369.3,193.28h-3.93v.04c0,.74.11,1.27.33,1.6.22.33.58.49,1.08.49.41,0,.74-.11,1-.33.25-.22.42-.54.49-.95h.89c-.15.65-.46,1.12-.92,1.43-.46.3-1.1.46-1.92.46-.99,0-1.75-.26-2.28-.78-.53-.52-.79-1.27-.79-2.23s.27-1.68.81-2.21c.54-.53,1.29-.8,2.26-.8s1.67.28,2.17.84c.51.56.77,1.37.81,2.45Z"/>
  <path id="DejaVuSerif-Bold-721" data-name="DejaVuSerif-Bold-72" class="st17" d="M375.71,190.09v1.7h-.61c-.02-.3-.1-.53-.25-.68s-.35-.22-.62-.22c-.41,0-.74.18-.98.55-.24.37-.36.87-.36,1.52v2.26h1.04v.65h-3.75v-.65h.81v-4.41h-.87v-.65h2.77v1.02c.19-.4.43-.69.74-.88.31-.19.68-.29,1.13-.29.11,0,.25,0,.41.03.16.02.34.04.55.07Z"/>
  <path id="DejaVuSerif-Bold-201" data-name="DejaVuSerif-Bold-20" class="st17" d="M375.59,195.86"/>
  <path id="DejaVuSans-Oblique-3b1" class="st17" d="M383.92,193.06v-1.24c0-.85-.31-1.27-.95-1.27-.48,0-.86.19-1.16.59-.37.49-.62,1.06-.75,1.72-.15.79-.13,1.37.06,1.75.2.38.52.57.95.57.48,0,.92-.38,1.33-1.14l.52-.97ZM383.14,189.71c1.12-.02,1.67.55,1.65,1.71,0,0,.28-.52.84-1.57h.88l-1.73,3.26-.02,1.18c0,.18.05.34.15.48.11.17.22.26.34.26h.48l-.16.84h-.6c-.34,0-.63-.15-.87-.45-.11-.15-.17-.38-.18-.7-.23.38-.55.74-.95,1.06-.19.15-.54.22-1.05.22-.84,0-1.41-.28-1.71-.82-.31-.56-.37-1.33-.18-2.32.21-1.06.58-1.84,1.13-2.32.61-.54,1.28-.82,1.99-.83Z"/>
  <path id="DejaVuSans-2248" class="st17" d="M396.87,192.51v.96c-.38.28-.72.48-1.04.6-.32.12-.65.19-1,.19-.39,0-.85-.11-1.37-.32-.04-.01-.07-.03-.09-.04-.02,0-.06-.02-.11-.04-.55-.22-1-.33-1.34-.33-.32,0-.63.07-.93.2-.31.14-.64.35-.99.65v-.96c.38-.28.72-.48,1.04-.6s.65-.19,1-.19c.39,0,.85.11,1.38.32.04.02.07.03.09.04.02,0,.06.02.11.04.55.22,1,.33,1.34.33.31,0,.61-.07.91-.2.3-.13.64-.35,1.01-.66ZM396.87,190.42v.96c-.38.28-.72.49-1.04.61-.32.12-.65.18-1,.18-.39,0-.85-.11-1.37-.32-.04-.01-.07-.03-.09-.04-.02,0-.06-.02-.11-.04-.55-.22-1-.33-1.34-.33-.32,0-.63.07-.93.2s-.64.35-.99.65v-.96c.38-.28.72-.48,1.04-.6.32-.12.65-.19,1-.19.39,0,.85.11,1.38.32.04.01.06.02.08.03.03.01.06.03.12.05.55.22,1,.33,1.34.33.31,0,.61-.07.91-.2.3-.13.64-.35,1.01-.66Z"/>
  <path id="DejaVuSans-331" data-name="DejaVuSans-33" class="st17" d="M404.64,191.54c.52.11.92.34,1.22.69.29.35.44.78.44,1.3,0,.79-.27,1.4-.82,1.84-.54.43-1.32.65-2.32.65-.34,0-.68-.03-1.04-.1-.36-.07-.72-.17-1.1-.3v-1.05c.3.18.63.31.99.4.36.09.73.13,1.12.13.68,0,1.2-.13,1.55-.4s.53-.66.53-1.17c0-.47-.17-.84-.5-1.11-.33-.27-.79-.4-1.38-.4h-.93v-.89h.98c.53,0,.94-.11,1.22-.32s.42-.52.42-.92-.15-.73-.44-.95c-.29-.22-.71-.33-1.25-.33-.3,0-.62.03-.96.1-.34.06-.71.16-1.12.3v-.97c.41-.11.8-.2,1.16-.26s.7-.09,1.02-.09c.82,0,1.48.19,1.95.56.48.37.72.88.72,1.52,0,.44-.13.82-.38,1.13s-.62.52-1.08.64Z"/>
  <path id="DejaVuSans-2e" class="st17" d="M408.35,194.5h1.13v1.36h-1.13v-1.36Z"/>
  <path id="DejaVuSans-301" data-name="DejaVuSans-30" class="st17" d="M414.17,188.56c-.56,0-.98.27-1.26.82-.28.55-.42,1.37-.42,2.48s.14,1.92.42,2.47c.28.55.7.82,1.26.82s.98-.27,1.26-.82c.28-.55.42-1.37.42-2.47s-.14-1.93-.42-2.48c-.28-.55-.7-.82-1.26-.82ZM414.17,187.7c.9,0,1.59.36,2.06,1.07.47.71.71,1.74.71,3.1s-.24,2.38-.71,3.09c-.47.71-1.16,1.07-2.06,1.07s-1.58-.36-2.06-1.07c-.47-.71-.71-1.74-.71-3.09s.24-2.39.71-3.1c.47-.71,1.16-1.07,2.06-1.07Z"/>
  <g>
    <path id="DejaVuSerif-44" d="M52.53,17.22h1.2c1.25,0,2.21-.36,2.88-1.07s1-1.74,1-3.07-.33-2.35-1-3.05c-.67-.71-1.63-1.06-2.88-1.06h-1.2v8.25ZM50,17.9v-.68h1.23v-8.25h-1.23v-.69h3.83c1.66,0,2.95.42,3.88,1.27.93.85,1.39,2.02,1.39,3.53s-.46,2.69-1.39,3.55c-.93.85-2.22,1.28-3.88,1.28h-3.83Z"/>
    <path id="DejaVuSerif-55" d="M61.7,8.97h-1.23v-.69h3.76v.69h-1.23v4.97c0,1.23.2,2.09.6,2.57.4.49,1.1.73,2.08.73s1.68-.24,2.08-.73c.4-.49.6-1.34.6-2.57v-4.97h-1.23v-.69h3.25v.69h-1.22v5.1c0,1.46-.28,2.5-.85,3.11-.56.61-1.52.91-2.87.91s-2.31-.31-2.89-.92-.86-1.64-.86-3.1v-5.1Z"/>
    <path id="DejaVuSerif-4e1" data-name="DejaVuSerif-4e" d="M71.62,17.9v-.68h1.3v-8.25h-1.3v-.69h2.47l5.77,7.59v-6.9h-1.29v-.69h3.38v.69h-1.3v9.12h-.78l-6.16-8.11v7.24h1.3v.68h-3.38Z"/>
    <path id="DejaVuSerif-452" data-name="DejaVuSerif-45" d="M83.26,17.9v-.68h1.23v-8.25h-1.23v-.69h7.75v2.14h-.79v-1.35h-4.42v3.22h3.15v-1.2h.79v3.2h-.79v-1.21h-3.15v4.03h4.53v-1.35h.79v2.14h-7.85Z"/>
    <path id="DejaVuSerif-205" data-name="DejaVuSerif-20" d="M92.16,17.9"/>
    <path id="DejaVuSerif-53" d="M97.58,17.44v-2.19h.74c.02.74.23,1.28.64,1.63.4.35,1.01.52,1.83.52.76,0,1.35-.15,1.75-.45.4-.3.6-.74.6-1.32,0-.46-.12-.82-.37-1.07-.24-.25-.75-.49-1.54-.73l-1.27-.38c-.92-.28-1.57-.63-1.94-1.04s-.56-.99-.56-1.71c0-.82.29-1.45.87-1.9.58-.45,1.39-.68,2.44-.68.45,0,.94.05,1.47.15.53.1,1.1.24,1.7.42v2.05h-.73c-.07-.68-.3-1.17-.68-1.47-.38-.3-.96-.46-1.74-.46-.68,0-1.19.14-1.55.42-.35.28-.53.68-.53,1.21,0,.46.13.82.4,1.08.27.26.83.52,1.7.78l1.19.35c.87.26,1.49.6,1.86,1,.37.41.56.95.56,1.63,0,.93-.3,1.63-.9,2.11-.6.47-1.49.71-2.67.71-.53,0-1.07-.05-1.62-.16-.55-.11-1.1-.27-1.67-.49Z"/>
    <path id="DejaVuSerif-702" data-name="DejaVuSerif-70" d="M108.11,14.14v.68c0,.82.16,1.45.47,1.89.32.43.77.65,1.38.65s1.06-.24,1.38-.73c.31-.49.47-1.2.47-2.15s-.16-1.66-.47-2.14c-.31-.48-.77-.72-1.38-.72s-1.06.22-1.38.65c-.31.43-.47,1.06-.47,1.88ZM106.92,11.74h-1.14v-.69h2.33v1.07c.23-.43.53-.75.88-.95.36-.2.8-.31,1.33-.31.84,0,1.53.33,2.06,1,.53.67.8,1.54.8,2.61s-.27,1.95-.8,2.62c-.53.67-1.22,1-2.06,1-.53,0-.97-.1-1.33-.31-.36-.2-.65-.52-.88-.95v3.13h1.12v.69h-3.45v-.69h1.14v-8.22Z"/>
    <path id="DejaVuSerif-655" data-name="DejaVuSerif-65" d="M121.01,14.6h-5.11v.05c0,.92.17,1.62.52,2.09s.86.71,1.54.71c.52,0,.95-.14,1.28-.41.33-.27.57-.68.7-1.21h.95c-.19.75-.54,1.32-1.05,1.7-.51.38-1.18.57-2.01.57-1,0-1.81-.33-2.41-.99-.61-.66-.91-1.54-.91-2.63s.3-1.95.9-2.62c.6-.66,1.38-.99,2.35-.99,1.04,0,1.83.32,2.38.96.55.64.84,1.56.86,2.78ZM119.61,13.92c-.03-.8-.2-1.4-.51-1.81-.31-.41-.76-.61-1.34-.61-.55,0-.98.2-1.29.61s-.5,1.01-.57,1.8h3.71Z"/>
    <path id="DejaVuSerif-631" data-name="DejaVuSerif-63" d="M128.45,15.85c-.17.73-.49,1.29-.97,1.67-.48.38-1.09.57-1.85.57-1,0-1.8-.33-2.4-.99-.61-.66-.91-1.54-.91-2.63s.3-1.97.91-2.63c.61-.66,1.41-.98,2.4-.98.43,0,.87.05,1.3.15.43.1.86.25,1.3.46v1.75h-.69c-.09-.6-.29-1.04-.59-1.31s-.74-.41-1.3-.41c-.64,0-1.12.25-1.45.74-.33.5-.49,1.24-.49,2.23s.16,1.73.49,2.23c.32.5.81.75,1.45.75.51,0,.92-.13,1.23-.4.31-.27.51-.67.62-1.21h.95Z"/>
    <path id="DejaVuSerif-742" data-name="DejaVuSerif-74" d="M130.48,11.74h-1.05v-.69h1.05v-2.13h1.19v2.13h2.23v.69h-2.23v4.35c0,.58.06.95.17,1.12.11.16.32.24.62.24s.53-.09.68-.27c.14-.18.22-.48.23-.89h.9c-.03.62-.2,1.08-.51,1.37-.31.29-.77.43-1.39.43-.68,0-1.17-.15-1.45-.45-.28-.3-.42-.82-.42-1.54v-4.35Z"/>
    <path id="DejaVuSerif-724" data-name="DejaVuSerif-72" d="M140.67,11.04v1.71h-.68c-.02-.34-.11-.59-.28-.76s-.41-.25-.74-.25c-.58,0-1.03.2-1.34.61-.31.4-.47.98-.47,1.74v3.13h1.37v.68h-3.63v-.68h1.07v-5.49h-1.13v-.68h2.32v1.22c.23-.48.53-.83.9-1.06.37-.23.81-.35,1.34-.35.19,0,.4.02.61.05s.44.07.67.13Z"/>
    <path id="DejaVuSerif-613" data-name="DejaVuSerif-61" d="M145.92,15.75v-1.45h-1.53c-.59,0-1.03.13-1.32.38-.29.25-.43.64-.43,1.17,0,.48.15.86.44,1.13.29.28.69.42,1.19.42s.89-.15,1.19-.46c.3-.31.46-.7.46-1.19ZM147.11,13.62v3.6h1.06v.68h-2.24v-.74c-.26.32-.57.55-.91.7-.34.15-.75.22-1.2.22-.76,0-1.36-.2-1.81-.61-.45-.4-.67-.95-.67-1.64s.26-1.26.77-1.65,1.23-.59,2.17-.59h1.66v-.47c0-.52-.16-.92-.47-1.21-.31-.29-.76-.43-1.33-.43-.47,0-.85.11-1.13.32-.28.21-.45.53-.52.95h-.61v-1.39c.41-.18.81-.31,1.2-.4.39-.09.77-.13,1.14-.13.95,0,1.67.24,2.17.71.5.47.74,1.15.74,2.05Z"/>
    <path id="DejaVuSerif-6c1" data-name="DejaVuSerif-6c" d="M151.25,17.22h1.12v.68h-3.45v-.68h1.14v-8.66h-1.14v-.68h2.33v9.35Z"/>
    <path id="DejaVuSerif-206" data-name="DejaVuSerif-20" d="M152.76,17.9"/>
    <path id="DejaVuSerif-54" d="M159.48,17.9v-.68h1.23v-8.17h-2.83v1.5h-.79v-2.27h8.54v2.27h-.79v-1.5h-2.83v8.17h1.23v.68h-3.76Z"/>
    <path id="DejaVuSerif-693" data-name="DejaVuSerif-69" d="M167.05,8.92c0-.2.07-.37.21-.52.14-.15.32-.22.52-.22s.37.07.51.22c.14.15.22.32.22.52s-.07.37-.21.52c-.14.14-.31.21-.52.21s-.38-.07-.52-.21c-.14-.14-.21-.31-.21-.52ZM168.56,17.22h1.12v.68h-3.44v-.68h1.13v-5.48h-1.13v-.69h2.32v6.17Z"/>
    <path id="DejaVuSerif-6c2" data-name="DejaVuSerif-6c" d="M172.69,17.22h1.12v.68h-3.45v-.68h1.14v-8.66h-1.14v-.68h2.33v9.35Z"/>
    <path id="DejaVuSerif-743" data-name="DejaVuSerif-74" d="M175.63,11.74h-1.05v-.69h1.05v-2.13h1.19v2.13h2.23v.69h-2.23v4.35c0,.58.06.95.17,1.12.11.16.32.24.62.24s.53-.09.68-.27c.14-.18.22-.48.23-.89h.9c-.03.62-.2,1.08-.51,1.37-.31.29-.77.43-1.39.43-.68,0-1.17-.15-1.45-.45-.28-.3-.42-.82-.42-1.54v-4.35Z"/>
    <path id="DejaVuSerif-207" data-name="DejaVuSerif-20" d="M179.51,17.9"/>
    <path id="DejaVuSerif-46" d="M184.43,17.9v-.68h1.23v-8.25h-1.23v-.69h7.88v2.14h-.79v-1.35h-4.55v3.22h3.29v-1.2h.79v3.2h-.79v-1.21h-3.29v4.14h1.54v.68h-4.07Z"/>
    <path id="DejaVuSerif-614" data-name="DejaVuSerif-61" d="M197.23,15.75v-1.45h-1.53c-.59,0-1.03.13-1.32.38-.29.25-.43.64-.43,1.17,0,.48.15.86.44,1.13.29.28.69.42,1.19.42s.89-.15,1.19-.46c.3-.31.46-.7.46-1.19ZM198.41,13.62v3.6h1.06v.68h-2.24v-.74c-.26.32-.57.55-.91.7-.34.15-.75.22-1.2.22-.76,0-1.36-.2-1.81-.61-.45-.4-.67-.95-.67-1.64s.26-1.26.77-1.65,1.23-.59,2.17-.59h1.66v-.47c0-.52-.16-.92-.47-1.21-.31-.29-.76-.43-1.33-.43-.47,0-.85.11-1.13.32-.28.21-.45.53-.52.95h-.61v-1.39c.41-.18.81-.31,1.2-.4.39-.09.77-.13,1.14-.13.95,0,1.67.24,2.17.71.5.47.74,1.15.74,2.05Z"/>
    <path id="DejaVuSerif-6c3" data-name="DejaVuSerif-6c" d="M202.55,17.22h1.12v.68h-3.45v-.68h1.14v-8.66h-1.14v-.68h2.33v9.35Z"/>
    <path id="DejaVuSerif-73" d="M204.81,17.52v-1.6h.68c.02.51.18.89.48,1.15.3.25.75.38,1.34.38.53,0,.94-.1,1.22-.3.28-.2.42-.49.42-.87,0-.3-.1-.54-.31-.73-.2-.19-.63-.38-1.29-.59l-.86-.29c-.59-.19-1.01-.42-1.28-.71-.26-.28-.4-.65-.4-1.08,0-.63.23-1.12.69-1.47.46-.36,1.1-.54,1.91-.54.36,0,.74.05,1.14.14.4.09.81.23,1.24.41v1.5h-.68c-.02-.44-.17-.79-.47-1.04-.29-.25-.69-.37-1.19-.37s-.88.09-1.13.26-.38.44-.38.79c0,.29.1.52.29.7.19.17.58.35,1.16.53l.94.29c.65.2,1.12.45,1.4.76.29.3.43.69.43,1.17,0,.65-.25,1.16-.74,1.53-.5.37-1.18.56-2.05.56-.44,0-.87-.05-1.3-.14s-.84-.24-1.26-.42Z"/>
    <path id="DejaVuSerif-694" data-name="DejaVuSerif-69" d="M212.12,8.92c0-.2.07-.37.21-.52.14-.15.32-.22.52-.22s.37.07.51.22c.14.15.22.32.22.52s-.07.37-.21.52c-.14.14-.31.21-.52.21s-.38-.07-.52-.21c-.14-.14-.21-.31-.21-.52ZM213.64,17.22h1.12v.68h-3.44v-.68h1.13v-5.48h-1.13v-.69h2.32v6.17Z"/>
    <path id="DejaVuSerif-66" d="M220.74,9.49h-.62c0-.32-.1-.57-.27-.73-.18-.17-.44-.25-.78-.25-.44,0-.75.12-.94.37-.18.24-.27.67-.27,1.3v.88h1.91v.69h-1.91v5.48h1.52v.68h-3.84v-.68h1.13v-5.48h-1.13v-.69h1.13v-.86c0-.76.2-1.34.6-1.73.4-.39.98-.59,1.75-.59.29,0,.57.03.86.08.29.05.57.13.86.24v1.3Z"/>
    <path id="DejaVuSerif-695" data-name="DejaVuSerif-69" d="M221.23,8.92c0-.2.07-.37.21-.52.14-.15.32-.22.52-.22s.37.07.51.22c.14.15.22.32.22.52s-.07.37-.21.52c-.14.14-.31.21-.52.21s-.38-.07-.52-.21c-.14-.14-.21-.31-.21-.52ZM222.74,17.22h1.12v.68h-3.44v-.68h1.13v-5.48h-1.13v-.69h2.32v6.17Z"/>
    <path id="DejaVuSerif-656" data-name="DejaVuSerif-65" d="M231.32,14.6h-5.11v.05c0,.92.17,1.62.52,2.09s.86.71,1.54.71c.52,0,.95-.14,1.28-.41.33-.27.57-.68.7-1.21h.95c-.19.75-.54,1.32-1.05,1.7-.51.38-1.18.57-2.01.57-1,0-1.81-.33-2.41-.99-.61-.66-.91-1.54-.91-2.63s.3-1.95.9-2.62c.6-.66,1.38-.99,2.35-.99,1.04,0,1.83.32,2.38.96.55.64.84,1.56.86,2.78ZM229.93,13.92c-.03-.8-.2-1.4-.51-1.81-.31-.41-.76-.61-1.34-.61-.55,0-.98.2-1.29.61s-.5,1.01-.57,1.8h3.71Z"/>
    <path id="DejaVuSerif-725" data-name="DejaVuSerif-72" d="M238.29,11.04v1.71h-.68c-.02-.34-.11-.59-.28-.76s-.41-.25-.74-.25c-.58,0-1.03.2-1.34.61-.31.4-.47.98-.47,1.74v3.13h1.37v.68h-3.63v-.68h1.07v-5.49h-1.13v-.68h2.32v1.22c.23-.48.53-.83.9-1.06.37-.23.81-.35,1.34-.35.19,0,.4.02.61.05s.44.07.67.13Z"/>
  </g>
  <path class="st4" d="M245.3,64.63h183.21c1.47,0,2.2-.73,2.2-2.2v-31.5c0-1.47-.73-2.2-2.2-2.2h-183.21c-1.47,0-2.2.73-2.2,2.2v31.5c0,1.47.73,2.2,2.2,2.2Z"/>
  <path class="st12" d="M247.5,37.64h22"/>
  <path id="DejaVuSerif-531" data-name="DejaVuSerif-53" d="M279.32,41.1v-1.83h.62c.02.62.19,1.07.53,1.36.33.29.84.44,1.53.44.64,0,1.12-.13,1.46-.38.34-.25.5-.62.5-1.1,0-.39-.1-.68-.3-.89-.2-.21-.63-.41-1.28-.61l-1.06-.32c-.77-.23-1.31-.52-1.62-.87s-.47-.82-.47-1.43c0-.68.24-1.21.72-1.58.48-.38,1.16-.56,2.04-.56.37,0,.78.04,1.22.12.44.08.92.2,1.42.35v1.71h-.61c-.06-.57-.25-.98-.57-1.23-.32-.25-.8-.38-1.45-.38-.56,0-1,.12-1.29.35-.3.23-.44.57-.44,1.01,0,.38.11.68.33.9.22.22.69.43,1.41.65l.99.3c.73.22,1.24.5,1.55.84.31.34.47.79.47,1.36,0,.78-.25,1.36-.75,1.76-.5.39-1.24.59-2.22.59-.44,0-.89-.05-1.35-.14-.46-.09-.92-.23-1.39-.41Z"/>
  <path id="DejaVuSerif-744" data-name="DejaVuSerif-74" d="M287.03,36.35h-.87v-.57h.87v-1.77h.99v1.77h1.86v.57h-1.86v3.63c0,.48.05.79.14.93.09.14.26.2.52.2s.45-.08.56-.23c.12-.15.18-.4.19-.74h.75c-.03.52-.17.9-.42,1.14-.25.24-.64.36-1.16.36-.57,0-.97-.13-1.21-.38-.24-.25-.35-.68-.35-1.29v-3.63Z"/>
  <path id="DejaVuSerif-615" data-name="DejaVuSerif-61" d="M294.64,39.69v-1.21h-1.27c-.49,0-.86.11-1.1.32-.24.21-.36.53-.36.97,0,.4.12.71.36.95.24.23.57.35.99.35s.74-.13,1-.38c.25-.25.38-.59.38-.99ZM295.63,37.92v3h.88v.57h-1.87v-.62c-.22.26-.47.46-.76.59-.29.12-.62.19-1,.19-.63,0-1.14-.17-1.51-.51-.37-.34-.56-.79-.56-1.36s.21-1.05.64-1.37,1.03-.49,1.8-.49h1.39v-.39c0-.43-.13-.77-.4-1.01-.26-.24-.63-.36-1.11-.36-.39,0-.71.09-.94.27-.23.18-.38.44-.43.8h-.51v-1.15c.34-.15.68-.26,1-.33.32-.07.64-.11.95-.11.79,0,1.39.2,1.81.59.41.39.62.96.62,1.71Z"/>
  <path id="DejaVuSerif-6e3" data-name="DejaVuSerif-6e" d="M297.27,41.49v-.57h.89v-4.57h-.95v-.57h1.93v1.02c.18-.39.42-.68.71-.88.29-.2.63-.3,1.02-.3.63,0,1.09.18,1.39.54s.45.93.45,1.69v3.06h.88v.57h-2.73v-.57h.85v-2.75c0-.7-.09-1.18-.26-1.44-.17-.26-.47-.39-.91-.39-.46,0-.81.17-1.05.5-.24.33-.36.82-.36,1.46v2.61h.86v.57h-2.74Z"/>
  <path id="DejaVuSerif-64" d="M309.68,40.92h.95v.57h-1.93v-.89c-.19.36-.44.62-.74.79-.3.17-.67.25-1.11.25-.7,0-1.27-.28-1.72-.84-.45-.56-.67-1.28-.67-2.18s.22-1.62.67-2.17c.44-.56,1.02-.83,1.72-.83.44,0,.81.09,1.11.26.3.17.54.43.74.79v-2.97h-.93v-.57h1.92v7.79ZM308.69,38.92v-.56c0-.68-.13-1.21-.4-1.57-.26-.36-.64-.54-1.14-.54s-.89.2-1.15.6c-.26.4-.39,1-.39,1.79s.13,1.38.39,1.79c.26.4.64.61,1.15.61s.88-.18,1.14-.54c.26-.36.4-.88.4-1.57Z"/>
  <path id="DejaVuSerif-616" data-name="DejaVuSerif-61" d="M315.32,39.69v-1.21h-1.27c-.49,0-.86.11-1.1.32-.24.21-.36.53-.36.97,0,.4.12.71.36.95.24.23.57.35.99.35s.74-.13,1-.38c.25-.25.38-.59.38-.99ZM316.31,37.92v3h.88v.57h-1.87v-.62c-.22.26-.47.46-.76.59-.29.12-.62.19-1,.19-.63,0-1.14-.17-1.51-.51-.37-.34-.56-.79-.56-1.36s.21-1.05.64-1.37,1.03-.49,1.8-.49h1.39v-.39c0-.43-.13-.77-.4-1.01-.26-.24-.63-.36-1.11-.36-.39,0-.71.09-.94.27-.23.18-.38.44-.43.8h-.51v-1.15c.34-.15.68-.26,1-.33.32-.07.64-.11.95-.11.79,0,1.39.2,1.81.59.41.39.62.96.62,1.71Z"/>
  <path id="DejaVuSerif-726" data-name="DejaVuSerif-72" d="M322.76,35.77v1.43h-.57c-.02-.28-.1-.49-.24-.63s-.34-.21-.61-.21c-.49,0-.86.17-1.12.51-.26.34-.39.82-.39,1.45v2.61h1.14v.57h-3.02v-.57h.89v-4.58h-.95v-.56h1.93v1.02c.19-.4.44-.69.75-.88.3-.19.68-.29,1.11-.29.16,0,.33.01.51.04s.36.06.56.11Z"/>
  <path id="DejaVuSerif-641" data-name="DejaVuSerif-64" d="M328.53,40.92h.95v.57h-1.93v-.89c-.19.36-.44.62-.74.79-.3.17-.67.25-1.11.25-.7,0-1.27-.28-1.72-.84-.45-.56-.67-1.28-.67-2.18s.22-1.62.67-2.17c.44-.56,1.02-.83,1.72-.83.44,0,.81.09,1.11.26.3.17.54.43.74.79v-2.97h-.93v-.57h1.92v7.79ZM327.55,38.92v-.56c0-.68-.13-1.21-.4-1.57-.26-.36-.64-.54-1.14-.54s-.89.2-1.15.6c-.26.4-.39,1-.39,1.79s.13,1.38.39,1.79c.26.4.64.61,1.15.61s.88-.18,1.14-.54c.26-.36.4-.88.4-1.57Z"/>
  <path id="DejaVuSerif-208" data-name="DejaVuSerif-20" d="M329.8,41.49"/>
  <path id="DejaVuSerif-501" data-name="DejaVuSerif-50" d="M336.02,37.41h1.42c.53,0,.94-.14,1.22-.43.28-.29.42-.71.42-1.25s-.14-.96-.42-1.25c-.28-.29-.68-.43-1.22-.43h-1.42v3.36ZM333.91,41.49v-.57h1.02v-6.87h-1.02v-.58h3.79c.8,0,1.44.2,1.91.61.47.41.7.96.7,1.65s-.23,1.24-.7,1.64c-.47.41-1.1.61-1.91.61h-1.68v2.94h1.24v.57h-3.35Z"/>
  <path id="DejaVuSerif-4d" d="M341.31,41.49v-.57h1.02v-6.87h-1.08v-.58h2.34l2.82,5.71,2.81-5.71h2.19v.58h-1.07v6.87h1.03v.57h-3.14v-.57h1.02v-6.2l-2.75,5.59h-.76l-2.75-5.59v6.2h1.02v.57h-2.7Z"/>
  <path id="DejaVuSerif-4e2" data-name="DejaVuSerif-4e" d="M352.5,41.49v-.57h1.08v-6.87h-1.08v-.58h2.06l4.81,6.33v-5.75h-1.07v-.58h2.82v.58h-1.08v7.6h-.65l-5.14-6.76v6.03h1.08v.57h-2.82Z"/>
  <path id="DejaVuSerif-532" data-name="DejaVuSerif-53" d="M362.61,41.1v-1.83h.62c.02.62.19,1.07.53,1.36.33.29.84.44,1.53.44.64,0,1.12-.13,1.46-.38.34-.25.5-.62.5-1.1,0-.39-.1-.68-.3-.89-.2-.21-.63-.41-1.28-.61l-1.06-.32c-.77-.23-1.31-.52-1.62-.87s-.47-.82-.47-1.43c0-.68.24-1.21.72-1.58.48-.38,1.16-.56,2.04-.56.37,0,.78.04,1.22.12.44.08.92.2,1.42.35v1.71h-.61c-.06-.57-.25-.98-.57-1.23-.32-.25-.8-.38-1.45-.38-.56,0-1,.12-1.29.35-.3.23-.44.57-.44,1.01,0,.38.11.68.33.9.22.22.69.43,1.41.65l.99.3c.73.22,1.24.5,1.55.84.31.34.47.79.47,1.36,0,.78-.25,1.36-.75,1.76-.5.39-1.24.59-2.22.59-.44,0-.89-.05-1.35-.14-.46-.09-.92-.23-1.39-.41Z"/>
  <path id="DejaVuSerif-209" data-name="DejaVuSerif-20" d="M369.12,41.49"/>
  <path id="DejaVuSerif-281" data-name="DejaVuSerif-28" d="M376.13,43.2c-.87-.39-1.53-1.01-1.97-1.86-.44-.85-.67-1.91-.67-3.18s.22-2.34.67-3.18c.44-.85,1.1-1.47,1.97-1.86v.53c-.55.38-.95.91-1.19,1.6-.24.69-.36,1.66-.36,2.91s.12,2.21.36,2.9c.24.69.64,1.22,1.19,1.6v.53Z"/>
  <path id="DejaVuSerif-551" data-name="DejaVuSerif-55" d="M378.45,34.04h-1.03v-.58h3.14v.58h-1.03v4.15c0,1.02.17,1.74.5,2.14.34.4.91.61,1.73.61s1.4-.2,1.73-.61c.33-.4.5-1.12.5-2.14v-4.15h-1.03v-.58h2.71v.58h-1.02v4.25c0,1.22-.23,2.08-.7,2.59-.47.51-1.26.76-2.39.76s-1.93-.25-2.4-.76-.72-1.37-.72-2.58v-4.25Z"/>
  <path id="DejaVuSerif-6e4" data-name="DejaVuSerif-6e" d="M386.63,41.49v-.57h.89v-4.57h-.95v-.57h1.93v1.02c.18-.39.42-.68.71-.88.29-.2.63-.3,1.02-.3.63,0,1.09.18,1.39.54s.45.93.45,1.69v3.06h.88v.57h-2.73v-.57h.85v-2.75c0-.7-.09-1.18-.26-1.44-.17-.26-.47-.39-.91-.39-.46,0-.81.17-1.05.5-.24.33-.36.82-.36,1.46v2.61h.86v.57h-2.74Z"/>
  <path id="DejaVuSerif-696" data-name="DejaVuSerif-69" d="M394.34,34.01c0-.16.06-.31.18-.43.12-.12.26-.18.43-.18s.31.06.43.18c.12.12.18.26.18.43s-.06.31-.18.43c-.12.12-.26.18-.43.18s-.31-.06-.43-.18c-.12-.12-.18-.26-.18-.43ZM395.6,40.92h.93v.57h-2.87v-.57h.95v-4.57h-.95v-.57h1.93v5.14Z"/>
  <path id="DejaVuSerif-745" data-name="DejaVuSerif-74" d="M397.97,36.35h-.87v-.57h.87v-1.77h.99v1.77h1.86v.57h-1.86v3.63c0,.48.05.79.14.93.09.14.26.2.52.2s.45-.08.56-.23c.12-.15.18-.4.19-.74h.75c-.03.52-.17.9-.42,1.14-.25.24-.64.36-1.16.36-.57,0-.97-.13-1.21-.38-.24-.25-.35-.68-.35-1.29v-3.63Z"/>
  <path id="DejaVuSerif-617" data-name="DejaVuSerif-61" d="M405.58,39.69v-1.21h-1.27c-.49,0-.86.11-1.1.32-.24.21-.36.53-.36.97,0,.4.12.71.36.95.24.23.57.35.99.35s.74-.13,1-.38c.25-.25.38-.59.38-.99ZM406.57,37.92v3h.88v.57h-1.87v-.62c-.22.26-.47.46-.76.59-.29.12-.62.19-1,.19-.63,0-1.14-.17-1.51-.51-.37-.34-.56-.79-.56-1.36s.21-1.05.64-1.37,1.03-.49,1.8-.49h1.39v-.39c0-.43-.13-.77-.4-1.01-.26-.24-.63-.36-1.11-.36-.39,0-.71.09-.94.27-.23.18-.38.44-.43.8h-.51v-1.15c.34-.15.68-.26,1-.33.32-.07.64-.11.95-.11.79,0,1.39.2,1.81.59.41.39.62.96.62,1.71Z"/>
  <path id="DejaVuSerif-727" data-name="DejaVuSerif-72" d="M413.02,35.77v1.43h-.57c-.02-.28-.1-.49-.24-.63s-.34-.21-.61-.21c-.49,0-.86.17-1.12.51-.26.34-.39.82-.39,1.45v2.61h1.14v.57h-3.02v-.57h.89v-4.58h-.95v-.56h1.93v1.02c.19-.4.44-.69.75-.88.3-.19.68-.29,1.11-.29.16,0,.33.01.51.04s.36.06.56.11Z"/>
  <path id="DejaVuSerif-792" data-name="DejaVuSerif-79" d="M415.4,42.53l.38-.95-2.13-5.23h-.65v-.57h2.63v.57h-.91l1.61,3.93,1.61-3.93h-.85v-.57h2.14v.57h-.64l-2.62,6.42c-.18.44-.38.75-.6.91-.22.16-.53.24-.92.24-.17,0-.34-.01-.52-.04-.18-.03-.35-.07-.53-.12v-1.09h.51c.02.24.08.42.19.52.1.11.26.16.47.16.2,0,.36-.05.48-.16.12-.11.25-.33.38-.66Z"/>
  <path id="DejaVuSerif-291" data-name="DejaVuSerif-29" d="M420.01,43.2v-.53c.55-.38.95-.91,1.19-1.6.24-.69.36-1.66.36-2.9s-.12-2.22-.36-2.91c-.24-.69-.64-1.22-1.19-1.6v-.53c.87.39,1.53,1.01,1.98,1.86.44.85.67,1.91.67,3.18s-.22,2.33-.67,3.18c-.44.85-1.1,1.47-1.98,1.86Z"/>
  <path class="st8" d="M247.5,53.94h22"/>
  <path id="DejaVuSerif-533" data-name="DejaVuSerif-53" d="M279.32,57.4v-1.83h.62c.02.62.19,1.07.53,1.36.33.29.84.44,1.53.44.64,0,1.12-.13,1.46-.38.34-.25.5-.62.5-1.1,0-.39-.1-.68-.3-.89-.2-.21-.63-.41-1.28-.61l-1.06-.32c-.77-.23-1.31-.52-1.62-.87s-.47-.82-.47-1.43c0-.68.24-1.21.72-1.58.48-.38,1.16-.56,2.04-.56.37,0,.78.04,1.22.12.44.08.92.2,1.42.35v1.71h-.61c-.06-.57-.25-.98-.57-1.23-.32-.25-.8-.38-1.45-.38-.56,0-1,.12-1.29.35-.3.23-.44.57-.44,1.01,0,.38.11.68.33.9.22.22.69.43,1.41.65l.99.3c.73.22,1.24.5,1.55.84.31.34.47.79.47,1.36,0,.78-.25,1.36-.75,1.76-.5.39-1.24.59-2.22.59-.44,0-.89-.05-1.35-.14-.46-.09-.92-.23-1.39-.41Z"/>
  <path id="DejaVuSerif-793" data-name="DejaVuSerif-79" d="M288.21,58.84l.38-.95-2.13-5.23h-.65v-.57h2.63v.57h-.91l1.61,3.93,1.61-3.93h-.85v-.57h2.14v.57h-.64l-2.62,6.42c-.18.44-.38.75-.6.91-.22.16-.53.24-.92.24-.17,0-.34-.01-.52-.04-.18-.03-.35-.07-.53-.12v-1.09h.51c.02.24.08.42.19.52.1.11.26.16.47.16.2,0,.36-.05.48-.16.12-.11.25-.33.38-.66Z"/>
  <path id="DejaVuSerif-6d" d="M297.75,53.19c.19-.42.43-.74.73-.95s.64-.32,1.03-.32c.6,0,1.04.19,1.34.56.29.37.44.93.44,1.68v3.06h.89v.57h-2.74v-.57h.86v-2.95c0-.58-.09-1-.26-1.25s-.46-.37-.85-.37c-.44,0-.78.17-1.01.5-.23.33-.35.82-.35,1.46v2.61h.86v.57h-2.71v-.57h.86v-2.99c0-.57-.09-.98-.26-1.22s-.46-.36-.85-.36c-.44,0-.78.17-1.01.5-.23.33-.35.82-.35,1.46v2.61h.86v.57h-2.74v-.57h.89v-4.58h-.95v-.56h1.93v1.02c.18-.38.42-.67.7-.87.28-.2.6-.3.96-.3.44,0,.81.11,1.11.33.3.22.5.53.6.94Z"/>
  <path id="DejaVuSerif-43" d="M310.24,55.67c-.24.75-.63,1.31-1.19,1.7s-1.26.58-2.11.58c-.52,0-1.01-.09-1.46-.27-.45-.18-.84-.44-1.19-.79-.4-.4-.7-.86-.9-1.37-.19-.51-.29-1.09-.29-1.73,0-1.25.36-2.25,1.08-3.02.72-.76,1.67-1.15,2.85-1.15.44,0,.9.06,1.4.17.49.11,1.03.29,1.59.52v1.85h-.61c-.13-.67-.4-1.17-.8-1.49-.4-.32-.96-.48-1.68-.48-.86,0-1.5.3-1.95.91-.44.61-.66,1.5-.66,2.68s.22,2.07.66,2.67c.44.61,1.09.91,1.95.91.6,0,1.09-.14,1.48-.43.39-.29.67-.71.84-1.28h.99Z"/>
  <path id="DejaVuSerif-2010" data-name="DejaVuSerif-20" d="M310.9,57.79"/>
  <path id="DejaVuSerif-282" data-name="DejaVuSerif-28" d="M317.91,59.5c-.87-.39-1.53-1.01-1.97-1.86-.44-.85-.67-1.91-.67-3.18s.22-2.34.67-3.18c.44-.85,1.1-1.47,1.97-1.86v.53c-.55.38-.95.91-1.19,1.6-.24.69-.36,1.66-.36,2.91s.12,2.21.36,2.9c.24.69.64,1.22,1.19,1.6v.53Z"/>
  <path id="DejaVuSerif-441" data-name="DejaVuSerif-44" d="M321.41,57.22h1c1.04,0,1.84-.3,2.4-.89s.84-1.45.84-2.56-.28-1.96-.83-2.54c-.55-.59-1.35-.88-2.4-.88h-1v6.87ZM319.3,57.79v-.57h1.02v-6.87h-1.02v-.58h3.19c1.38,0,2.46.35,3.23,1.06.77.71,1.16,1.69,1.16,2.94s-.39,2.25-1.16,2.95c-.77.71-1.85,1.06-3.23,1.06h-3.19Z"/>
  <path id="DejaVuSerif-697" data-name="DejaVuSerif-69" d="M328.58,50.31c0-.16.06-.31.18-.43.12-.12.26-.18.43-.18s.31.06.43.18c.12.12.18.26.18.43s-.06.31-.18.43c-.12.12-.26.18-.43.18s-.31-.06-.43-.18c-.12-.12-.18-.26-.18-.43ZM329.84,57.22h.93v.57h-2.87v-.57h.95v-4.57h-.95v-.57h1.93v5.14Z"/>
  <path id="DejaVuSerif-731" data-name="DejaVuSerif-73" d="M331.64,57.47v-1.33h.57c.01.43.15.74.4.96.25.21.63.32,1.12.32.44,0,.78-.08,1.02-.25.23-.17.35-.41.35-.73,0-.25-.09-.45-.26-.6-.17-.15-.53-.32-1.08-.49l-.71-.24c-.49-.16-.85-.35-1.07-.59-.22-.24-.33-.54-.33-.9,0-.52.19-.93.57-1.23.38-.3.91-.45,1.59-.45.3,0,.62.04.95.12.33.08.68.19,1.03.34v1.25h-.57c-.01-.37-.14-.66-.39-.86-.24-.21-.57-.31-.99-.31s-.73.07-.94.22-.32.37-.32.66c0,.24.08.43.24.58.16.14.48.29.97.44l.78.24c.54.17.93.38,1.17.63.24.25.36.58.36.97,0,.54-.21.97-.62,1.28-.41.31-.98.46-1.71.46-.37,0-.73-.04-1.08-.12s-.7-.2-1.05-.35Z"/>
  <path id="DejaVuSerif-732" data-name="DejaVuSerif-73" d="M337.29,57.47v-1.33h.57c.01.43.15.74.4.96.25.21.63.32,1.12.32.44,0,.78-.08,1.02-.25.23-.17.35-.41.35-.73,0-.25-.09-.45-.26-.6-.17-.15-.53-.32-1.08-.49l-.71-.24c-.49-.16-.85-.35-1.07-.59-.22-.24-.33-.54-.33-.9,0-.52.19-.93.57-1.23.38-.3.91-.45,1.59-.45.3,0,.62.04.95.12.33.08.68.19,1.03.34v1.25h-.57c-.01-.37-.14-.66-.39-.86-.24-.21-.57-.31-.99-.31s-.73.07-.94.22-.32.37-.32.66c0,.24.08.43.24.58.16.14.48.29.97.44l.78.24c.54.17.93.38,1.17.63.24.25.36.58.36.97,0,.54-.21.97-.62,1.28-.41.31-.98.46-1.71.46-.37,0-.73-.04-1.08-.12s-.7-.2-1.05-.35Z"/>
  <path id="DejaVuSerif-698" data-name="DejaVuSerif-69" d="M343.39,50.31c0-.16.06-.31.18-.43.12-.12.26-.18.43-.18s.31.06.43.18c.12.12.18.26.18.43s-.06.31-.18.43c-.12.12-.26.18-.43.18s-.31-.06-.43-.18c-.12-.12-.18-.26-.18-.43ZM344.65,57.22h.93v.57h-2.87v-.57h.95v-4.57h-.95v-.57h1.93v5.14Z"/>
  <path id="DejaVuSerif-703" data-name="DejaVuSerif-70" d="M348.09,54.65v.56c0,.69.13,1.21.39,1.57.26.36.65.54,1.15.54s.89-.2,1.15-.61c.26-.4.39-1,.39-1.79s-.13-1.39-.39-1.79c-.26-.4-.64-.6-1.15-.6s-.88.18-1.15.54c-.26.36-.39.88-.39,1.57ZM347.1,52.65h-.95v-.57h1.94v.89c.19-.36.44-.62.74-.79.3-.17.67-.26,1.11-.26.7,0,1.27.28,1.72.83.44.55.67,1.28.67,2.17s-.22,1.62-.67,2.18c-.44.56-1.02.84-1.72.84-.44,0-.81-.08-1.11-.25-.3-.17-.54-.44-.74-.79v2.61h.93v.57h-2.87v-.57h.95v-6.85Z"/>
  <path id="DejaVuSerif-618" data-name="DejaVuSerif-61" d="M357.25,56v-1.21h-1.27c-.49,0-.86.11-1.1.32-.24.21-.36.53-.36.97,0,.4.12.71.36.95.24.23.57.35.99.35s.74-.13,1-.38c.25-.25.38-.59.38-.99ZM358.24,54.22v3h.88v.57h-1.87v-.62c-.22.26-.47.46-.76.59-.29.12-.62.19-1,.19-.63,0-1.14-.17-1.51-.51-.37-.34-.56-.79-.56-1.36s.21-1.05.64-1.37,1.03-.49,1.8-.49h1.39v-.39c0-.43-.13-.77-.4-1.01-.26-.24-.63-.36-1.11-.36-.39,0-.71.09-.94.27-.23.18-.38.44-.43.8h-.51v-1.15c.34-.15.68-.26,1-.33.32-.07.64-.11.95-.11.79,0,1.39.2,1.81.59.41.39.62.96.62,1.71Z"/>
  <path id="DejaVuSerif-746" data-name="DejaVuSerif-74" d="M360.62,52.65h-.87v-.57h.87v-1.77h.99v1.77h1.86v.57h-1.86v3.63c0,.48.05.79.14.93.09.14.26.2.52.2s.45-.08.56-.23c.12-.15.18-.4.19-.74h.75c-.03.52-.17.9-.42,1.14-.25.24-.64.36-1.16.36-.57,0-.97-.13-1.21-.38-.24-.25-.35-.68-.35-1.29v-3.63Z"/>
  <path id="DejaVuSerif-699" data-name="DejaVuSerif-69" d="M364.92,50.31c0-.16.06-.31.18-.43.12-.12.26-.18.43-.18s.31.06.43.18c.12.12.18.26.18.43s-.06.31-.18.43c-.12.12-.26.18-.43.18s-.31-.06-.43-.18c-.12-.12-.18-.26-.18-.43ZM366.19,57.22h.93v.57h-2.87v-.57h.95v-4.57h-.95v-.57h1.93v5.14Z"/>
  <path id="DejaVuSerif-76" d="M370.09,57.79l-2.1-5.14h-.65v-.57h2.63v.57h-.91l1.61,3.93,1.61-3.93h-.85v-.57h2.14v.57h-.64l-2.1,5.14h-.73Z"/>
  <path id="DejaVuSerif-657" data-name="DejaVuSerif-65" d="M379.55,55.04h-4.26v.04c0,.77.14,1.35.43,1.74s.72.59,1.28.59c.43,0,.79-.11,1.07-.34.28-.23.47-.57.58-1.01h.8c-.16.63-.45,1.1-.87,1.41-.42.32-.98.47-1.67.47-.83,0-1.5-.27-2.01-.82-.51-.55-.76-1.28-.76-2.19s.25-1.63.75-2.18c.5-.55,1.15-.83,1.96-.83.86,0,1.53.27,1.99.8.46.53.7,1.3.72,2.32ZM378.38,54.47c-.02-.67-.16-1.17-.42-1.51-.26-.34-.63-.51-1.12-.51-.45,0-.81.17-1.07.51s-.42.84-.48,1.5h3.09Z"/>
  <path id="DejaVuSerif-2011" data-name="DejaVuSerif-20" d="M380.1,57.79"/>
  <path id="DejaVuSerif-4d1" data-name="DejaVuSerif-4d" d="M384.2,57.79v-.57h1.02v-6.87h-1.08v-.58h2.34l2.82,5.71,2.81-5.71h2.19v.58h-1.07v6.87h1.03v.57h-3.14v-.57h1.02v-6.2l-2.75,5.59h-.76l-2.75-5.59v6.2h1.02v.57h-2.7Z"/>
  <path id="DejaVuSerif-619" data-name="DejaVuSerif-61" d="M399.23,56v-1.21h-1.27c-.49,0-.86.11-1.1.32-.24.21-.36.53-.36.97,0,.4.12.71.36.95.24.23.57.35.99.35s.74-.13,1-.38c.25-.25.38-.59.38-.99ZM400.22,54.22v3h.88v.57h-1.87v-.62c-.22.26-.47.46-.76.59-.29.12-.62.19-1,.19-.63,0-1.14-.17-1.51-.51-.37-.34-.56-.79-.56-1.36s.21-1.05.64-1.37,1.03-.49,1.8-.49h1.39v-.39c0-.43-.13-.77-.4-1.01-.26-.24-.63-.36-1.11-.36-.39,0-.71.09-.94.27-.23.18-.38.44-.43.8h-.51v-1.15c.34-.15.68-.26,1-.33.32-.07.64-.11.95-.11.79,0,1.39.2,1.81.59.41.39.62.96.62,1.71Z"/>
  <path id="DejaVuSerif-747" data-name="DejaVuSerif-74" d="M402.6,52.65h-.87v-.57h.87v-1.77h.99v1.77h1.86v.57h-1.86v3.63c0,.48.05.79.14.93.09.14.26.2.52.2s.45-.08.56-.23c.12-.15.18-.4.19-.74h.75c-.03.52-.17.9-.42,1.14-.25.24-.64.36-1.16.36-.57,0-.97-.13-1.21-.38-.24-.25-.35-.68-.35-1.29v-3.63Z"/>
  <path id="DejaVuSerif-748" data-name="DejaVuSerif-74" d="M407.02,52.65h-.87v-.57h.87v-1.77h.99v1.77h1.86v.57h-1.86v3.63c0,.48.05.79.14.93.09.14.26.2.52.2s.45-.08.56-.23c.12-.15.18-.4.19-.74h.75c-.03.52-.17.9-.42,1.14-.25.24-.64.36-1.16.36-.57,0-.97-.13-1.21-.38-.24-.25-.35-.68-.35-1.29v-3.63Z"/>
  <path id="DejaVuSerif-658" data-name="DejaVuSerif-65" d="M416.22,55.04h-4.26v.04c0,.77.14,1.35.43,1.74s.72.59,1.28.59c.43,0,.79-.11,1.07-.34.28-.23.47-.57.58-1.01h.8c-.16.63-.45,1.1-.87,1.41-.42.32-.98.47-1.67.47-.83,0-1.5-.27-2.01-.82-.51-.55-.76-1.28-.76-2.19s.25-1.63.75-2.18c.5-.55,1.15-.83,1.96-.83.86,0,1.53.27,1.99.8.46.53.7,1.3.72,2.32ZM415.05,54.47c-.02-.67-.16-1.17-.42-1.51-.26-.34-.63-.51-1.12-.51-.45,0-.81.17-1.07.51s-.42.84-.48,1.5h3.09Z"/>
  <path id="DejaVuSerif-728" data-name="DejaVuSerif-72" d="M422.02,52.07v1.43h-.57c-.02-.28-.1-.49-.24-.63s-.34-.21-.61-.21c-.49,0-.86.17-1.12.51-.26.34-.39.82-.39,1.45v2.61h1.14v.57h-3.02v-.57h.89v-4.58h-.95v-.56h1.93v1.02c.19-.4.44-.69.75-.88.3-.19.68-.29,1.11-.29.16,0,.33.01.51.04s.36.06.56.11Z"/>
  <path id="DejaVuSerif-292" data-name="DejaVuSerif-29" d="M422.8,59.5v-.53c.55-.38.95-.91,1.19-1.6.24-.69.36-1.66.36-2.9s-.12-2.22-.36-2.91c-.24-.69-.64-1.22-1.19-1.6v-.53c.87.39,1.53,1.01,1.98,1.86.44.85.67,1.91.67,3.18s-.22,2.33-.67,3.18c-.44.85-1.1,1.47-1.98,1.86Z"/>
</svg>